<svg xmlns="http://www.w3.org/2000/svg" width="165" height="87"><g fill="none" fill-rule="evenodd"><path fill="#F0F0F0" d="M117.5 10L153 30.5l-17 29.44-35.5-20.5z"/><path fill="#FFF" d="M120.88 39.36l.42.66.79.03 25.92 1.1.12-2.99-25.92-1.1 1.2.69-13.91-21.9-2.53 1.62z"/><path fill="#BBB" d="M121.88 36.36l.42.66.79.03 25.92 1.1.12-2.99-25.92-1.1 1.2.69-13.91-21.9-2.53 1.62z"/><path fill="#BCBCBC" d="M98.47 35.77l36.36 21 17.5-30.3-36.36-21-17.5 30.3zM117.97 2l36.36 21a4 4 0 0 1 1.47 5.47l-17.5 30.3a4 4 0 0 1-5.47 1.47l-36.36-21A4 4 0 0 1 95 33.77l17.5-30.3A4 4 0 0 1 117.97 2z"/><path fill="#FFF" d="M25.91 45.53l80.35-15.61 7.75 39.85L33.66 85.4z"/><path fill="#78ACFF" d="M29.72 49.63l78.53-15.27 6.87 35.34-78.53 15.26z"/><path stroke="#FFF" stroke-width="3" d="M26.54 60.97l81.48-15.84"/><path fill="#4285F4" d="M25.65 43.86l78.51-15.26a4 4 0 0 1 4.7 3.17l7.45 38.27-86.39 16.8-7.44-38.28a4.01 4.01 0 0 1 3.17-4.7zm85.98 23.1l-6.7-34.43L26.43 47.8l6.67 34.36 78.54-15.2z"/><circle cx="71.107" cy="58.826" r="3" fill="#FFF" transform="rotate(-11 71.107 58.826)"/><path fill="#4285F4" d="M78.9 26.85l1.44 7.4a2.5 2.5 0 0 0 4.9-.95l-1.9-9.82a2.5 2.5 0 0 0-2.93-1.98l-32.42 6.3a2.5 2.5 0 0 0-1.98 2.93l1.91 9.82a2.5 2.5 0 0 0 4.9-.95l-1.42-7.38 27.5-5.37zm29.4 17.75l-.57-2.94L26.26 57.5l.57 2.94L108.3 44.6zM69.68 60.77a3 3 0 1 0-1.15-5.89 3 3 0 0 0 1.15 5.9z"/><path fill="#FC0" d="M32.24 27.4l4.91.86a4 4 0 0 0 4.64-3.25l2.43-13.77a4.01 4.01 0 0 0-3.25-4.64L7.5.7a4 4 0 0 0-4.64 3.25L.43 17.72a4.01 4.01 0 0 0 3.25 4.64l16.38 2.89 8.47 9.74c1.09 1.24 2.2.93 2.49-.7l1.22-6.9z"/><path fill="#FFF" d="M12.38 8.88l1.86.32-1.35 7.63-1.85-.33-2.25-5.34-.85 4.8-1.85-.33L7.43 8l1.86.33 2.25 5.34.84-4.8zm8.2 1.44l-.25 1.4-2.75-.48-.29 1.64 2.43.43-.25 1.4-2.43-.42-.31 1.76 2.75.49-.25 1.4-4.6-.8 1.34-7.63 4.6.81zm10.14 1.81l2 .35-3.47 7.23-2.13-.37-.48-5.06-2.17 4.59-2.12-.37-.82-7.99 1.98.35.36 5.7 2.32-5.23 2.1.37.35 5.62 2.08-5.19zm4.73 2.42c-.17.1-.27.26-.31.5-.05.22-.01.42.1.59.11.16.27.3.48.42.2.11.44.23.7.34.26.12.51.25.76.4.25.14.48.3.67.49.2.18.34.42.43.7.09.3.1.62.04.99a2.16 2.16 0 0 1-1.08 1.51c-.6.37-1.33.47-2.19.32a3.3 3.3 0 0 1-1.96-.98 2.13 2.13 0 0 1-.48-1.9l1.98.36c-.06.61.2.97.77 1.07a.9.9 0 0 0 .66-.1.71.71 0 0 0 .32-.5c.04-.21 0-.4-.1-.56-.12-.17-.28-.3-.49-.42-.2-.12-.44-.24-.7-.36a7.56 7.56 0 0 1-.76-.4 4 4 0 0 1-.66-.48c-.2-.18-.34-.42-.43-.7-.1-.3-.1-.62-.04-.98a2.1 2.1 0 0 1 1.09-1.56c.6-.33 1.31-.43 2.13-.28.82.14 1.45.44 1.89.9.44.47.6 1.1.48 1.9l-2.01-.35c.01-.28-.04-.5-.16-.68a.78.78 0 0 0-.53-.32.87.87 0 0 0-.6.08z"/><circle cx="155.5" cy="25.5" r="9.5" fill="#FF5353"/><path fill="#FFF" d="M152.3 29.2l4.07-7.04-1.29-.75.9-1.56 3.03 1.75-4.97 8.6z"/></g></svg>