<svg xmlns="http://www.w3.org/2000/svg" width="90" height="125" viewBox="0 0 90 125">
  <g fill="none" transform="translate(-29 -12)">
    <rect width="150" height="150" opacity=".2"/>
    <path fill="#182F57" d="M28.1034483,0.171703297 C28.0323672,0.180916655 27.9827276,0.330064492 27.8502155,0.311212225 C27.7854897,0.302003777 27.5751672,1.01695261 27.5431034,1.09997424 C27.4493241,1.3427955 27.2769293,1.58237397 27.1767241,1.76532452 C27.0135103,2.06331593 26.8789155,2.10300343 26.6918103,2.31262878 C26.5673534,2.45206645 26.4083983,2.55608585 26.2661638,2.67749828 C26.2558448,2.68630649 26.2639845,2.67647562 26.1422414,2.91895604 C26.0133345,3.17570845 25.8740621,3.49582847 25.7758621,3.70771806 C25.6475534,3.98457486 25.6256586,4.23931147 25.5334052,4.56086882 C25.4614931,4.81152266 25.4430534,5.17463084 25.4094828,5.40865385 C25.3746069,5.65177919 25.2918983,5.91429825 25.2262931,6.19741587 C25.1088207,6.70436504 25.5828862,6.34807847 25.6573276,6.37985062 C25.7160914,6.40493183 26.0172414,5.5934126 26.018319,5.5910886 C26.0991259,5.4167263 26.1106172,5.00704447 26.1422414,4.80232658 C26.1719586,4.60996016 26.2348,4.25999674 26.2661638,4.07258757 C26.3143345,3.78475412 26.5676379,3.60156353 26.6918103,3.40723729 C27.0331121,2.87311641 26.8525603,3.45702215 27.0581897,3.52528331 C27.1297069,3.54902404 27.5480724,3.7247215 27.6670259,3.7721068 C27.9893931,3.90052215 27.7575,3.35054688 27.7855603,3.22480254 C27.8593948,2.89391037 27.621681,2.64554138 27.5431034,2.37165179 C27.5415552,2.36625773 27.5392,2.36581353 27.5377155,2.36092033 C27.5397414,2.25884959 27.5431034,2.1666669 27.5431034,2.01214801 C27.7336431,1.8540194 27.8265155,1.60280924 27.96875,1.40045501 C28.0842069,1.23619609 28.4519362,1.06791089 28.5829741,0.9765625 C28.7690828,0.846822974 28.3774586,0.572589457 28.2758621,0.370235234 C28.1956121,0.210395021 28.1460966,0.166175285 28.1034483,0.171703297 Z M28.9762931,4.44818853 C28.5092483,4.43914457 28.9122845,5.31958534 28.9116379,5.3228022 C28.8372759,5.69308087 29.4920362,6.18981181 29.6012931,6.35302198 C29.8343276,6.70113359 29.7105638,7.11476168 29.7737069,7.55494505 C29.8395017,8.01361659 29.7737069,8.41808585 29.7737069,8.75686813 C29.7737069,9.16233001 30.224781,9.15616999 30.549569,9.44368132 C30.8502966,9.70989269 31.2059293,9.85964389 31.4978448,10.0446429 C31.8055966,10.2396781 31.6234172,10.9200252 31.6702586,11.2465659 C31.7556034,11.8415168 31.361369,11.8617995 31.1530172,12.2767857 C31.0073414,12.566937 30.3571672,12.5409758 30.1185345,12.6201923 C29.7456,12.7439916 29.3442241,12.9760936 28.9978448,13.1353022 C28.5952293,13.320359 28.523181,13.6670984 28.3081897,13.907967 C28.0667069,14.178516 28.5380741,14.5947802 28.6530172,14.9381868 C28.7381414,15.1925069 29.5683655,14.6343286 29.6875,14.5947802 C30.0380586,14.4784083 30.3873759,14.1512399 30.6357759,13.9938187 C30.7832414,13.9003638 30.9806034,14.0510531 31.1530172,14.0796703 C31.4990086,14.1370979 30.750719,14.6520141 30.549569,14.9381868 C30.2654638,15.3423798 30.1678069,15.5356267 29.9461207,15.8825549 C29.7068086,16.2570673 30.3560862,16.4269231 30.4633621,16.5693681 C30.5757517,16.7186041 31.2442569,16.6400652 31.4116379,16.6552198 C31.6747862,16.6790436 31.9729069,17.2141758 32.1012931,17.342033 C32.5173707,17.7563959 32.1561397,17.9974691 32.1875,18.3722527 C32.2138586,18.6872476 31.5553155,18.3150189 31.2392241,18.2864011 C30.2735414,18.1989732 31.3692207,18.2216707 30.7219828,18.543956 C30.3639966,18.7222115 31.0093397,19.2880031 31.1530172,19.6600275 C31.4015293,20.3034959 31.5258207,19.9900429 31.9288793,20.3468407 C32.0268724,20.4335869 32.9923121,20.6727026 33.049569,20.6902473 C33.4995931,20.8281456 33.7202724,20.9471463 34.1702586,21.1195055 C34.61885,21.291329 34.8983534,21.6029018 35.2047414,21.8063187 C35.5285328,22.0212895 35.7173534,22.444442 35.8943966,22.6648352 C36.1255328,22.9525635 36.1743207,23.2781302 36.325431,23.6092033 L36.7564655,24.5535714 C36.9157276,24.9025052 37.1388052,25.1519145 37.3599138,25.4979396 C37.4264828,25.6021154 37.5073052,25.6986161 37.5915948,25.7930546 C37.4836621,25.7393853 37.3715552,25.6901116 37.2844828,25.6428142 C37.0775759,25.5304207 36.9758724,25.3301099 36.8534483,25.2081902 C36.755231,25.1103777 36.6660983,24.9665728 36.5247845,24.778932 C36.3334034,24.5248077 36.2117948,24.3449794 36.09375,24.1833362 C35.9618759,24.0027576 35.6978448,23.8279533 35.549569,23.6950549 C35.3854034,23.5479155 35.1863259,23.4455872 35.0053879,23.319454 C34.8843707,23.235091 34.7277017,22.8795209 34.6282328,22.7238582 L34.2456897,22.1282624 C34.1183431,21.9289715 34.0282121,21.9426219 33.8685345,21.8063187 C33.6848155,21.6494952 33.4385017,21.631796 33.3243534,21.5863238 C32.9955379,21.45534 32.9732224,21.5576305 32.6724138,21.5326666 C32.4057948,21.5105409 32.2902724,21.6005666 32.0204741,21.6453468 C31.7974379,21.6823678 31.5606897,21.7845862 31.3146552,21.859976 C30.9956345,21.9577318 30.8459414,21.8292153 30.5010776,21.8063187 C30.1884845,21.7855649 30.1167793,21.6848455 29.7952586,21.5863238 C29.6058672,21.5282898 29.4452259,21.1941604 29.3642241,21.1034083 C29.1228948,20.8330323 29.2489534,20.9703743 29.0355603,20.7224416 C28.8043638,20.4538255 28.7033948,20.6139646 28.3836207,20.5078125 C28.21895,20.453149 27.8940397,20.7489114 27.731681,20.8297562 C27.353019,21.018307 27.570431,21.1295295 27.4084052,21.425352 C27.3382879,21.5533723 27.2176931,22.1429413 27.1928879,22.2355769 C27.1809483,22.2801683 26.8290448,22.6871635 26.7564655,22.7775155 C26.5859017,22.9898403 26.6870828,23.2665556 26.6487069,23.5340831 C26.6224603,23.7170553 26.5656017,24.0468458 26.6487069,24.344308 C26.9314741,25.3564286 26.4933897,25.4834959 26.481681,25.6964715 C26.1613138,25.5836968 25.6789966,25.2351648 25.6142241,25.154533 C25.4969138,25.0084993 25.3647569,24.7996188 25.237069,24.6179602 C25.0678,24.3771429 24.6257069,24.850067 24.53125,24.8862466 C24.3274793,24.964296 24.4486155,25.4676734 24.4234914,25.6428142 C24.3956259,25.8370639 24.6884914,26.1759959 24.7467672,26.2920673 C24.8510552,26.4997819 24.782481,26.8664921 24.8006466,27.1559495 C24.821269,27.4845347 24.6209897,27.6622819 24.53125,27.9125172 C24.4367586,28.1760045 24.1476828,28.1815161 23.987069,28.2934839 C23.7596897,28.4519935 23.7542793,28.1874674 23.4967672,28.073489 C23.4499241,28.0527558 23.2029828,27.5858654 23.1734914,27.5369162 L22.8502155,26.9949777 C22.7722948,26.8656439 22.5085172,26.6128211 22.4137931,26.5066964 C22.2196552,26.289193 22.6666776,25.9472785 22.6831897,25.9111006 C22.7850276,25.6879825 23.0822207,25.6259959 23.28125,25.4818424 C23.4480931,25.3610027 23.0307517,25.1557332 22.9040948,24.9935611 C22.7174052,24.7545192 22.6525121,24.6029121 22.5215517,24.3979653 C22.4142569,24.2300532 22.4857655,24.0005804 22.4676724,23.8023695 C22.439881,23.4979258 22.0894483,23.4310697 21.9773707,23.319454 C21.8671466,23.2096841 21.4900155,23.2825326 21.2715517,23.2657967 C21.0840517,23.2514337 20.8148724,23.2657967 20.5657328,23.2657967 C20.2836741,23.2657967 20.1784759,23.3243029 19.8599138,23.3731113 C19.7106224,23.3959839 19.2858121,23.1250155 19.1002155,23.0458019 C18.8898621,23.0674227 18.5835879,23.3057349 18.3405172,23.4267685 C18.1708707,23.5112431 17.9276103,23.6510628 17.7478448,23.7487122 C17.4142138,23.9299433 17.400181,23.7146257 17.2036638,23.6950549 C17.0313293,23.6778932 16.8157103,23.4283637 16.6594828,23.319454 C16.4229862,23.1545879 16.2912466,23.319454 16.1153017,23.319454 C15.8833603,23.319454 15.548,23.4593544 15.4633621,23.4804258 C15.135369,23.5620862 15.0245828,23.6790488 14.8706897,23.7487122 C14.6642966,23.8421411 14.6505879,24.1460989 14.5420259,24.344308 C14.5241241,24.37699 13.9547155,24.4408963 13.8900862,24.4516226 C13.6509534,24.4913152 13.770481,24.647567 13.6206897,24.8862466 C13.5834483,24.9455872 13.927581,25.3500515 13.9439655,25.3745278 C14.1918586,25.7448334 13.9156724,25.6562981 13.8900862,25.9111006 C13.870769,26.1034804 13.4974224,26.0337809 13.3512931,26.0774382 C13.1305276,26.1433946 13.0139414,26.2096772 12.8071121,26.2920673 C12.57135,26.3859839 12.7047983,26.705 12.6454741,26.9413204 C12.6018207,27.1152095 12.5990086,27.4375738 12.5862069,27.5905735 C12.563869,27.857524 12.9816224,27.6965058 13.1842672,27.7515453 C13.4843069,27.8330374 13.5404741,27.7784203 13.8900862,27.8052026 C14.1320362,27.823738 14.5138776,27.8999502 14.5959052,27.9125172 C14.9223966,27.9625395 14.9891276,28.0313599 15.3017241,28.1271463 C15.6494638,28.2337019 15.6639362,28.3398025 15.9536638,28.508113 C16.2109241,28.6575635 16.1584103,28.7971034 16.3362069,29.0500515 C16.4654966,29.2339904 16.4749241,29.5105357 16.4978448,29.5866243 C16.5873034,29.8835869 16.1788707,29.7091003 16.0614224,29.7529619 C15.8110534,29.8464629 15.5327793,29.5070879 15.3556034,29.4256525 C15.1448621,29.3287878 15.1730931,29.0621377 15.0862069,28.8890797 C14.8743414,28.4670965 14.8754793,28.8890797 14.8168103,28.8890797 C14.7151017,28.8890797 14.7639948,29.5556851 14.7575431,29.6456473 C14.7406759,29.880807 14.6905897,30.0844145 14.6497845,30.3485577 C14.6145672,30.576523 14.5444845,30.8029791 14.4881466,31.0461023 C14.4231207,31.326717 14.3907741,31.4393458 14.3265086,31.6953554 C14.2648621,31.940922 14.2589552,32.1716518 14.21875,32.4519231 C14.1885776,32.6622596 14.3366741,32.9270467 14.3803879,33.1011762 C14.4636879,33.4330082 14.4876741,33.462694 14.5420259,33.6431147 C14.6252207,33.9192926 14.5177138,33.8905975 14.4881466,34.1850532 C14.470631,34.3594729 14.0774414,34.5382435 14.0517241,34.5606542 C13.8599397,34.7277747 13.6880897,34.9281576 13.5668103,35.0489354 C13.404681,35.2103966 13.2561793,35.6116071 13.2381466,35.6445313 C13.0912828,35.9126734 13.0904931,36.1890642 13.0765086,36.2401271 C13.0131828,36.4713633 12.969631,36.7067205 12.9148707,36.9430374 C12.8634207,37.1650687 12.8309672,37.5333087 12.8071121,37.6996051 C12.7686776,37.9675343 12.614181,38.1104979 12.5323276,38.2898352 C12.3591069,38.6693475 12.5068,38.4095999 12.424569,38.7781164 C12.3477517,39.1223626 12.424569,39.0009427 12.424569,39.3200549 C12.424569,39.5851717 12.2907534,39.3962054 12.0474138,39.5346841 C11.9460241,39.5923815 11.6571672,39.4649983 11.4493534,39.4273695 C11.3165448,39.4033225 11.008081,39.2826734 10.7974138,39.2127404 C10.5215897,39.1211779 10.39915,39.1801356 10.1454741,39.1590831 C9.79111379,39.1296738 9.71478966,39.1590831 9.49353448,39.1590831 C9.01033103,39.1590831 9.52754828,39.4300618 9.54741379,39.5883413 C9.56963103,39.7653451 9.8033,39.8431748 9.9299569,39.969308 C10.140931,40.1794128 9.77967586,40.386238 9.71443966,40.5649038 C9.6287,40.7997133 9.48148793,40.9587723 9.33189655,41.2141569 C9.21041034,41.4215608 9.33189655,41.5286607 9.33189655,41.804387 C9.33189655,42.0128073 9.68691034,42.0805649 9.82219828,42.1853537 C10.0744224,42.3807212 10.3623276,42.1443905 10.5280172,42.1316964 C10.6724948,42.1206284 10.9987862,41.8706061 11.1206897,41.804387 C11.4040224,41.6504791 11.5397828,42.2217531 11.5571121,42.239011 C11.6098638,42.2915453 11.5213276,42.3815642 11.5032328,42.4536401 C11.4947914,42.4872665 11.5083379,42.4434736 11.4493534,42.5609547 C11.3722621,42.7145038 11.5302121,42.8347373 11.6109914,43.1028932 C11.6817086,43.3376408 11.8215276,43.516863 11.8857759,43.6448317 C11.9839741,43.840419 12.3057759,43.8729791 12.4784483,43.9667754 C12.4820245,43.9687174 12.4856429,43.9702747 12.4892241,43.9721411 L12.4892241,44.1706731 C12.4744683,44.2897184 12.4237112,44.6599983 12.4030172,44.8145604 C12.3763086,45.0140488 12.3416052,45.2426717 12.3168103,45.415522 C12.2833931,45.6484736 12.1878793,45.7493595 12.1012931,45.9735577 C12.0327759,46.1509684 11.7517569,46.1950738 11.6271552,46.2740385 C11.4896086,46.3612071 11.3344,46.3005426 11.1530172,46.3169643 C10.9615655,46.3342977 10.7973172,46.5236006 10.6357759,46.6174451 C10.4560172,46.7218716 10.3814793,46.8988324 10.2478448,47.0467033 C10.1053155,47.2044162 10.0321276,47.3842926 9.94612069,47.5188874 C9.8169931,47.720965 9.68842069,47.8325567 9.55818966,47.9910714 C9.45831552,48.1126374 9.12373621,48.1241981 8.99784483,48.1627747 C8.76158103,48.2351717 8.82512931,48.2583328 8.60991379,48.3774038 C8.51438793,48.4302541 8.9693069,48.7750841 8.99784483,48.8066621 C9.12112069,48.9430701 9.20656379,49.0739097 9.29956897,49.1929945 C9.41797241,49.3445999 9.26931552,49.5545433 9.25646552,49.7081044 C9.2422931,49.8774828 9.1304569,50.0845707 9.08405172,50.2232143 C9.01446724,50.4311092 8.86190172,50.555067 8.73922414,50.7383242 C8.64632414,50.8770999 8.546,51.0462071 8.5237069,51.0817308 C8.42019483,51.2466672 8.05846207,51.1530117 7.96336207,51.1675824 C7.92957414,51.1727593 7.61016897,50.8861916 7.53232759,50.8241758 C7.29797103,50.6374639 7.14581207,50.9130048 6.97198276,50.9529533 C6.85927741,50.9788547 6.63526759,51.3255391 6.58405172,51.3822115 C6.38095397,51.6069454 6.25496293,51.4641449 6.06681034,51.510989 C5.90788328,51.5505563 5.75071845,51.4251374 5.59267241,51.3822115 C5.34253534,51.3142737 5.39060707,51.8249227 5.37715517,51.8543956 C5.2532231,52.125922 5.16158362,52.1610852 5.07543103,52.2836538 C4.9801531,52.419205 4.58414259,52.0954756 4.51508621,52.0690247 C4.34297569,52.003101 4.24547414,51.6998352 4.17025862,51.5968407 C4.03664241,51.4138753 3.9291769,51.4287792 3.73922414,51.2963599 C3.58213293,51.1868492 3.29198741,51.1250549 3.17887931,51.0817308 C2.89960276,50.9747596 2.96157759,51.3599674 2.87715517,51.4680632 C2.82049431,51.540613 2.70177603,51.66767 2.57543103,51.8114698 C2.4176331,51.991068 2.11819414,51.8418269 1.92887931,51.8543956 C1.7996031,51.8629791 1.69566862,51.8543956 1.45474138,51.8543956 C1.21999776,51.8543956 1.15807,51.9528777 0.9375,52.0260989 C0.773656552,52.0804876 0.977237241,52.5405546 0.980603448,52.5841346 C0.989889828,52.7043595 1.26586621,52.9392428 1.32543103,53.0133929 C1.45436121,53.1738908 1.54211397,53.3216638 1.62715517,53.4426511 C1.72703983,53.5847545 1.84550017,53.6600962 1.97198276,53.7860577 C2.11949431,53.9329619 2.09475241,54.1834152 2.14439655,54.3440934 C2.24197603,54.6599193 2.0652469,54.6856611 2.01508621,54.9021291 C1.96329172,55.1256473 1.93160638,55.3455203 1.88577586,55.5889423 C1.85182966,55.7692428 2.01345345,55.9386092 2.05818966,56.0611264 C2.15360397,56.3224348 2.29979724,56.3284736 2.44612069,56.4903846 C2.58070534,56.6393063 2.78728017,56.603635 2.96336207,56.6620879 C3.26744569,56.7630306 3.1233169,56.8412964 3.30818966,57.0484203 C3.44550828,57.2022665 3.14901397,57.5239801 3.13577586,57.5635302 C3.07637638,57.7409942 2.97396948,57.9395227 2.87715517,58.1644918 C2.78661552,58.3748798 2.87715517,58.3388324 2.87715517,58.59375 L2.87715517,59.1088599 C2.87715517,59.3790539 2.7178281,59.3468664 2.61853448,59.4951923 C2.53063586,59.6264973 2.4516481,59.6851339 2.31681034,59.8385989 C2.18536983,59.9881971 2.04625207,60.1080426 1.92887931,60.2249313 C1.83176293,60.3216484 1.7176731,60.4953623 1.62715517,60.6112637 L1.32543103,60.9975962 C1.08986172,61.2992222 1.46825,61.3531731 1.49784483,61.4268544 C1.55226224,61.5623369 1.78520121,61.4840883 1.92887931,61.512706 C2.12916655,61.5525979 2.10468741,61.8336933 2.1875,61.9848901 C2.28867655,62.1696154 2.20976379,62.2287826 2.23060345,62.4570742 C2.24380914,62.6017376 2.01463741,62.887227 1.97198276,62.9721841 C1.87559103,63.1641724 1.75581293,63.2412826 1.62715517,63.4014423 C1.49279362,63.5687019 1.26938776,63.4288496 1.06681034,63.4443681 C0.951886379,63.4531714 0.70701,63.4443681 0.506465517,63.4443681 C0.215983103,63.4443681 0.310936552,63.7503623 0.204741379,63.9165522 C0.0796508621,64.1123128 0.38037569,64.3713187 0.420258621,64.4745879 C0.491224138,64.6583379 0.687920517,64.8596171 0.808189655,65.0326236 C0.937171724,65.2181628 0.90224931,65.4697596 0.9375,65.6335852 L1.06681034,66.2345467 C1.13811155,66.5659152 0.956405345,66.4544471 0.851293103,66.6638049 C0.810173621,66.7457057 0.65021931,66.835443 0.549568966,66.9213599 C0.443289483,67.012081 0.582286552,67.3775189 0.592672414,67.5223214 C0.611335345,67.7825258 0.705970862,67.889023 0.765086207,68.0803571 C0.819827241,68.2575326 1.00800466,68.2315556 1.10991379,68.2949863 C1.24609759,68.379751 1.27010569,68.6459564 1.32543103,68.7671703 C1.37526155,68.8763462 1.39458672,69.21483 1.41163793,69.325206 C1.45125724,69.581669 1.49006052,69.6896703 1.54094828,69.9261676 C1.59928155,70.1972682 1.79431431,70.0663462 1.92887931,70.1407967 C2.10299069,70.2371274 2.24998483,70.3326666 2.35991379,70.3983516 C2.44468259,70.4490041 2.32095069,70.9803915 2.31681034,71.042239 C2.31038914,71.1381611 2.0245881,71.2968802 1.97198276,71.3427198 C1.7625719,71.5251992 1.8910331,71.6651837 1.84267241,71.8578297 C1.8200469,71.9479584 1.94466534,72.2641209 1.97198276,72.3729396 C2.0669669,72.7513101 2.18176069,72.5520089 2.2737069,72.6304945 C2.42106897,72.7562843 2.77483897,72.5153245 2.83405172,72.501717 C3.09051293,72.4427782 3.17262414,72.6549794 3.30818966,72.7163462 C3.45957759,72.7848747 3.3694769,73.1130718 3.39439655,73.2743819 C3.41647776,73.417318 3.27679431,73.742852 3.26508621,73.7894918 C3.23902828,73.8932933 3.30183362,74.1920467 3.30818966,74.2616758 C3.32400362,74.4349124 3.45966724,74.5633826 3.5237069,74.6909341 C3.60982862,74.8624674 3.73751621,74.9951168 3.82543103,75.1201923 C3.86967759,75.1831405 3.91874293,75.267081 3.99784483,75.3187242 C3.97211707,75.309126 3.95164672,75.3007503 3.91163793,75.2918956 C3.60494086,75.2240213 3.8399231,75.3186779 3.56681034,75.4206731 C3.39140466,75.4861796 3.36566086,75.7354619 3.26508621,75.8928571 C3.17884414,76.0278228 2.94899431,75.8356233 2.79094828,75.8070055 C2.60711483,75.7737191 2.76086086,75.8189904 2.57543103,75.8928571 C2.39361534,75.9652833 2.46194259,76.0623884 2.31681034,76.2791896 C2.25968362,76.3645261 2.16482069,76.5516432 2.1012931,76.665522 C2.0093719,76.8302988 1.83665966,76.8704997 1.71336207,76.9660027 C1.50093034,77.130546 1.56814086,77.2793527 1.45474138,77.5240385 C1.348635,77.7529876 1.26587397,77.7591501 1.10991379,77.9532967 C1.07863534,77.9922339 0.757494483,78.1872751 0.721982759,78.2108516 C0.604401207,78.2889166 0.884917414,78.6976408 0.894396552,78.7259615 C0.952715517,78.9001975 0.757447069,79.1010199 0.721982759,79.1981456 C0.650235345,79.3946377 0.613859138,79.5750189 0.549568966,79.7991071 C0.476451034,80.0539646 0.582635,80.1942651 0.592672414,80.314217 C0.612762759,80.5543063 0.716749138,80.6849124 0.765086207,80.8293269 C0.807949483,80.9573867 0.994971207,80.9724124 1.10991379,81.043956 C1.33972931,81.1869986 1.24915397,81.1652885 1.45474138,81.3444368 C1.56340948,81.4391295 1.48347707,81.6306095 1.49784483,81.7736951 C1.51151741,81.9098575 1.85468448,82.0935268 1.92887931,82.1600275 C2.10130638,82.3145725 2.08169845,82.4136762 2.1875,82.5892857 C2.28026379,82.7432555 2.35993345,82.8468698 2.44612069,82.9756181 C2.55951931,83.1450155 2.80960828,83.1566123 2.96336207,83.2331731 C3.11359466,83.3079791 3.44412897,83.2970106 3.60991379,83.3190247 C3.68301793,83.3287311 3.83644931,83.7326288 3.86853448,83.7912088 C3.9566331,83.952057 3.89874345,84.242476 3.91163793,84.4350962 C3.92632,84.6544179 3.91163793,84.8893716 3.91163793,85.0360577 C3.91163793,85.1480838 3.70452483,85.3798231 3.65301724,85.4653159 C3.55481845,85.628307 3.38188672,85.7653314 3.26508621,85.8945742 C3.11303931,86.0628194 3.06732276,86.2228211 3.00646552,86.3238324 C2.92293517,86.462476 3.06622086,86.680886 3.09267241,86.8389423 C3.13516845,87.0928674 3.15267793,87.018216 3.22198276,87.2252747 C3.2497619,87.3082692 3.61253707,87.3873352 3.73922414,87.4399038 L3.89008621,87.5042926 C3.66679069,87.4494145 3.42786931,87.424035 3.15732759,87.3701494 C2.83648224,87.3062448 2.84091397,87.4822957 2.48383621,87.6116071 C2.08324638,87.7566758 2.31518397,87.973726 2.1174569,88.4003692 C2.01584379,88.619624 2.58673241,88.8175721 2.66702586,88.8886504 C2.80145517,89.0076494 3.49244534,88.9416621 3.58297414,88.9476734 C3.99395259,88.9749588 4.01442759,89.2215917 4.25107759,89.3715659 C4.4389169,89.4906078 4.25107759,90.1354069 4.25107759,90.219351 C4.25107759,90.583829 4.29869121,90.787488 4.31573276,91.008113 C4.33343655,91.2373163 4.64380224,91.3796961 4.80064655,91.5554172 C5.00928397,91.7891672 5.16431069,92.0383036 5.35021552,92.2851563 C5.5317231,92.5261676 5.61706759,92.901669 5.71659483,93.1329413 C5.81842069,93.369557 5.93075448,93.6118098 6.01831897,93.8036573 C6.2115569,94.2270295 6.54432655,93.7579859 6.69181034,93.7446343 C6.90897328,93.7249725 7.09781483,93.1327713 7.17672414,93.0148953 C7.44409293,92.6154945 7.48128103,92.9867119 7.79094828,92.9558723 C7.84986034,92.9500052 8.10591207,93.6453177 8.15193966,93.7446343 C8.25226207,93.9611041 8.35862931,94.4001889 8.39978448,94.5333963 C8.52306379,94.9324004 8.77643966,94.4824828 8.88469828,94.4690076 C9.10278621,94.4418578 9.12916207,94.1091878 9.25107759,93.927069 C9.39453448,93.7127696 9.61777414,94.2868887 9.80064655,94.4690076 C10.0356379,94.7030288 10.1871017,94.6473609 10.46875,94.7748541 C10.7955241,94.9227764 11.218881,94.8907109 11.4224138,94.8231456 C11.7088,94.7280769 11.704319,94.4374141 11.8103448,94.2865728 C11.9177741,94.1337345 11.5492586,93.5618836 11.5086207,93.3797648 C11.4949259,93.3183929 11.5144034,93.3571223 11.5678879,93.19733 L11.5840517,93.2295244 C11.5778397,93.2117668 11.5759759,93.1976219 11.5732759,93.1812328 L11.6325431,93.1812328 C11.6308241,93.1886315 11.6287097,93.1949554 11.6271552,93.2026957 C11.6222295,93.2272236 11.6171498,93.2525189 11.6163793,93.2778159 L11.5840517,93.2295244 C11.5918381,93.2517823 11.6025221,93.2754361 11.6163793,93.2992788 C11.6187412,93.470455 11.7132078,93.6573283 11.8426724,93.8358516 C11.8697,93.8731216 11.8897869,93.8954894 11.9127155,93.9217033 C11.9763924,94.021068 12.0481638,94.0964492 12.1174569,94.104138 L12.106681,94.0826751 C12.145006,94.107239 12.1840141,94.1380168 12.2306034,94.1792582 C12.3462897,94.2816655 12.6469759,94.3174777 12.7478448,94.3509615 C12.951431,94.418544 12.9032362,94.6088805 13.0064655,94.7802198 C13.0737966,94.8919746 13.1227207,95.0986023 13.1788793,95.2524038 C13.2508293,95.4494523 13.3937086,95.5886023 13.4806034,95.7245879 C13.5736793,95.8702473 13.7492034,95.9118338 13.9116379,96.0250687 C14.1198103,96.1701889 14.2954534,96.1843321 14.4288793,96.2396978 C14.5600276,96.2941174 14.8228259,96.3573953 14.8599138,96.3684753 C15.0212931,96.4166896 15.3887224,96.3684753 15.4633621,96.3684753 C15.654981,96.3684753 15.9034,96.4269059 16.1099138,96.4543269 C16.1739207,96.4628262 16.5183103,96.1585354 16.5840517,96.1109203 C16.8099517,95.947306 17.0203379,95.9867806 17.1875,95.939217 C17.4511517,95.8641981 17.5045052,96.0540161 17.6616379,96.1109203 C17.8023448,96.161875 17.9804362,96.3331593 18.0926724,96.4114011 C18.2172138,96.4982212 18.4252621,96.5920656 18.5668103,96.668956 C18.7551879,96.7712843 18.8439345,96.834545 18.9978448,96.926511 C19.2214966,97.0601494 19.2388224,96.9701442 19.4719828,97.0123626 C19.7006879,97.053774 19.8079707,97.1948729 19.9461207,97.2699176 C20.1199293,97.3643321 20.158719,97.5345707 20.2909483,97.6991758 C20.4093069,97.8465144 20.5818586,97.9149828 20.7381466,97.9674622 L20.7381466,98.1069712 L20.9375,98.1069712 C20.8625241,98.2088994 20.7762138,98.3311796 20.7165948,98.4128177 C20.5112224,98.6940436 20.4752845,98.7896892 20.2909483,99.0781679 C20.1488466,99.3005512 20.1713948,99.5923094 20.1077586,99.8669299 C20.0751069,100.007835 20.0249724,100.350869 19.9838362,100.596669 C19.9159603,101.002248 19.7150017,101.058693 19.5581897,101.326408 C19.4535845,101.504991 19.032081,101.44773 18.7661638,101.508843 C18.4507379,101.581332 18.3698138,101.784609 18.1573276,101.932735 C17.9311828,102.090385 17.7259741,102.454195 17.6077586,102.598086 C17.4813552,102.75194 17.1135621,103.003688 16.9396552,103.14539 C16.7433793,103.305318 16.7064759,103.530634 16.5732759,103.751717 C16.434169,103.982608 16.3527379,104.190977 16.2068966,104.481456 C16.0660983,104.761892 16.0945397,105.000052 16.0237069,105.329241 C15.9513414,105.665558 15.8156621,105.743616 15.6573276,106.05898 L15.2909483,106.788719 C15.138819,107.091724 15.1149897,107.217867 14.9892241,107.518458 C14.9785379,107.544001 14.9320397,108.262083 14.924569,108.366243 C14.9096966,108.57359 14.558281,109.045221 14.4989224,109.155005 C14.3463759,109.437139 14.3402224,109.552802 14.2564655,109.761332 C14.206669,109.885313 14.0192293,110.183377 13.9493534,110.308637 C13.7860414,110.601387 13.7653897,110.721344 13.6476293,110.979353 C13.5105914,111.279593 13.5083724,111.622965 13.4644397,111.827138 C13.395281,112.148551 13.4223034,112.324348 13.3997845,112.6159 C13.3757017,112.927665 13.3997845,113.084787 13.3997845,113.345639 C13.3997845,113.740412 13.2724948,113.874155 13.2219828,114.075378 C13.1489707,114.366221 13.0542845,114.43773 12.9741379,114.617316 C12.9119672,114.756624 12.5011948,114.79528 12.4892241,114.799751 C12.231969,114.895824 12.3743155,114.934926 12.1821121,115.164621 C12.0089914,115.371509 12.1821121,115.941813 12.1821121,116.135817 C12.1821121,116.466106 12.3046638,116.746051 12.3653017,117.047991 C12.42075,117.324092 12.5160052,117.744797 12.5484914,117.895776 C12.6290759,118.270292 12.9027293,118.191547 12.9148707,118.201623 C13.0244172,118.292536 13.5490759,118.028395 13.5829741,118.019188 C13.6613862,117.99789 13.7495414,118.019188 13.830819,118.019188 L13.8900862,118.019188 C14.2068897,118.019188 14.1531,118.501181 14.2564655,118.689904 C14.3846552,118.923949 14.3879276,119.255438 14.4396552,119.478666 C14.5630552,120.011197 14.6478086,119.568274 14.8653017,119.661101 C15.0462621,119.738336 15.4554586,119.119976 15.5334052,119.049408 C15.7897914,118.817291 16.1958966,119.170828 16.2068966,119.172819 C16.4340793,119.213956 16.7749776,119.255939 17.0581897,119.296231 C17.2288552,119.320512 17.5719155,119.296231 17.8502155,119.296231 C18.1903483,119.296231 18.26365,118.8845 18.4590517,118.689904 C18.7243345,118.425713 18.8606776,118.333149 19.0732759,118.1426 C19.1066,118.112732 19.6479586,118.426075 19.6821121,118.44308 C19.9440655,118.573518 19.9935069,118.795982 20.1670259,118.990385 C20.3829948,119.232349 20.5080931,119.252776 20.7165948,119.414277 C20.873619,119.535903 21.5183569,119.414277 21.5678879,119.414277 L22.424569,119.414277 C22.6562431,119.414277 22.3023362,118.971516 22.2413793,118.748927 C22.1716707,118.494385 21.7135034,118.710139 21.4493534,118.689904 C21.3141828,118.679548 21.1370017,118.223307 21.0829741,118.1426 C20.9981776,118.015929 21.2530034,117.716595 21.325431,117.536272 C21.392081,117.370335 21.7688862,117.141925 21.875,117.047991 C22.0784431,116.867897 22.1681017,116.630234 22.3006466,116.441664 C22.4588414,116.216604 22.6237931,116.081633 22.7909483,115.89436 C23.0518638,115.602038 23.0973931,115.986451 23.3997845,116.076794 C23.5171155,116.111849 23.916531,116.364481 23.9493534,116.382641 C24.2156948,116.529998 24.5995655,116.424378 24.8599138,116.441664 C25.1249586,116.459262 25.2918707,116.814713 25.3502155,116.865556 C25.4501466,116.952636 25.0268534,117.457734 24.9838362,117.536272 C24.8036759,117.865206 24.7424397,117.809483 24.5581897,118.019188 C24.3108397,118.300707 24.7143828,118.330288 24.7413793,118.384057 C24.8511776,118.602749 25.1859724,118.179389 25.4094828,118.078211 C25.7759017,117.912344 25.5761707,117.787993 25.7165948,117.536272 C26.0025845,117.023613 25.9598431,117.473027 26.2015086,117.412861 C26.4885259,117.341401 26.7737224,117.573376 27.0581897,117.654318 C27.1974517,117.693944 27.723519,117.347684 27.8502155,117.289449 C28.1888259,117.13381 28.2963828,117.289449 28.5829741,117.289449 C28.82065,117.289449 29.0365086,117.795474 29.1271552,117.895776 C29.3135379,118.102016 29.5233155,118.290306 29.6767241,118.44308 C30.067269,118.832016 29.8564103,118.264136 29.919181,118.201623 C29.9928638,118.128245 29.5744034,117.757864 29.4935345,117.654318 C29.2957569,117.40108 29.1087569,117.386621 28.8846983,117.230426 C28.6393017,117.059356 28.4494224,116.954087 28.2165948,116.806533 C27.9592052,116.643415 27.8980534,116.537691 27.7855603,116.441664 C27.3147103,116.039741 28.0260914,116.059475 28.0926724,115.953383 C28.17815,115.817184 28.7834948,116.379641 28.8846983,116.441664 C29.1631759,116.61233 29.2973897,116.892145 29.4935345,117.107014 C29.6514414,117.279997 29.9343293,117.419128 30.1023707,117.536272 C30.3147,117.684291 30.5582845,117.8616 30.7758621,118.019188 C30.9113707,118.117333 31.0982224,117.936248 31.2607759,117.895776 C31.5688034,117.819087 31.8114897,118.193953 31.9342672,118.260646 C32.0987259,118.349981 32.2176793,118.504104 32.3599138,118.625515 C32.3698793,118.634023 33.0096759,118.529265 33.1519397,118.507469 C33.325631,118.480857 33.6630897,118.808602 33.7607759,118.866973 C33.9526379,118.981616 34.1144138,119.350549 34.2510776,119.537689 C34.4673276,119.833807 34.7720862,119.854512 35.0431034,120.020604 C35.19655,120.114645 35.6838345,119.976559 35.8943966,119.961581 C36.2382638,119.937121 36.3373155,119.653353 36.5032328,119.537689 C36.6311845,119.448492 36.7003172,119.345299 36.7672414,119.231842 C36.7676741,119.231107 36.7721966,119.232579 36.7726293,119.231842 L36.9396552,119.231842 C36.8600155,119.471794 36.7800328,119.73024 36.7564655,119.763049 C36.5368034,120.068839 36.7389345,119.693213 36.9288793,120.449863 C37.0150862,120.793269 37.6185345,120.621566 37.9633621,120.707418 C38.3948155,120.814837 38.3970414,121.13931 38.6530172,121.394231 C38.8722017,121.612512 39.1551,121.769241 39.3426724,121.909341 C39.5183672,122.04057 39.3426724,122.448826 39.3426724,122.853709 C39.5098638,122.853709 40.2795121,122.873705 40.6357759,123.025412 C41.113031,123.111829 40.5632569,123.747606 40.549569,123.883929 C40.5122155,124.255929 40.549569,124.538961 40.549569,124.828297 C40.549569,125.057234 41.0093397,124.828297 41.2392241,124.828297 C41.2658103,124.828297 41.7441741,124.109911 41.8426724,123.96978 C42.105619,123.59569 42.4343431,123.380548 42.7047414,123.111264 L42.8771552,122.93956 C42.9228966,122.894008 42.8503276,122.912843 42.5323276,122.596154 C42.0453362,122.111169 42.3749776,122.086873 42.1875,121.480082 C42.1137017,121.241226 42.5163052,120.6942 42.6185345,120.449863 C42.7747655,120.076451 43.026781,119.752895 43.2219828,119.419643 C43.3667741,119.172454 43.5668103,119.877519 43.7392241,120.106456 C43.924919,120.353029 43.9691086,120.6788 44.0840517,120.964973 C44.2089655,121.275972 44.7162362,120.736035 45.0323276,120.621566 C45.1700293,120.571698 45.3196845,120.6788 45.4633621,120.707418 C45.5555707,120.725783 46.3938207,120.630199 46.4978448,120.621566 C46.8318,120.593851 47.0725569,120.964973 47.3599138,121.136676 C47.4238155,121.174859 47.919919,121.384542 48.1357759,121.480082 C48.4552293,121.621477 48.250719,122.166896 48.3081897,122.510302 C48.3552655,122.791597 48.8842552,123.083994 49.0840517,123.282967 C49.3824931,123.580179 49.6598086,123.074464 50.0323276,122.93956 C50.8193138,122.654562 50.3106207,122.967275 50.8943966,123.025412 C51.2883672,123.064646 51.4233793,122.814691 51.7564655,122.682005 C52.1987552,122.505819 52.3216569,122.32382 52.7047414,122.081044 C53.1647069,121.789545 53.2666621,121.865812 53.825431,121.651786 C54.251031,121.488769 54.8961328,121.56092 55.1885776,121.587397 C55.4795276,121.376669 56.0298741,121.054904 56.325431,120.793269 C56.3595552,120.763061 56.8138034,120.167807 57.1012931,120.106456 C57.4868069,120.024186 58.0049655,119.879099 58.3081897,119.848901 C58.6374345,119.816113 58.5421293,119.684857 59.1702586,119.763049 C59.5405379,119.809143 60.2175776,119.985618 60.549569,119.934753 C60.9062259,119.880108 61.4881172,120.065366 61.6702586,119.763049 C61.7739948,119.590869 61.9285362,119.083077 62.1875,118.904533 C62.2699207,118.847708 62.9666724,117.694584 63.3081897,118.131868 C63.5638034,118.45916 63.3950362,118.717452 63.9116379,118.904533 C64.3914983,119.078309 64.4889103,119.046408 64.8599138,119.24794 C64.9758707,119.310927 65.3341517,120.149299 65.8081897,119.763049 C66.124281,119.505495 66.3690138,118.861767 66.7564655,118.990385 C67.0150862,119.076236 67.2693224,119.319373 67.5323276,119.24794 C67.848419,119.162088 68.4011397,118.673841 68.4806034,118.990385 C68.5533707,119.280251 68.7840897,119.024536 68.6530172,119.677198 C68.5955466,119.963371 68.2085155,120.427328 68.4806034,120.535714 C68.5121431,120.548278 69.1967845,120.636975 69.3426724,120.879121 C69.4776017,121.103077 69.57495,121.548444 69.8599138,121.737637 C70.0350293,121.853899 70.2293207,122.657527 70.6357759,122.252747 C70.9341172,121.955635 71.2100828,122.029069 71.2392241,121.651786 C71.2735603,121.207254 71.3065241,120.799323 71.325431,120.535714 C71.3428845,120.292375 71.5359448,119.408068 71.4116379,119.333791 C71.3793759,119.314514 70.6236983,118.924143 70.549569,118.818681 C70.4887431,118.732146 69.5986224,118.454547 69.9461207,117.960165 C70.0448914,117.819645 70.5139552,117.243516 70.549569,117.101648 C70.6211241,116.816604 71.2154897,116.118851 70.8943966,115.728022 C70.5909069,115.358618 70.7973207,114.896319 70.1185345,114.783654 C69.9477397,114.755306 69.1117017,114.687675 69.0840517,114.611951 C68.9691086,114.297162 68.9321034,113.941988 68.7392241,113.667582 C68.5380741,113.38141 68.0008672,113.131513 68.1357759,112.809066 C68.3674621,112.255309 68.2295793,112.210644 68.5668103,111.778846 C68.6110793,111.722163 69.1126776,111.034852 69.1702586,111.006181 C69.5175914,110.833231 69.4625328,110.613307 69.8599138,110.662775 C70.2502966,110.711372 70.4699259,110.92312 70.549569,110.748626 C70.7150845,110.385991 70.6621259,110.057991 70.9806034,109.804258 C71.2532052,109.587076 71.4902621,109.171439 71.8426724,109.117445 C72.2409569,109.056423 72.6617724,109.136872 72.9633621,108.945742 C73.4424224,108.642141 73.6193586,108.760601 73.9116379,108.34478 C74.1798017,107.963268 74.3000621,107.843161 74.5150862,107.486264 C74.720981,107.144521 74.9372086,107.243474 75.0323276,106.627747 C75.0948897,106.222771 75.0749862,105.727043 75.2047414,105.511676 C75.3165638,105.326075 75.4216655,104.653159 75.7219828,104.653159 C75.7759397,104.653159 76.4824379,104.676513 76.5840517,104.653159 C76.8452121,104.59314 77.6213897,104.644627 77.7047414,104.395604 C77.8150552,104.066025 78.1311276,103.893334 78.049569,103.365385 C77.9786586,102.90637 77.9632966,102.621051 77.8771552,102.249313 C77.8102983,101.96079 77.7272397,101.530182 77.6185345,101.133242 C77.4435293,100.494198 77.9956534,100.432382 77.3599138,100.188874 C76.9286086,100.023671 76.5703845,99.9245141 76.2392241,99.7596154 C75.9618379,99.6214938 75.4940034,99.4125464 75.2047414,99.2445055 C74.9554276,99.099672 74.2709207,98.9944059 74.1702586,98.643544 C74.0511224,98.228283 74.1173466,97.8050103 73.825431,97.4416209 C73.5238621,97.0662122 73.6527586,96.730206 73.1357759,96.5831044 C72.7641052,96.4773506 72.2118172,96.5214698 71.9288793,96.2396978 C71.6615259,95.9734461 71.3230448,95.8395519 71.1530172,95.467033 C71.0252914,95.1871944 70.9644052,94.817737 70.7219828,94.5226648 C70.462269,94.2065453 70.2906086,93.9556731 69.9461207,93.5782967 C69.7855276,93.4023729 69.4379086,92.6045622 69.0840517,92.6339286 C69.0180586,92.6394059 68.1711897,92.8005271 68.049569,92.7197802 C67.7927017,92.5492411 67.2118,92.3921223 67.0150862,92.032967 C66.848869,91.72949 66.7826655,91.5748506 66.4978448,91.0885989 C66.3081103,90.7646806 66.1173103,90.4072304 65.8943966,90.0583791 C65.7185017,89.7831113 65.4039155,89.4515161 65.2909483,89.114011 C65.1941552,88.82483 65.1539259,88.4200824 64.9461207,88.0837912 C64.7383345,87.7475292 64.43535,87.3833963 64.2564655,86.9677198 C64.163469,86.7516226 63.66085,85.9804396 63.7392241,85.7657967 C63.8394828,85.4912225 63.9167931,85.1823283 64.0840517,84.8214286 C64.12745,84.7277867 64.6726103,83.8332005 64.6012931,83.7053571 C64.5083724,83.5387895 64.3523328,83.2176288 64.1702586,82.9326923 C63.9177914,82.5375944 63.9273845,82.3474124 63.5668103,81.9883242 C63.1946897,81.617737 63.0189017,81.4739595 62.7047414,81.1298077 C62.4817948,80.8855769 62.069031,80.4752713 61.8426724,80.1854396 C61.685231,79.9838496 61.2392241,79.6840865 61.2392241,79.4127747 C61.2392241,79.3521068 61.3716276,78.675613 61.2392241,78.4684066 C61.0674897,78.1996514 60.992431,77.8318664 60.6357759,77.5240385 C60.614219,77.5054327 60.5932638,77.4807126 60.5711207,77.4596497 L60.5711207,77.1967291 C60.9253517,77.4850687 61.1349103,77.6596772 61.2392241,77.8674451 C61.4920328,78.3709787 61.8344569,77.9752232 62.1875,78.0391484 L63.1357759,78.2108516 C63.4575638,78.2691174 63.8388,77.5743716 64.0840517,77.3523352 C64.337719,77.1226786 64.5569034,76.881432 64.7737069,76.665522 C65.0983569,76.3422098 65.3923414,76.1614509 65.7219828,75.8928571 C66.1053121,75.5805168 66.3046052,75.5236264 66.6702586,75.2918956 C67.1810224,74.968204 67.3617569,75.1935165 67.8771552,75.1201923 C68.2364017,75.0690831 68.7146379,75.2591981 68.9116379,75.2918956 C69.5234741,75.3934478 69.5553914,74.9422047 69.8599138,74.7767857 C70.0134638,74.6933774 70.4210172,74.3421703 70.6357759,74.1758242 C71.0198155,73.8783585 71.1466086,73.7179688 71.4978448,73.4031593 C71.8908397,73.050922 71.9802897,72.9227026 72.1875,72.7163462 C72.5194172,72.3857967 72.7419603,72.4402576 73.049569,72.2870879 C73.3825086,72.1213049 73.6374603,72.020965 73.9978448,71.8578297 C74.0364,71.840376 74.7930483,71.6202507 74.8599138,71.6002747 C75.1676379,71.5083379 75.1472707,71.027931 75.2909483,70.7417582 C75.394069,70.5363668 76.2675103,70.5333568 76.4978448,70.4842033 C76.9492931,70.3878623 77.2625414,70.1913015 77.6185345,70.0549451 C77.8458741,69.9678674 78.4254155,69.8540556 78.6530172,69.7973901 C79.1881741,69.6641518 79.0158259,69.5163685 79.4288793,69.1964286 C79.8072845,68.9033259 79.9017793,68.8824605 80.2047414,68.6813187 C80.3428483,68.5896274 81.398069,68.6813187 81.4978448,68.6813187 C81.7488983,68.6813187 82.2621034,67.9963204 82.3599138,67.9086538 C82.5053293,67.778319 83.1320466,67.4193218 83.3081897,67.3076923 C83.71025,67.0528898 83.3081897,66.7274124 83.3081897,66.4491758 C83.3081897,66.0906027 82.9633621,65.8195965 82.7909483,65.5048077 C82.6037897,65.1630992 83.5380741,65.2758705 83.9116379,65.1614011 C84.1839741,65.0779516 84.680431,65.3528073 84.9461207,65.418956 C85.5368241,65.5660234 85.3068241,65.6185199 85.7219828,65.8482143 C86.0495,66.0294179 85.7794534,66.5922613 85.8081897,66.9642857 C85.8209362,67.129308 86.5495034,67.1488513 86.8426724,67.2218407 C86.9916362,67.2589286 86.5756552,67.953113 86.4978448,68.1662088 C86.3592966,68.5456439 87.2424086,68.7728863 87.4461207,68.9388736 C87.8898879,69.3004602 88.1285931,68.734976 88.3081897,68.6813187 C88.59945,68.5943012 88.7234517,67.854217 88.825431,67.6510989 C89.0350379,67.2336109 89.0561466,66.8469214 89.1702586,66.4491758 C89.2607621,66.1337191 89.3574155,65.7036367 89.4288793,65.418956 C89.5299052,65.0165179 89.4288793,64.8378142 89.4288793,64.3028846 L89.4288793,63.0151099 C89.4288793,62.7071909 89.6613483,62.3205786 89.7737069,61.9848901 C89.9154017,61.5615556 89.5897759,61.069023 89.5150862,60.6971154 C89.4702034,60.4736281 89.1170638,59.9704138 88.9978448,59.7527473 C88.8139431,59.4169849 89.282769,59.1852473 89.4288793,58.8942308 C89.4386155,58.3827421 88.9866138,58.0651408 88.6530172,57.5206044 C88.5357345,57.3778503 87.6296569,57.3638135 87.5323276,57.3489011 C87.2425655,57.3045072 86.9790621,57.2365093 86.7295259,57.1718321 L86.7295259,56.7694025 C87.05775,56.7939406 86.8945483,56.6448661 87.1012931,56.5762363 C87.1554155,56.5582692 87.2600276,55.6277576 87.2737069,55.5460165 C87.3330483,55.1914389 86.6809862,55.0213255 86.4978448,54.8592033 C86.1471466,54.5487552 86.3866931,54.5640196 86.2392241,54.1723901 C86.033619,53.6263719 85.81725,53.6470948 85.549569,53.3138736 C85.1939448,52.8711762 85.4832948,52.7858723 85.4633621,52.6270604 C85.4504397,52.524102 85.9194362,51.8700687 85.9806034,51.768544 C86.1926224,51.4166363 86.1013741,50.9266277 86.1530172,50.5666209 C86.1871069,50.3289749 86.4080259,49.8047476 86.4978448,49.5364011 C86.5641293,49.3383654 86.3690207,48.6383448 86.325431,48.334478 C86.3033207,48.1803434 86.3845517,47.5102043 86.4116379,47.1325549 C86.4559569,46.5146394 86.3640552,46.563908 86.325431,46.1023352 C86.3163879,45.994272 85.407619,45.603774 85.3771552,45.5872253 C85.1848155,45.4827455 85.0385638,44.8453949 84.9461207,44.6428571 C84.7310362,44.1716192 84.7812207,43.8764973 84.6875,43.4409341 C84.6309966,43.1783379 85.118231,42.7975 85.2047414,42.6682692 C85.4330948,42.3271514 85.3208759,41.8586745 85.3771552,41.4663462 C85.4174931,41.1851442 84.8224362,40.7067497 84.6875,40.521978 C84.42035,40.1561607 84.1048207,39.999727 83.825431,39.7493132 C83.4594724,39.4213067 83.3837345,39.1444832 83.1357759,38.8049451 C82.9135586,38.5006542 82.36145,38.3897184 82.0150862,38.2039835 C81.6258517,37.9952593 81.3264931,37.6325206 80.9806034,37.345467 C80.6266759,37.0517428 80.4838293,37.0706181 80.2047414,36.9162088 C79.6470362,36.6076494 80.2047414,36.4004499 80.2047414,35.885989 C80.2047414,35.6153365 80.9354138,35.1583276 81.0668103,35.0274725 C81.4655466,34.6303795 81.4431586,34.2778777 81.6702586,33.8255495 C81.8434621,33.4805701 82.0792483,33.1854997 82.2737069,32.8811813 C82.5094138,32.5123094 82.5576276,32.1460285 82.7047414,31.7651099 C82.9650259,31.0911607 83.2582966,30.8200687 83.3081897,30.7348901 C83.3255759,30.6310027 82.9793879,29.8180391 82.8771552,29.532967 C82.6503724,28.9005889 82.5883914,29.2106662 82.3329741,29.1627318 C82.3423155,29.1432538 82.3497017,29.1223541 82.3599138,29.1037088 C82.4153793,29.0024416 82.4910724,28.7118561 82.6185345,28.331044 C82.6872103,28.1258637 82.2649052,27.485831 82.1875,27.3008242 C82.0213207,26.9036367 82.1300034,26.4419368 82.1012931,26.0130495 C82.0858276,25.7820175 81.8039431,25.1987071 81.7564655,25.0686813 C81.6226638,24.7022442 81.6196121,24.2509478 81.5840517,24.0384615 C81.5784724,24.0051271 81.5779293,23.9978863 81.5732759,23.9687071 C81.538169,23.9088856 81.4891672,23.802227 81.4116379,23.6092033 C81.6971155,22.8700189 80.900069,23.043137 80.6357759,22.7506868 C80.5150931,22.617148 79.7428828,23.0470913 79.6012931,23.0940934 C79.3954241,23.162433 79.0506483,22.3890385 78.9978448,22.3214286 C78.7242,21.9710491 78.3264776,22.167136 77.8771552,22.0638736 C77.4551121,21.9668802 77.5600241,21.4848644 77.3599138,21.1195055 C77.1412966,20.7203571 77.0582172,20.5185989 76.9288793,20.260989 C76.7997293,20.0037517 76.8714086,19.6886453 76.8426724,19.4024725 C76.8393172,19.3690505 76.2260828,18.4813994 76.1530172,18.3722527 C76.0659603,18.2422064 76.4937759,17.346341 76.5678879,17.1864269 C76.7630862,16.7652387 76.1677741,16.693216 75.9806034,16.4835165 C75.8076655,16.289763 75.0867897,16.4150446 74.8599138,16.3976648 C74.5677293,16.3752816 74.2852017,16.2831954 73.9978448,16.2259615 C73.6765707,16.1619712 73.5955466,16.7410714 73.3943966,16.9986264 C73.168469,17.2879069 72.9346259,16.4262826 72.7047414,16.1401099 C72.4827,15.8637019 72.0150862,15.9684066 71.6702586,15.8825549 C71.5534862,15.8534821 70.9367931,15.4841312 70.7219828,15.3674451 C70.40835,15.1970776 70.0518879,15.0641123 69.7737069,14.9381868 C69.2905862,14.7194918 69.7015052,14.4348575 69.6875,14.3372253 C69.6577345,14.1297294 69.7210362,14.0366363 69.7737069,13.5645604 C69.8003983,13.3253314 69.4709362,12.6599931 69.4288793,12.5343407 C69.3300138,12.2389686 69.0260672,12.8208783 68.825431,12.9635989 C68.6552,13.084692 68.4231328,12.84913 68.2219828,12.7918956 C67.9069517,12.7022579 67.7047414,13.1925366 67.4461207,13.3928571 C67.3470224,13.4696156 66.52295,13.0097879 66.4116379,12.9635989 C66.1388603,12.8504102 65.8374069,13.0675743 65.4633621,13.1353022 C65.1189345,13.1976672 65.1716793,13.5226109 64.9461207,13.8221154 C64.7110414,14.1342637 64.6792948,14.5528623 64.6012931,14.7664835 C64.4686638,15.1297098 64.1886397,15.4240093 64.1702586,15.4532967 C64.0134569,15.7031439 63.8829017,14.9381868 63.7392241,14.6806319 C63.6644914,14.5466672 64.1934069,13.7760081 64.2564655,13.6504121 C64.3974466,13.3696128 64.8950828,13.0780244 65.1185345,12.8777473 C65.4054517,12.620586 65.8653914,12.648892 66.2392241,12.5343407 C66.6585259,12.4058563 67.0771759,12.3555194 67.4461207,12.2767857 C67.8780103,12.1846193 68.2500828,11.9688441 68.5668103,11.8475275 C68.7283431,11.7856557 67.7022155,11.8475275 67.5323276,11.8475275 C67.1856431,11.8475275 66.7335759,11.9611647 66.325431,12.0192308 C65.823031,12.0907064 65.6305741,11.7308999 65.2909483,11.5899725 C64.6944793,11.3424681 64.9000776,11.6288985 64.4288793,11.6758242 C64.0370828,11.7148424 63.8585862,12.1806624 63.6530172,12.3626374 C63.3968466,12.5894068 63.4692914,13.2164924 63.3943966,13.5645604 C63.3699672,13.6780913 62.6671741,14.2887869 62.6185345,14.3372253 L61.9288793,15.0240385 C61.5318879,15.4193939 61.4265638,15.6354481 61.1530172,15.9684066 C60.9164621,16.2563376 61.1530172,16.7124536 61.1530172,17.084478 C61.1530172,17.3706508 60.5783052,17.084478 60.2909483,17.084478 C60.2691966,17.084478 59.8811845,16.1867136 59.8599138,16.1401099 C59.7076362,15.8064801 59.4001431,16.7124536 59.1702586,16.9986264 C58.8188845,17.4360337 58.6018793,17.1118338 58.3081897,17.1703297 C57.9688862,17.2379104 57.6185345,17.1130958 57.2737069,17.084478 C57.0096931,17.062567 56.7564655,17.1989475 56.4978448,17.2561813 C55.97915,17.3709718 55.9398983,17.6097751 55.549569,17.8571429 C55.3602241,17.9771394 55.8369259,18.2005495 55.9806034,18.3722527 C56.3885379,18.8597562 55.912169,18.781171 55.8081897,19.4024725 C55.7739862,19.6068527 55.580419,20.0262637 55.4633621,20.3468407 C55.2492328,20.9332675 55.108819,20.8008036 54.8599138,21.1195055 C54.7221259,21.2959323 54.5150862,20.8333328 54.3426724,20.6902473 C54.1204724,20.5058431 53.8044034,20.1541964 53.7392241,20.0892857 C53.6483328,19.9987689 52.9425103,20.4499365 52.7909483,20.518544 C52.4183983,20.6871875 52.6734172,20.518544 52.5323276,20.518544 C52.0088293,20.518544 52.3352,20.4344093 51.9288793,20.260989 C51.6119328,20.1257143 51.9288793,19.5741758 51.9288793,19.2307692 C51.9288793,18.5077885 51.1371793,19.3024451 50.9806034,19.3166209 C50.9538862,19.3190402 50.3508121,20.1790161 50.2909483,20.260989 C50.1134931,20.5039852 49.546431,20.8676288 49.3426724,21.0336538 C48.9774034,21.3312775 48.7832621,21.5907589 48.4806034,21.8921703 C47.9303483,22.440158 48.3385983,22.2585388 48.2273707,22.6380065 C48.0921224,22.4131336 47.9543534,22.1956679 47.8771552,22.0638736 C47.7364069,21.8235869 47.737269,21.8781284 47.6185345,21.720467 C47.4872276,21.5461126 47.7909483,21.3198266 47.8771552,21.1195055 C48.107569,20.5840883 48.1601241,20.7571875 48.4806034,20.3468407 C48.7118138,20.050795 48.8727103,19.9005649 49.0840517,19.6600275 C49.1987776,19.5294523 48.8363103,19.043228 48.7392241,18.801511 C48.6634207,18.6127816 48.258919,18.5281817 48.1357759,18.4581044 C47.8076155,18.2713582 48.250719,17.7140573 48.3081897,17.342033 C48.4371224,16.5074245 48.7030948,17.473125 48.825431,17.5137363 C49.626119,17.779533 49.0175017,17.4924828 49.6012931,17.4278846 C49.9616379,17.3880117 50.0563534,16.7157366 50.2047414,16.4835165 C50.428231,16.1337672 50.6661603,15.9091192 50.8943966,15.625 C51.090681,15.3806559 51.1410776,15.133671 51.325431,14.7664835 C51.4058948,14.6062208 51.1750931,13.8681755 51.1530172,13.7362637 C51.0555241,13.1537141 50.8937448,13.219857 50.7219828,12.8777473 C50.5883569,12.6115968 49.7740914,12.8777473 49.6875,12.8777473 C49.2476259,12.8777473 49.2513586,13.4982382 49.0840517,13.7362637 C48.8149293,14.1191394 48.2612034,14.0777043 48.049569,14.165522 C47.7761466,14.2789785 47.6736483,14.0251324 47.3599138,13.907967 C47.0970121,13.8097855 46.7240069,13.5625379 46.4116379,13.3928571 C45.9095983,13.1201456 46.0504638,13.0331708 45.6357759,12.6201923 C45.346881,12.3324876 44.9475914,12.3346305 44.6012931,12.1909341 C43.9874517,11.9362206 44.2841121,12.6647461 44.0840517,12.9635989 C43.8618155,13.2955785 43.5229466,13.522391 43.3943966,13.6504121 C43.2907879,13.7535929 43.1070397,13.7076465 42.9633621,13.7362637 C42.5927431,13.8100821 43.0783052,12.9922162 43.1357759,12.6201923 C43.1862552,12.2934255 42.5825448,12.0692411 42.4461207,11.9333791 C42.1578431,11.6462891 41.7416672,11.9333791 41.4116379,11.9333791 C41.0089293,11.9333791 40.5397603,12.0491504 40.1185345,12.1050824 C39.7755466,12.1506257 40.6357759,11.6472069 40.8943966,11.4182692 C41.3121517,11.048461 40.8943966,10.9373252 40.8943966,10.6456044 L40.8943966,9.61538462 C40.8943966,9.09152455 40.5111586,9.38638994 40.4633621,9.35782967 C40.1878724,9.19321669 40.1760052,9.93017394 40.0323276,10.2163462 C39.8981603,10.4835764 39.4576155,10.3880495 39.1702586,10.4739011 C38.9483552,10.5401978 38.7104879,10.4166667 38.4806034,10.3880495 C38.4520897,10.3845 38.4231328,10.3880495 38.3943966,10.3880495 C38.0779362,10.3880495 38.4558414,10.3635728 38.825431,10.2163462 C39.2549362,10.0452519 39.4354345,9.60885697 39.6875,9.35782967 C39.9990276,9.04758585 40.1678828,8.98573832 40.4633621,8.75686813 C40.6584845,8.60573163 40.8656603,8.47069591 41.0668103,8.32760989 C41.2905345,7.99340711 41.124281,7.52632778 41.1530172,7.12568681 C41.1909983,6.59614166 41.0057207,6.63672081 40.8943966,6.26717033 C40.7881017,5.91431525 40.1167966,5.94450549 39.8599138,5.83791209 C39.5139052,5.69433602 38.7647207,5.83791209 38.6530172,5.83791209 C38.1976362,5.83791209 38.1147897,5.40910491 37.7909483,5.1510989 C37.3045586,4.76359066 37.4126586,5.1510989 36.9288793,5.1510989 C36.6014655,5.1510989 36.4631276,5.81371566 36.325431,6.00961538 C35.905181,6.60749811 36.0836448,6.14720948 35.7219828,6.35302198 C35.636369,6.40174227 34.817281,5.82745416 34.6875,5.75206044 C34.3660362,5.56531302 33.7638759,5.35785268 33.4806034,5.23695055 C33.1142776,5.08060113 32.83885,4.91739646 32.4461207,4.72184066 C31.8795948,4.43974536 31.8007586,4.72184066 31.5840517,4.72184066 C31.3368586,4.72184066 31.2966948,5.12248163 31.1530172,5.3228022 C31.1258914,5.36062174 30.249169,4.74999588 30.2047414,4.72184066 C29.9578793,4.56539406 29.2990534,4.51369712 29.0840517,4.46428571 C29.0448259,4.45527112 29.0074293,4.44879138 28.9762931,4.44818853 Z M27.6616379,7.01300652 C27.6490776,7.01112861 27.6352379,7.01407967 27.6185345,7.01837225 C27.4181034,7.06988324 26.9288793,7.51201923 26.6702586,7.6407967 C26.3482138,7.80115522 27.3024431,7.9842033 27.6185345,8.15590659 C27.9223069,8.32091758 27.6760052,7.46909341 27.7047414,7.12568681 C27.7176724,7.0548592 27.699319,7.01864045 27.6616379,7.01300652 Z M25.8459052,7.40470467 C25.7438207,7.37943733 25.6501448,8.13802095 25.549569,8.41346154 C25.3987672,8.82645793 25.6530103,8.92853966 25.7219828,9.27197802 C25.7727017,9.52453142 26.2392241,9.27197802 26.4978448,9.27197802 C26.729519,9.27197802 26.9001431,9.04304035 27.1012931,8.92857143 C27.4598345,9.12333362 26.4691086,8.41346154 26.1530172,8.15590659 C25.9629966,8.00107641 25.9806034,7.69803108 25.8943966,7.46909341 C25.8796345,7.42988977 25.8604879,7.40831422 25.8459052,7.40470467 Z M72.8232759,7.72128262 C72.5572759,7.74188341 72.2684586,7.82490402 72.1875,7.8125 C71.5839552,7.72002953 71.6438448,8.23360079 71.4116379,8.41346154 C71.234481,8.55068201 71.124281,8.75686813 70.9806034,8.92857143 C70.443081,9.57093956 71.1109603,9.25312071 71.1530172,9.35782967 C71.2644379,9.635233 71.7277293,9.52953297 72.0150862,9.61538462 C72.2144052,9.67493372 72.3656983,9.82422562 72.5215517,9.96952266 C72.3527759,9.97643321 72.0528017,10.4202438 71.8426724,10.5597527 C71.6383897,10.69538 71.3829017,10.3880495 71.1530172,10.3021978 C70.8557017,10.191164 70.6023707,10.7820275 70.4633621,10.9031593 C70.2424431,11.0956666 70.8501948,11.673638 70.8943966,11.7616758 L71.325431,12.6201923 C71.5082983,12.9844191 70.8408328,13.1027936 70.7219828,13.2211538 C70.4706483,13.4714523 70.8943966,13.907967 70.9806034,14.2513736 C71.1618983,14.9735628 71.1958638,14.4963702 71.5840517,14.9381868 C71.6318259,14.9925618 72.5820397,15.2439955 72.7047414,15.2815934 C73.5494276,15.5404258 73.0949379,14.9793578 73.4806034,14.6806319 C73.7460966,14.474988 73.7104879,14.0510531 73.825431,13.7362637 C74.6751741,13.1681132 74.7898793,13.2271178 75.2909483,13.6504121 C75.5862466,13.7764466 75.1760052,14.2799909 75.1185345,14.5947802 C75.0610638,14.909569 75.9758397,14.7867033 76.1206897,14.4981971 C76.1969397,14.3716372 76.6431845,13.9403218 76.6702586,13.907967 C76.7442224,13.8195771 76.3717897,13.0905575 76.325431,12.9635989 C76.2530707,12.765427 75.6632207,12.377393 75.549569,12.2767857 C75.1908121,11.9592042 75.1686224,11.7348183 74.9461207,11.4182692 C74.5933724,10.9164191 75.3528517,10.6081587 75.4633621,10.3880495 C75.7574862,9.80222493 75.0171845,9.75327936 74.8599138,9.52953297 C74.8251207,9.48003297 74.1064741,9.39310852 73.9116379,9.35782967 C73.2820776,9.24383585 73.523969,9.06827558 73.2219828,8.84271978 C72.9909517,8.67016003 73.2794534,8.27037552 73.3081897,7.9842033 C73.3324603,7.74250069 73.0892759,7.70068183 72.8232759,7.72128262 Z M28.7068966,9.8031851 C28.6932534,9.80246738 28.6774103,9.80485611 28.6637931,9.80855082 C28.4277621,9.87259306 28.1908224,10.5049322 28.1357759,10.5597527 C27.8280621,10.866199 28.2963155,10.8395395 28.4806034,11.1607143 C28.6664897,11.4846757 29.1127879,10.7600733 29.4288793,10.5597527 C29.7343431,10.5597527 29.026581,10.1018772 28.825431,9.87293956 C28.7864121,9.82853039 28.7478241,9.80533826 28.7068966,9.8031851 Z M72.6239224,10.06074 C72.6505897,10.0836016 72.6769914,10.1097682 72.7047414,10.1304945 C73.0981655,10.424347 72.9641845,10.4257797 73.3081897,10.8173077 C73.5341724,11.0745094 73.4431155,11.5563383 73.4806034,11.7616758 C73.54055,12.0900239 73.1357759,11.1893316 72.9633621,10.9031593 C72.7442603,10.5394961 72.639581,10.1158592 72.6239224,10.06074 Z M30.4148707,10.731456 C30.2206328,10.7734827 30.700431,11.3216861 30.8081897,11.5899725 C30.9124897,11.8496475 31.1072759,11.2224902 31.2715517,10.9085251 C31.1795397,10.9123427 31.0086862,10.866192 30.8351293,10.8173077 L31.325431,10.8173077 C31.4230621,10.6714657 31.0397776,10.7769521 30.8081897,10.8065762 C30.6772966,10.7698207 30.550869,10.7401707 30.4633621,10.731456 C30.4441155,10.7295393 30.4278207,10.7286542 30.4148707,10.731456 Z M31.325431,10.8173077 C31.3087966,10.8421561 31.2890931,10.875 31.2715517,10.9085251 C31.3334,10.905959 31.3642259,10.8849205 31.325431,10.8173077 Z M51.5409483,10.7743819 C51.3314638,10.7923868 51.0385569,11.0969071 50.8943966,11.1607143 C50.5662241,11.3059677 50.721619,11.8489765 50.6357759,12.1909341 C50.6163017,12.2685124 51.3721724,12.5983573 51.4116379,12.6201923 C51.5832793,12.7151556 51.8816776,13.4783803 51.9288793,13.5645604 C52.0827224,13.8454433 52.0438224,12.9349816 52.1012931,12.6201923 C52.116131,12.5389184 52.6593586,12.5542687 52.9795259,12.5343407 C53.574381,12.0900381 52.6086155,11.827772 52.4461207,11.5041209 C52.2607897,11.1349871 51.9414121,11.0573395 51.6702586,10.8173077 C51.6337293,10.784971 51.5892914,10.7702268 51.5409483,10.7743819 Z M77.6724138,16.6927799 C77.4664052,16.7118688 77.3216638,17.0349164 77.2144397,17.0737466 C76.8510638,17.2711933 76.8726431,18.7531061 77.2952586,18.2864011 C77.4809534,18.5329739 77.5251431,18.8587448 77.6400862,19.1449176 C77.7759207,19.4831044 77.9633621,18.6298077 78.2219828,18.3722527 C78.6019741,17.9938273 78.5173759,18.6244025 78.825431,18.8873626 C79.170231,19.1816878 78.5907948,19.7441484 78.5668103,19.8317308 C78.4806034,20.1465196 77.9346259,19.6600275 77.6185345,19.5741758 C77.4824224,19.5372081 77.7813017,20.5467531 77.7909483,20.6043956 C77.8560155,20.9931885 78.4300069,21.0498935 78.6530172,21.2053571 C78.8382414,21.3344797 79.6420448,21.0646497 79.8599138,21.0336538 C80.6625517,20.9194643 80.1503724,20.8167084 80.549569,20.518544 C80.5620724,20.509205 80.7944052,19.4619557 80.8081897,19.4024725 C81.1597586,19.3388135 79.9460069,18.4657864 79.8599138,18.3722527 C79.6940121,18.1920141 79.4001431,18.2005495 79.1702586,18.1146978 C78.975269,18.052524 78.8406707,17.7395776 78.5668103,17.4278846 C78.2914569,17.1144918 78.1307103,17.0257761 77.8987069,16.7947287 C77.8150328,16.7113994 77.7410828,16.6864169 77.6724138,16.6927799 Z M49.0840517,24.5160113 C49.2242621,24.9290436 49.2470293,25.2601666 48.9116379,25.5837912 C48.9026845,25.5956799 48.8937948,25.6054516 48.8846983,25.6159856 C48.9235759,25.4767102 48.9506638,25.3205804 49.0840517,25.154533 C49.1927914,25.019169 49.1521276,24.7535508 49.0840517,24.5160113 Z M4.21875,75.3616501 C4.22562448,75.3619334 4.2333769,75.3611384 4.24030172,75.3616501 L4.24030172,75.3670158 C4.23374983,75.3654773 4.22593483,75.3626013 4.21875,75.3616501 Z M4.22952586,87.6438015 L4.25646552,87.654533 C4.36425155,87.6992582 4.42927983,87.716614 4.47737069,87.7189217 L4.47737069,87.7994076 C4.38523569,87.767603 4.31151328,87.7038496 4.22952586,87.6438015 Z" opacity=".3" transform="translate(29 12)"/>
  </g>
</svg>
