<svg xmlns="http://www.w3.org/2000/svg" width="100" height="100" viewBox="0 0 100 100">
  <g fill="none" fill-rule="evenodd" transform="translate(-27 -25)">
    <rect width="150" height="150" opacity=".2"/>
    <path fill="#182F57" stroke="#CCC" stroke-width=".5" d="M99.4907805,54.9833654 C99.5220011,53.0303084 99.1684488,51.2038001 98.6089552,50.9467662 C98.361194,50.8338308 98.2263682,50.5761194 98.1497512,50.0771144 C98.0915423,49.6900498 97.9835821,49.3716418 97.9084577,49.3716418 C97.7238806,49.3716418 97.5273632,47.6661692 97.6631841,47.2373134 C97.7905473,46.8363184 98.0835821,46.7646766 98.0835821,47.1363184 C98.0835821,47.2711443 98.1955224,47.3830846 98.3313433,47.3830846 C98.4656716,47.3830846 98.5776119,47.4945274 98.5776119,47.6318408 C98.5776119,47.7676617 98.6955224,47.879602 98.8373134,47.879602 C99.0671642,47.879602 99.0840796,47.6124378 98.9895522,45.6860697 C98.8412935,42.7054726 98.5572139,41.6960199 97.6218905,40.8323383 C96.9547264,40.2154229 96.8736318,40.0487562 96.6502488,38.8681592 C96.5144279,38.1572139 96.4412935,37.5437811 96.4835821,37.5014925 C96.5636816,37.4189055 96.6208955,37.579602 96.918408,38.7308458 C97.018408,39.118408 97.1825871,39.4343284 97.280597,39.4343284 C97.5686567,39.4343284 97.3527363,37.7920398 96.9502488,36.9199005 C96.7522388,36.4920398 96.5905473,35.8935323 96.5905473,35.5885572 C96.5905473,34.9343284 95.960199,31.8636816 95.741791,31.4517413 C95.621393,31.2308458 95.6452736,31.1870647 95.839801,31.2621891 C95.9931547,31.321045 96.0753354,31.2658474 96.0862912,31.1123271 C98.4490719,36.8987362 99.7512438,43.2308766 99.7512438,49.8671642 C99.7512438,51.5945893 99.6630022,53.3014104 99.4907805,54.9833654 Z M99.0675116,58.1246634 C95.1350988,81.6095229 74.7124321,99.5074627 50.1094527,99.5074627 C32.4897087,99.5074627 17.0133866,90.3280033 8.20287366,76.4906795 C8.21537418,76.2568371 7.8278436,74.8098023 7.38855721,73.4746269 L6.95621891,72.1651741 L7.460199,71.5383085 C8.0238806,70.8373134 8.06766169,70.4696517 7.72985075,69.2049751 C7.42487562,68.058209 7.2960199,67.7472637 7.12238806,67.7472637 C7.04228856,67.7472637 6.63532338,67.0283582 6.21492537,66.1502488 C5.79701493,65.2716418 5.24427861,64.2845771 4.99054726,63.9542289 C4.11094527,62.8243781 2.75074627,59.5233831 2.56616915,58.0631841 C2.5079602,57.6064677 2.35870647,56.7880597 2.23233831,56.2412935 C2.10696517,55.6930348 2.0039801,54.8930348 2.00149254,54.458209 C2,54.0258706 1.92985075,53.539801 1.84825871,53.3820896 C1.76567164,53.2243781 1.61144279,52.5766169 1.50696517,51.9402985 C1.40149254,51.3049751 1.23283582,50.6855721 1.1318408,50.5651741 C0.95920398,50.3577114 0.928855721,48.8442786 1.01044776,44.6771144 C1.02879636,43.7639189 0.991413115,43.2449321 0.922507984,43.1079001 C1.30833227,40.2740237 1.9333213,37.5162086 2.77647315,34.8554548 C2.7588564,35.0433258 2.76083981,35.1996209 2.7920398,35.2810945 C2.86517413,35.4701493 2.91840796,35.4313433 2.99850746,35.1278607 C3.22158003,34.295836 3.31252048,33.620337 3.22832851,33.4982896 C3.70284025,32.1392464 4.23478203,30.8071437 4.82124571,29.5048893 C4.90983817,29.5020287 4.98109453,29.428069 4.98109453,29.338806 C4.98109453,29.2996955 4.96711119,29.2634005 4.94383191,29.2348529 C5.06673984,28.9662535 5.19197347,28.6989407 5.31950703,28.4329402 C5.45344345,28.258975 5.65496536,27.8436687 5.73068601,27.5956877 C5.8137699,27.4304673 5.89774937,27.2657747 5.98261802,27.1016163 C6.0699797,27.0438766 6.14179104,26.9263169 6.14179104,26.8368159 C6.14179104,26.8246227 6.14045821,26.8135593 6.13793481,26.8036762 C6.92834713,25.2999231 7.79364151,23.8416787 8.72886088,22.4338998 C8.93692121,22.2473051 9.10772035,22.2144409 9.38955224,22.2681592 C9.7721393,22.339801 10.0014925,22.2253731 10.6671642,21.6278607 C11.1129353,21.2283582 11.5577114,20.9004975 11.6547264,20.9004975 C11.7507463,20.9004975 11.9671642,20.7766169 12.1333333,20.6248756 C12.4149254,20.3711443 12.4368159,20.3711443 12.4368159,20.6248756 C12.4368159,20.7766169 12.5099502,20.9004975 12.5970149,20.9004975 C12.6840796,20.9004975 12.7109453,21.0218905 12.6527363,21.1711443 C12.5820896,21.3567164 12.6208955,21.4154229 12.7825871,21.3557214 C12.9099502,21.3094527 12.999005,21.1915423 12.9781095,21.0945274 C12.9378109,20.9099502 13.70199,20.2383085 13.9522388,20.2383085 C14.0348259,20.2383085 14.1840796,20.420398 14.2860697,20.6462687 C14.3880597,20.8711443 14.5363184,21.0154229 14.6139303,20.9681592 C14.6915423,20.9199005 14.7547264,20.9527363 14.7547264,21.0363184 C14.7547264,21.1228856 14.6129353,21.2298507 14.4402985,21.2746269 C14.2676617,21.3208955 14.040796,21.5154229 13.9373134,21.7084577 C13.780597,22.0024876 13.7950249,22.0597015 14.0318408,22.0597015 C14.1875622,22.0597015 14.4338308,22.1651741 14.5761194,22.2940299 C14.9562189,22.6353234 15.7492537,22.8089552 15.7492537,22.5502488 C15.7492537,22.4373134 15.8800995,22.2368159 16.0393035,22.1079602 C16.3039801,21.8925373 16.2885572,21.8771144 15.8681592,21.9437811 C15.6154229,21.981592 15.3701493,21.9502488 15.321393,21.8711443 C15.2726368,21.7935323 15.3393035,21.7278607 15.4706468,21.7278607 C15.6810945,21.7278607 16.0039801,20.8800995 15.9323383,20.5134328 C15.9169154,20.4368159 16.0562189,20.3348259 16.239801,20.2860697 C16.4258706,20.2378109 16.5776119,20.1318408 16.5776119,20.0517413 C16.5776119,19.9716418 16.6880597,19.9049751 16.8228856,19.9049751 C16.9562189,19.9049751 17.1955224,19.7094527 17.3522388,19.4701493 C17.6293532,19.0437811 17.6268657,19.0253731 17.1810945,18.641791 C16.6940299,18.2238806 16.7363184,18.1900498 17.5502488,18.3527363 C18.1542289,18.4741294 18.1920398,18.7 17.7363184,19.4447761 C17.3402985,20.0960199 17.278607,20.6656716 17.6587065,20.1626866 C17.7920398,19.9855721 17.9014925,19.7024876 17.9014925,19.5323383 C17.9014925,19.3597015 17.9781095,19.2696517 18.0741294,19.3293532 C18.1686567,19.3875622 18.2074627,19.561194 18.160199,19.7129353 C18.038806,20.1029851 18.299005,20.440796 18.739801,20.4636816 C18.9477612,20.4736318 19.1432836,20.5597015 19.1736318,20.6507463 C19.2318408,20.8293532 18.0452736,21.4039801 17.5412935,21.4427861 C17.3741294,21.4537313 17.2402985,21.5144279 17.2402985,21.5751244 C17.2402985,21.6373134 17.0845771,21.7283582 16.8940299,21.7781095 C16.6537313,21.8402985 16.5746269,21.959204 16.6378109,22.1681592 C16.9522388,23.2273632 16.9606965,23.4373134 16.6850746,23.3318408 C16.5079602,23.2621891 16.4119403,23.3109453 16.4119403,23.4676617 C16.4119403,23.6024876 16.5283582,23.7104478 16.6706468,23.7104478 C16.8348259,23.7104478 16.8820896,23.7855721 16.7995025,23.9179104 C16.7278607,24.0323383 16.6572139,24.218408 16.6378109,24.3323383 C16.5890547,24.6552239 16.8502488,24.5776119 17.340796,24.1318408 C17.5860697,23.9034826 17.7283582,23.7174129 17.6567164,23.7174129 C17.5850746,23.7174129 17.7079602,23.5472637 17.9313433,23.340796 C18.4452736,22.8636816 18.5935323,22.4835821 18.3577114,22.2477612 C18.2189055,22.1094527 18.2228856,22.0606965 18.3696517,22.0606965 C18.478607,22.0606965 18.5686567,21.9467662 18.5686567,21.8044776 C18.5686567,21.6631841 18.7955224,21.4676617 19.0751244,21.3706468 C19.4432836,21.2432836 19.5552239,21.120398 19.478607,20.9248756 C19.400995,20.718408 19.4218905,20.7004975 19.5711443,20.8472637 C19.8189055,21.0940299 20.7626866,20.2791045 21.0567164,19.5671642 C21.1661692,19.3024876 21.3104478,19.120398 21.378607,19.1616915 C21.4442786,19.20199 21.5970149,18.9383085 21.7174129,18.5726368 C21.838806,18.2094527 22.2029851,17.660199 22.5298507,17.3542289 C23.7069652,16.2462687 25.0208955,15.0656716 25.3064677,14.8567164 C25.5542289,14.6746269 25.4810945,14.6567164 24.8144279,14.7318408 C24.3651741,14.7830846 24.0323383,14.7512438 24.0323383,14.6626866 C24.0323383,14.39801 24.7452736,13.8149254 25.400995,13.541791 C25.7412935,13.3985075 26.019403,13.2054726 26.019403,13.1144279 C26.019403,13.0218905 26.2830846,12.7144279 26.6059701,12.4328358 C26.9263682,12.1497512 27.1502488,11.8791045 27.1014925,11.8303483 C27.0517413,11.7800995 27.1273632,11.5666667 27.2656716,11.3552239 C27.4049751,11.1427861 27.461194,10.9691542 27.3905473,10.9701493 C27.2034826,10.9736318 26.1577114,11.3621891 25.7716418,11.5711443 C25.5905473,11.6696517 25.2736318,11.7353234 25.0681592,11.7169154 C24.8636816,11.699005 24.5651741,11.8288557 24.4059701,12.0049751 C23.7731343,12.7059701 22.1651741,13.2293532 22.0169154,12.7860697 C21.9865672,12.6950249 21.6865672,12.8054726 21.3487562,13.0338308 C21.0119403,13.2631841 20.660199,13.4492537 20.5626866,13.4492537 C20.4651741,13.4492537 20.3875622,13.5233831 20.3875622,13.6094527 C20.3875622,13.69801 20.2651741,13.7248756 20.1169154,13.6666667 C19.9004975,13.5855721 19.9427861,13.5149254 20.3243781,13.319403 C20.5865672,13.1820896 21.0273632,12.8736318 21.3069652,12.6318408 C21.5850746,12.3910448 22.0402985,12.0985075 22.3199005,11.9830846 C22.599005,11.8661692 22.9069652,11.599005 23.0024876,11.3890547 C23.09801,11.1791045 23.4905473,10.7547264 23.8731343,10.4477612 C24.2557214,10.140796 24.8825871,9.61094527 25.2686567,9.2721393 C25.6537313,8.9318408 26.2208955,8.53482587 26.5318408,8.39253731 C26.8412935,8.24925373 27.2810945,8.02686567 27.5094527,7.89701493 C28.0522388,7.58756219 28.9064677,7.59104478 29.1661692,7.90447761 C29.2791045,8.04029851 29.441791,8.15223881 29.5293532,8.15223881 C29.6154229,8.15223881 29.7925373,8.25920398 29.9238806,8.39054726 C30.2079602,8.67363184 29.9696517,8.88159204 29.5228856,8.73930348 C29.158209,8.62238806 28.5378109,9.21044776 28.8328358,9.39253731 C28.958209,9.47014925 28.9218905,9.57810945 28.7189055,9.72636816 C28.5547264,9.84825871 28.4696517,9.9960199 28.5328358,10.058209 C28.5945274,10.120398 28.9905473,9.9318408 29.4144279,9.64179104 C30.0766169,9.18507463 30.280597,9.12537313 30.8756219,9.2079602 C31.2547264,9.26268657 31.8472637,9.24079602 32.1875622,9.15920398 C32.5522388,9.07562189 32.8084577,9.07661692 32.8084577,9.16169154 C32.8084577,9.24328358 32.6333333,9.30995025 32.4159204,9.30995025 C32.1995025,9.30995025 31.9238806,9.43134328 31.8024876,9.5761194 C31.679602,9.72189055 31.4149254,9.9039801 31.2144279,9.98059701 C30.9482587,10.0810945 30.8721393,10.2149254 30.9363184,10.460199 C30.9860697,10.6537313 30.9447761,10.8004975 30.8402985,10.8004975 C30.7378109,10.8004975 30.6552239,10.7069652 30.6542289,10.5940299 C30.6517413,10.4457711 30.6094527,10.4527363 30.5049751,10.6169154 C30.3228856,10.9024876 29.8283582,10.7373134 29.8283582,10.3910448 C29.8283582,10.0925373 29.8099502,10.0900498 29.2512438,10.3024876 C29.000995,10.3970149 28.7457711,10.6741294 28.6462687,10.9547264 C28.5527363,11.2233831 28.1651741,11.6985075 27.7850746,12.0104478 C27.4059701,12.3228856 26.9223881,12.8850746 26.7124378,13.2616915 C26.3089552,13.980597 26.3686567,14.1298507 26.8751244,13.6721393 C27.1930348,13.3850746 27.3084577,13.5855721 27,13.8930348 C26.8771144,14.0144279 27.0144279,14.0119403 27.4457711,13.8830846 C27.7885572,13.7810945 28.3044776,13.4626866 28.5925373,13.178607 C29.1124378,12.6636816 29.8288557,12.1960199 29.8288557,12.3696517 C29.8288557,12.420398 29.5930348,12.6706468 29.3064677,12.9283582 L28.7840796,13.3935323 L29.4800995,13.420398 C30.2074627,13.4482587 30.3069652,13.3825871 31.3626866,12.1572139 C31.6124378,11.8661692 31.9308458,11.6278607 32.0681592,11.6278607 C32.4736318,11.6278607 33.7940299,10.9014925 33.799005,10.6756219 C33.8014925,10.5616915 33.9084577,10.4691542 34.0348259,10.4691542 C34.1621891,10.4691542 34.3084577,10.360199 34.359204,10.2273632 C34.4099502,10.0945274 34.8621891,9.77761194 35.361194,9.5238806 C36.3338308,9.02935323 37.2776119,7.91293532 36.9766169,7.6119403 C36.6791045,7.31442786 34.7512438,7.54776119 34.1865672,7.94975124 C33.6422886,8.3358209 33.0651741,8.42686567 32.8940299,8.15124378 C32.8383085,8.060199 32.9268657,7.98507463 33.0920398,7.98507463 C33.2572139,7.98308458 33.6094527,7.83930348 33.8781095,7.66218905 C34.1442786,7.48606965 34.8606965,7.25273632 35.4656716,7.14477612 C36.4338308,6.97114428 36.618408,6.98208955 36.9935323,7.22736318 C37.2751244,7.40995025 37.4562189,7.44626866 37.5278607,7.33084577 C37.5885572,7.23482587 37.7502488,7.15721393 37.8885572,7.15721393 C38.0776119,7.15721393 38.0328358,7.28507463 37.7134328,7.66517413 C37.1850746,8.2920398 37.1641791,8.64079602 37.6562189,8.66616915 C40.4233831,8.80099502 41.7363184,9.13731343 41.4313433,9.63034826 C41.3208955,9.80995025 41.1761194,9.78109453 40.6915423,9.48208955 C40.3039801,9.24427861 39.9895522,9.15671642 39.8049751,9.23681592 C39.6482587,9.30597015 39.4621891,9.34975124 39.3905473,9.33383085 C39.3199005,9.31791045 38.959204,9.46119403 38.5875622,9.65074627 C38.0542289,9.9238806 37.9293532,10.0661692 38.000995,10.3333333 C38.1323383,10.8353234 37.4885572,11.380597 35.8865672,12.1263682 C35.0631841,12.5124378 34.4522388,12.9024876 34.3950249,13.0845771 C34.3248756,13.3069652 34.1766169,13.3736318 33.8437811,13.3263682 C33.5945274,13.2900498 33.2422886,13.378607 33.060199,13.5218905 C32.7442786,13.7696517 32.741791,13.7925373 33.0223881,14.0099502 C33.2955224,14.2223881 33.2885572,14.2432836 32.8985075,14.318408 C32.6676617,14.3621891 32.479602,14.3328358 32.479602,14.2552239 C32.479602,13.7208955 30.4741294,14.7651741 29.0457711,16.0442786 C27.5189055,17.4084577 26.9661692,18.1263682 26.9189055,18.8004975 C26.8970149,19.0905473 26.8278607,19.4950249 26.7621891,19.7004975 C26.5955224,20.2179104 26.8437811,20.180597 28.1711443,19.4820896 C28.7890547,19.159204 29.5263682,18.8870647 29.8094527,18.878607 C30.0940299,18.8701493 30.3258706,18.7945274 30.3258706,18.7144279 C30.3258706,18.6333333 30.5940299,18.4532338 30.9208955,18.3174129 C31.3810945,18.1258706 31.5681592,18.1134328 31.7502488,18.2641791 C31.9084577,18.3955224 32.2676617,18.4199005 32.8532338,18.3383085 C34.2840796,18.1427861 34.8587065,18.1631841 36.2920398,18.4656716 C36.6368159,18.539801 37.9338308,18.1995025 37.8477612,18.0587065 C37.7771144,17.9482587 37.8656716,17.9253731 38.0905473,17.99801 C38.2845771,18.0587065 38.4437811,18.0378109 38.4437811,17.9542289 C38.4437811,17.7174129 39.738806,16.5139303 39.9950249,16.5114428 C40.1179104,16.5099502 40.3233831,16.4228856 40.4507463,16.319403 C40.5746269,16.2149254 40.7542289,16.1189055 40.8442786,16.1069652 C41.4238806,16.0328358 41.7661692,15.8676617 41.6995025,15.6925373 C41.5890547,15.4074627 41.8427861,15.0552239 42.1940299,15.0039801 C42.359204,14.979602 42.5766169,14.8447761 42.6800995,14.7049751 C42.7820896,14.5641791 42.9084577,14.4920398 42.9606965,14.5432836 C43.0129353,14.5955224 43.1368159,14.4885572 43.2353234,14.3064677 C43.3666667,14.0587065 43.359204,13.9492537 43.2074627,13.8766169 C43.0940299,13.8218905 43.1681592,13.8109453 43.3736318,13.8487562 C43.5791045,13.8850746 43.7467662,13.8537313 43.7467662,13.7746269 C43.7467662,13.6129353 45.1606965,12.9547264 45.5069652,12.9547264 C45.6333333,12.9547264 45.7353234,12.841791 45.7353234,12.7069652 C45.7353234,12.5711443 45.6199005,12.459204 45.4766169,12.459204 C45.3353234,12.459204 45.2651741,12.3840796 45.3208955,12.2940299 C45.3771144,12.2029851 45.3258706,12.1248756 45.2069652,12.1238806 C45.0427861,12.1223881 45.0492537,12.0860697 45.2288557,11.9706468 C45.360199,11.8890547 45.4925373,11.6318408 45.5228856,11.400995 C45.5666667,11.0706468 45.4696517,10.9238806 45.0651741,10.7149254 C44.7820896,10.5691542 44.3885572,10.4368159 44.1905473,10.4199005 C43.9925373,10.4014925 43.6696517,10.2268657 43.4716418,10.0298507 L43.1144279,9.67164179 L43.519403,9.57014925 C43.7412935,9.51442786 44.0124378,9.27512438 44.120398,9.04179104 C44.2880597,8.67363184 44.2701493,8.5800995 43.9905473,8.3761194 C43.8119403,8.24626866 43.6835821,8.10547264 43.7064677,8.0641791 C43.8179104,7.860199 43.7233831,7.65721393 43.5169154,7.65721393 C43.3905473,7.65721393 43.2437811,7.54427861 43.1915423,7.40845771 C43.1248756,7.23930348 42.8577114,7.16169154 42.3353234,7.16169154 C41.8129353,7.16169154 41.6104478,7.10298507 41.6890547,6.97462687 C41.7676617,6.84626866 41.6199005,6.80945274 41.2054726,6.85820896 C40.5288557,6.93731343 40.2965174,6.65920398 40.7,6.25572139 C40.9223881,6.03432836 40.9223881,6.00298507 40.7074627,6.00298507 C40.5716418,6.00298507 40.3432836,5.95671642 40.1985075,5.90199005 C40.0273632,5.83482587 39.9373134,5.8920398 39.9373134,6.0681592 C39.9373134,6.22039801 39.799005,6.33432836 39.6154229,6.33432836 C39.4368159,6.33432836 39.2497512,6.40597015 39.1965174,6.49353234 C39.0497512,6.72935323 38.579602,6.4920398 38.6791045,6.23233831 C38.8726368,5.72686567 37.1850746,5.83283582 36.5099502,6.36716418 C36.2621891,6.56169154 35.4263682,6.47562189 35.3512438,6.24825871 C35.260199,5.97014925 36.7845771,5.61791045 38.0756219,5.61791045 C39.1970149,5.61791045 39.2865672,5.59154229 39.3766169,5.23432836 C39.4472637,4.94925373 39.6258706,4.82885572 40.0776119,4.75472637 C41.1925373,4.57711443 42.3343284,4.3039801 42.6427861,4.14477612 C42.9318408,3.99651741 42.9268657,3.97114428 42.5661692,3.71840796 C42.1666667,3.43880597 41.1353234,3.42437811 40.8522388,3.69751244 C40.7547264,3.7920398 40.7741294,3.84925373 40.9054726,3.84925373 C41.019403,3.84925373 41.0716418,3.91741294 41.019403,4.00099502 C40.9621891,4.09054726 40.6940299,4.0880597 40.3452736,3.99104478 C40.0258706,3.90348259 39.7054726,3.8681592 39.6348259,3.9119403 C39.5626866,3.95671642 39.399005,3.92636816 39.2726368,3.84875622 C39.1004975,3.74278607 39.1656716,3.67860697 39.5278607,3.60199005 C39.7960199,3.54378109 40.1532338,3.42238806 40.318408,3.33233831 C40.4845771,3.24129353 41.0069652,3.12189055 41.479602,3.06616915 C41.9512438,3.01044776 42.741791,2.78557214 43.2373134,2.56716418 C44.3995025,2.05323383 44.6766169,2.02288557 48.6751244,1.9681592 C50.9830846,1.93781095 52.0930348,1.86169154 52.2278607,1.7278607 C52.3363184,1.61940299 52.5776119,1.52338308 52.7636816,1.51144279 C53.0457711,1.4960199 53.0537313,1.48109453 52.8109453,1.41691542 C52.3467662,1.29552239 52.6542289,1.03432836 53.260199,1.03432836 C53.5845771,1.03432836 53.8497512,0.938308458 53.9029851,0.8 C53.9527363,0.670149254 54.1661692,0.536318408 54.3776119,0.502487562 C54.4840278,0.484625806 54.4119653,0.443865912 54.210763,0.392365577 C58.7773761,0.765812735 63.1689911,1.75731821 67.3018153,3.28308214 C67.2825602,3.32414572 67.2711443,3.37397535 67.2711443,3.42736318 C67.2711443,3.65472637 67.2228856,3.65472637 66.7830846,3.42736318 C66.5159204,3.28855721 66.1517413,3.17462687 65.9756219,3.17462687 C65.681592,3.17462687 64.8567164,2.89054726 64.041791,2.5079602 C63.8597015,2.42338308 62.8522388,2.17064677 61.8054726,1.94825871 C60.7577114,1.72338308 59.7696517,1.49154229 59.6109453,1.43084577 C59.4298507,1.360199 59.320398,1.39552239 59.320398,1.52537313 C59.320398,1.80547264 57.7527363,1.63830846 57.0845771,1.28706468 C56.8109453,1.14228856 56.3810945,1.02437811 56.1323383,1.02338308 C55.880597,1.02338308 55.6756219,0.947263682 55.6756219,0.85721393 C55.6756219,0.766169154 55.5646766,0.692039801 55.4278607,0.692039801 C55.2920398,0.692039801 55.1800995,0.766169154 55.1800995,0.85721393 C55.1800995,0.947263682 55.0666667,1.02238806 54.9308458,1.02238806 C54.5507463,1.02238806 54.6368159,1.31741294 55.0562189,1.44029851 C55.261194,1.50099502 56.2487562,1.94527363 57.2522388,2.42885572 C58.2542289,2.91243781 59.3348259,3.36169154 59.6547264,3.42736318 C60.2860697,3.55870647 61.8542289,4.31393035 61.5164179,4.32736318 C61.1328358,4.34228856 61.3064677,4.67512438 61.8726368,5.00895522 C62.2736318,5.24577114 62.4129353,5.42935323 62.3562189,5.64776119 C62.3124378,5.81542289 62.3562189,6.00348259 62.4557214,6.0641791 C62.7089552,6.22238806 62.6791045,6.48706468 62.4044776,6.48706468 C62.2766169,6.48706468 62.1258706,6.61094527 62.0691542,6.75920398 C61.9731343,7.01044776 61.9442786,7.01044776 61.6646766,6.75920398 C61.500995,6.61094527 61.2870647,6.48706468 61.1910448,6.48706468 C61.0955224,6.48706468 60.9776119,6.33631841 60.9303483,6.15522388 C60.8781095,5.95721393 60.7044776,5.82487562 60.4965174,5.82487562 C60.1393035,5.82487562 60.0169154,6.22089552 60.3144279,6.40447761 C60.4059701,6.460199 60.479602,6.64726368 60.479602,6.82238806 C60.479602,7.41492537 61.5910448,7.69452736 62.1776119,7.24975124 C62.7547264,6.81393035 64.4552239,7.28756219 64.4552239,7.88507463 C64.4552239,8.01243781 64.5477612,8.15223881 64.6626866,8.19850746 C64.7756219,8.24427861 64.5606965,8.28706468 64.1840796,8.29552239 C63.6268657,8.30497512 63.4820896,8.37711443 63.4059701,8.66716418 C63.2781095,9.15572139 63.3975124,9.30149254 63.9268657,9.30746269 C64.3328358,9.31243781 64.3462687,9.33283582 64.0825871,9.53333333 C63.9223881,9.65621891 63.7925373,9.90895522 63.7925373,10.0995025 C63.7925373,10.4368159 63.7691542,10.440796 63.0054726,10.2074627 C61.9810945,9.89651741 61.4880597,9.90248756 61.3631841,10.2303483 C61.281592,10.4393035 61.1139303,10.4696517 60.539801,10.3845771 C60.0671642,10.3139303 59.818408,10.3383085 59.818408,10.4562189 C59.818408,10.5606965 59.6567164,10.5935323 59.4199005,10.5338308 C59.179602,10.4731343 58.8587065,10.5402985 58.618408,10.69801 C58.3378109,10.881592 58.0427861,10.9278607 57.6502488,10.8487562 C57.1293532,10.7467662 57.1024876,10.7616915 57.3199005,11.0238806 C57.780597,11.5860697 58.138806,11.6626866 59.2552239,11.4402985 C59.8368159,11.3248756 60.3144279,11.1497512 60.3169154,11.0527363 C60.319403,10.9298507 60.358209,10.9313433 60.441791,11.0562189 C60.5074627,11.1547264 60.7129353,11.3208955 60.8935323,11.4243781 C61.2164179,11.6054726 61.2159204,11.6104478 60.8537313,11.6164179 C60.3895522,11.6233831 60.3482587,12.1144279 60.8024876,12.2333333 C61.120398,12.3174129 61.1845771,12.4960199 61.3975124,13.8975124 C61.4557214,14.2850746 61.560199,14.600995 61.6318408,14.600995 C61.7024876,14.600995 61.7243781,14.7880597 61.6820896,15.0154229 C61.6343284,15.2572139 61.679602,15.4298507 61.7875622,15.4298507 C61.8895522,15.4298507 61.9711443,15.5562189 61.9711443,15.7094527 C61.9711443,15.9368159 61.9004975,15.9124378 61.59801,15.5880597 L61.2263682,15.1860697 L61.1746269,15.6402985 C61.1283582,16.0348259 61.0676617,16.078607 60.700995,15.9875622 C60.2965174,15.8865672 60.2845771,15.9034826 60.3985075,16.441791 C60.4641791,16.7502488 60.6208955,17.1208955 60.7482587,17.2641791 C60.8746269,17.4089552 60.9791045,17.6736318 60.9791045,17.8557214 C60.9791045,18.0378109 61.1830846,18.3646766 61.4333333,18.5845771 L61.8900498,18.980597 L61.2268657,19.10199 C60.3960199,19.2527363 58.9527363,18.9820896 58.4597015,18.5835821 C58.1293532,18.3164179 58.0870647,18.1353234 58.1,17.0616915 C58.1064677,16.3910448 58.1427861,15.5860697 58.1791045,15.2701493 C58.2288557,14.8208955 58.1800995,14.6810945 57.9532338,14.6363184 C57.781592,14.600995 57.6641791,14.6776119 57.6641791,14.8243781 C57.6641791,14.960199 57.4656716,15.2139303 57.2268657,15.3890547 C56.7820896,15.7124378 56.6910448,16.1761194 56.8925373,17.0860697 C56.9437811,17.3129353 57.0313433,17.8537313 57.0860697,18.2860697 C57.1696517,18.9532338 57.2641791,19.1144279 57.7004975,19.3393035 C58.0318408,19.5114428 58.4606965,19.5771144 58.9039801,19.5273632 C60.0328358,19.400995 60.6547264,20.0995025 59.5915423,20.2975124 C59.2318408,20.3656716 58.821393,20.6402985 58.4293532,21.078607 C57.978607,21.5776119 57.7477612,21.721393 57.5353234,21.6288557 C57.3776119,21.5597015 57.0044776,21.4701493 56.7094527,21.4298507 C56.2940299,21.3691542 56.1701493,21.4139303 56.1701493,21.619403 C56.1701493,21.7666667 56.2452736,21.8855721 56.3363184,21.8855721 C56.4263682,21.8855721 56.5029851,22.0104478 56.5029851,22.1636816 C56.5029851,22.3154229 56.6199005,22.5681592 56.7616915,22.7258706 C57,22.9895522 56.9890547,23.0099502 56.6029851,22.9870647 C56.3631841,22.9726368 56.1034826,22.8109453 55.9955224,22.6129353 C55.8034826,22.2522388 53.938806,21.3900498 53.3522388,21.3900498 C53.1711443,21.3900498 53.0243781,21.3159204 53.0243781,21.2248756 C53.0243781,21.1338308 52.9164179,21.0587065 52.7840796,21.0587065 C52.6532338,21.0587065 52.3467662,20.8766169 52.1039801,20.6517413 C51.7955224,20.3651741 51.4830846,20.2462687 51.060199,20.2547264 C50.3676617,20.2681592 49.3791045,20.5656716 49.3791045,20.761194 C49.3791045,20.8328358 49.159204,20.8925373 48.8920398,20.8925373 C48.6233831,20.8925373 48.3577114,20.9691542 48.3004975,21.0626866 C48.2422886,21.1552239 47.9228856,21.3726368 47.5875622,21.5462687 C46.8940299,21.9059701 45.8179104,22.8532338 45.9492537,22.9855721 C45.99801,23.0343284 46.1995025,22.9865672 46.3975124,22.8810945 C46.5955224,22.7756219 46.7885572,22.718408 46.8263682,22.7562189 C46.8641791,22.7950249 46.7134328,22.9199005 46.4935323,23.0402985 C46.2726368,23.1567164 45.8278607,23.6378109 45.5024876,24.1079602 C45.1064677,24.6840796 44.7228856,25.0323383 44.3303483,25.1746269 C44.0094527,25.2890547 43.7472637,25.4422886 43.7472637,25.5149254 C43.7472637,25.5855721 43.4447761,25.7810945 43.0731343,25.9487562 C42.2621891,26.3134328 42.00199,26.7761194 41.8477612,28.1169154 C41.7054726,29.3656716 41.9303483,29.8358209 42.6686567,29.8283582 C42.9432836,29.8258706 43.3114428,29.7144279 43.4885572,29.580597 C44.0069652,29.1870647 44.2437811,29.280597 44.2402985,29.8746269 C44.2402985,30.1880597 44.1855721,30.3288557 44.1114428,30.2124378 C44.0129353,30.058209 43.840796,30.0621891 43.3462687,30.2333333 C42.6014925,30.4885572 42.4631841,30.6865672 42.3393035,31.6726368 C42.181592,32.9442786 42.1537313,32.979602 41.2597015,32.979602 C40.5258706,32.979602 40.4069652,33.0353234 40,33.5686567 C39.5298507,34.1885572 38.6567164,34.7422886 38.4721393,34.541791 C38.4129353,34.4771144 38.4567164,34.3910448 38.5706468,34.3497512 C38.8791045,34.2412935 38.8223881,33.1179104 38.4626866,32.1159204 C37.9378109,30.6631841 37.8945274,30.1004975 38.2781095,29.7532338 C38.7179104,29.3577114 38.7179104,28.8412935 38.2781095,28.8412935 C37.9910448,28.8412935 38.020398,28.7741294 38.4855721,28.3552239 C38.9129353,27.9701493 38.9845771,27.8268657 38.8218905,27.6641791 C38.660199,27.5004975 38.5532338,27.5174129 38.2945274,27.7517413 C38.1169154,27.9134328 37.8860697,27.9950249 37.7865672,27.9328358 C37.6860697,27.8696517 37.4940299,27.9094527 37.3616915,28.0189055 C37.1930348,28.1606965 37.121393,28.1646766 37.121393,28.0333333 C37.121393,27.70199 36.5885572,27.8353234 36.1875622,28.2691542 C35.7208955,28.7731343 35.6965174,28.9552239 36.0865672,29.0572139 C36.3621891,29.1288557 36.3621891,29.1323383 36.0865672,29.1517413 C35.7830846,29.1711443 35.6686567,29.5014925 35.9626866,29.5014925 C36.0661692,29.5014925 36.0577114,29.6169154 35.939801,29.8049751 C35.8119403,30.0064677 35.6179104,30.0845771 35.3517413,30.0333333 C35.1208955,29.9895522 34.8283582,30.0711443 34.6532338,30.2288557 C34.4875622,30.380597 34.238806,30.4606965 34.1039801,30.4074627 C33.8084577,30.2960199 33.2706468,31.0293532 33.4004975,31.3671642 C33.4527363,31.50199 33.3169154,31.6721393 33.0666667,31.7850746 C32.541791,32.0253731 32.4835821,32.7383085 32.9766169,32.8950249 C33.4587065,33.0477612 34.8373134,32.8109453 35.1726368,32.518408 C35.3328358,32.3791045 35.4626866,32.1079602 35.4626866,31.9174129 C35.4626866,31.7258706 35.6094527,31.4791045 35.7880597,31.3661692 C36.060199,31.1960199 36.09801,31.2029851 36.0189055,31.4084577 C35.9621891,31.560199 36.0238806,31.6537313 36.180597,31.6537313 C36.320398,31.6537313 36.4686567,31.5248756 36.5099502,31.3646766 C36.5557214,31.1895522 36.5935323,31.2567164 36.6044776,31.5383085 C36.620398,31.9467662 36.5706468,31.9940299 36.1671642,31.9527363 C35.7701493,31.9104478 35.7139303,31.960199 35.7189055,32.3597015 C35.7238806,32.6910448 35.6447761,32.8139303 35.4238806,32.8139303 C35.0412935,32.8139303 34.8442786,33.2985075 35.1492537,33.4855721 C35.3363184,33.60199 35.318408,33.6761194 35.0497512,33.8850746 C34.8666667,34.0258706 34.5129353,34.1875622 34.2616915,34.2432836 C33.7562189,34.3562189 33.6482587,34.6243781 34.0975124,34.6512438 C34.2557214,34.6597015 34.9452736,34.6975124 35.6293532,34.7313433 C36.3129353,34.7676617 37.1328358,34.861194 37.4512438,34.9402985 L38.0318408,35.0850746 L37.3930348,35.3666667 C36.7870647,35.6328358 36.7373134,35.6313433 36.4164179,35.3472637 C36.1845771,35.139801 36.0567164,35.1094527 36.0094527,35.2452736 C35.9691542,35.3547264 35.8233831,35.3995025 35.6825871,35.3447761 C35.4810945,35.2671642 35.4467662,35.3303483 35.5258706,35.6437811 C35.580597,35.861194 35.5840796,35.9482587 35.5318408,35.8343284 C35.4781095,35.720398 35.1452736,35.6268657 34.7870647,35.6268657 C34.1746269,35.6268657 34.1383085,35.6547264 34.1383085,36.1283582 C34.1383085,36.421393 34.2412935,36.6691542 34.3860697,36.7248756 C34.5228856,36.778607 34.6348259,36.9243781 34.6348259,37.0517413 C34.6348259,37.1800995 34.7064677,37.2835821 34.7925373,37.2835821 C35.0208955,37.2835821 35.1870647,38.3462687 35.0621891,39.0094527 C35.0049751,39.321393 34.8278607,39.7323383 34.6711443,39.920398 C34.399005,40.2472637 34.3527363,40.2507463 33.5631841,40.0104478 C33.1114428,39.8731343 32.6666667,39.6860697 32.5781095,39.5975124 C32.4880597,39.5084577 32.3059701,39.4333333 32.1711443,39.4333333 C32.0373134,39.4333333 31.79801,39.3169154 31.6402985,39.1746269 C31.4034826,38.9597015 31.239801,38.9472637 30.6761194,39.09801 C30.0930348,39.2557214 29.9970149,39.3447761 29.9960199,39.7308458 C29.9935323,40.5024876 29.6800995,41.3562189 29.1542289,42.0169154 C28.7522388,42.5223881 28.6686567,42.759204 28.7437811,43.1636816 C28.8044776,43.4865672 28.7512438,43.7890547 28.5955224,43.9945274 C28.2661692,44.4328358 28.280597,44.5666667 28.6621891,44.5666667 C28.8402985,44.5666667 29.0298507,44.641791 29.0870647,44.7328358 C29.1432836,44.8228856 29.3243781,44.89801 29.4905473,44.89801 C29.700995,44.89801 29.8174129,45.0512438 29.8671642,45.3950249 C29.981592,46.1626866 29.2880597,47.021393 28.3587065,47.2666667 C27.378607,47.5263682 26.3840796,48.5383085 26.2442786,49.4189055 C26.1641791,49.9074627 26.0412935,50.0920398 25.7084577,50.2134328 C25.4716418,50.3004975 25.1641791,50.4174129 25.0283582,50.4746269 C24.8920398,50.5328358 24.6865672,50.5651741 24.5726368,50.5472637 C24.4587065,50.5273632 24.3661692,50.599005 24.3661692,50.7034826 C24.3661692,50.8218905 24.2154229,50.858209 23.9761194,50.7960199 C23.6761194,50.7218905 23.5402985,50.7935323 23.3641791,51.121393 C23.2368159,51.358209 22.9393035,51.5820896 22.681592,51.6338308 C22.2179104,51.7258706 21.7149254,52.3054726 21.7149254,52.7452736 C21.7149254,52.881592 21.5860697,53.0318408 21.4258706,53.0830846 C21.2666667,53.1338308 20.8199005,53.5422886 20.4323383,53.9925373 C19.8587065,54.658209 19.6800995,55.0298507 19.478607,55.9910448 C19.1825871,57.3985075 19.1850746,57.3621891 19.4059701,57.2273632 C19.5223881,57.1532338 19.5587065,57.3572139 19.5139303,57.8373134 C19.4532338,58.5014925 19.1228856,58.7517413 19.1676617,58.1004975 C19.1776119,57.941791 19.1218905,57.8114428 19.0427861,57.8114428 C18.9636816,57.8114428 18.8995025,58.0348259 18.8995025,58.3069652 C18.8995025,58.581592 18.9726368,58.8049751 19.061194,58.8049751 C19.2726368,58.8049751 18.9303483,59.6333333 18.581592,59.9636816 C18.4139303,60.1238806 18.3154229,60.5114428 18.3094527,61.039801 C18.3054726,61.4955224 18.2447761,62.0890547 18.1781095,62.3636816 C18.0895522,62.7328358 18.1442786,62.9880597 18.3930348,63.3572139 C18.5776119,63.6283582 18.8228856,63.9925373 18.9383085,64.1661692 C19.0527363,64.3363184 19.3452736,64.69801 19.5870647,64.9701493 C20.0666667,65.5094527 20.2915423,66.4243781 19.9950249,66.6308458 C19.8736318,66.7169154 20.0701493,67 20.5646766,67.459204 C20.978607,67.8437811 21.699005,68.640796 22.1641791,69.2323383 C23.6119403,71.079602 23.7467662,71.1646766 25.3587065,71.2731343 C26.4472637,71.3442786 26.9537313,71.4661692 27.5950249,71.8084577 C28.3701493,72.2238806 28.5014925,72.2447761 29.6661692,72.118408 C31.1641791,71.9577114 32.1865672,71.9557214 33.0199005,72.1119403 C33.5626866,72.2139303 33.7,72.3393035 34.0791045,73.0910448 C34.3159204,73.5641791 34.5965174,74.0044776 34.6985075,74.0741294 C34.8004975,74.139801 35.3313433,74.19801 35.8781095,74.2004975 C36.9333333,74.2049751 37.5308458,74.4029851 37.0512438,74.5875622 C36.7353234,74.7079602 36.6975124,75.1940299 37.0024876,75.1940299 C37.1228856,75.1940299 37.3109453,75.1024876 37.4238806,74.9875622 C37.8825871,74.5318408 38.1378109,75.7069652 37.7054726,76.2800995 C37.5706468,76.4577114 37.460199,76.8437811 37.4567164,77.1402985 C37.4532338,77.5044776 37.3716418,77.6771144 37.2029851,77.6771144 C37.0671642,77.6771144 36.9542289,77.7462687 36.9542289,77.8253731 C36.9542289,78.2149254 37.7935323,79.3691542 38.6303483,80.1318408 C39.3238806,80.7656716 39.7353234,81.3393035 40.2432836,82.3860697 C40.6199005,83.1562189 40.8830846,83.9044776 40.8298507,84.0427861 C40.7751244,84.1850746 40.8880597,84.5626866 41.0800995,84.8880597 C41.5393035,85.6656716 41.5223881,85.8258706 40.9343284,86.2597015 C40.6636816,86.4616915 40.3915423,86.8308458 40.3318408,87.078607 C40.2711443,87.3273632 40.1497512,87.6238806 40.0587065,87.7378109 C39.7014925,88.1920398 40.0402985,89.1995025 40.8298507,90.0189055 C41.3084577,90.5218905 41.5940299,90.9676617 41.5940299,91.220398 C41.5940299,91.5124378 41.6621891,91.5965174 41.8502488,91.5223881 C42.0094527,91.4631841 42.0666667,91.4920398 41.9985075,91.6014925 C41.9378109,91.699005 42.0472637,91.8890547 42.2378109,92.0218905 C42.4298507,92.159204 42.5875622,92.3751244 42.5875622,92.5079602 C42.5875622,92.6393035 42.6457711,92.7462687 42.7174129,92.7462687 C42.7905473,92.7462687 42.9437811,93.0034826 43.0577114,93.3169154 C43.1840796,93.6716418 43.4925373,94.0263682 43.8776119,94.2572139 C44.6402985,94.7189055 45.8024876,95.7368159 45.8293532,95.9676617 C45.8402985,96.0621891 45.858209,96.2273632 45.8716418,96.3368159 C45.8870647,96.4437811 46.1024876,96.5661692 46.3537313,96.6039801 C46.6039801,96.6452736 48.00199,96.6437811 49.4616915,96.6029851 C52.299005,96.521393 53.2223881,96.3427861 54.6253731,95.6004975 C56.9159204,94.3910448 56.9706468,94.3497512 57.2547264,93.7179104 C57.4940299,93.1910448 57.6746269,93.0452736 58.3865672,92.8119403 C58.8517413,92.661194 59.3169154,92.4706468 59.4189055,92.3915423 C59.6900498,92.1766169 59.8333333,91.0666667 59.6228856,90.8114428 C59.3507463,90.4845771 59.5661692,90.1462687 60.2706468,89.7840796 C60.6238806,89.6044776 61.0029851,89.3467662 61.1169154,89.2109453 C61.2303483,89.0756219 61.7074627,88.8278607 62.178607,88.6626866 C62.6621891,88.4905473 63.3293532,88.0726368 63.7164179,87.6960199 L64.399005,87.0353234 L64.4258706,85.5706468 C64.4492537,84.258209 64.418408,84.0985075 64.1343284,84.0233831 C63.7358209,83.921393 63.5378109,83.2 63.8174129,82.8646766 C64.1149254,82.5054726 64.1258706,82.199005 63.8597015,81.6890547 C63.6557214,81.29801 63.6577114,81.2348259 63.8741294,81.1885572 C64.140796,81.1298507 64.2243781,80.4960199 63.9656716,80.4960199 C63.4542289,80.4960199 65.0348259,78.59801 68.0373134,75.6059701 C70.2099502,73.4437811 71.0114428,72.3482587 71.6358209,70.6905473 C71.8532338,70.1059701 72.1970149,69.3104478 72.3950249,68.9218905 C72.5945274,68.5308458 72.718408,68.1104478 72.6706468,67.9850746 C72.6223881,67.8587065 72.7094527,67.6840796 72.8651741,67.5965174 C73.0935323,67.4676617 73.1079602,67.3950249 72.941791,67.2273632 C72.8278607,67.1129353 72.7353234,66.8094527 72.7353234,66.5542289 C72.7353234,66.2054726 72.6537313,66.0915423 72.4124378,66.0915423 C72.2353234,66.0915423 72.0293532,66.1960199 71.9567164,66.3233831 C71.8472637,66.5174129 70.8293532,67.0522388 69.7522388,67.4810945 C69.6174129,67.5358209 69.3925373,67.6512438 69.2567164,67.7363184 C69.1208955,67.8199005 68.659204,68.0497512 68.2303483,68.2442786 C67.3208955,68.6557214 66.8457711,68.5189055 66.6651741,67.7850746 C66.538806,67.2820896 65.9557214,66.6820896 64.9064677,65.9825871 C64.4726368,65.6910448 64.2054726,65.3860697 64.2054726,65.1820896 C64.2054726,64.9636816 64.0781095,64.8313433 63.8328358,64.7975124 C63.5825871,64.761194 63.461194,64.8298507 63.461194,65.0039801 C63.461194,65.3343284 63.1965174,65.3422886 63.0701493,65.0159204 C63.0179104,64.879602 63.0651741,64.7656716 63.1756219,64.7641791 C63.3144279,64.7631841 63.321393,64.7228856 63.2024876,64.6402985 C63.1044776,64.5746269 62.8626866,64.1810945 62.6656716,63.7706468 C62.4701493,63.359204 62.0910448,62.8935323 61.8263682,62.7373134 C61.4487562,62.5139303 61.321393,62.2955224 61.2338308,61.7059701 C61.0746269,60.6467662 60.4771144,59.6363184 60.0119403,59.6363184 C59.8104478,59.6363184 59.619403,59.158209 59.740796,58.961194 C59.7915423,58.878607 59.6751244,58.6427861 59.4820896,58.4378109 C59.019403,57.9422886 58.1606965,56.4338308 58.1606965,56.1154229 C58.1606965,55.9766169 58.2875622,55.8149254 58.4432836,55.7557214 C58.7641791,55.6328358 59.740796,56.6412935 59.9179104,57.2776119 C59.9736318,57.481592 60.0845771,57.6492537 60.1621891,57.6492537 C60.240796,57.6492537 60.4149254,57.8646766 60.5517413,58.1268657 C60.6875622,58.3900498 60.9756219,58.6477612 61.1905473,58.7034826 C61.6059701,58.8069652 61.940796,59.3810945 62.3223881,60.6313433 C62.4985075,61.2094527 62.6696517,61.4283582 63.0865672,61.6114428 C63.380597,61.7427861 63.6661692,62.0014925 63.718408,62.1910448 C63.7716418,62.381592 64.1895522,62.8761194 64.6487562,63.2950249 C65.2293532,63.8233831 65.49801,64.200995 65.5293532,64.5378109 C65.5865672,65.1452736 65.7069652,65.4935323 66.1756219,66.4263682 C66.5124378,67.0940299 66.6069652,67.1686567 67.0930348,67.1452736 C67.4233831,67.1298507 67.8094527,66.9532338 68.0825871,66.6900498 C68.3298507,66.4532338 68.6039801,66.260199 68.6940299,66.260199 C68.9079602,66.260199 70.4432836,65.2676617 70.938806,64.8099502 C71.1527363,64.6109453 71.7024876,64.2039801 72.158209,63.9049751 C72.6721393,63.5686567 73.0064677,63.2238806 73.038806,62.9940299 C73.0970149,62.5835821 74.1149254,61.6641791 74.6661692,61.5233831 C74.8845771,61.4661692 75.0547264,61.2587065 75.1119403,60.9706468 C75.1676617,60.6930348 75.338806,60.4741294 75.5442786,60.4208955 C75.7492537,60.3676617 75.8830846,60.1950249 75.8830846,59.9860697 C75.8830846,59.79801 76.0338308,59.5492537 76.2159204,59.4358209 C76.4527363,59.2875622 76.5462687,59.0487562 76.5462687,58.6064677 C76.5462687,58.1845771 76.6228856,57.9830846 76.778607,57.9830846 C76.919403,57.9830846 77.0467662,57.7393035 77.1039801,57.3626866 C77.1557214,57.020398 77.2447761,56.4736318 77.3014925,56.1457711 C77.4,55.5900498 77.3646766,55.5248756 76.7830846,55.1835821 C76.39801,54.9562189 76.0164179,54.8507463 75.7870647,54.9089552 C75.258209,55.0412935 74.9159204,54.8701493 74.6363184,54.3283582 C74.3293532,53.7368159 74.300995,53.1890547 74.5925373,53.4791045 C74.8542289,53.7402985 75.7855721,53.7308458 76.7134328,53.4512438 C77.1218905,53.3283582 77.5348259,53.258209 77.6308458,53.2910448 C77.7253731,53.3248756 77.9477612,53.2189055 78.1273632,53.0552239 C78.3059701,52.8885572 78.7114428,52.6522388 79.0308458,52.5218905 C79.3482587,52.3955224 79.8074627,52.1477612 80.0462687,51.9751244 C80.3865672,51.7273632 80.5532338,51.7 80.8139303,51.8383085 C80.9965174,51.9338308 81.1855721,52.1223881 81.2368159,52.2522388 C81.2865672,52.3825871 81.5547264,52.538806 81.8343284,52.600995 C82.1139303,52.6616915 82.3422886,52.8169154 82.3422886,52.9467662 C82.3422886,53.0756219 82.439801,53.181592 82.5562189,53.181592 C82.6726368,53.181592 83.0636816,53.3323383 83.4233831,53.5154229 C83.8616915,53.740796 84.2781095,53.8243781 84.6985075,53.7731343 C85.0542289,53.7308458 85.3253731,53.7696517 85.3253731,53.8621891 C85.3253731,53.9532338 85.5044776,54.2935323 85.7248756,54.6179104 C85.9472637,54.9422886 86.0875622,55.3104478 86.038806,55.4368159 C85.9900498,55.5631841 86.0293532,55.6651741 86.1233831,55.6651741 C86.218408,55.6651741 86.3457711,55.8283582 86.4089552,56.0258706 C86.4731343,56.2238806 86.7029851,56.578607 86.921393,56.8119403 C87.139801,57.0462687 87.5044776,57.6233831 87.7278607,58.0930348 C87.9512438,58.5631841 88.2084577,58.9726368 88.300995,59.0039801 C88.3930348,59.0328358 88.6781095,59.4691542 88.9373134,59.9681592 C89.3099502,60.6910448 89.4910448,60.8791045 89.8079602,60.8791045 C90.1139303,60.8791045 90.2487562,60.7502488 90.3825871,60.339801 C90.6860697,59.3995025 90.8975124,59.3691542 91.0164179,60.2472637 C91.1482587,61.2094527 91.3109453,61.500995 91.6487562,61.3711443 C91.9840796,61.2432836 92.279602,60.5746269 92.279602,59.9452736 C92.279602,59.4557214 91.7621891,58.5253731 91.3477612,58.2701493 C91.0676617,58.0970149 90.8328358,57.2233831 90.8124378,56.2880597 C90.8034826,55.8572139 90.6885572,55.2507463 90.5597015,54.938806 C90.3393035,54.4164179 90.3532338,54.3119403 90.7208955,53.5427861 C90.9393035,53.0850746 91.1134328,52.538806 91.1069652,52.3258706 C91.0900498,51.7830846 91.4437811,49.7716418 91.718408,48.8447761 C91.8447761,48.4164179 91.9492537,47.8855721 91.9492537,47.6631841 C91.9492537,47.2577114 92.9427861,44.9099502 93.1179104,44.9049751 C93.1676617,44.9024876 93.4945274,45.161194 93.841791,45.4820896 C94.1900498,45.8004975 94.5368159,46.0616915 94.6144279,46.0616915 C94.6895522,46.0616915 94.8378109,46.3776119 94.9432836,46.7651741 C95.0477612,47.1512438 95.1636816,47.5681592 95.1985075,47.6895522 C95.3373134,48.1641791 95.6820896,47.7293532 95.8462687,46.8756219 L96.0164179,45.9781095 L96.3661692,46.9716418 C96.7218905,47.9915423 96.8626866,48.521393 97.3572139,50.7378109 C97.521393,51.4706468 97.7293532,52.020398 97.8432836,52.020398 C98.0616915,52.020398 98.6910448,54.1109453 98.5233831,54.279602 C98.4646766,54.3378109 98.3029851,54.2880597 98.161194,54.1701493 C97.9457711,53.9930348 97.8378109,54.0199005 97.4940299,54.3427861 C96.961194,54.8432836 96.9691542,55.4104478 97.518408,55.7711443 C97.9024876,56.021393 97.9208955,56.0761194 97.6850746,56.2487562 C97.400995,56.4562189 97.3328358,56.7562189 97.5502488,56.8472637 C97.7288557,56.9228856 98.4124378,58.4094527 98.4124378,58.7228856 C98.4124378,58.860199 98.4865672,58.9731343 98.5776119,58.9731343 C98.6691542,58.9731343 98.7442786,58.8676617 98.7442786,58.7373134 C98.7442786,58.6109453 98.8243781,58.4766169 98.921393,58.4457711 C98.9591931,58.4326568 99.010749,58.3145795 99.0675116,58.1246634 Z M67.6029693,3.39538011 C68.2710502,3.64698696 68.9322734,3.91258698 69.5862816,4.19182291 C69.416837,4.13477 69.2488221,4.07507848 69.0970149,4.01741294 C68.5965174,3.82686567 68.0572139,3.67114428 67.8955224,3.67114428 C67.7343284,3.67114428 67.6039801,3.55820896 67.6039801,3.42238806 C67.6039801,3.41327605 67.603637,3.40426403 67.6029693,3.39538011 Z M72.8357447,5.7212095 C75.3268961,7.00623043 77.6952694,8.49591993 79.918633,10.1680446 C79.8980357,10.1668478 79.8765738,10.1658949 79.8542289,10.1651741 C79.5736318,10.1577114 79.240796,10.0666667 79.1134328,9.95970149 C78.9855721,9.85522388 78.8124378,9.81393035 78.7248756,9.86865672 C78.6383085,9.92238806 78.4432836,9.91840796 78.2900498,9.860199 C78.1258706,9.79552239 78.0820896,9.71044776 78.1830846,9.64626866 C78.4880597,9.45920398 78.1452736,9.22587065 76.9880597,8.83731343 C75.8766169,8.46567164 75.3905473,8.47412935 75.8875622,8.86169154 C76.0218905,8.96716418 76.1432836,9.14726368 76.1522388,9.26119403 C76.1920398,9.76915423 76.2308458,9.82985075 76.4606965,9.74228856 C76.7447761,9.63333333 76.9497512,9.88457711 76.7885572,10.1457711 C76.7189055,10.2587065 76.4855721,10.1447761 76.1577114,9.83482587 C75.8711443,9.56517413 74.8557214,8.87910448 73.8985075,8.31044776 C72.9412935,7.74278607 71.8432836,6.98756219 71.4587065,6.63283582 C71.0751244,6.27810945 70.681592,5.99004975 70.5890547,5.99004975 C70.4965174,5.99004975 70.4189055,5.89651741 70.4174129,5.78358209 C70.4174129,5.66915423 70.1368159,5.40248756 69.7970149,5.1920398 C69.4572139,4.98159204 69.3268657,4.86169154 69.5089552,4.92587065 C70.8470876,5.39046316 72.4847239,5.77273132 72.8357447,5.7212095 Z M80.3178465,10.4714371 C80.3054079,10.6265053 80.4123455,10.7108564 80.6328336,10.7153356 C80.5281732,10.6336248 80.4231767,10.5523245 80.3178465,10.4714371 Z M82.680051,12.4031679 C84.5274202,14.010605 86.2547545,15.7524355 87.8468269,17.613431 C87.776153,17.6947444 87.9335762,17.9508264 88.4333333,18.6348259 L89.0552239,19.4850746 L88.4950249,19.0706468 C87.5039801,18.3393035 85.5084577,16.2004975 84.9900498,15.3149254 C84.70199,14.8179104 84.0542289,14.1049751 83.4606965,13.6288557 C82.0114428,12.4666667 81.0472637,11.5751244 81.4393035,11.7621891 C81.6228856,11.8497512 81.9129353,12.0771144 82.0855721,12.2676617 C82.4404507,12.6592851 82.6675288,12.7093244 82.680051,12.4031679 Z M90.8655355,21.51765 C92.5673963,23.9597383 94.0553794,26.5619853 95.3023428,29.2972468 C95.1780791,29.1463562 95.0267191,28.9836204 94.8313433,28.7845771 C94.638806,28.5880597 94.2522388,27.9781095 93.9706468,27.4328358 C93.2298507,25.9920398 92.7975124,25.3482587 91.8985075,24.3597015 C91.3472637,23.7512438 91.0606965,23.5422886 90.9716418,23.6845771 C90.8064677,23.9527363 90.6477612,23.7537313 89.9820896,22.4248756 C89.4233831,21.3099502 89.1084577,21.0910448 89.2,21.880597 L89.2567164,22.3736318 L88.7880597,22.0383085 C88.3253731,21.7104478 87.9,21.2208955 88.281592,21.4542289 C88.4029851,21.5318408 88.4348259,21.4820896 88.3701493,21.3144279 C88.3169154,21.1746269 88.3572139,21.0567164 88.460199,21.0567164 C88.581592,21.0567164 88.5522388,20.8686567 88.3726368,20.5199005 C88.100995,19.9880597 88.100995,19.9865672 88.4228856,20.2721393 C88.6024876,20.4313433 88.8174129,20.561194 88.9,20.561194 C88.9820896,20.561194 89.4348259,20.9721393 89.9049751,21.4711443 C90.3746269,21.9716418 90.8039801,22.3810945 90.8597015,22.3810945 C91.0547264,22.3810945 90.9552239,22.09801 90.6288557,21.7189055 C90.2363184,21.2661692 90.1965174,21.0970149 90.5497512,21.3910448 C90.6631646,21.4853526 90.7908598,21.5341579 90.8655355,21.51765 Z M59.3467662,85.3114428 C59.4034826,85.4562189 59.39801,85.8288557 59.3328358,86.139801 C59.2422886,86.5771144 59.1970149,86.6283582 59.1328358,86.3731343 C59.0189055,85.9104478 59.2094527,84.9641791 59.3467662,85.3114428 Z M55.8373134,82.9985075 C55.8373134,83.2218905 55.5701493,83.1726368 55.3512438,82.9084577 C55.1910448,82.7164179 55.2164179,82.6900498 55.4960199,82.7626866 C55.6830846,82.8114428 55.8373134,82.918408 55.8373134,82.9985075 Z M58.2253731,79.1726368 C58.1114428,79.1726368 57.9915423,79.2661692 57.9626866,79.3810945 C57.9333333,79.4950249 57.7552239,79.5656716 57.5666667,79.538806 C57.2870647,79.4985075 57.2363184,79.3965174 57.2960199,79.00199 C57.3348259,78.7323383 57.4636816,78.5099502 57.5810945,78.5099502 C57.7014925,78.5099502 57.8233831,78.441791 57.8547264,78.3567164 C57.8825871,78.2731343 58.1134328,78.1527363 58.3626866,78.0920398 C58.7014925,78.0084577 58.8422886,78.0457711 58.9199005,78.2497512 C59.0343284,78.5482587 58.5646766,79.1726368 58.2253731,79.1726368 Z M98.4004975,57.0930348 C98.5109453,57.1965174 98.5706468,57.4572139 98.5293532,57.6726368 C98.4890547,57.8870647 98.4467662,57.939801 98.4323383,57.7875622 C98.4199005,57.6368159 98.3616915,57.3746269 98.3034826,57.2084577 C98.219403,56.9741294 98.2427861,56.9472637 98.4004975,57.0930348 Z M98.2437811,56.5731343 C98.2437811,56.7104478 98.1721393,56.8223881 98.0835821,56.8223881 C97.9935323,56.8223881 97.9661692,56.7104478 98.019403,56.5731343 C98.140796,56.2562189 98.2437811,56.2562189 98.2437811,56.5731343 Z M72.4049751,55.3537313 C72.4,55.7437811 71.6925373,56.1736318 71.3920398,55.9686567 C71.2253731,55.8537313 71.2149254,55.7830846 71.3507463,55.7273632 C71.4830846,55.6701493 71.499005,55.4905473 71.39801,55.1358209 C71.2258706,54.540796 71.2547264,54.5746269 70.8069652,54.438806 C70.5064677,54.3477612 70.4666667,54.3875622 70.5308458,54.7218905 C70.579602,54.981592 70.5273632,55.1114428 70.3696517,55.1114428 C70.241791,55.1114428 70.1348259,55.0154229 70.1348259,54.899005 C70.1348259,54.7800995 70.2174129,54.7238806 70.3159204,54.7711443 C70.4139303,54.8208955 70.3810945,54.761194 70.2437811,54.6412935 C70.1054726,54.5199005 69.859204,54.2099502 69.6940299,53.9522388 C69.5129353,53.6716418 69.29801,53.5199005 69.158209,53.5746269 C69.0258706,53.6253731 68.921393,53.5681592 68.921393,53.4432836 C68.921393,53.320398 68.7537313,53.0960199 68.5497512,52.9452736 C68.2930348,52.7572139 68.2412935,52.641791 68.3830846,52.5810945 C68.4975124,52.5313433 68.5910448,52.3661692 68.5920398,52.2144279 C68.5945274,51.9746269 68.6179104,51.9721393 68.7562189,52.1860697 C68.8860697,52.3875622 68.9164179,52.3631841 68.9189055,52.0621891 C68.9199005,51.8572139 69.0014925,51.6905473 69.0970149,51.6905473 C69.1940299,51.6905473 69.2268657,51.7646766 69.1711443,51.8557214 C69.1149254,51.9472637 69.1462687,52.0208955 69.2437811,52.0208955 C69.3412935,52.0208955 69.4199005,52.0855721 69.4199005,52.1641791 C69.4199005,52.481592 70.5955224,53.5393035 70.8432836,53.4457711 C70.9830846,53.3925373 71.3293532,53.4676617 71.6124378,53.6134328 C72.378607,54.0094527 73.4318408,53.841791 73.960199,53.2427861 C74.1920398,52.980597 74.381592,52.858209 74.3850746,52.9731343 C74.3885572,53.0870647 74.3169154,53.179602 74.2293532,53.179602 C74.141791,53.179602 73.8378109,53.6437811 73.5562189,54.2144279 C72.9283582,55.481592 72.7706468,55.6572139 72.5626866,55.3293532 C72.4308458,55.1169154 72.4074627,55.120398 72.4049751,55.3537313 Z M47.058209,52.8482587 C46.9587065,53.7348259 46.7716418,53.7905473 45.739801,53.2567164 C45.3303483,53.0462687 44.7895522,52.7950249 44.5383085,52.699005 C44.2527363,52.5885572 44.0840796,52.4024876 44.0840796,52.1935323 C44.0840796,51.8338308 42.9084577,51.1915423 42.2477612,51.1915423 C42.0472637,51.1915423 41.6378109,50.9273632 41.3293532,50.600995 C41.0233831,50.2766169 40.69801,50.0557214 40.6079602,50.1114428 C40.5119403,50.1721393 40.4840796,50.1064677 40.539801,49.958209 C40.5960199,49.8174129 40.7636816,49.6985075 40.9129353,49.6985075 C41.0621891,49.6960199 41.2830846,49.6328358 41.4059701,49.5552239 C41.6283582,49.4129353 41.6218905,49.381592 41.1338308,48.4328358 C40.9895522,48.1507463 41.0014925,48.0572139 41.1910448,47.9820896 C41.3233831,47.9318408 41.4328358,47.7318408 41.4328358,47.5373134 C41.4328358,47.299005 41.3552239,47.2129353 41.1985075,47.2736318 C41.0686567,47.3233831 40.9228856,47.2587065 40.8731343,47.1288557 C40.8109453,46.9656716 40.5208955,46.9004975 39.9074627,46.9124378 C39.4253731,46.9223881 38.618408,46.8835821 38.119403,46.8263682 C34.9895522,46.4716418 34.5860697,46.4900498 32.7751244,47.0497512 C32.4676617,47.1442786 32.2487562,47.1263682 32.1129353,46.9925373 C32,46.8840796 31.6965174,46.778607 31.4378109,46.759204 C30.8253731,46.7129353 30.6651741,46.6039801 30.6651741,46.2358209 C30.6651741,45.8636816 31.2238806,45.6965174 31.7706468,45.9039801 C32.3587065,46.1288557 32.8079602,46.0960199 33.0935323,45.8104478 C33.2318408,45.6721393 33.4054726,45.59801 33.4820896,45.6452736 C33.7228856,45.7935323 34.6616915,44.7258706 34.5631841,44.4149254 C34.4432836,44.041791 35.3432836,43.2353234 36.2164179,42.9353234 C37.0935323,42.6328358 37.2925373,42.4567164 37.2925373,41.979602 C37.2925373,41.4502488 37.6572139,41.3348259 38.3044776,41.6577114 C38.5960199,41.8024876 38.9348259,41.921393 39.0587065,41.921393 C39.2820896,41.921393 39.3940299,41.8776119 40.3706468,41.3930348 C40.7542289,41.2024876 40.9427861,41.1855721 41.1333333,41.3238806 C41.4527363,41.5572139 41.6845771,42.2517413 41.4442786,42.2517413 C41.3447761,42.2517413 41.2656716,42.3258706 41.2656716,42.4169154 C41.2656716,42.5079602 41.3636816,42.5830846 41.4830846,42.5830846 C41.6024876,42.5830846 41.919403,42.8781095 42.1865672,43.2412935 C42.4537313,43.6034826 42.7218905,43.900995 42.7840796,43.9034826 C42.8885572,43.9074627 43.2651741,44.2109453 44.1626866,45.0114428 C44.5985075,45.4014925 44.8208955,46.0363184 44.620398,46.3243781 C44.441791,46.5820896 43.3253731,46.7288557 43.1179104,46.5223881 C42.8870647,46.2915423 42.0925373,46.5029851 42.0925373,46.7970149 C42.0925373,47.0144279 42.9124378,47.7164179 43.1651741,47.7164179 C43.2258706,47.7164179 43.3875622,47.8268657 43.5248756,47.9641791 C43.9343284,48.3736318 44.2462687,48.2666667 44.2462687,47.7164179 C44.2462687,47.3492537 44.3228856,47.219403 44.5402985,47.219403 C44.8985075,47.219403 45.7368159,46.300995 45.7368159,45.9099502 C45.7368159,45.7557214 45.6542289,45.5477612 45.5557214,45.4482587 C45.4338308,45.3268657 45.4303483,45.2348259 45.5457711,45.1641791 C45.6393035,45.1059701 45.8721393,45.2273632 46.0641791,45.4328358 C46.359204,45.7497512 46.4368159,45.7706468 46.5681592,45.5616915 C46.8462687,45.1208955 46.739801,44.9034826 45.9840796,44.3701493 C45.5751244,44.0800995 45.2373134,43.7472637 45.2373134,43.6268657 C45.2373134,43.5089552 45.0940299,43.4104478 44.9189055,43.4104478 C44.5606965,43.4104478 43.9119403,42.6791045 43.9119403,42.279602 C43.9119403,42.1383085 43.7333333,41.8313433 43.5159204,41.59801 C43.2074627,41.2701493 43.1502488,41.0905473 43.2606965,40.8024876 C43.4223881,40.3835821 43.7467662,40.2985075 43.7467662,40.6751244 C43.7467662,40.9363184 44.0855721,41.4099502 44.7014925,42.0074627 C44.9054726,42.2094527 45.0731343,42.4512438 45.0731343,42.5457711 C45.0731343,42.641791 45.3268657,42.8054726 45.6368159,42.9064677 C45.9467662,43.0099502 46.4034826,43.280597 46.6487562,43.5089552 C47.0054726,43.8393035 47.079602,44.0238806 47.00199,44.4054726 C46.9049751,44.8915423 47.2412935,45.9467662 47.5547264,46.1412935 C47.6467662,46.19801 47.7233831,46.3890547 47.7233831,46.5661692 C47.7233831,46.7422886 47.8159204,46.8895522 47.9298507,46.8905473 C48.080597,46.8915423 48.0741294,46.9328358 47.9079602,47.0363184 C47.6422886,47.2049751 47.8014925,47.5487562 48.1462687,47.5487562 C48.2776119,47.5487562 48.3845771,47.7044776 48.3845771,47.8950249 C48.3845771,48.1273632 48.5472637,48.30199 48.8825871,48.4283582 C49.1547264,48.5303483 49.3781095,48.6736318 49.3781095,48.7442786 C49.3781095,48.8159204 49.4532338,48.8741294 49.5432836,48.8741294 C49.6343284,48.8741294 49.7109453,48.6701493 49.7109453,48.4199005 C49.7134328,48.1696517 49.7810945,47.861194 49.860199,47.7338308 C50.0656716,47.4084577 50.5368159,47.6358209 50.5368159,48.0606965 C50.5368159,48.3109453 50.6114428,48.3860697 50.7920398,48.3169154 C50.9368159,48.2606965 51.0875622,48.3238806 51.140796,48.4636816 C51.1920398,48.5985075 51.3059701,48.7089552 51.3935323,48.7089552 C51.4810945,48.7089552 51.5074627,48.6383085 51.4542289,48.5532338 C51.40199,48.4681592 51.479602,48.3298507 51.6278607,48.2482587 C51.8587065,48.119403 51.8014925,47.9945274 51.2293532,47.3761194 C50.8626866,46.9776119 50.6054726,46.581592 50.6587065,46.4965174 C50.7119403,46.4114428 50.6696517,46.3930348 50.5651741,46.4587065 C50.4567164,46.5243781 50.1870647,46.3746269 49.9442786,46.1124378 L49.5144279,45.6497512 L50.0308458,45.5442786 C50.3154229,45.4860697 50.6930348,45.2686567 50.8751244,45.0621891 C51.1373134,44.7606965 51.2004975,44.7402985 51.2004975,44.9587065 C51.2004975,45.1094527 51.1268657,45.2333333 51.0353234,45.2333333 C50.9442786,45.2333333 50.8701493,45.3462687 50.8701493,45.4810945 C50.8701493,45.618408 50.9820896,45.7288557 51.1179104,45.7288557 C51.2527363,45.7288557 51.3646766,45.6427861 51.3646766,45.5368159 C51.3646766,45.4308458 51.4154229,45.3935323 51.479602,45.4577114 C51.5427861,45.5199005 51.5766169,45.9049751 51.5547264,46.3129353 C51.5258706,46.8890547 51.5736318,47.0552239 51.7726368,47.0552239 C51.9149254,47.0552239 52.0288557,47.1343284 52.0288557,47.2313433 C52.0288557,47.3283582 51.9537313,47.3597015 51.8636816,47.3039801 C51.7726368,47.2482587 51.6985075,47.3248756 51.6985075,47.4716418 C51.6985075,47.6646766 51.7920398,47.7119403 52.0278607,47.6368159 C52.2756219,47.5567164 52.3343284,47.5930348 52.2636816,47.7766169 C52.2124378,47.9139303 52.3243781,48.1800995 52.5124378,48.3681592 C52.7014925,48.5562189 52.8562189,48.7920398 52.8562189,48.8915423 C52.8562189,49.219403 53.260199,48.9427861 53.3517413,48.5502488 C53.4353234,48.1905473 53.4616915,48.1830846 53.7169154,48.4383085 C54.139801,48.860199 55.0094527,48.7457711 55.0094527,48.2696517 C55.0094527,47.9825871 55.5925373,48.1129353 56.0323383,48.499005 C56.3676617,48.7915423 57.2532338,48.6507463 57.4671642,48.2706468 C57.5497512,48.1258706 57.7731343,48.0447761 57.999005,48.0761194 C58.6328358,48.1661692 58.7383085,49.1199005 58.3074627,50.8517413 C57.8701493,52.6089552 57.7681592,52.7437811 57.0054726,52.6039801 C55.9975124,52.4208955 55.1691542,52.4995025 54.7074627,52.8288557 C54.3308458,53.0970149 54.1437811,53.1189055 53.4353234,52.9875622 C52.9810945,52.9014925 52.3462687,52.7900498 52.0278607,52.738806 C51.7079602,52.6865672 51.3731343,52.5865672 51.2820896,52.5139303 C51.1905473,52.4422886 50.8263682,52.3293532 50.4731343,52.2626866 C50.1169154,52.1970149 49.6895522,52.0039801 49.519403,51.8338308 C49.1328358,51.4467662 48.4721393,51.4402985 47.720398,51.8144279 C47.2139303,52.0671642 47.1308458,52.1995025 47.058209,52.8482587 Z M50.3199005,49.7482587 C51.8363184,49.9781095 52.5363184,49.6910448 51.0751244,49.438806 C50.018408,49.2587065 49.9940299,49.260199 49.9199005,49.4835821 C49.8835821,49.5925373 50.0572139,49.7094527 50.3199005,49.7482587 Z M56.1676617,49.6925373 C56.1676617,49.9487562 56.859204,49.899005 57.2348259,49.6149254 C57.4124378,49.4810945 57.4885572,49.3706468 57.4084577,49.3706468 C57.3273632,49.3706468 57.3502488,49.2820896 57.4597015,49.1726368 C57.8134328,48.8199005 57.6711443,48.6925373 57.2402985,48.9756219 C57.0079602,49.1273632 56.7761194,49.2074627 56.7228856,49.1542289 C56.6014925,49.0328358 56.1676617,49.4532338 56.1676617,49.6925373 Z M52.29801,49.2880597 C52.2462687,49.4263682 52.2761194,49.5368159 52.3651741,49.5368159 C52.4527363,49.5368159 52.5253731,49.4253731 52.5253731,49.2880597 C52.5253731,48.9711443 52.4218905,48.9711443 52.29801,49.2880597 Z M43.4129353,48.7084577 C43.4129353,48.80199 43.4920398,48.8736318 43.5875622,48.8736318 C43.6845771,48.8736318 43.7174129,48.800995 43.6616915,48.7084577 C43.5308458,48.4970149 43.4129353,48.4970149 43.4129353,48.7084577 Z M39.9149254,45.6174129 C39.9293532,45.719403 40.600995,45.6208955 40.699005,45.500995 C40.8900498,45.2651741 41.0502488,44.3059701 40.9457711,44.0263682 C40.8701493,43.8238806 40.8666667,43.5089552 40.940796,43.3268657 C41.0124378,43.1472637 41.0771144,42.8278607 41.0830846,42.6189055 C41.0930348,42.2870647 41.0517413,42.2626866 40.7527363,42.4243781 C40.4830846,42.5691542 40.4199005,42.7402985 40.4577114,43.2164179 C40.4965174,43.6975124 40.4492537,43.8223881 40.2353234,43.8054726 C40.0228856,43.7885572 39.9621891,43.9353234 39.9621891,44.4661692 C39.9621891,44.8437811 39.9487562,45.2253731 39.9293532,45.3164179 C39.9099502,45.4074627 39.9039801,45.540796 39.9149254,45.6174129 Z M36.2129353,44.5800995 C36.3621891,44.8218905 36.6925373,44.6830846 36.7557214,44.3502488 C36.7885572,44.1900498 36.7034826,44.0746269 36.560199,44.0746269 C36.2532338,44.0746269 36.0671642,44.3442786 36.2129353,44.5800995 Z M37.1189055,44.2497512 C37.1189055,44.3457711 37.1930348,44.378607 37.2850746,44.3223881 C37.4965174,44.1910448 37.4965174,44.0746269 37.2850746,44.0746269 C37.1940299,44.0746269 37.1189055,44.1537313 37.1189055,44.2497512 Z M50.8865672,47.5034826 C50.9875622,47.6044776 51.0422886,47.7731343 51.0069652,47.8776119 C50.9253731,48.1253731 50.7034826,47.9029851 50.7034826,47.5726368 C50.7034826,47.3870647 50.7507463,47.3686567 50.8865672,47.5034826 Z M69.3079602,45.1910448 C68.978607,45.4338308 68.2308458,45.4656716 68.0014925,45.2442786 C67.9169154,45.1626866 67.659204,45.0681592 67.4308458,45.0378109 C67.0502488,44.9880597 67.0114428,44.9044776 66.9666667,44.0298507 C66.9278607,43.2597015 66.9651741,43.078607 67.1731343,43.078607 C67.3154229,43.078607 67.4308458,42.9656716 67.4308458,42.8298507 C67.4308458,42.6940299 67.3288557,42.5820896 67.2034826,42.5820896 C66.9865672,42.5820896 65.3293532,41.3641791 65.0696517,41.0129353 C64.9995025,40.920398 64.900995,40.6572139 64.8497512,40.4298507 C64.7975124,40.2014925 64.6736318,39.8507463 64.5766169,39.6502488 C64.4467662,39.3781095 64.4527363,39.2189055 64.6034826,39.0393035 C64.8512438,38.7393035 65.2572139,38.8731343 65.6626866,39.3855721 C65.8278607,39.5955224 66.0303483,39.7681592 66.1104478,39.7681592 C66.1895522,39.7681592 66.4422886,39.9542289 66.6716418,40.1825871 C66.8975124,40.4099502 67.2378109,40.5970149 67.4223881,40.5970149 C67.6691542,40.5970149 67.7616915,40.7039801 67.7616915,40.9895522 C67.7616915,41.2059701 67.8736318,41.4756219 68.0104478,41.5885572 C68.1452736,41.7024876 68.258209,41.8985075 68.258209,42.0233831 C68.258209,42.1507463 68.4079602,42.5318408 68.5900498,42.8711443 C68.7721393,43.2104478 68.921393,43.5820896 68.921393,43.6985075 C68.921393,43.8139303 68.979602,43.9084577 69.0517413,43.9084577 C69.1233831,43.9084577 69.2726368,44.1502488 69.3855721,44.4452736 C69.5631841,44.9104478 69.5507463,45.0124378 69.3079602,45.1910448 Z M53.3522388,44.7368159 C53.3522388,44.9507463 53.0706468,44.9507463 52.9383085,44.7368159 C52.880597,44.6457711 52.9527363,44.5706468 53.0945274,44.5706468 C53.2348259,44.5706468 53.3522388,44.6457711 53.3522388,44.7368159 Z M55.4681592,43.678607 C54.6228856,44.219403 53.4616915,44.2288557 53.1119403,43.7 C52.8656716,43.3223881 52.9248756,42.5850746 53.2044776,42.5850746 C53.2835821,42.5850746 53.3517413,42.3776119 53.3517413,42.1248756 C53.3517413,41.8696517 53.5,41.5393035 53.6820896,41.381592 C53.8651741,41.2258706 54.0159204,40.9671642 54.0199005,40.8069652 C54.0248756,40.4029851 54.6756219,39.6253731 54.7860697,39.8950249 C54.8333333,40.0079602 55.0069652,40.1014925 55.1736318,40.1014925 C55.3855721,40.1014925 55.4512438,40.1925373 55.3945274,40.4099502 C55.3383085,40.6223881 55.4218905,40.7462687 55.6577114,40.8084577 C55.8482587,40.858209 56.0024876,41.0174129 56.0024876,41.1631841 C56.0024876,41.5164179 56.4323383,41.4960199 56.9691542,41.1144279 C57.6616915,40.6238806 58.0064677,40.6298507 58.9830846,41.1497512 C59.4850746,41.418408 60.1761194,41.7825871 60.5208955,41.9636816 C61.4064677,42.4288557 61.5532338,42.778607 61.0567164,43.2437811 C60.7263682,43.5547264 60.4726368,43.6179104 59.5736318,43.6179104 C58.9676617,43.6179104 58.3820896,43.5308458 58.2462687,43.4189055 C58.1149254,43.3084577 57.9268657,43.2661692 57.8318408,43.3253731 C57.7368159,43.3845771 57.659204,43.3542289 57.659204,43.2597015 C57.659204,42.9631841 56.1288557,43.2557214 55.4681592,43.678607 Z M58.3736318,39.8736318 C58.2597015,40.1711443 57.3278607,40.1771144 57.3278607,39.879602 C57.3278607,39.5636816 58.0676617,39.2502488 58.2885572,39.4726368 C58.3835821,39.5676617 58.4223881,39.7472637 58.3736318,39.8736318 Z M46.3024876,32.8940299 C45.8716418,33.219403 45.0696517,33.2218905 45.0716418,32.899005 C45.0716418,32.7641791 44.9587065,32.6502488 44.821393,32.6502488 C44.6855721,32.6502488 44.5736318,32.5761194 44.5736318,32.4850746 C44.5736318,32.3940299 44.7597015,32.3199005 44.9880597,32.3199005 C45.2164179,32.3199005 45.4024876,32.3940299 45.4024876,32.4850746 C45.4024876,32.5761194 45.5144279,32.6502488 45.6502488,32.6502488 C45.9308458,32.6502488 45.9825871,32.3915423 45.7338308,32.2373134 C45.4412935,32.0567164 45.5552239,31.8233831 45.9402985,31.8208955 C46.1452736,31.8189055 46.3945274,31.7641791 46.4940299,31.6960199 C46.7781095,31.5074627 47.0850746,30.840796 46.9711443,30.6597015 C46.7975124,30.3781095 47.0572139,29.858209 47.4303483,29.7402985 C47.80199,29.6233831 48.1154229,29.3686567 48.2318408,29.0890547 C48.2721393,28.9930348 48.7139303,28.961194 49.2935323,29.0099502 C50.1691542,29.0840796 50.2263682,29.1094527 49.781592,29.2223881 C49.3577114,29.3303483 49.2263682,29.4905473 48.978607,30.2134328 C48.8154229,30.6895522 48.6442786,31.4 48.5970149,31.7935323 C48.5422886,32.2502488 48.4134328,32.5442786 48.239801,32.6084577 C48.0890547,32.6646766 47.9154229,32.7885572 47.8497512,32.8855721 C47.7686567,33.0069652 47.6691542,32.9985075 47.5268657,32.8562189 C47.2512438,32.579602 46.6935323,32.5965174 46.3024876,32.8940299 Z M47.3895522,30.8900498 C47.3910448,31.2044776 47.4273632,31.1885572 47.7134328,30.7542289 C48.0696517,30.2124378 48.0318408,30.0024876 47.640796,30.3303483 C47.5024876,30.4452736 47.3895522,30.69801 47.3895522,30.8900498 Z M44.3970149,31.3368159 C44.0238806,31.5726368 43.7930348,31.5059701 44.1199005,31.260199 C44.2950249,31.1243781 44.3761194,30.9129353 44.320398,30.7258706 C44.2671642,30.5422886 44.3119403,30.5701493 44.4323383,30.800995 C44.5975124,31.1144279 44.5915423,31.2139303 44.3970149,31.3368159 Z M50.3109453,30.7452736 C50.1820896,31.0830846 49.9925373,31.060199 49.7537313,30.6771144 C49.59801,30.4268657 49.6014925,30.321393 49.7766169,30.1791045 C50.0532338,29.9482587 50.4542289,30.3721393 50.3109453,30.7452736 Z M56.8308458,29.5149254 C56.8308458,29.6014925 56.7691542,29.6716418 56.6925373,29.6716418 C56.4776119,29.6716418 56.3343284,29.4736318 56.4338308,29.3134328 C56.5383085,29.1432836 56.8308458,29.2900498 56.8308458,29.5149254 Z M51.921393,28.7597015 C51.8681592,28.8970149 51.7507463,29.0084577 51.658209,29.0074627 C51.5606965,29.0074627 51.5756219,28.9029851 51.6955224,28.7597015 C51.9577114,28.4427861 52.0427861,28.4427861 51.921393,28.7597015 Z M48.7572139,27.9517413 C48.5447761,28.2641791 47.9850746,28.3442786 47.6726368,28.1094527 C47.2631841,27.80199 47.460199,27.0905473 48.1159204,26.4915423 C48.3940299,26.2378109 48.661194,26.0288557 48.7109453,26.0288557 C48.8532338,26.0288557 48.8945274,27.7502488 48.7572139,27.9517413 Z M53.8492537,28.1034826 C53.8492537,28.3965174 53.4945274,28.4218905 53.2199005,28.1462687 C53.0159204,27.9442786 52.9452736,27.5169154 53.1139303,27.5169154 C53.381592,27.5169154 53.8492537,27.8920398 53.8492537,28.1034826 Z M49.80199,25.4303483 C49.1487562,25.9283582 48.9676617,25.9731343 49.1109453,25.6004975 C49.1656716,25.458209 49.2104478,25.2761194 49.2104478,25.1995025 C49.2104478,24.9442786 49.7263682,24.538806 50.0507463,24.538806 C50.5467662,24.538806 50.4298507,24.9507463 49.80199,25.4303483 Z M54.9263682,25.0343284 C55.0432836,25.2263682 55.0383085,25.2263682 54.5950249,25.0343284 C54.3238806,24.9179104 54.3139303,24.8910448 54.5437811,24.8800995 C54.69801,24.8741294 54.8706468,24.9442786 54.9263682,25.0343284 Z M55.7537313,24.1412935 C55.7537313,24.4487562 55.6616915,24.4875622 54.978607,24.4741294 C54.3427861,24.4606965 54.1920398,24.3975124 54.1402985,24.1253731 C54.0830846,23.8288557 54.1646766,23.7950249 54.9154229,23.7950249 C55.6577114,23.7950249 55.7537313,23.8338308 55.7537313,24.1412935 Z M88.2109453,21.080597 C88.0761194,21.29801 88.021393,21.2626866 87.9248756,20.8875622 C87.8507463,20.6104478 87.8781095,20.5840796 88.0691542,20.741791 C88.1965174,20.8472637 88.261194,21.0014925 88.2109453,21.080597 Z M61.6557214,16.2159204 C61.7686567,16.3278607 61.8208955,16.4626866 61.7686567,16.5124378 C61.7179104,16.5636816 61.6253731,16.4726368 61.5631841,16.3084577 C61.4726368,16.0736318 61.4930348,16.0532338 61.6557214,16.2159204 Z M81.0169154,11.5616915 C81.0169154,11.699005 80.880597,11.6099502 80.6661692,11.3358209 C80.4597015,11.0736318 80.4656716,11.0671642 80.7278607,11.2726368 C80.8870647,11.3975124 81.0169154,11.5288557 81.0169154,11.5616915 Z M69.0890547,4.76069652 C69.0890547,4.93681592 68.7577114,4.9079602 68.0955224,4.67313433 C66.9024876,4.25174129 66.8482587,4.22636816 66.9487562,4.11691542 C67.0402985,4.01840796 69.0890547,4.6358209 69.0890547,4.76069652 Z M65.7243781,91.4597015 C65.8218905,91.6348259 66.6029851,91.5129353 67.4442786,91.1900498 C68.00199,90.9776119 68.3373134,90.6845771 68.8412935,89.9681592 C69.8044776,88.60199 70.9124378,86.8119403 70.9124378,86.6199005 C70.9124378,86.5298507 70.9860697,86.4572139 71.0776119,86.4572139 C71.1686567,86.4572139 71.2437811,86.2587065 71.2437811,86.0149254 C71.2437811,85.7721393 71.2925373,85.621393 71.3532338,85.6820896 C71.4129353,85.7402985 71.5547264,85.7124378 71.6681592,85.6189055 C71.9293532,85.400995 71.7905473,84.1502488 71.4676617,83.8089552 C71.2258706,83.5487562 71.2124378,83.561194 69.3870647,85.5845771 C68.9338308,86.0835821 67.6527363,86.7870647 67.1920398,86.7870647 C66.7885572,86.7870647 66.4,87.7248756 66.5189055,88.420398 C66.6084577,88.9502488 66.5577114,89.0910448 66.119403,89.5089552 C65.7089552,89.9024876 65.6189055,90.1139303 65.6368159,90.6651741 C65.6482587,91.0368159 65.6880597,91.3940299 65.7243781,91.4597015 Z M74.5562189,87.2935323 C74.5562189,87.3905473 74.6303483,87.421393 74.721393,87.3651741 C74.9338308,87.2348259 74.9338308,87.1174129 74.721393,87.1174129 C74.6298507,87.1174129 74.5562189,87.1965174 74.5562189,87.2935323 Z M35.2955224,77.0298507 C35.2955224,77.1268657 35.3711443,77.1587065 35.4616915,77.1014925 C35.6756219,76.9711443 35.6756219,76.8537313 35.4616915,76.8537313 C35.3721393,76.8537313 35.2955224,76.9328358 35.2955224,77.0298507 Z M74.3895522,65.1 C74.1880597,65.2308458 74.2099502,65.2616915 74.5049751,65.2626866 C74.7044776,65.2651741 74.9144279,65.1900498 74.9701493,65.1 C75.099005,64.8885572 74.7164179,64.8885572 74.3895522,65.1 Z M64.7820896,64.0089552 C64.7820896,64.1522388 64.900995,64.2726368 65.0442786,64.2731343 C65.1895522,64.2731343 65.2776119,64.1840796 65.2412935,64.0761194 C65.1393035,63.7686567 64.7820896,63.7174129 64.7820896,64.0089552 Z M14.5,57.9701493 C14.6348259,58.1885572 14.921393,58.20199 14.9199005,57.9895522 C14.9199005,57.7955224 14.5970149,57.5865672 14.4791045,57.7054726 C14.4308458,57.7537313 14.4402985,57.8731343 14.5,57.9701493 Z M15.0865672,57.3179104 C15.0865672,57.4089552 15.1656716,57.4840796 15.261194,57.4840796 C15.3597015,57.4840796 15.3910448,57.4079602 15.3353234,57.3179104 C15.2044776,57.1049751 15.0865672,57.1049751 15.0865672,57.3179104 Z M14.2169154,56.2477612 C14.3761194,56.4676617 14.5741294,56.6472637 14.6567164,56.6512438 C14.7393035,56.6527363 14.6835821,56.5199005 14.5328358,56.3537313 C14.3820896,56.1870647 14.2572139,55.9626866 14.2572139,55.8557214 C14.2572139,55.7487562 14.1820896,55.6621891 14.0920398,55.6621891 C13.8572139,55.6621891 13.8840796,55.7925373 14.2169154,56.2477612 Z M95.5487562,51.2567164 C95.7452736,51.4537313 95.781592,51.1134328 95.6074627,50.6810945 L95.4487562,50.2825871 L95.4378109,50.7109453 C95.4333333,50.9442786 95.4830846,51.1910448 95.5487562,51.2567164 Z M21.9746269,50.3870647 C22.0791045,50.5557214 22.118408,50.5557214 22.1746269,50.3880597 C22.2552239,50.1492537 22.0935323,49.9303483 21.9452736,50.078607 C21.8910448,50.1333333 21.9029851,50.2716418 21.9746269,50.3870647 Z M23.1228856,50.0995025 C22.8726368,50.3507463 22.7835821,50.5303483 22.9104478,50.5313433 C23.1606965,50.5313433 23.7701493,49.8830846 23.6402985,49.7532338 C23.5930348,49.7084577 23.361194,49.8636816 23.1228856,50.0995025 Z M21.3810945,49.70199 C21.3810945,49.918408 21.6626866,49.918408 21.7955224,49.70199 C21.8522388,49.6119403 21.7820896,49.5368159 21.639801,49.5368159 C21.4975124,49.5368159 21.3810945,49.6119403 21.3810945,49.70199 Z M22.540796,45.8955224 C22.540796,45.9865672 22.6199005,46.0606965 22.7169154,46.0606965 C22.8124378,46.0606965 22.8452736,45.9865672 22.7895522,45.8955224 C22.6587065,45.6840796 22.540796,45.6840796 22.540796,45.8955224 Z M20.0557214,39.6039801 C20.0557214,39.6950249 20.1333333,39.7701493 20.2318408,39.7701493 C20.3288557,39.7701493 20.360199,39.6940299 20.3044776,39.6039801 C20.1736318,39.3915423 20.0557214,39.3915423 20.0557214,39.6039801 Z M19.138806,38.2711443 C19.2004975,38.3696517 19.3283582,38.4024876 19.4218905,38.3437811 C19.5333333,38.2761194 19.5164179,38.1895522 19.3731343,38.1034826 C19.1084577,37.9373134 18.9880597,38.0258706 19.138806,38.2711443 Z M2.68905473,36.7880597 C2.68905473,37.0179104 2.72636816,37.1099502 2.77263682,36.9960199 C2.81741294,36.881592 2.81741294,36.6955224 2.77263682,36.581592 C2.72686567,36.4671642 2.68905473,36.5606965 2.68905473,36.7880597 Z M39.4422886,27.3223881 C39.4472637,27.5666667 39.4776119,27.5631841 39.6910448,27.2820896 C39.9487562,26.9422886 39.9059701,26.7512438 39.6159204,26.9323383 C39.5174129,26.9920398 39.439801,27.1666667 39.4422886,27.3223881 Z M38.0179104,25.3671642 C38.0179104,25.7810945 38.0552239,25.7810945 38.2776119,25.3671642 C38.4149254,25.1134328 38.4039801,25.0343284 38.2363184,25.0343284 C38.1164179,25.0343284 38.0179104,25.1850746 38.0179104,25.3671642 Z M14.8278607,17.3373134 C14.7646766,17.6104478 14.6373134,17.9079602 14.5462687,17.999005 C14.4368159,18.1084577 14.418408,17.999005 14.4975124,17.6661692 C14.5606965,17.3940299 14.6890547,17.0955224 14.7791045,17.0054726 C14.8900498,16.8965174 14.9069652,17.0054726 14.8278607,17.3373134 Z M14.3860697,16.9960199 C14.3676617,17.2288557 14.2935323,17.418408 14.2223881,17.4199005 C14.0328358,17.4199005 14.0641791,16.7945274 14.2562189,16.6741294 C14.3532338,16.6159204 14.4079602,16.7517413 14.3860697,16.9960199 Z M16.1626866,15.4338308 C15.9975124,15.6149254 15.800995,15.7641791 15.7228856,15.7641791 C15.5179104,15.7641791 15.5507463,15.6537313 15.8432836,15.3621891 C16.2258706,14.980597 16.5149254,15.0452736 16.1626866,15.4338308 Z M17.1577114,13.9422886 C17.1004975,14.0343284 16.9293532,14.1074627 16.7746269,14.1064677 C16.5333333,14.1039801 16.5283582,14.079602 16.7432836,13.9422886 C17.0691542,13.7323383 17.2875622,13.7323383 17.1577114,13.9422886 Z M18.7696517,12.9134328 C17.900995,13.7233831 17.7368159,13.8343284 17.7363184,13.619403 C17.7363184,13.5104478 17.941791,13.2114428 18.1920398,12.9552239 C18.4437811,12.7 18.7228856,12.3646766 18.8129353,12.2104478 C19.0233831,11.8547264 19.261194,11.8084577 19.3597015,12.1024876 C19.4109453,12.2567164 19.3661692,12.2880597 19.2238806,12.20199 C19.0830846,12.1144279 19.0527363,12.1373134 19.1328358,12.2661692 C19.2044776,12.3800995 19.0552239,12.6472637 18.7696517,12.9134328 Z M33.3910448,9.30746269 C33.4472637,9.39850746 33.418408,9.47363184 33.3268657,9.47363184 C33.2353234,9.47363184 33.1139303,9.39850746 33.058209,9.30746269 C33.0024876,9.21641791 33.0313433,9.14228856 33.121393,9.14228856 C33.2139303,9.14228856 33.3338308,9.21641791 33.3910448,9.30746269 Z M40.2378109,7.3238806 C40.0860697,7.32238806 39.9248756,7.41243781 39.8771144,7.5278607 C39.8248756,7.65771144 39.7895522,7.6358209 39.7810945,7.46218905 C39.7656716,7.13432836 40.1920398,6.94378109 40.6278607,7.08208955 C40.880597,7.16368159 40.9049751,7.23134328 40.7517413,7.41741294 C40.6432836,7.54726368 40.4333333,7.65174129 40.2875622,7.64925373 C40.0507463,7.64825871 40.0482587,7.62636816 40.2646766,7.48656716 C40.479602,7.34825871 40.4761194,7.32636816 40.2378109,7.3238806 Z M35.3383085,5.83084577 C35.1985075,5.83084577 34.9945274,5.95373134 34.8830846,6.1039801 C34.7457711,6.29353234 34.6487562,6.31890547 34.5671642,6.18905473 C34.499005,6.07761194 34.6741294,5.86517413 34.9970149,5.6681592 C35.6517413,5.27114428 35.8159204,5.25024876 35.6870647,5.58308458 C35.6348259,5.71890547 35.4781095,5.83084577 35.3383085,5.83084577 Z M37.2,4.34179104 C37.1442786,4.4318408 37.0233831,4.50696517 36.9323383,4.50696517 C36.8412935,4.50696517 36.8109453,4.4318408 36.8681592,4.34179104 C36.9253731,4.25074627 37.0457711,4.17562189 37.1368159,4.17562189 C37.2293532,4.17562189 37.2572139,4.25074627 37.2,4.34179104 Z M38.6089552,3.01641791 C38.6089552,3.10646766 38.4970149,3.18159204 38.361194,3.18159204 C38.2253731,3.18159204 38.1134328,3.10646766 38.1134328,3.01641791 C38.1134328,2.92537313 38.2253731,2.85024876 38.361194,2.85024876 C38.4970149,2.85024876 38.6089552,2.92537313 38.6089552,3.01641791 Z M34.6348259,22.4641791 C34.6348259,22.6646766 34.8487562,22.7179104 35.6686567,22.719403 C37.0024876,22.7154229 37.5174129,22.4626866 37.5840796,21.7766169 C37.6303483,21.2940299 37.5830846,21.2373134 37.0034826,21.0756219 C36.6587065,20.9781095 36.2114428,20.9004975 36.0159204,20.9004975 C35.7402985,20.8995025 35.678607,20.8218905 35.7452736,20.5666667 C35.8084577,20.321393 35.7512438,20.2363184 35.5228856,20.238806 C35.0288557,20.2427861 34.7761194,20.479602 34.9059701,20.8159204 C34.9955224,21.0542289 34.9626866,21.09801 34.7502488,21.0164179 C34.600995,20.959204 34.4343284,20.9840796 34.3810945,21.0711443 C34.3278607,21.158209 34.3616915,21.2288557 34.4577114,21.2288557 C34.5557214,21.2288557 34.6348259,21.3402985 34.6348259,21.4776119 C34.6348259,21.6124378 34.5218905,21.7253731 34.3860697,21.7253731 C34.0641791,21.7253731 34.0641791,21.9915423 34.3860697,22.1154229 C34.5218905,22.1676617 34.6348259,22.3243781 34.6348259,22.4641791 Z M57.4383085,21.1169154 C57.6666667,21.3442786 57.9915423,21.2154229 57.9910448,20.8975124 C57.9910448,20.6761194 57.8800995,20.5656716 57.659204,20.5656716 C57.3402985,20.5656716 57.2099502,20.8895522 57.4383085,21.1169154 Z M48.4049751,16.4696517 C48.5875622,16.8089552 48.6069652,16.799005 48.9442786,16.2124378 C49.3124378,15.5721393 49.6358209,15.3885572 49.50199,15.8965174 C49.4497512,16.0985075 49.5238806,16.2014925 49.7303483,16.2174129 C50.1636816,16.2512438 50.281592,15.9587065 49.9731343,15.6174129 C49.6502488,15.2626866 49.6258706,14.9154229 49.9308458,15.0318408 C50.1666667,15.1233831 50.6512438,14.6626866 50.4885572,14.5024876 C50.3258706,14.339801 49.2119403,14.2825871 49.2119403,14.4368159 C49.2119403,14.5154229 48.9726368,14.5522388 48.6810945,14.5144279 C48.3736318,14.4751244 48.0965174,14.5323383 48.021393,14.6502488 C47.8343284,14.9442786 47.8572139,15.599005 48.0517413,15.599005 C48.1427861,15.599005 48.2179104,15.7169154 48.2179104,15.8577114 C48.2179104,16.000995 48.3014925,16.2751244 48.4049751,16.4696517 Z M26.140796,14.2517413 C25.979602,14.4174129 25.9975124,14.4368159 26.2318408,14.3452736 C26.3970149,14.2830846 26.4865672,14.1905473 26.4358209,14.139801 C26.3850746,14.0890547 26.2527363,14.138806 26.140796,14.2517413 Z M60.4726368,14.021393 C60.5865672,14.1606965 60.7462687,14.2736318 60.8273632,14.2736318 C60.9074627,14.2736318 60.841791,14.1378109 60.6830846,13.9701493 C60.3412935,13.6134328 60.1681592,13.6557214 60.4726368,14.021393 Z M53.0731343,14.0029851 C53.6412935,14.2338308 54.3402985,14.0343284 54.358209,13.6363184 C54.3666667,13.4651741 54.40199,13.441791 54.4552239,13.5706468 C54.5014925,13.6850746 54.7004975,13.7771144 54.8965174,13.7761194 C55.1890547,13.7736318 55.2109453,13.7432836 55.0084577,13.6119403 C54.8283582,13.4955224 54.8199005,13.4517413 54.9776119,13.4492537 C55.0965174,13.4477612 55.1487562,13.3716418 55.0915423,13.281592 C55.0348259,13.1905473 55.0716418,13.1154229 55.1741294,13.1154229 C55.2766169,13.1154229 55.3094527,13.0328358 55.2462687,12.9318408 C55.1646766,12.7995025 55.099005,12.80199 55.0154229,12.9393035 C54.9313433,13.0781095 54.7721393,13.0825871 54.4452736,12.9577114 C54.0069652,12.7910448 53.9945274,12.80199 54.0457711,13.3074627 C54.078607,13.6412935 54.0129353,13.8577114 53.8671642,13.9074627 C53.740796,13.9512438 53.6766169,13.9208955 53.7263682,13.840796 C53.7751244,13.7606965 53.7288557,13.618408 53.6243781,13.5248756 C53.4925373,13.4054726 53.3517413,13.440796 53.1557214,13.638806 C52.959204,13.8368159 52.9363184,13.9472637 53.0731343,14.0029851 Z M22.7766169,12.3074627 C22.6368159,12.5343284 22.9393035,12.478607 23.2965174,12.2129353 C23.6059701,11.9835821 23.6039801,11.9771144 23.241791,12.0671642 C23.0353234,12.119403 22.8263682,12.2273632 22.7766169,12.3074627 Z M27.0129353,10.6313433 C26.7995025,10.7706468 26.8029851,10.7925373 27.0457711,10.7955224 C27.2,10.7965174 27.3716418,10.721393 27.4273632,10.6313433 C27.558209,10.421393 27.3383085,10.421393 27.0129353,10.6313433 Z M27.8412935,9.8039801 C27.8412935,9.89402985 27.9532338,9.97064677 28.0900498,9.97014925 C28.2258706,9.97014925 28.3378109,9.89353234 28.3378109,9.8039801 C28.3378109,9.71442786 28.2258706,9.63781095 28.0900498,9.63781095 C27.9542289,9.63781095 27.8412935,9.71393035 27.8412935,9.8039801 Z M42.6298507,6.88905473 C42.5751244,6.94378109 42.6721393,6.98358209 42.8472637,6.97512438 C43.040796,6.9681592 43.0781095,6.9278607 42.9482587,6.87562189 C42.8278607,6.82835821 42.6855721,6.83432836 42.6298507,6.88905473 Z M41.519403,6.66318408 C41.8253731,6.77114428 42.6890547,6.60945274 42.8920398,6.40646766 C43.0084577,6.29004975 41.5741294,6.34477612 41.3542289,6.46616915 C41.2691542,6.51243781 41.3432836,6.60099502 41.519403,6.66318408 Z M42.6258706,5.88706468 C42.9029851,5.9960199 43.0731343,5.94975124 43.1223881,5.74825871 C43.1452736,5.65870647 42.9960199,5.55920398 42.7920398,5.52985075 C42.3975124,5.47412935 42.2726368,5.74477612 42.6258706,5.88706468 Z M40.2661692,5.7761194 C40.2661692,5.82736318 40.4333333,5.82487562 40.6402985,5.76965174 C40.8457711,5.71492537 41.199005,5.6641791 41.4273632,5.65671642 C41.8024876,5.64378109 41.8099502,5.63134328 41.5099502,5.50995025 C41.2452736,5.40298507 41.3363184,5.35223881 41.9532338,5.25621891 C42.3781095,5.18955224 42.8104478,5.18706468 42.9114428,5.25024876 C43.1432836,5.39353234 43.5781095,5.04626866 43.5781095,4.7159204 C43.5781095,4.53631841 43.4676617,4.49950249 43.1457711,4.58109453 C42.9079602,4.64029851 42.3323383,4.73034826 41.8656716,4.7800995 C41.2572139,4.84477612 40.9149254,4.98557214 40.6427861,5.27711443 C40.4348259,5.49800995 40.2661692,5.7238806 40.2661692,5.7761194 Z M56.1243781,2.74079602 C56.0114428,2.78706468 56.1437811,2.82089552 56.4174129,2.81741294 C56.6905473,2.81393035 56.7825871,2.77711443 56.621393,2.73482587 C56.461194,2.69353234 56.2363184,2.6960199 56.1243781,2.74079602 Z" opacity=".3" transform="translate(27 25)"/>
  </g>
</svg>
