<svg xmlns="http://www.w3.org/2000/svg" width="125" height="125" viewBox="0 0 125 125">
  <g fill="none" transform="translate(-13 -13)">
    <rect width="150" height="150" opacity=".2"/>
    <path fill="#182F57" d="M30.3539741,65.7116451 C30.0808688,65.3985675 29.9644177,65.1215342 29.7019409,64.9831331 C29.439464,64.844732 29.0314233,64.8445009 28.7324399,64.7426063 C28.4336876,64.6407116 28.2439926,64.4364603 28.047366,64.2613216 C27.8505083,64.086414 27.646488,63.9406192 27.4350739,63.8678373 C27.2236599,63.7950555 27.0050832,63.7950555 26.9103512,63.6127542 C26.8156192,63.4306839 26.8445009,63.0660813 26.8373383,62.7451479 C26.8299445,62.4246765 26.7862754,62.1476433 26.5457486,61.7174214 C26.3052218,61.2874307 25.8678373,60.7042514 25.4886784,60.3031423 C25.1095194,59.9022643 24.7890481,59.6834566 24.5263401,59.4796673 C24.2638632,59.2754159 24.0598429,59.0859519 23.9796673,58.8599815 C23.8994917,58.6340111 23.9431608,58.3717652 24.00878,58.1310074 C24.0743993,57.8904806 24.1619686,57.6716728 24.3366451,57.5404344 C24.5115527,57.4091959 24.7740296,57.3655268 24.905268,57.1906192 C25.0365065,57.0157116 25.0365065,56.7093346 25.2185767,56.5201017 C25.400878,56.3304067 25.7654806,56.2576248 25.8673752,56.0824861 C25.9692699,55.9075786 25.8091497,55.6305453 25.4882163,55.4045749 C25.1672828,55.1783734 24.6862292,55.0036969 24.2927449,54.9161275 C23.8990296,54.8287893 23.5928835,54.8287893 23.417976,54.7121072 C23.2430684,54.5954251 23.1993993,54.3622921 23.3378004,54.24561 C23.4762015,54.129159 23.7969039,54.129159 23.9792052,53.9905268 C24.1615065,53.8518946 24.2051756,53.5748614 24.219732,53.3345656 C24.2342884,53.0938078 24.219732,52.8900185 24.3292514,52.7368299 C24.4385397,52.5836414 24.6719039,52.4817468 24.6936229,52.357671 C24.715573,52.2335952 24.525878,52.0880314 24.2562384,52.1608133 C23.9865989,52.2335952 23.6365527,52.5251848 23.344963,52.6781423 C23.0533734,52.8313309 22.8202403,52.8458872 22.6014325,52.7731054 C22.3828558,52.7000924 22.1786044,52.5397412 21.9893715,52.5471349 C21.7996765,52.5542976 21.6247689,52.7294362 21.4061922,52.7657116 C21.1873845,52.8022181 20.9249076,52.7000924 20.7063309,52.5908041 C20.4877542,52.4815157 20.3126155,52.3648336 20.4001848,52.262939 C20.4877542,52.1608133 20.8375693,52.073475 20.9470887,51.8983364 C21.0563771,51.7234288 20.9251386,51.4609519 20.7211183,51.2640943 C20.5168669,51.0672366 20.2398336,50.9359982 20.3128466,50.7393715 C20.3856285,50.5425139 20.8084566,50.280268 20.9833641,49.9595656 C21.1582717,49.6388632 21.0854898,49.2597043 20.7719501,49.0630776 C20.4586414,48.86622 19.9045749,48.8516636 19.4380776,48.961183 C18.9715804,49.0704713 18.5924214,49.3036044 18.2865065,49.2599353 C17.9801294,49.2162662 17.7469963,48.8955638 17.4043438,48.6330869 C17.0616913,48.37061 16.6097505,48.1665896 16.2525416,48.1083641 C15.8953327,48.0501386 15.6328558,48.1372458 15.5018484,48.37061 C15.37061,48.6039741 15.37061,48.982902 15.2322089,49.0704713 C15.0935767,49.1578096 14.8165434,48.9540203 14.7363678,48.6259242 C14.6561922,48.2980591 14.7728743,47.8458872 14.7435305,47.5325786 C14.7144177,47.2190388 14.5395102,47.0441312 14.1968577,46.8181608 C13.8542052,46.5919593 13.3438078,46.3151571 12.9540203,46.2204251 C12.5642329,46.1256932 12.2943623,46.2132625 12.1559612,46.1624307 C12.017329,46.1113678 12.0101664,45.9216728 11.9299908,45.706793 C11.8498152,45.4916821 11.6966266,45.2511553 11.4815157,45.0981978 C11.2666359,44.9450092 10.9896026,44.8796211 10.6541128,44.8140018 C10.318854,44.7483826 9.92513863,44.6827634 9.62268946,44.6390943 C9.3202403,44.5954251 9.10882625,44.573475 8.93391867,44.5771719 C8.75901109,44.5808688 8.62060998,44.6099815 8.52957486,44.5078558 C8.43830869,44.4059612 8.39463956,44.172597 8.27795749,43.8225508 C8.16127542,43.4725046 7.97181146,43.0062384 7.77125693,42.8165434 C7.5707024,42.6268484 7.35951941,42.7144177 7.3047597,42.9041128 C7.25,43.0935767 7.35212569,43.3851664 7.23197782,43.5090111 C7.11159889,43.6330869 6.76917745,43.5891867 6.49930684,43.5018484 C6.22966728,43.4142791 6.03280961,43.2832717 5.8650647,43.3380314 C5.69731978,43.3927911 5.55891867,43.6333179 5.43507394,43.8481978 C5.31122921,44.0630776 5.2017098,44.2527726 5.00508318,44.314695 C4.80822551,44.3766174 4.52379852,44.3109982 4.22874307,44.2527726 C3.93368762,44.1945471 3.62731054,44.1434843 3.47435305,44.0231054 C3.32139556,43.9027264 3.32116451,43.7132625 3.39071165,43.5931146 C3.45979667,43.4727357 3.59819778,43.4216728 3.68207024,43.3197782 C3.7659427,43.2176525 3.79505545,43.064695 3.75878004,42.8350277 C3.72250462,42.6053604 3.62014787,42.2992144 3.49283734,42.0441312 C3.3650647,41.7890481 3.21210721,41.5847967 3.03719963,41.4207486 C2.86229205,41.2569316 2.66543438,41.1328558 2.4357671,41.1437153 C2.20609982,41.1545749 1.94385397,41.3003697 1.78327172,41.2567006 C1.62292052,41.2128004 1.56469501,40.9796673 1.40064695,40.8484288 C1.23659889,40.7171904 0.966959335,40.6878466 0.737292052,40.6661275 C0.507624769,40.6441774 0.318160813,40.6296211 0.299907579,40.5787893 C0.281654344,40.5277264 0.43461183,40.4401571 0.507624769,40.301756 C0.580406654,40.1631238 0.573012939,39.9736599 0.671441774,39.8752311 C0.76987061,39.7768022 0.974121996,39.7694085 1.23290203,39.7622458 C1.49168207,39.7550832 1.80499076,39.7476895 2.21326248,39.6749076 C2.6215342,39.6021257 3.12430684,39.4634935 3.44893715,39.4126617 C3.77333641,39.3615989 3.91913124,39.3981054 4.05036969,39.4854436 C4.18137708,39.5730129 4.29805915,39.711414 4.38562847,39.7735675 C4.47319778,39.8354898 4.53142329,39.8209335 4.61899261,39.7225046 C4.70633087,39.6240758 4.82301294,39.4417745 4.9068854,39.3068392 C4.99075786,39.1719039 5.0418207,39.0845656 4.95425139,39.0263401 C4.86691312,38.9681146 4.6409427,38.9390018 4.52772643,38.8112292 C4.41474122,38.6836876 4.41474122,38.4577172 4.23613678,38.2608595 C4.05753235,38.0640018 3.70032348,37.8962569 3.45979667,37.8197782 C3.21903882,37.7432994 3.09519409,37.7576248 2.89487061,37.9071165 C2.69454713,38.0566081 2.41751386,38.3408041 2.32624769,38.3445009 C2.23521257,38.3481978 2.32994455,38.0711645 2.22065619,37.8414972 C2.11113678,37.6118299 1.79759704,37.4295287 1.66658965,37.2691774 C1.5353512,37.1088262 1.58641405,36.9701941 1.7176525,36.9228281 C1.84889094,36.8754621 2.06030499,36.9191312 2.1987061,36.8389556 C2.33733826,36.75878 2.40295749,36.5547597 2.4905268,36.3176987 C2.57786506,36.0808688 2.68715342,35.8109982 2.62892791,35.7564695 C2.5707024,35.7017098 2.34473198,35.8622921 2.08941774,35.8366451 C1.83433457,35.8112292 1.55013863,35.5998152 1.38609057,35.6143715 C1.22204251,35.6289279 1.17837338,35.8694547 1.04343808,36.0443623 C0.908733826,36.2192699 0.682532348,36.3285582 0.489602588,36.2920518 C0.296441774,36.2555453 0.136090573,36.073475 0.117837338,35.8877079 C0.0995841035,35.7017098 0.223659889,35.5122458 0.271025878,35.3082255 C0.318391867,35.1042052 0.289279113,34.8853974 0.325554529,34.7141867 C0.361829945,34.542976 0.464186691,34.4189002 0.544362292,34.2913586 C0.624537893,34.163817 0.682763401,34.0325786 0.675369686,33.9087338 C0.668207024,33.784658 0.595194085,33.667976 0.646256932,33.4932994 C0.697319778,33.3183919 0.872227357,33.0850277 1.15642329,32.9466266 C1.44061922,32.8082255 1.83433457,32.7643253 2.08225508,32.607671 C2.32994455,32.4507856 2.43207024,32.181146 2.53766174,32.0207948 C2.64348429,31.8604436 2.75277264,31.8093808 2.87661738,31.8860906 C3.00046211,31.9625693 3.13886322,32.1665896 3.29574861,32.2396026 C3.45240296,32.3123845 3.62754159,32.254159 3.87523105,32.0681608 C4.12315157,31.8823937 4.44362292,31.568854 4.67698706,31.474122 C4.9103512,31.37939 5.05614603,31.5032348 5.15827172,31.6455638 C5.26016636,31.7876617 5.31862292,31.948244 5.42421442,32.0210259 C5.52980591,32.0938078 5.68299445,32.0792514 5.83248614,31.9808226 C5.98197782,31.8823937 6.12777264,31.7003235 6.32093346,31.616451 C6.51409427,31.5325786 6.75462107,31.5471349 6.98428835,31.5545287 C7.21395564,31.5616913 7.43253235,31.5616913 7.6439464,31.4778189 C7.85536044,31.3939464 8.05961183,31.2264325 8.19431608,31.215573 C8.32902033,31.2047135 8.39487061,31.3502773 8.53327172,31.5910351 C8.67167283,31.831793 8.88308688,32.1670518 9.02518484,32.2617837 C9.16728281,32.3565157 9.24029575,32.2107209 9.30221811,32.0503697 C9.36414048,31.8900185 9.41520333,31.7151109 9.56839187,31.6166821 C9.72158041,31.5182532 9.97666359,31.4963031 10.25,31.5656192 C10.5233364,31.6349353 10.8149261,31.7952865 10.9607209,31.8754621 C11.1065157,31.9556377 11.1065157,31.9556377 11.194085,31.9773567 C11.2816543,31.9993068 11.4565619,32.042976 11.6642791,31.9664972 C11.8719963,31.8897874 12.1125231,31.6931608 12.1744455,31.452634 C12.2363678,31.2118762 12.1196858,30.9276802 12.0977357,30.6543438 C12.0757856,30.3810074 12.1487985,30.1185305 12.3456562,29.9034196 C12.5425139,29.6883087 12.8632163,29.5207948 13.129159,29.5536044 C13.3953327,29.586414 13.6067468,29.8195471 13.8472736,29.9436229 C14.0880314,30.0674677 14.3574399,30.082024 14.7183457,29.9946858 C15.0792514,29.9071165 15.5311922,29.7176525 15.892098,29.6229205 C16.2530037,29.5281885 16.5226433,29.5281885 16.7012477,29.5792514 C16.8798521,29.6303142 16.9674214,29.7324399 17.0512939,29.9216728 C17.1351664,30.1111368 17.2151109,30.3884011 17.3574399,30.650647 C17.4997689,30.9131238 17.7037893,31.1608133 17.9043438,31.3724584 C18.1046673,31.5838725 18.301525,31.75878 18.4692699,32.0138632 C18.6370148,32.2689464 18.7754159,32.6044362 18.9212107,32.8267098 C19.0670055,33.0489834 19.2201941,33.1585028 19.3149261,33.3659889 C19.409658,33.5737061 19.4461645,33.8798521 19.5737061,34.1023567 C19.7012477,34.3246303 19.9200555,34.4632625 20.0621534,34.6016636 C20.2042514,34.7402957 20.2698706,34.8786969 20.4302218,34.853281 C20.590573,34.827634 20.8456562,34.6381701 21.2647874,34.3137708 C21.6836876,33.9893715 22.267098,33.530037 22.6970887,33.2423752 C23.1270795,32.9542514 23.4043438,32.8378004 23.6520333,32.8158503 C23.8997227,32.7939002 24.1185305,32.8669131 24.2897412,33.0965804 C24.461183,33.3262477 24.5850277,33.7125693 24.7636322,33.8036044 C24.9422366,33.8948706 25.1753697,33.6906192 25.3394177,33.5522181 C25.5032348,33.413586 25.5981978,33.340573 25.7513863,33.3553604 C25.9045749,33.3699168 26.1159889,33.4720425 26.396488,33.3116913 C26.6772181,33.1513401 27.0270333,32.728512 27.4572551,32.5062384 C27.8872458,32.2839649 28.3976433,32.2620148 28.5836414,32.3858595 C28.7694085,32.5099353 28.6310074,32.7795749 28.5069316,33.0092421 C28.3830869,33.2389094 28.2737985,33.4283734 28.3865527,33.6617375 C28.4995379,33.8948706 28.8347967,34.1719039 29.2102588,34.2084104 C29.5857209,34.2449168 30.0011553,34.0406654 30.4168207,33.9424677 C30.8324861,33.8442699 31.2476895,33.8514325 31.5540665,33.8294824 C31.8602126,33.8075323 32.0568392,33.7567006 32.0679298,33.6254621 C32.0787893,33.4942237 31.9038817,33.2828096 31.6816081,33.0933457 C31.4593346,32.9038817 31.189464,32.7361368 31.0108595,32.49561 C30.8322551,32.2548521 30.7449168,31.9415434 30.7777264,31.4020333 C30.810536,30.8625231 30.9637246,30.0972736 30.9891405,29.6088262 C31.0145564,29.1203789 30.9124307,28.9089649 30.7814233,28.5845656 C30.6501848,28.2601664 30.4898336,27.8230129 30.5224122,27.5060074 C30.5552218,27.1890018 30.7811922,26.9921442 30.8833179,26.7222736 C30.9852126,26.452634 30.9634935,26.1099815 30.8505083,25.9131238 C30.7375231,25.7162662 30.5332717,25.6654344 30.4205176,25.5450555 C30.3075323,25.4246765 30.2858133,25.2352126 30.1654344,24.8925601 C30.0450555,24.5501386 29.8264787,24.0542976 29.5531423,23.7481516 C29.2798059,23.4417745 28.9517098,23.3253235 28.8752311,23.1067468 C28.7985213,22.887939 28.9736599,22.5674677 29.0355823,22.2465342 C29.0977357,21.9258318 29.0464418,21.6051294 28.948244,21.3974122 C28.8498152,21.189695 28.7040203,21.094732 28.7222736,20.9124307 C28.7405268,20.7301294 28.9228281,20.4604898 28.9554067,20.1980129 C28.9882163,19.935536 28.8715342,19.6804529 28.6929298,19.5092421 C28.5145564,19.3380314 28.2740296,19.2504621 28.120841,19.0210259 C27.9676525,18.7913586 27.9020333,18.4193623 27.9715804,18.1716728 C28.0406654,17.9237523 28.2449168,17.7999076 28.3904806,17.8581331 C28.5362754,17.9165896 28.6238447,18.1571165 28.9810536,18.3904806 C29.3382625,18.6236137 29.9651109,18.8495841 30.5080869,19.0355823 C31.0512939,19.2215804 31.5103974,19.3673752 31.8567468,19.3271719 C32.2030961,19.2869686 32.4362292,19.0609982 32.6878466,18.9625693 C32.9392329,18.8641405 33.2091035,18.8932532 33.5697782,18.9517098 C33.9304529,19.0101664 34.3826248,19.0975046 34.6303142,19.2798059 C34.8780037,19.4621072 34.9219039,19.7391405 34.9256007,19.9103512 C34.9292976,20.0815619 34.8927911,20.1471811 34.7943623,20.24561 C34.6959335,20.3440388 34.5355823,20.4752773 34.4554067,20.5956562 C34.3752311,20.7158041 34.3752311,20.8250924 34.305915,20.8981054 C34.2365989,20.9711183 34.0981978,21.0076248 34.0471349,21.0951941 C33.9960721,21.1825323 34.0325786,21.3211645 34.1018946,21.5288817 C34.1712107,21.7365989 34.2731054,22.0136322 34.4773567,22.2724122 C34.6813771,22.5311922 34.9875231,22.771719 35.0933457,22.9246765 C35.1991682,23.077634 35.1042052,23.1434843 35.0496765,23.2964418 C34.9949168,23.4496303 34.9803604,23.6901571 35.0787893,23.7959797 C35.1772181,23.9018022 35.3886322,23.8724584 35.5743993,23.7814233 C35.7603974,23.6901571 35.9207486,23.5371996 36.1176063,23.4387708 C36.314464,23.340342 36.547597,23.2966728 36.7915896,23.3114603 C37.0358133,23.3260166 37.2908965,23.3987985 37.5787893,23.5591497 C37.8669131,23.7195009 38.1873845,23.9674214 38.8036044,24.0584566 C39.4195933,24.1497227 40.3306377,24.0838725 41.0050832,24.0621534 C41.6792976,24.0404344 42.1166821,24.0621534 42.5067006,24.2627079 C42.896719,24.4632625 43.2391405,24.8421904 43.6146026,25.0353512 C43.9900647,25.228512 44.3981054,25.2359057 44.8682994,24.9879852 C45.3384935,24.7400647 45.8703789,24.2372921 46.3334104,23.9711183 C46.7964418,23.7049445 47.1901571,23.6758318 47.7439926,23.6358595 C48.2978281,23.5956562 49.0122458,23.5445933 49.4898336,23.318854 C49.9671904,23.0926525 50.2079482,22.6917745 50.1240758,22.5607671 C50.0402033,22.4295287 49.6321627,22.5679298 49.1582717,22.517098 C48.6843808,22.4660351 48.1448706,22.2255083 47.7876617,22.1816081 C47.4304529,22.137939 47.2555453,22.2911275 47.1025878,22.444085 C46.9493993,22.5970425 46.8181608,22.7502311 46.6178373,22.7502311 C46.4172828,22.7502311 46.1476433,22.5970425 46.0237985,22.4112754 C45.8999538,22.2252773 45.9216728,22.0067006 46.1002773,21.6859982 C46.2788817,21.3652957 46.6141405,20.9424677 46.767329,20.5707024 C46.9205176,20.1989372 46.8911738,19.8780037 46.9824399,19.6813771 C47.073475,19.4845194 47.2851201,19.4115065 47.7915896,19.1746765 C48.2982902,18.9378466 49.1000462,18.5367375 49.7816543,18.125 C50.4632625,17.7130314 51.0244917,17.2902033 51.5674677,17.1226895 C52.1104436,16.9551756 52.6353974,17.0425139 53.2476895,16.9988447 C53.8599815,16.9551756 54.5598429,16.780268 55.288586,16.474122 C56.0175601,16.167976 56.775878,15.7305915 57.3953327,15.3006007 C58.0150185,14.8703789 58.4960721,14.4477819 58.7876617,13.9884473 C59.0792514,13.5291128 59.1813771,13.0335028 59.4364603,12.8731516 C59.6915434,12.7128004 60.0998152,12.8877079 60.4496303,12.9533272 C60.7996765,13.0189464 61.0910351,12.9752773 61.0328096,12.7564695 C60.9745841,12.5378928 60.5663124,12.1441774 60.2747227,11.8160813 C59.9831331,11.4879852 59.8079945,11.2255083 59.771719,10.9558688 C59.7352126,10.6862292 59.8373383,10.4091959 59.9027264,10.0884935 C59.9683457,9.76756007 59.9976895,9.40318854 60.055915,8.82000924 C60.1141405,8.23682994 60.2017098,7.43507394 60.1580407,6.81192237 C60.1143715,6.18853974 59.9392329,5.74399261 59.9939926,5.43045287 C60.0487523,5.11714418 60.3329482,4.93461183 60.409427,4.58849353 C60.4861368,4.24214418 60.3548983,3.73197782 60.4131238,3.40018484 C60.4713494,3.06839187 60.7192699,2.91543438 61.0108595,2.71141405 C61.3024492,2.50739372 61.6377079,2.25231054 61.9986137,2.05914972 C62.3595194,1.86598891 62.745841,1.73475046 63.4348429,1.55984288 C64.1236137,1.3849353 65.1148336,1.16612754 65.840342,0.998382625 C66.5656192,0.830868762 67.0247227,0.714186691 67.4110444,0.601432532 C67.797366,0.48844732 68.1109057,0.379158965 68.3770795,0.273567468 C68.6430222,0.167744917 68.8618299,0.0656192237 68.9711183,0.0912661738 C69.0804067,0.11668207 69.0804067,0.26987061 69.1388632,0.50323475 C69.1970887,0.736367837 69.3137708,1.04990758 69.4923752,1.31608133 C69.6707486,1.58202403 69.9112754,1.80083179 69.9406192,1.97573937 C69.969732,2.15064695 69.7874307,2.2818854 69.6561922,2.57347505 C69.5251848,2.8650647 69.4450092,3.31700555 69.4450092,3.59034196 C69.4450092,3.86367837 69.5251848,3.95841035 69.7620148,3.94755083 C69.9988447,3.93646026 70.3925601,3.82000924 70.5457486,3.87107209 C70.6987061,3.92213494 70.6113678,4.14071165 70.6695933,4.37407579 C70.7280499,4.60720887 70.9320702,4.85512939 71.0704713,5.0482902 C71.2088725,5.24145102 71.2818854,5.37985213 71.456793,5.4457024 C71.6319316,5.51132163 71.9087338,5.50392791 72.0910351,5.51132163 C72.2733364,5.51871534 72.3606747,5.54043438 72.4701941,5.40549908 C72.5797135,5.27079482 72.7107209,4.97897412 72.9731978,4.75670055 C73.2356747,4.53442699 73.629159,4.38123845 73.9281423,4.33040665 C74.2271257,4.27934381 74.431146,4.33040665 74.5478281,4.48336414 C74.6645102,4.63632163 74.6936229,4.89163586 74.8505083,5.09195933 C75.0073937,5.29228281 75.2913586,5.43830869 75.3498152,5.61321627 C75.4080407,5.78812384 75.2405268,5.99214418 75.189464,6.17444547 C75.1384011,6.35674677 75.2040203,6.51709797 75.3098429,6.71395564 C75.4156654,6.91058226 75.5614603,7.1439464 75.6048983,7.35536044 C75.6485675,7.56677449 75.590342,7.75623845 75.6194547,7.93484288 C75.6485675,8.11344732 75.7652495,8.28119224 75.9221349,8.41612754 C76.0790203,8.55083179 76.275647,8.65295749 76.461414,8.59473198 C76.6474122,8.53650647 76.8223198,8.31769871 77.0191774,8.14648799 C77.2160351,7.97504621 77.4346118,7.85120148 77.6571165,7.88031423 C77.87939,7.90942699 78.1051294,8.09172828 78.2911275,8.26663586 C78.4771257,8.44177449 78.6231516,8.60928835 78.7943623,8.82439926 C78.965573,9.03951017 79.1624307,9.30175601 79.2058688,9.66658965 C79.2495379,10.0309612 79.1402495,10.4974584 79.1950092,10.7744917 C79.2495379,11.051525 79.4683457,11.1390943 79.650647,11.1134473 C79.8327172,11.0880314 79.978512,10.9493993 80.1317006,10.8255545 C80.284658,10.7014787 80.4450092,10.5921904 80.6418669,10.6104436 C80.8389556,10.6286969 81.0718577,10.7742606 81.3126155,10.7636322 C81.5531423,10.7525416 81.8008318,10.5850277 82.0233364,10.5450555 C82.24561,10.5048521 82.4422366,10.5924214 82.6390943,10.7088725 C82.836183,10.8255545 83.0328096,10.9713494 83.3096118,11.1462569 C83.5866451,11.3211645 83.943854,11.5254159 84.0314233,11.6966266 C84.1187616,11.8678373 83.9364603,12.0062384 83.7906654,12.2250462 C83.6448706,12.443854 83.5355823,12.7426063 83.6157579,12.8992606 C83.6959335,13.055915 83.9658041,13.0704713 84.1296211,13.2019409 C84.2939002,13.3329482 84.3521257,13.5810998 84.3521257,13.8216266 C84.3521257,14.0621534 84.2939002,14.2955176 84.1407116,14.4339187 C83.9877542,14.5725508 83.7398336,14.61622 83.5975046,14.7292052 C83.4551756,14.8421904 83.4191312,15.0244917 83.5938078,15.2432994 C83.7689464,15.4618762 84.155268,15.7169593 84.4868299,15.7934381 C84.8186229,15.8701479 85.0954251,15.7680222 85.3724584,15.7680222 C85.6492606,15.7680222 85.9262939,15.8699168 86.1561922,15.9392329 C86.3856285,16.008549 86.5679298,16.0450555 86.8341035,15.9537893 C87.1002773,15.8627542 87.4500924,15.6439464 87.7416821,15.4909889 C88.0335028,15.3378004 88.2666359,15.2502311 88.3433457,15.0681608 C88.4198244,14.8858595 88.3394177,14.6088262 88.3176987,14.2955176 C88.2959797,13.9819778 88.3322551,13.6321627 88.5693161,13.3040665 C88.806146,12.9762015 89.2435305,12.6698244 89.6481054,12.4766636 C90.0526802,12.2835028 90.4244455,12.2033272 90.6541128,12.2578558 C90.883549,12.3126155 90.9711183,12.5020795 90.9274492,12.7645564 C90.88378,13.0268022 90.7088725,13.3622921 90.5339649,13.7195009 C90.3588262,14.0767098 90.1839187,14.4558688 90.0780961,14.7400647 C89.9725046,15.0242606 89.9359982,15.2139556 90.0672366,15.4108133 C90.198475,15.607671 90.4972274,15.8116913 90.672366,15.9865989 C90.8472736,16.1615065 90.8983364,16.3073013 90.836183,16.5332717 C90.7742606,16.7592421 90.599353,17.0653882 90.5120148,17.3170055 C90.4244455,17.5683919 90.4244455,17.7652495 90.4646488,17.9110444 C90.5046211,18.0568392 90.5850277,18.1518022 90.767098,18.107902 C90.9493993,18.0642329 91.2338262,17.8819316 91.4341497,17.8237061 C91.6347043,17.7654806 91.7513863,17.8310998 92.0099353,17.9514787 C92.2687153,18.0716266 92.6695933,18.2465342 92.9103512,18.5127079 C93.150647,18.7788817 93.2310536,19.1358595 93.4898336,19.2525416 C93.7486137,19.3692237 94.1859982,19.2453789 94.4556377,19.3001386 C94.7252773,19.3548983 94.827403,19.5880314 94.9877542,19.7703327 C95.1481054,19.952634 95.3671442,20.0836414 95.5746303,20.237061 C95.7823475,20.3900185 95.9792052,20.5649261 96.0887246,20.780037 C96.198244,20.9951479 96.219732,21.2502311 96.2345194,21.4105823 C96.2490758,21.5709335 96.2564695,21.6365527 96.3475046,21.6693623 C96.4385397,21.7021719 96.6134473,21.7021719 96.8031423,21.6619686 C96.9926063,21.6219963 97.1968577,21.5415896 97.5577634,21.4105823 C97.9186691,21.2795749 98.4362292,21.0970425 98.7677911,20.9986137 C99.099353,20.9001848 99.2449168,20.8856285 99.4124307,20.9475508 C99.5799445,21.0094732 99.7687153,21.1478743 99.99561,21.3329482 C100.222505,21.5182532 100.487754,21.7502311 100.703327,21.9191312 C100.9189,22.0880314 101.084335,22.194085 101.329713,22.2139556 C101.575092,22.2338262 101.899723,22.1675139 102.188078,21.9720425 C102.476433,21.7763401 102.728281,21.4517098 102.966728,21.3324861 C103.205407,21.2130314 103.430915,21.2992144 103.65781,21.4436229 C103.884473,21.5880314 104.113216,21.7906654 104.446165,21.8701479 C104.778882,21.9496303 105.216266,21.9057301 105.569778,21.9932994 C105.92329,22.0806377 106.19293,22.2994455 106.389787,22.5399723 C106.586876,22.7807301 106.710721,23.042976 106.703327,23.2726433 C106.696165,23.5023105 106.557532,23.6989372 106.688771,23.9323013 C106.820009,24.1656654 107.221118,24.435305 107.468808,24.7523105 C107.716497,25.0693161 107.81146,25.4339187 107.935536,25.7035582 C108.059381,25.9731978 108.212338,26.1481054 108.427449,26.180915 C108.64256,26.2137246 108.919593,26.1044362 108.999769,25.9295287 C109.080176,25.7546211 108.963494,25.5140943 109.043438,25.3572089 C109.123845,25.2005545 109.400647,25.1275416 109.713956,25.1349353 C110.027495,25.142329 110.377311,25.2296673 110.566774,25.4556377 C110.756238,25.6816081 110.785351,26.0462107 111.062616,26.2465342 C111.339649,26.4468577 111.864603,26.4833641 112.305453,26.4796673 C112.746534,26.4759704 113.103743,26.4323013 113.34427,26.2682532 C113.584797,26.1044362 113.708641,25.8200092 113.898105,25.6705176 C114.087569,25.5210259 114.342884,25.5064695 114.58341,25.5466728 C114.823937,25.5866451 115.050139,25.6816081 115.195471,25.8821627 C115.341497,26.0827172 115.407116,26.3888632 115.625693,26.6330869 C115.84427,26.8773105 116.216266,27.0596118 116.616913,27.172366 C117.017791,27.2853512 117.448244,27.3290203 117.929067,27.2890481 C118.410351,27.2490758 118.942468,27.125 119.343346,27.125 C119.744224,27.125 120.013863,27.2490758 120.323706,27.3840111 C120.633549,27.5187153 120.983364,27.6645102 121.384473,27.7227357 C121.785582,27.7809612 122.237292,27.7518484 122.36853,27.8394177 C122.499769,27.926756 122.310305,28.1310074 122.055222,28.5683919 C121.800139,29.0057763 121.479436,29.6762939 121.183919,30.2049445 C120.888863,30.7335952 120.619224,31.1199168 120.309381,31.517098 C119.999538,31.9142791 119.649723,32.3225508 119.336183,32.6580407 C119.022874,32.9935305 118.74561,33.2557763 118.629159,33.547366 C118.512477,33.8389556 118.556146,34.159658 118.54159,34.4731978 C118.527033,34.7865065 118.45402,35.0928835 118.359288,35.4426987 C118.264556,35.7927449 118.147874,36.1862292 118.176987,36.4778189 C118.206331,36.7694085 118.381238,36.9588725 118.344963,37.1774492 C118.308457,37.3962569 118.060767,37.6439464 117.827403,38.0813309 C117.594039,38.5187153 117.375462,39.1455638 117.207717,39.7506932 C117.039972,40.3555915 116.923521,40.9387708 116.966959,41.3689926 C117.010628,41.7989834 117.21488,42.0760166 117.375462,42.2728743 C117.535813,42.469732 117.652264,42.586183 117.667052,42.8121534 C117.681608,43.0381238 117.59427,43.3733826 117.426525,43.6834566 C117.25878,43.9930684 117.01086,44.2774954 116.865065,44.616451 C116.71927,44.9554067 116.675601,45.3488909 116.690157,45.797366 C116.704713,46.24561 116.777726,46.7486137 116.96719,47.0621534 C117.156654,47.3754621 117.463031,47.4995379 117.594039,47.6342421 C117.725277,47.7689464 117.681608,47.9149723 117.572089,48.1044362 C117.4628,48.2939002 117.287893,48.5272643 117.010628,48.8479667 C116.733826,49.1689002 116.354667,49.5769409 116.070471,49.87939 C115.786275,50.1818392 115.59658,50.3786969 115.3378,50.4115065 C115.07902,50.4443161 114.750924,50.3130776 114.419362,50.2583179 C114.087569,50.2035582 113.752079,50.2255083 113.580869,50.1561922 C113.409658,50.0868762 113.402495,49.926525 113.409658,49.7698706 C113.417052,49.6132163 113.438771,49.4600277 113.231285,49.3798521 C113.023567,49.2996765 112.586183,49.2922828 112.25439,49.288586 C111.922597,49.2848891 111.696627,49.2848891 111.649261,49.3944085 C111.601895,49.5039279 111.733133,49.7225046 111.623845,50.0249538 C111.514325,50.327634 111.164741,50.7137246 110.964187,51.0127079 C110.763863,51.3116913 110.7128,51.5228743 110.989603,51.5376617 C111.266636,51.5522181 111.871765,51.3699168 112.22158,51.3299445 C112.571627,51.2899723 112.666359,51.3918669 112.604436,51.6397874 C112.542283,51.8874769 112.323706,52.2811922 112.046673,52.6966266 C111.769871,53.112061 111.434381,53.5494455 111.062616,54.00878 C110.69085,54.4678835 110.282579,54.9491682 109.918207,55.4048059 C109.553604,55.8604436 109.232902,56.2904344 108.86853,56.5674677 C108.503928,56.8445009 108.095656,56.9683457 107.734982,57.0921904 C107.374307,57.2160351 107.060767,57.3401109 106.914972,57.62061 C106.769177,57.9011091 106.790896,58.3384935 106.8311,58.7322089 C106.871303,59.1259242 106.929529,59.4757394 106.82024,59.7599353 C106.710952,60.0441312 106.433919,60.262939 106.047366,60.5981978 C105.661044,60.9334566 105.165434,61.3853974 104.742837,61.7643253 C104.320009,62.1434843 103.969963,62.4496303 103.904344,62.6390943 C103.838725,62.8287893 104.057532,62.9018022 104.035582,63.0619224 C104.013632,63.2222736 103.751386,63.4704251 103.583641,63.7181146 C103.415896,63.9658041 103.343115,64.2139556 103.496072,64.3378004 C103.649261,64.4616451 104.02842,64.4616451 104.225046,64.6148336 C104.421904,64.7677911 104.43646,65.0739372 104.378004,65.3509704 C104.319778,65.6280037 104.18854,65.8759242 104.152033,66.1310074 C104.115527,66.3860906 104.173983,66.6485675 104.006007,66.8163124 C103.838494,66.9840573 103.444778,67.0568392 103.175139,67.1954713 C102.905268,67.3341035 102.759473,67.5378928 102.642791,67.7640943 C102.526109,67.9900647 102.438771,68.2379852 102.715804,68.3763863 C102.992606,68.5150185 103.634242,68.5441312 104.202865,68.3618299 C104.771488,68.1797597 105.267098,67.7860444 105.617144,67.4725046 C105.966959,67.1591959 106.17098,66.9258318 106.112754,66.8019871 C106.054529,66.6779113 105.733595,66.6633549 105.617144,66.4228281 C105.500462,66.1823013 105.5878,65.715573 105.784658,65.4385397 C105.981747,65.1617375 106.287893,65.0741682 106.52842,65.0593808 C106.768946,65.0448244 106.943854,65.1030499 107.27195,64.9865989 C107.599815,64.8699168 108.0811,64.5783272 108.59866,64.4399261 C109.115989,64.301525 109.670287,64.3160813 110.071165,64.3380314 C110.471811,64.3599815 110.719963,64.3890943 110.741682,64.512939 C110.763401,64.6367837 110.559381,64.8555915 110.654113,65.0743993 C110.748845,65.293207 111.14256,65.5120148 111.266405,65.7959797 C111.39025,66.0801756 111.244455,66.4302218 111.054991,66.7945933 C110.865527,67.1591959 110.632163,67.5381238 110.60305,67.7788817 C110.573937,68.0194085 110.748845,68.1213031 110.974584,68.1358595 C111.200786,68.1504159 111.477819,68.077634 111.528651,68.2744917 C111.579713,68.4715804 111.404806,68.9378466 111.499538,69.047366 C111.59427,69.1568854 111.958641,68.9087338 112.308457,69.0182532 C112.658503,69.1277726 112.993993,69.5940388 113.227126,70.0168669 C113.46049,70.439695 113.591728,70.818854 113.526109,71.2486137 C113.46049,71.6788355 113.198013,72.1598891 112.811691,72.3495841 C112.42537,72.5392791 111.914972,72.4369224 111.565157,72.5755545 C111.215111,72.7141867 111.025647,73.0931146 111.040203,73.4868299 C111.05476,73.8803142 111.273799,74.288586 111.681839,74.5071627 C112.090111,74.7259704 112.687847,74.7550832 112.94293,74.9447782 C113.198013,75.1344732 113.110675,75.4842884 113.154113,75.9140481 C113.198013,76.3442699 113.372921,76.8544362 113.722736,77.189695 C114.072782,77.5249538 114.597505,77.685536 114.852819,77.9477819 C115.108133,78.2100277 115.093346,78.5746303 115.042283,78.9755083 C114.99122,79.3763863 114.903651,79.8137708 114.830869,80.1347043 C114.758087,80.4554067 114.699861,80.659427 114.444547,80.7615527 C114.189464,80.8636784 113.737292,80.8636784 113.416821,81.0094732 C113.095887,81.155268 112.906423,81.4468577 112.753466,81.650878 C112.600277,81.8548983 112.483595,81.9715804 112.389094,82.077403 C112.294362,82.1829945 112.221349,82.2777264 112.090111,82.2486137 C111.959104,82.2195009 111.769409,82.0663124 111.601895,82.0080869 C111.43415,81.9496303 111.288586,81.9861368 111.168207,82.0335028 C111.047828,82.0808688 110.953096,82.1390943 110.763401,82.2229667 C110.574168,82.3068392 110.289741,82.4161275 110.202172,82.5984288 C110.114603,82.7804991 110.224122,83.0358133 110.307763,83.2798059 C110.391636,83.5240296 110.450092,83.7571627 110.621303,83.8230129 C110.792514,83.8888632 111.076941,83.7867375 111.244455,83.8375693 C111.411969,83.8884011 111.463031,84.0926525 111.473891,84.3731516 C111.484982,84.6538817 111.455869,85.0110906 111.473891,85.2296673 C111.492144,85.448475 111.557763,85.5286506 111.787431,85.659658 C112.016867,85.7908965 112.410582,85.9731978 112.727588,86.0060074 C113.044824,86.038817 113.285351,85.9221349 113.518715,85.9112754 C113.752079,85.9001848 113.977819,85.9949168 114.08341,86.1954713 C114.189233,86.3957948 114.174677,86.7019409 114.181839,86.9609519 C114.189233,87.219732 114.218346,87.431146 114.356978,87.5478281 C114.49561,87.6645102 114.743299,87.6862292 114.849122,87.8900185 C114.954945,88.0942699 114.918438,88.4805915 114.736137,88.6883087 C114.554067,88.8960259 114.22597,88.9251386 114.018253,89.1072089 C113.810536,89.2895102 113.722967,89.625 113.624538,89.8107671 C113.526109,89.9967652 113.416821,90.0332717 113.300139,90.0988909 C113.183688,90.1645102 113.059612,90.2592421 112.96488,90.4013401 C112.870148,90.5434381 112.80476,90.7333641 112.862985,90.9080407 C112.921442,91.0829482 113.103512,91.2432994 113.285813,91.3890943 C113.467884,91.5348891 113.650185,91.6661275 113.643022,91.8738447 C113.63586,92.0815619 113.438771,92.3657579 113.409658,92.620841 C113.380545,92.8759242 113.519177,93.1018946 113.737754,93.3789279 C113.956331,93.6557301 114.255314,93.9838262 114.437616,94.1769871 C114.619686,94.3701479 114.685305,94.4286044 114.845887,94.4685767 C115.006007,94.50878 115.261322,94.5307301 115.647643,94.6908503 C116.034196,94.8512015 116.551756,95.1501848 116.981516,95.3070702 C117.411506,95.4637246 117.75439,95.478281 117.998383,95.5621534 C118.242837,95.6460259 118.388401,95.7989834 118.618068,95.7807301 C118.847736,95.7627079 119.161275,95.573244 119.372689,95.4600277 C119.584104,95.3468115 119.693392,95.310536 119.915896,95.2338262 C120.13817,95.1573475 120.473429,95.0406654 120.695933,94.8694547 C120.918207,94.698244 121.027726,94.4722736 121.158734,94.4685767 C121.289972,94.4648799 121.44293,94.6836876 121.483133,94.8694547 C121.523105,95.0554529 121.450092,95.2084104 121.508549,95.430915 C121.566774,95.6531885 121.756238,95.9447782 121.771026,96.1926987 C121.785582,96.4403882 121.625231,96.6446396 121.46488,96.8997227 C121.304529,97.1548059 121.144177,97.461183 120.965573,97.6943161 C120.7872,97.9276802 120.590111,98.0880314 120.45171,98.2737985 C120.313078,98.4597967 120.233133,98.6712107 120.138401,98.8352588 C120.043669,98.9993068 119.93415,99.1159889 119.948937,99.3126155 C119.963494,99.5097043 120.101895,99.7865065 120.185767,100.001386 C120.269409,100.216497 120.298521,100.369686 120.112985,100.573706 C119.926987,100.777957 119.526109,101.03281 119.165203,101.222736 C118.804298,101.411969 118.483595,101.536044 118.162893,101.66012 C117.841959,101.783965 117.521488,101.90781 117.22597,102.104667 C116.930915,102.301756 116.661275,102.571396 116.540665,102.884704 C116.420518,103.198013 116.44963,103.555222 116.438771,103.806839 C116.427911,104.058457 116.376848,104.204251 116.183688,104.218577 C115.990527,104.233133 115.655037,104.116682 115.381701,104.138401 C115.108133,104.160351 114.896719,104.320702 114.780268,104.477357 C114.663586,104.634242 114.641636,104.7872 114.574168,105.003928 C114.506701,105.220656 114.393946,105.501386 114.22805,105.730823 C114.062153,105.96049 113.843577,106.139094 113.568392,106.208179 C113.293438,106.277495 112.961645,106.237292 112.766636,106.353974 C112.571396,106.470656 112.51317,106.743993 112.341959,107.022874 C112.170749,107.301756 111.886322,107.586183 111.897181,107.740989 C111.908041,107.895795 112.214187,107.921211 112.365527,108.125462 C112.516636,108.329713 112.51317,108.712338 112.45841,109.007394 C112.403651,109.302449 112.298059,109.510397 112.146719,109.65781 C111.995379,109.805684 111.798521,109.893022 111.590804,109.858364 C111.383087,109.823706 111.164279,109.667052 111.038586,109.581331 C110.912893,109.495841 110.879852,109.481054 110.790665,109.537662 C110.701479,109.59427 110.555453,109.721811 110.318854,109.847505 C110.082024,109.973198 109.753928,110.097043 109.56793,110.286506 C109.381932,110.475739 109.338262,110.731054 109.181377,110.858826 C109.024723,110.986368 108.755083,110.986368 108.507163,110.942468 C108.259473,110.898799 108.033272,110.81146 107.832948,110.825786 C107.632394,110.840342 107.457486,110.957024 107.337107,111.157579 C107.216728,111.358133 107.15134,111.64256 106.998152,111.726201 C106.845194,111.810074 106.604667,111.693392 106.371303,111.573244 C106.137939,111.453096 105.911969,111.328789 105.704251,111.201479 C105.496534,111.073706 105.306839,110.942699 105.128235,110.964649 C104.949861,110.986599 104.782116,111.161506 104.665434,111.318161 C104.548752,111.474815 104.483133,111.613216 104.231747,111.726433 C103.980129,111.839418 103.542976,111.926987 103.364372,111.824861 C103.185767,111.722967 103.265712,111.431377 103.222043,111.237985 C103.178604,111.044824 103.010628,110.950092 102.795518,110.797135 C102.580407,110.644177 102.318161,110.432763 102.066774,110.319778 C101.815157,110.206793 101.57463,110.192237 101.414279,110.279575 C101.253928,110.367144 101.173983,110.556608 101.064464,110.542052 C100.954945,110.527495 100.816543,110.308688 100.645333,110.148567 C100.474122,109.988216 100.269871,109.88586 99.7959797,109.867837 C99.3220887,109.849584 98.5785582,109.915203 98.3197782,109.838725 C98.0612292,109.762246 98.2869686,109.543438 98.4110444,109.255545 C98.5351201,108.967652 98.5568392,108.610444 98.4147412,108.329713 C98.2728743,108.049214 97.9664972,107.844963 97.7185767,107.866913 C97.4706562,107.888863 97.2809612,108.136553 97.0552218,108.271488 C96.8292514,108.406192 96.5670055,108.428142 96.2423752,108.457486 C95.917976,108.486599 95.5316543,108.522874 95.2583179,108.322551 C94.9847505,108.122227 94.8243993,107.684612 94.6129852,107.403882 C94.4018022,107.123383 94.1393253,106.999538 93.9059612,107.054067 C93.672597,107.108595 93.4685767,107.341959 93.4902957,107.553373 C93.5122458,107.764556 93.7601664,107.954251 93.7490758,108.187384 C93.7382163,108.420749 93.4685767,108.697782 93.2532348,108.745148 C93.0381238,108.792514 92.8777726,108.610213 92.6118299,108.486368 C92.3458872,108.362523 91.9738909,108.296904 91.5549908,108.286044 C91.1358595,108.274954 90.6693623,108.318854 90.4560998,108.120148 C90.2428373,107.921442 90.2830407,107.48036 89.9457024,107.216266 C89.6085952,106.951941 88.8941774,106.864603 88.2599353,106.827865 C87.6259242,106.79159 87.0716266,106.805915 86.6490296,106.813309 C86.2262015,106.820471 85.9346118,106.820471 85.7158041,106.609057 C85.4972274,106.397874 85.3514325,105.974815 84.8338725,105.909427 C84.3163124,105.843808 83.4269871,106.135397 82.625,106.536275 C81.823244,106.937153 81.1088262,107.447551 80.6859982,107.994455 C80.2631701,108.540896 80.1321627,109.124307 79.9861368,109.532348 C79.840342,109.940619 79.6802218,110.173752 79.2865065,110.195702 C78.8930222,110.217652 78.2659427,110.027957 77.7557763,110.137246 C77.2453789,110.246765 76.8518946,110.654806 76.4875231,111.15781 C76.1229205,111.660813 75.7876617,112.25878 75.4156654,113.060305 C75.0441312,113.862292 74.6358595,114.868068 74.4972274,115.881238 C74.3585952,116.89464 74.4900647,117.914972 74.694085,118.614834 C74.8983364,119.314464 75.1751386,119.693623 75.5616913,119.999769 C75.9480129,120.305915 76.4436229,120.539048 76.7497689,120.889094 C77.055915,121.23914 77.172597,121.705407 76.9685767,121.858595 C76.7643253,122.011553 76.2396026,121.851201 75.7731054,121.69085 C75.3063771,121.530499 74.8983364,121.369917 74.3516636,121.369917 C73.8049908,121.369917 73.1196858,121.530268 72.5658503,121.676063 C72.0120148,121.821858 71.5889556,121.953096 71.3994917,122.200786 C71.2100277,122.448706 71.2536969,122.813078 71.1732902,123.024492 C71.0931146,123.235675 70.8890943,123.294131 70.5244917,123.272181 C70.1598891,123.250231 69.6351664,123.148336 69.241451,122.88586 C68.8479667,122.623383 68.5854898,122.200555 68.1261553,121.996303 C67.6670518,121.792283 67.0110906,121.80707 66.5954251,121.857902 C66.1799908,121.908965 66.0048521,121.996303 65.8010628,122.178604 C65.5968115,122.360906 65.3634473,122.637939 65.0792514,122.820009 C64.7950555,123.002311 64.4595656,123.089649 64.2701017,123.009473 C64.0806377,122.929298 64.0367375,122.681377 63.9493993,122.426294 C63.8618299,122.171211 63.7308226,121.908965 63.5117837,121.78512 C63.293207,121.661275 62.987061,121.675601 62.8267098,121.588031 C62.6663586,121.500693 62.6515712,121.311229 62.396488,121.216497 C62.1414048,121.121765 61.6455638,121.121765 61.3759242,121.019409 C61.1062847,120.917514 61.0623845,120.713262 61.0549908,120.523567 C61.0478281,120.334335 61.0769409,120.159196 61.1936229,119.991451 C61.310305,119.823706 61.5143253,119.663586 61.3759242,119.619686 C61.2372921,119.576248 60.7562384,119.64903 60.413586,119.615989 C60.0709335,119.583179 59.8666821,119.444778 59.7174214,119.306146 C59.5681608,119.167745 59.4731978,119.029344 59.1779113,118.894409 C58.8828558,118.759704 58.3870148,118.628466 58.099122,118.653882 C57.8109982,118.679298 57.7310536,118.861599 57.6654344,119.051294 C57.5998152,119.240758 57.5487523,119.437616 57.3738447,119.484982 C57.1989372,119.532348 56.8999538,119.430453 56.7361368,119.164048 C56.5720887,118.898105 56.542976,118.467884 56.4408503,118.183688 C56.3387246,117.899492 56.163817,117.761091 55.8722274,117.680684 C55.5806377,117.600508 55.172366,117.578789 54.8297135,117.589418 C54.487061,117.600508 54.2100277,117.644177 54.0642329,117.564002 C53.9184381,117.483826 53.9038817,117.280037 53.8636784,117.101201 C53.823475,116.922597 53.7578558,116.769409 53.4736599,116.645564 C53.1892329,116.521719 52.6862292,116.426756 52.3181608,116.34658 C51.9500924,116.266405 51.7167283,116.200786 51.4362292,116.073244 C51.1557301,115.945702 50.827634,115.756007 50.5360444,115.621303 C50.2444547,115.486368 49.9891405,115.406192 49.7742606,115.431839 C49.5593808,115.457486 49.3842421,115.588725 49.3223198,115.869224 C49.2603974,116.149954 49.3114603,116.579945 49.3844732,116.929991 C49.4572551,117.280037 49.5522181,117.549677 49.5265712,117.7061 C49.5009242,117.862985 49.3551294,117.906654 49.1109057,117.873845 C48.8666821,117.841035 48.5240296,117.731747 48.2361368,117.655268 C47.948244,117.578789 47.7148799,117.534889 47.4852126,117.604205 C47.2555453,117.673521 47.0295749,117.855823 46.8036044,117.862985 C46.577634,117.870148 46.3516636,117.702865 46.1002773,117.655268 C45.8486599,117.607902 45.5716266,117.680915 45.3713031,117.768253 C45.1707486,117.855823 45.0469039,117.957717 44.9193623,117.896026 C44.7918207,117.833872 44.6605823,117.607902 44.4637246,117.440157 C44.2668669,117.272412 44.00439,117.163355 43.6654344,117.174214 C43.3264787,117.185305 42.9108133,117.316312 42.4736599,117.432994 C42.0362754,117.549677 41.5769409,117.651571 41.267098,117.58988 C40.9572551,117.527726 40.7969039,117.301987 40.6437153,117.032116 C40.4905268,116.762477 40.344963,116.449168 40.1700555,116.252079 C39.9951479,116.055222 39.7908965,115.975277 39.6196858,115.833179 C39.448475,115.691081 39.3098429,115.48683 39.1312384,115.348198 C38.952634,115.209797 38.7340573,115.136784 38.5263401,115.198937 C38.3186229,115.261091 38.1217652,115.457717 37.9031885,115.570702 C37.6843808,115.683688 37.443854,115.7128 37.2798059,115.636091 C37.1157579,115.559612 37.0284196,115.377542 36.9080407,115.344501 C36.7876617,115.311691 36.6347043,115.428373 36.4926063,115.545055 C36.3505083,115.661506 36.2192699,115.778189 36.0954251,115.763632 C35.9713494,115.749076 35.8546673,115.603281 35.7966728,115.421211 C35.7382163,115.238909 35.7382163,115.020333 35.6252311,114.812384 C35.5122458,114.604436 35.2862754,114.40781 35.0494455,114.276571 C34.8126155,114.145564 34.564464,114.079713 34.469963,113.948475 C34.3752311,113.817468 34.4334566,113.62061 34.4371534,113.434612 C34.4408503,113.248614 34.3897874,113.073706 34.2476895,113.011784 C34.1055915,112.949861 33.8722274,113.000924 33.6792976,113.011784 C33.4861368,113.022874 33.3329482,112.993762 33.1762939,112.957255 C33.0196396,112.92098 32.8592884,112.877079 32.7171904,112.89903 C32.5750924,112.92098 32.4512477,113.008318 32.3271719,112.931839 C32.2030961,112.85536 32.0792514,112.614834 31.7985213,112.435998 C31.5177911,112.257625 31.0804067,112.140943 30.7342884,111.987985 C30.387939,111.834797 30.1328558,111.645333 29.9510166,111.531885 C29.7689464,111.418438 29.6605823,111.38147 29.642329,111.224584 C29.6240758,111.06793 29.6963956,110.79159 29.5975046,110.569547 C29.4986137,110.347505 29.2289741,110.17976 29.0323475,110.17976 C28.8354898,110.17976 28.711414,110.347505 28.6531885,110.558919 C28.594732,110.770333 28.6021257,111.025647 28.5402033,111.200323 C28.478281,111.375462 28.3470425,111.470194 28.1247689,111.532116 C27.9024954,111.59427 27.5889556,111.623383 27.3775416,111.503004 C27.1661275,111.382625 27.0568392,111.112985 27.0240296,110.905268 C26.9909889,110.697551 27.0348891,110.551756 27.1425601,110.338494 C27.2502311,110.125231 27.4214418,109.844501 27.6328558,109.633087 C27.8442699,109.421673 28.0956562,109.279806 28.2250462,109.062616 C28.3544362,108.845887 28.3615989,108.554298 28.2816543,108.408503 C28.2012477,108.262708 28.0337338,108.262708 27.8953327,108.197089 C27.7567006,108.131701 27.6474122,108.000231 27.4542514,107.880083 C27.2610906,107.759935 26.9840573,107.650416 26.8308688,107.668669 C26.6779113,107.686922 26.6485675,107.832717 26.5538355,107.952865 C26.4591035,108.073013 26.2987523,108.167976 26.0891867,108.153189 C25.8796211,108.138632 25.620841,108.014556 25.5242606,107.876155 C25.4276802,107.737523 25.4932994,107.584566 25.4149723,107.457255 C25.3366451,107.329945 25.1141405,107.227588 24.9519409,107.147412 C24.7897412,107.067237 24.6876155,107.00878 24.5783272,106.888632 C24.4688078,106.768253 24.3523567,106.585952 24.392329,106.429529 C24.4325323,106.272643 24.629159,106.141636 24.8918669,106.07232 C25.1543438,106.003004 25.4822089,105.995841 25.7666359,105.893715 C26.0508318,105.791821 26.2913586,105.594963 26.5720887,105.30707 C26.8525878,105.018946 27.1735213,104.640018 27.6672828,103.723429 C28.1610444,102.806839 28.8280961,101.352357 29.4607209,99.232902 C30.0931146,97.1134473 30.6908503,94.3287893 30.9752773,92.8271719 C31.2594732,91.3255545 31.2303604,91.1067468 31.4417745,90.8442699 C31.6531885,90.581793 32.1051294,90.275647 32.564464,90.086183 C33.0235675,89.896719 33.4902957,89.8237061 33.7453789,89.685305 C34.0004621,89.5469039 34.0441312,89.3428835 33.862061,88.9346118 C33.6797597,88.5261091 33.271488,87.9140481 32.8780037,87.7097967 C32.4842884,87.5057763 32.1053604,87.7097967 31.8502773,87.8264787 C31.5951941,87.9431608 31.4639556,87.9722736 31.478512,87.5640018 C31.4930684,87.1557301 31.6534196,86.3100739 31.8137708,85.1947782 C31.974122,84.0794824 32.1344732,82.6945471 32.2911275,81.4004159 C32.4477819,80.1065157 32.6009704,78.9036506 32.7650185,78.2439926 C32.9290665,77.5843346 33.1039741,77.4676525 33.4537893,77.7081793 C33.8036044,77.9489372 34.3285582,78.5466728 34.8096118,79.1735213 C35.2906654,79.8006007 35.728281,80.4565619 36.0196396,81.2218115 C36.3109982,81.987061 36.457024,82.862061 36.8068392,83.5254159 C37.1566543,84.1887708 37.7107209,84.6407116 38.1409427,84.7719501 C38.5709335,84.9031885 38.8770795,84.7137246 38.7532348,84.2908965 C38.62939,83.8680684 38.0750924,83.2121072 37.7107209,82.2643253 C37.3461183,81.3165434 37.1714418,80.077403 36.9452403,79.1735213 C36.7190388,78.2696396 36.4422366,77.7010166 35.9027264,77.1908503 C35.3632163,76.6804529 34.5614603,76.228512 33.7668669,75.8641405 C32.9722736,75.4997689 32.1848429,75.2227357 31.8934843,74.8946396 C31.6021257,74.5665434 31.806146,74.1876155 32.0466728,73.9762015 C32.2871996,73.7647874 32.5642329,73.7211183 32.8121534,73.5094732 C33.0598429,73.2980591 33.2786506,72.9191312 33.4900647,72.452634 C33.7014787,71.9861368 33.9054991,71.4320702 33.9639556,70.965342 C34.0224122,70.4988447 33.9348429,70.1199168 33.6141405,69.7479205 C33.293207,69.3763863 32.7393715,69.0115527 32.681146,68.7273567 C32.6226895,68.4431608 33.0600739,68.2391405 33.3881701,67.8528189 C33.7162662,67.4662662 33.9350739,66.8976433 33.8694547,66.4967652 C33.8036044,66.0961183 33.4540203,65.8627542 33.1259242,65.8990296 C32.7980591,65.935536 32.4916821,66.2416821 32.2218115,66.4237523 C31.9521719,66.6060536 31.7190388,66.6645102 31.3877079,66.5189464 C31.0566081,66.3738447 30.6270795,66.0247227 30.3539741,65.7116451 Z M122.160582,123.328327 C122.342884,122.7939 122.619686,122.13817 122.845887,121.612985 C123.071858,121.088262 123.246765,120.694547 123.290434,120.220887 C123.334335,119.746996 123.246996,119.193161 123.203096,118.712107 C123.159427,118.230823 123.159427,117.822551 123.304991,117.37061 C123.451017,116.918669 123.742606,116.423059 124.063078,116 C124.384011,115.577403 124.733595,115.227588 124.843115,114.746303 C124.952634,114.26525 124.821165,113.652957 124.71927,113.055222 C124.617144,112.457486 124.544131,111.874307 124.558919,111.262015 C124.573475,110.649723 124.675601,110.008087 124.566081,109.54159 C124.456793,109.075092 124.136091,108.783734 123.961183,108.469963 C123.786044,108.156654 123.756932,107.821165 123.815388,107.340111 C123.873614,106.859057 124.019409,106.231978 124.085028,105.670749 C124.150647,105.109288 124.136322,104.613678 124.012246,104.1689 C123.888401,103.724353 123.655268,103.330638 123.356285,103.162893 C123.057532,102.995148 122.69293,103.053604 122.430453,103.213956 C122.167976,103.374307 122.007625,103.636784 121.963725,104.117837 C121.919824,104.598891 121.993068,105.298752 122.000231,105.801756 C122.007394,106.30476 121.949168,106.610906 121.956562,106.975277 C121.963725,107.33988 122.036738,107.762477 121.898105,107.81354 C121.759473,107.864834 121.409889,107.5439 121.067006,107.405499 C120.724584,107.266867 120.388863,107.310767 120.17768,107.52195 C119.966266,107.733595 119.878928,108.112523 119.631007,108.280037 C119.383318,108.447782 118.975046,108.404113 118.610444,108.455176 C118.246072,108.506238 117.925139,108.652033 117.721118,108.87061 C117.516867,109.089187 117.429298,109.381007 117.25439,109.468346 C117.079482,109.555915 116.817006,109.439233 116.598198,109.57024 C116.379621,109.701479 116.204713,110.080638 116.007856,110.488909 C115.810767,110.897181 115.59219,111.334335 115.380776,111.633318 C115.169362,111.932301 114.965342,112.092652 115.016405,112.223891 C115.067468,112.355129 115.373614,112.457255 115.686922,112.60305 C116.000231,112.748845 116.321165,112.938309 116.321165,113.113216 C116.321165,113.288124 116.000231,113.448475 115.716035,113.61622 C115.431839,113.784196 115.183919,113.958872 115.103974,114.17768 C115.023567,114.396257 115.111137,114.658734 115.293438,114.899261 C115.475508,115.139787 115.752542,115.358595 116.044131,115.540665 C116.335721,115.722967 116.641867,115.868762 116.802218,116.014556 C116.962569,116.160582 116.977357,116.306146 116.751155,116.47366 C116.524954,116.641174 116.058688,116.8311 115.767098,117.064233 C115.475277,117.297597 115.358826,117.57463 115.36622,117.82232 C115.373614,118.070009 115.504852,118.289048 115.781654,118.310767 C116.058688,118.332717 116.481516,118.157579 116.780268,118.077403 C117.079251,117.997227 117.254159,118.011784 117.319778,118.164972 C117.385397,118.31793 117.341728,118.609519 117.115527,118.959335 C116.889325,119.30915 116.481516,119.717421 116.408272,119.954482 C116.33549,120.191312 116.597736,120.257163 117.05707,120.344501 C117.516405,120.43207 118.172366,120.54159 118.36183,120.698013 C118.551294,120.854898 118.274261,121.058919 118.015481,121.270333 C117.756932,121.481747 117.516405,121.700323 117.447089,121.915434 C117.377773,122.130545 117.479898,122.341959 117.80037,122.527726 C118.121303,122.713725 118.660582,122.873845 119.090804,123.114603 C119.520795,123.355129 119.841497,123.675832 120.056608,123.898105 C120.27195,124.12061 120.381007,124.244455 120.570702,124.426756 C120.760166,124.608826 121.029806,124.849584 121.248845,124.902726 C121.467421,124.955869 121.635166,124.821858 121.762708,124.548521 C121.890943,124.275185 121.978281,123.862523 122.160582,123.328327 Z" opacity=".3" transform="translate(13 13)"/>
  </g>
</svg>
