<svg xmlns="http://www.w3.org/2000/svg" width="80" height="125" viewBox="0 0 80 125">
  <g fill="none" transform="translate(-35 -12)">
    <rect width="150" height="150" opacity=".2"/>
    <path fill="#182F57" d="M5.68476411,59.9872704 C5.46586199,60.2594935 5.19409751,60.4258135 5.09599886,60.6223419 C4.9979002,60.8188703 5.07346737,61.0457808 4.92995909,61.227205 C4.78645081,61.4086292 4.42438704,61.5449144 4.02419306,61.5296366 C3.6241724,61.5145324 3.18636816,61.3482124 2.85428861,61.3707819 C2.52203575,61.393525 2.2956809,61.6051577 2.1899562,61.8773808 C2.0842315,62.1496039 2.09948359,62.4822439 2.26552336,62.7242586 C2.43156314,62.9662733 2.74856391,63.117489 2.86174134,63.3289481 C2.97491876,63.5407543 2.88427283,63.8128039 2.6201344,63.9338112 C2.35599597,64.0546449 1.91819173,64.0244365 1.38228883,64.168187 C0.846385934,64.3119374 0.212384381,64.6292996 0.0463446089,64.9242659 C-0.119695164,65.2190585 0.182226844,65.4914552 0.60495232,65.9221858 C1.02767779,66.35309 1.57120674,66.9430225 1.94089654,67.4647257 C2.31058635,67.9864288 2.50695698,68.4400761 2.8315838,68.5912919 C3.15621062,68.7425077 3.60909363,68.5912919 3.91846836,68.7801814 C4.2278431,68.9692445 4.39388287,69.4985866 4.59770622,69.7631708 C4.80152958,70.027755 5.04296319,70.027755 5.31472766,69.9522339 C5.58649213,69.8767128 5.88841414,69.7253234 6.22049369,69.7631708 C6.55257323,69.8010181 6.91481031,70.027755 7.20182687,69.8537961 C7.48867011,69.6800108 7.69994619,69.1051825 8.0471045,68.7876467 C8.39426282,68.4701109 8.87747668,68.4095205 8.91508695,68.2206309 C8.95287053,68.0313942 8.54522382,67.714032 8.4772827,67.3737531 C8.40934159,67.0334742 8.68110606,66.6704522 8.93779176,66.3907638 C9.19430414,66.111249 9.43591108,65.9145469 9.72275432,66.1714922 C10.0095976,66.4284375 10.3416771,67.1392037 10.5378744,67.6912889 C10.7340717,68.2432005 10.7943868,68.6362573 10.9982101,68.8025773 C11.2020335,68.9688973 11.5491918,68.9084804 11.7228576,69.044592 C11.8963501,69.1807036 11.8963501,69.5135172 11.8888974,69.8838309 C11.8814447,70.2544918 11.8661926,70.6626529 12.0020748,70.821334 C12.1379571,70.9801887 12.4248003,70.8895634 12.824821,70.8744592 C13.2248416,70.8591813 13.738213,70.9197718 14.032509,70.776195 C14.326805,70.6324445 14.4021988,70.2847003 14.6815893,70.1713318 C14.9608065,70.0579634 15.4438471,70.1789708 15.8137102,70.3754992 C16.1837466,70.5722012 16.440259,70.8442507 16.7120235,70.9275843 C16.983788,71.0107443 17.2706312,70.9048412 17.5196909,70.7612643 C17.7687505,70.6175139 17.9800266,70.4360897 18.1309876,70.1789708 C18.2819486,69.9218518 18.3725945,69.5892119 18.4254569,69.2640372 C18.4783192,68.9388625 18.493398,68.6213267 18.636733,68.4473678 C18.7802412,68.2735825 19.0518324,68.2432005 19.3690065,68.2280962 C19.6860073,68.212992 20.0482443,68.212992 20.3577924,68.1072625 C20.6671671,68.0013594 20.9238528,67.7897267 21.0144988,67.5628163 C21.1049714,67.3359058 21.0295775,67.0940647 20.848459,66.7916332 C20.6673404,66.4892016 20.3804972,66.1263532 20.2068314,65.6878101 C20.0331656,65.2494406 19.9728505,64.7352027 20.0331656,64.5386743 C20.093654,64.3419723 20.2747725,64.462806 20.5539897,64.7275638 C20.8333802,64.992148 21.2106961,65.4004827 21.4145194,65.3626354 C21.6183428,65.3249616 21.6485003,64.8409323 21.5578544,64.3192291 C21.4673818,63.7976996 21.2561057,63.2379756 21.0446563,62.890405 C20.8333802,62.5426608 20.6219308,62.4063756 20.2068314,62.3838061 C19.7915586,62.3610629 19.1726359,62.4518618 18.6972214,62.6030776 C18.2218068,62.7542934 17.889554,62.9660997 17.7235142,62.890405 C17.5574744,62.8147103 17.5574744,62.4518618 17.8668492,62.1947429 C18.1763972,61.937624 18.79532,61.7864083 19.1728092,61.4916156 C19.550125,61.196823 19.6860073,60.7582799 19.6558497,60.4633136 C19.6256922,60.1683473 19.4294949,60.0173052 19.2407503,59.9869231 C19.0520057,59.9567147 18.8708872,60.0475136 18.6670638,59.8962978 C18.4632405,59.7450821 18.2368856,59.3520252 17.9801999,58.8832736 C17.7235142,58.4145221 17.4368443,57.8700758 17.2706312,57.4919496 C17.1045914,57.113997 17.0593551,56.9023643 17.0366503,56.5165991 C17.0139455,56.130834 17.0139455,55.5714571 16.7045708,55.2615603 C16.3950227,54.9514898 15.7760999,54.8910729 15.1344723,54.8683298 C14.4928447,54.8457603 13.8286856,54.8608645 13.3078615,54.9969761 C12.7870374,55.1330876 12.4095482,55.3900329 11.9642912,55.4731929 C11.5190343,55.5563529 11.0056629,55.4657276 10.6508785,55.4506234 C10.2960942,55.4355192 10.0998968,55.495936 10.0092509,55.7226729 C9.91877831,55.9495834 9.93368376,56.3426402 9.89607349,56.6527107 C9.85846323,56.9627812 9.7678173,57.189518 9.49605283,57.355838 C9.22428836,57.522158 8.77140535,57.6278875 8.31852234,57.6127833 C7.86563932,57.5976791 7.41275631,57.4615676 7.14099184,57.4994149 C6.86922737,57.5372622 6.77875476,57.7488949 6.65777797,58.0209444 C6.53714782,58.2931675 6.38618682,58.6258075 6.22759977,58.9811906 C6.06901272,59.3365738 5.90366623,59.7150472 5.68476411,59.9872704 Z M44.3737643,103.552171 C43.8005978,104.136028 43.2118325,104.627522 42.8192646,105.028218 C42.4266966,105.429087 42.2306727,105.738984 42.1285877,106.007562 C42.026676,106.275965 42.0192233,106.502702 42.034302,106.816418 C42.0493808,107.130135 42.0871644,107.531004 41.9814397,107.731352 C41.875715,107.9317 41.6266553,107.9317 41.3359991,107.9317 C41.0453428,107.9317 40.7132633,107.9317 40.4565776,107.995936 C40.2000652,108.060346 40.0189466,108.188645 39.7811527,108.252881 C39.5433588,108.317291 39.2490628,108.317291 39.071584,108.222673 C38.8941052,108.128055 38.8337901,107.939165 38.6526715,107.863644 C38.471553,107.787949 38.169631,107.825797 37.8073939,107.840901 C37.4451568,107.856005 37.0224314,107.84854 36.7619326,107.746283 C36.5016072,107.644199 36.4035086,107.44767 36.1468229,107.360691 C35.8901372,107.273885 35.4750377,107.296455 35.2296178,107.337948 C34.9841978,107.379615 34.908804,107.440032 34.8523019,107.542115 C34.7957999,107.644199 34.7580163,107.787949 34.4900649,107.886214 C34.2221134,107.984304 33.7239941,108.037429 33.2106227,108.071284 C32.6972513,108.105138 32.1689744,108.120416 31.8972099,108.158263 C31.6254455,108.19611 31.6103667,108.256354 31.5802092,108.403924 C31.5500516,108.551494 31.504642,108.785696 31.504642,108.989863 C31.504642,109.19403 31.5500516,109.367989 31.5763961,109.572157 C31.602914,109.776324 31.6103667,110.0107 31.5500516,110.233791 C31.4895632,110.456882 31.361307,110.668514 31.1385919,110.804626 C30.9158768,110.940738 30.598876,111.001154 30.3232985,110.910356 C30.0478943,110.81973 29.8139134,110.577716 29.6137298,110.539868 C29.4137194,110.502021 29.2476797,110.668341 29.141955,110.940738 C29.0362303,111.212787 28.990994,111.590913 28.9682892,112.040741 C28.9455843,112.490743 28.9455843,113.012446 28.9305056,113.38276 C28.9154268,113.753073 28.8852693,113.972518 28.7154165,114.119915 C28.5455637,114.267485 28.2360156,114.343006 27.9944087,114.513145 C27.7529751,114.683285 27.5793093,114.948043 27.4661318,115.239016 C27.3529544,115.530163 27.3000921,115.847698 27.2472297,116.085894 C27.1943674,116.324089 27.1416783,116.48277 26.9529338,116.531902 C26.7641892,116.581034 26.4397357,116.520617 26.1189219,116.547006 C25.7981081,116.573569 25.4811073,116.686937 25.2961757,116.876 C25.1112442,117.065063 25.0583818,117.329648 24.9866277,117.616975 C24.9148735,117.904302 24.8242276,118.214373 24.6696269,118.407255 C24.5148529,118.599964 24.2959508,118.675659 24.1865864,118.811771 C24.0770486,118.947709 24.0770486,119.144411 24.0507041,119.3333 C24.0243596,119.522363 23.9713239,119.703961 23.6959198,119.964726 C23.4205156,120.225664 22.922223,120.565769 22.5674386,120.879659 C22.2126542,121.193549 22.0013782,121.480703 21.722161,121.556398 C21.4429438,121.631919 21.0956121,121.495807 20.8238477,121.446675 C20.5520832,121.397543 20.3558859,121.43539 20.125718,121.533655 C19.8953768,121.631745 19.6312384,121.7906 19.4575726,121.976017 C19.2840801,122.161087 19.2008869,122.37272 19.1688228,122.675151 C19.1365855,122.977583 19.1556506,123.370813 19.1781821,123.643037 C19.2008869,123.915086 19.2272314,124.066302 19.3613804,124.104149 C19.4953562,124.141997 19.7367898,124.066302 20.0028347,124.009531 C20.2688797,123.952933 20.5595359,123.915086 20.6954182,123.788523 C20.8313004,123.66196 20.8124086,123.446335 20.8330336,123.249633 C20.8538319,123.053104 20.914147,122.875499 21.0066994,122.777062 C21.0990785,122.678797 21.223695,122.659874 21.4237053,122.710915 C21.6237157,122.761957 21.8992932,122.882965 22.1388203,122.998069 C22.3785207,123.113347 22.5821707,123.22307 22.7426643,123.380015 C22.9029845,123.536786 23.0201483,123.740954 23.1428583,123.986788 C23.2653949,124.232448 23.3936511,124.519602 23.4823905,124.72186 C23.57113,124.924117 23.6201793,125.041479 23.7428893,124.986444 C23.8655992,124.931756 24.0617965,124.704846 24.3032302,124.495123 C24.5448371,124.285226 24.8316803,124.092517 24.954217,123.905364 C25.0767537,123.71821 25.0353304,123.536786 24.9561235,123.417689 C24.8767433,123.298417 24.7597529,123.24182 24.6730933,123.181403 C24.5862604,123.120813 24.529585,123.056576 24.5824474,122.996159 C24.6353097,122.935743 24.7975365,122.878972 24.8843694,122.794075 C24.971029,122.709006 24.982468,122.595464 24.978655,122.47081 C24.974842,122.345984 24.9559502,122.209872 25.0710341,122.177754 C25.1862914,122.145462 25.435351,122.217511 25.61075,122.141816 C25.7863224,122.066122 25.888234,121.843031 26.0296625,121.699454 C26.1710909,121.555877 26.3523828,121.491641 26.5731914,121.455703 C26.7938268,121.419765 27.0543255,121.412126 27.1751289,121.315772 C27.2959324,121.219244 27.2770406,121.034174 27.3016519,120.816638 C27.3262633,120.599277 27.3942044,120.34997 27.4715047,120.196845 C27.5489784,120.043719 27.635638,119.986948 27.7885055,120.017157 C27.941373,120.047539 28.1602752,120.164726 28.4150543,120.191115 C28.6698335,120.217504 28.9604898,120.153268 29.2698645,120.064553 C29.5794126,119.975663 29.9078524,119.862295 30.1399268,119.756565 C30.3720012,119.650662 30.5078834,119.552398 30.7191595,119.567502 C30.9306089,119.582606 31.2172788,119.711079 31.439994,119.782954 C31.6627091,119.85483 31.8212961,119.869934 31.9232078,119.868024 C32.0251195,119.866114 32.0703558,119.847191 32.0590901,119.60153 C32.0478243,119.355696 31.9798832,118.883299 32.0327455,118.681041 C32.0856079,118.478783 32.2591004,118.546839 32.4026087,118.735729 C32.5459436,118.924792 32.6591211,119.234689 32.8894622,119.45778 C33.1198034,119.680871 33.4669617,119.816809 33.7765098,119.87358 C34.0860578,119.930351 34.357649,119.907608 34.5463936,120.077921 C34.7351382,120.247886 34.8406895,120.610735 34.9765718,120.886777 C35.112454,121.16282 35.2786671,121.351883 35.5351795,121.446328 C35.7916919,121.540946 36.1390235,121.540946 36.410788,121.469071 C36.6825525,121.397196 36.8787498,121.253619 36.9732087,121.004139 C37.0674943,120.754485 37.0598683,120.399276 37.1808451,120.111775 C37.3016486,119.824621 37.5507082,119.605176 37.7469055,119.465245 C37.9431028,119.325488 38.0864378,119.264897 38.1883495,119.174272 C38.2902611,119.083473 38.3507495,118.962466 38.210881,118.815069 C38.071359,118.667673 37.7316534,118.493714 37.7165747,118.369061 C37.7014959,118.244234 38.0108706,118.168887 38.1242214,118.010032 C38.2375721,117.851177 38.1545522,117.609162 38.1545522,117.329648 C38.1545522,117.049786 38.2375721,116.732423 38.3356708,116.410895 C38.4337694,116.089539 38.5469468,115.764365 38.6940948,115.688844 C38.8414161,115.613149 39.0225347,115.787108 39.2601553,115.794573 C39.4979492,115.802212 39.7922451,115.643531 40.0867144,115.443183 C40.3810104,115.242835 40.6753064,115.00082 41.1434415,114.808112 C41.6115766,114.615403 42.2530308,114.471652 42.8152782,114.395957 C43.377699,114.320263 43.8605662,114.312797 44.4040952,114.531895 C44.9476241,114.750993 45.5514681,115.197349 45.9778333,115.643184 C46.4043718,116.089366 46.6532581,116.535548 46.8835993,116.709333 C47.1139405,116.883292 47.3252166,116.785028 47.3706262,116.614888 C47.4158625,116.444922 47.295059,116.202908 47.3064981,115.979817 C47.3179372,115.756726 47.4612721,115.552558 47.7215975,115.420266 C47.9820963,115.287801 48.3595854,115.227557 48.7784979,115.337106 C49.1974103,115.446829 49.6579194,115.726517 50.0239695,115.91558 C50.3900196,116.104644 50.6617841,116.202734 50.8541684,116.100651 C51.046726,115.998567 51.1600767,115.696309 51.2316575,115.408982 C51.3034117,115.121654 51.3335692,114.849431 51.1787952,114.686931 C51.0240212,114.52443 50.6843156,114.471478 50.5333546,114.323909 C50.3823936,114.176512 50.4203505,113.934671 50.5863902,113.832587 C50.75243,113.730504 51.046726,113.768351 51.2242048,113.874081 C51.4016836,113.97981 51.4619987,114.153769 51.6091467,114.157589 C51.756468,114.161408 51.9902756,113.995088 52.2507743,113.885539 C52.5110997,113.775816 52.7979429,113.722865 53.1187567,113.677726 C53.4395705,113.63224 53.7941816,113.594566 54.0434146,113.492482 C54.2926475,113.390398 54.4359825,113.224079 54.6396325,113.133453 C54.8432826,113.042828 55.1075943,113.02755 55.4396739,112.959494 C55.7719267,112.891439 56.1719474,112.770431 56.3416269,112.61175 C56.5114796,112.452895 56.4511646,112.256367 56.266233,112.082408 C56.0813014,111.908449 55.7717534,111.757233 55.670015,111.587094 C55.5681034,111.416954 55.6736547,111.228065 55.9832028,111.2581 C56.2927508,111.288482 56.8059489,111.537788 57.1418415,111.821296 C57.4777341,112.104978 57.6364944,112.422513 57.8098136,112.429979 C57.9834794,112.437618 58.172224,112.13536 58.4928645,112.040741 C58.8138516,111.946296 59.2665613,112.059491 59.5534045,112.342999 C59.8402478,112.626681 59.9610512,113.080154 60.3080362,113.13328 C60.6553679,113.186231 61.228881,112.838487 61.7420791,112.577549 C62.2554505,112.316784 62.7081602,112.142825 63.4404337,111.972859 C64.1727073,111.80272 65.1840247,111.6364 66.0936037,111.647684 C67.0031828,111.658969 67.8108501,111.848032 68.339127,112.010706 C68.8675772,112.173381 69.1166368,112.309319 69.3468047,112.373555 C69.5769726,112.437791 69.788422,112.430326 69.999698,112.260186 C70.2111474,112.090221 70.4224235,111.757407 70.6602174,111.53067 C70.8980113,111.30376 71.1621498,111.182926 71.5018554,111.141259 C71.8415609,111.099766 72.2566604,111.137613 72.4719228,111.061919 C72.6871852,110.986224 72.7020907,110.797334 72.898288,110.509833 C73.0946586,110.22268 73.4721478,109.837088 73.9361232,109.712088 C74.4004453,109.587435 74.9512536,109.723546 75.2419099,109.746116 C75.5325662,109.768859 75.5627237,109.67806 75.5665367,109.470073 C75.5701764,109.26226 75.5476449,108.937259 75.5589107,108.634654 C75.5701764,108.332048 75.615586,108.05236 75.7703601,107.821804 C75.9251341,107.591074 76.1892725,107.40965 76.6269034,107.186732 C77.0647077,106.963641 77.6761777,106.698883 78.1252477,106.49489 C78.574491,106.290896 78.861161,106.147145 78.9554466,105.878742 C79.0499056,105.610338 78.9518069,105.217108 78.8762397,104.918495 C78.8006726,104.619883 78.7479835,104.415716 78.7668753,104.211722 C78.7855938,104.007555 78.8762397,103.803388 78.9668857,103.538803 C79.057185,103.274219 79.1480042,102.949044 78.9930569,102.794009 C78.8382828,102.638974 78.4384355,102.654078 77.9326901,102.741058 C77.4269448,102.828037 76.815648,102.986718 76.3249814,103.157031 C75.8343148,103.326997 75.4644517,103.508421 75.0531653,103.610505 C74.6417056,103.712589 74.1889959,103.735332 74.1359602,103.674915 C74.0830979,103.614324 74.4302562,103.470748 74.5926563,103.274046 C74.7550563,103.077517 74.7323515,102.828037 74.5472466,102.646613 C74.3624884,102.465189 74.0153301,102.351647 73.7170478,102.408418 C73.4189388,102.465189 73.1698791,102.691926 72.9246325,102.87335 C72.6792125,103.054948 72.4376056,103.190886 72.3284145,103.050955 C72.2188768,102.911024 72.2415816,102.495397 72.0679158,102.264841 C71.89425,102.034111 71.5243868,101.988798 71.5358259,101.901819 C71.547265,101.814839 71.9396596,101.686367 72.445405,101.538797 C72.9511503,101.391227 73.5700731,101.224907 73.9964383,100.983066 C74.4229768,100.741051 74.6569577,100.423515 74.7399776,100.019 C74.8229974,99.6146585 74.7550563,99.1231638 74.6002823,98.8849685 C74.4455083,98.6467733 74.2040747,98.6618775 73.9359499,98.7979891 C73.6679984,98.9341006 73.3737025,99.1912196 73.098125,99.2516364 C72.8227208,99.3122269 72.5660351,99.1759417 72.5547694,98.9000728 C72.5435036,98.6240302 72.7773112,98.2084038 73.3548107,97.9283682 C73.9321369,97.6488533 74.853155,97.5051029 75.4230284,97.5655197 C75.9929019,97.6259366 76.211804,97.8906944 76.4723027,97.8149997 C76.7326281,97.7394786 77.0345502,97.3236787 77.1402749,96.9419066 C77.2459995,96.5601345 77.1553536,96.2123903 76.9364515,95.9136045 C76.7175494,95.6148188 76.3703911,95.3655124 75.9967149,95.3427693 C75.6232121,95.3200262 75.2230181,95.5241935 75.000303,95.4903393 C74.7777611,95.4563114 74.7323515,95.1839146 74.8682337,94.9648167 C75.0039427,94.7455451 75.3209434,94.5792251 75.6984326,94.5264472 C76.0759218,94.4736692 76.5135527,94.5340861 76.8345398,94.6285308 C77.1553536,94.7231492 77.3590037,94.8516219 77.5742661,94.7948508 C77.7893552,94.7382534 78.0158833,94.4962387 78.257317,94.2392934 C78.4989239,93.9821745 78.7554363,93.7099514 78.9518069,93.4944993 C79.1480042,93.2790472 79.2838864,93.1201925 79.3443748,92.8253999 C79.4046899,92.5306072 79.3896111,92.0995294 79.3556406,91.7177573 C79.32167,91.3359852 79.2686344,91.0033452 79.3856248,90.5003922 C79.5027886,89.9976127 79.7894585,89.3246938 79.9215277,88.6403166 C80.0537702,87.9561129 80.0310654,87.2606245 79.7593009,86.4173926 C79.4875365,85.5745078 78.9667123,84.5838795 78.2458779,83.9411691 C77.5250434,83.2986322 76.6041986,83.0038396 75.9024293,82.8260612 C75.2003133,82.6484565 74.7172727,82.587866 74.4266165,82.4668586 C74.1359602,82.3460249 74.0380349,82.1646007 73.8380246,82.1191144 C73.6380142,82.0738018 73.3360922,82.1644271 73.1398949,82.2703302 C72.9435243,82.3760597 72.8530517,82.4972407 72.6265235,82.5538381 C72.3999953,82.6106091 72.0379316,82.6029702 71.543452,82.5519284 C71.048799,82.5008865 70.4224235,82.4062682 70.0149501,82.4611295 C69.6074767,82.5159908 69.4187322,82.7199845 69.2866629,82.9885618 C69.1544204,83.2567918 69.0790266,83.5896054 68.9847409,83.9258913 C68.890282,84.2623507 68.7771046,84.602456 68.5996257,84.8029775 C68.4221469,85.003499 68.1808866,85.0639159 67.9429194,85.0977701 C67.7052988,85.131798 67.4711445,85.1394369 67.2674945,85.0297144 C67.0638445,84.9199918 66.8901787,84.6932549 66.7165128,84.5344002 C66.542847,84.3757191 66.3691812,84.2847466 66.1691709,84.2432534 C65.9693339,84.2017602 65.7428057,84.2093991 65.633268,84.1411697 C65.5239036,84.073114 65.5313563,83.9295371 65.6863037,83.676064 C65.8410777,83.4229382 66.1429997,83.0599162 66.4485614,82.6970677 C66.7542964,82.3340457 67.0636712,81.9710237 67.3655932,81.7064395 C67.6675152,81.4420289 67.9618111,81.2757089 68.0486441,81.0336942 C68.135477,80.7915059 68.0146735,80.4741437 67.8448207,80.0507048 C67.6749679,79.6274395 67.4560658,79.0980975 67.2749472,78.5725749 C67.0936554,78.0470524 66.9503204,77.5253492 66.7503101,77.1510424 C66.5502998,76.7769093 66.2936141,76.5499988 66.0067708,76.4140608 C65.7199276,76.2779493 65.4029268,76.232463 65.1387884,76.0433999 C64.8746499,75.8543368 64.6632005,75.5216968 64.3538258,75.3251683 C64.0442778,75.1284663 63.6366311,75.068223 63.3272563,74.8185694 C63.0177083,74.5689158 62.8064322,74.1305463 62.5346677,73.9640527 C62.2630766,73.7977327 61.930997,73.9036359 61.4327044,73.9944348 C60.9345851,74.0850601 60.270426,74.1607548 59.7041922,74.0925254 C59.1379585,74.0244696 58.67017,73.8130106 58.6247604,73.6088432 C58.5793508,73.4046759 58.9568399,73.2079738 59.4398805,73.2005085 C59.922921,73.1928696 60.5118596,73.3742938 61.0399631,73.3668285 C61.5684133,73.3591896 62.0363751,73.1626612 62.4514745,73.2005085 C62.8667473,73.2383559 63.2289843,73.5104054 63.5310797,73.7222116 C63.8330017,73.9338443 64.0746086,74.0850601 64.3839834,74.2286369 C64.6935314,74.3723874 65.0708473,74.508499 65.4181789,74.6597148 C65.7653372,74.8107569 66.082338,74.9770769 66.1277476,74.8183958 C66.1729839,74.6597148 65.9464557,74.1756854 65.5389824,73.5708223 C65.1313356,72.9659591 64.5427437,72.2400887 63.9839627,71.5671698 C63.4255283,70.8942509 62.8970781,70.2742836 62.7688219,69.8129973 C62.6405657,69.3517111 62.9121569,69.0494531 63.1009015,68.7921606 C63.2896461,68.5352153 63.3951974,68.3235827 63.2518625,68.1192417 C63.1083542,67.9150744 62.7159596,67.7183723 62.3310177,67.2194123 C61.9460758,66.7204524 61.5687599,65.9190608 61.2742907,65.2233988 C60.9798214,64.5277368 60.7685453,63.9381515 60.4515445,63.5751295 C60.1345437,63.2121074 59.7118183,63.0761695 59.123053,62.8871063 C58.5344611,62.6980432 57.7794828,62.4562021 57.1002449,62.2898821 C56.4208337,62.1235621 55.8169897,62.0327632 55.3639334,62.0402285 C54.9112237,62.0476938 54.6093017,62.153597 54.4430886,61.9570685 C54.2768755,61.7605401 54.2468913,61.2614065 54.111009,60.9440444 C53.9751268,60.626335 53.7335199,60.490397 53.5901849,60.1426528 C53.4468499,59.7949086 53.4014403,59.2351845 53.2201485,58.6379603 C53.0390299,58.0407361 52.7220291,57.405491 52.4428119,56.906531 C52.1635947,56.407571 51.9219878,56.044549 51.748322,55.6665963 C51.5748295,55.2886437 51.4692781,54.8954132 51.4011637,54.600447 C51.3332226,54.3054807 51.3032383,54.1089523 51.2956123,53.8671112 C51.2879863,53.6252701 51.303065,53.3377692 51.2047931,52.8690176 C51.1068677,52.4002661 50.8954183,51.7499167 50.7671621,51.1148452 C50.6389059,50.4797736 50.5934963,49.8598063 50.2992004,49.5346316 C50.0049044,49.2094569 49.4613754,49.1792485 48.9556301,48.9223032 C48.4498847,48.6651843 47.9819229,48.1813285 47.6498434,47.6672643 C47.3177639,47.1532001 47.1215665,46.6087539 46.9706055,46.2004192 C46.8196445,45.7920845 46.7140932,45.520035 46.4648602,45.4141318 C46.2156272,45.3082287 45.8232326,45.3688192 45.3928811,45.3309718 C44.9625295,45.2931245 44.4945678,45.1570129 44.1097992,45.0360056 C43.7248573,44.9151719 43.4229353,44.8092687 43.0906824,44.5219414 C42.7587762,44.2346141 42.3963658,43.7658625 42.0112506,43.5844383 C41.6263087,43.4030141 41.2188353,43.5087436 40.9394448,43.7886056 C40.6602276,44.0682941 40.5092666,44.5219414 40.2903645,44.797984 C40.0714623,45.0738529 39.7846191,45.1722908 39.4334744,45.2327076 C39.0825031,45.2931245 38.6674037,45.3158676 38.3126193,45.3158676 C37.957835,45.3158676 37.663539,45.2931245 37.361617,45.2063187 C37.059695,45.1193392 36.7501469,44.9681234 36.3991756,44.9151719 C36.0482043,44.8622203 35.6558096,44.9075329 35.3575273,44.911526 C35.0594184,44.9151719 34.855595,44.8774981 34.5385942,44.6469418 C34.2215934,44.4162119 33.7912419,43.9929466 33.6328282,43.7358277 C33.4744145,43.4787088 33.5875919,43.3880835 33.8366515,43.4787088 C34.0858845,43.5695077 34.4706531,43.8415572 34.7990929,43.9134324 C35.1275328,43.9853077 35.3991239,43.856835 35.6974062,43.9097866 C35.9956885,43.9627382 36.3201421,44.1971139 36.6371428,44.3143018 C36.9543169,44.4314897 37.2636917,44.4314897 37.614663,44.2498919 C37.9656343,44.0684677 38.3582023,43.7056192 38.7204393,43.301104 C39.0826764,42.8965888 39.4149293,42.4505804 39.7697137,42.216031 C40.1243247,41.9816552 40.5018139,41.9589121 40.8188146,41.9552662 C41.1358154,41.9514468 41.3925011,41.966551 41.6755313,41.8682868 C41.9585615,41.7700226 42.2681096,41.5582163 42.4604939,41.3238405 C42.6528782,41.0894648 42.7284453,40.8323458 42.6227206,40.5639422 C42.5171693,40.2955385 42.2301527,40.0158501 41.8904471,39.9517874 C41.5507415,39.8873774 41.1581736,40.0385932 41.0940455,39.9177595 C41.0299174,39.7969258 41.2940558,39.4036953 41.2413668,39.1691459 C41.1886778,38.9345965 40.8186413,38.859249 40.4525912,38.9273048 C40.0865411,38.9953606 39.7241307,39.2069932 39.2901395,39.4111606 C38.8561483,39.6153279 38.3504029,39.8118564 38.1994419,39.7248769 C38.0484809,39.6378974 38.2523042,39.2674101 38.4975509,38.9234854 C38.7427975,38.5795606 39.0296408,38.2618512 39.4071299,38.1031701 C39.7846191,37.9443155 40.2525809,37.9443155 40.667507,37.9670586 C41.0827797,37.9896281 41.4450168,38.0351144 41.8450375,37.8233081 C42.2452315,37.6116755 42.6828624,37.1427503 43.0452728,36.7837213 C43.4076832,36.4245188 43.6943531,36.1750388 43.8038908,35.8953503 C43.9132552,35.6154883 43.8454874,35.3055914 43.8151566,35.0486461 C43.784999,34.7915272 43.7924518,34.5873599 43.8943634,34.3757273 C43.9964484,34.163921 44.1924724,33.9448231 44.4077349,33.6953431 C44.622824,33.4456895 44.8568048,33.1661746 44.985061,32.7048884 C45.1133172,32.2437758 45.136022,31.6010653 45.2984221,31.2420363 C45.4606489,30.8828338 45.7625709,30.8073127 45.9663942,30.5804022 C46.1702176,30.3534917 46.275769,29.9755391 46.275769,29.5521002 C46.275769,29.1286613 46.1702176,28.6599097 46.1702176,28.2970613 C46.1702176,27.9340393 46.275769,27.677094 46.5173759,27.4048709 C46.7589828,27.1326477 47.1362987,26.8453204 47.4156892,26.3916731 C47.6949064,25.9380257 47.8760249,25.3180584 47.891277,24.6678826 C47.9063558,24.0175332 47.7553948,23.3371491 47.4760043,22.8230849 C47.1966137,22.3090207 46.7891404,21.9611028 46.4645135,21.7645744 C46.1398867,21.568046 45.8984531,21.5225597 45.7171612,21.6739491 C45.5360427,21.8251649 45.4152392,22.1730827 45.2491995,22.2711733 C45.0831597,22.3694375 44.8717103,22.2182217 44.7283753,22.067006 C44.5850404,21.9157902 44.5094732,21.7645744 44.373591,21.7645744 C44.2377087,21.7645744 44.0415114,21.9157902 43.7168846,22.067006 C43.3924311,22.2182217 42.9395481,22.3694375 42.4565075,22.4223891 C41.973467,22.4753406 41.4600956,22.4298544 41.0224647,22.3090207 C40.5846604,22.1880133 40.2224233,21.9914849 39.8600129,22.0444364 C39.4977759,22.097388 39.1353655,22.399646 38.8259907,22.596348 C38.5164427,22.79305 38.2599303,22.8836753 37.8446575,22.6946122 C37.4295581,22.5055491 36.8558716,22.0367975 36.4106147,21.9611028 C35.9653577,21.8854081 35.6483569,22.2031175 35.4142027,22.4449586 C35.1802218,22.6869733 35.0292608,22.8532933 34.7952799,22.8835017 C34.561299,22.9137102 34.2442983,22.807807 34.0253961,22.8381891 C33.806494,22.8683975 33.6856905,23.0347175 33.5498083,23.2161417 C33.4139261,23.3975659 33.2629651,23.594268 33.0215315,23.677428 C32.7799245,23.760588 32.447845,23.7303795 32.2289429,23.8135395 C32.0100407,23.8966995 31.9044894,24.0932279 31.7609811,24.3352426 C31.6174728,24.5772573 31.4363543,24.8644111 31.0966487,25.0081615 C30.7569431,25.151912 30.2588238,25.151912 29.8964134,25.1670162 C29.5341763,25.1821204 29.3078214,25.2123289 29.3681365,25.0385436 C29.4284516,24.8645847 29.7756099,24.486632 30.137847,24.1765616 C30.5002574,23.8664911 30.8777465,23.62465 30.8323369,23.4355869 C30.7869273,23.2465238 30.3189655,23.1105858 30.2510244,22.9140574 C30.1830833,22.7173553 30.5151628,22.46041 30.9756719,22.3696111 C31.4360076,22.2789858 32.0249462,22.3545069 32.5003607,22.0595407 C32.9757752,21.7645744 33.3381856,21.0992944 33.3683431,20.7590155 C33.3985007,20.4187366 33.096752,20.4036324 32.7417943,20.4642229 C32.3870099,20.5246397 31.9795366,20.6607513 31.3606138,20.7062376 C30.741691,20.7515502 29.9113188,20.7062376 29.4885933,20.5248134 C29.0660412,20.3433891 29.0509624,20.0258534 29.443357,19.8595334 C29.835925,19.6932134 30.6359663,19.6781092 31.1115541,19.5571018 C31.5871419,19.4360945 31.7381029,19.2093576 32.0701825,18.7784534 C32.4024354,18.3473756 32.9156334,17.712304 33.3835952,17.2965041 C33.851557,16.8805305 34.2744558,16.684002 34.5912833,16.4572652 C34.9084573,16.2303547 35.1195601,15.9734094 35.4064033,15.6786168 C35.6932466,15.3838241 36.0554837,15.0511841 36.4404256,14.7110788 C36.8253675,14.3707999 37.2330142,14.0230557 37.5725464,13.6904157 C37.912252,13.3577757 38.1840165,13.04024 38.2971939,12.7454473 C38.4103713,12.4504811 38.365135,12.178258 38.2670364,12.011938 C38.1689377,11.845618 38.0179767,11.7850275 38.0103507,11.5204433 C38.002898,11.2558591 38.1386069,10.7869339 38.1990953,10.4468286 C38.2595837,10.1065497 38.2443316,9.89474345 37.9273308,9.75116659 C37.61033,9.60758972 36.9914072,9.53206864 36.5839338,9.52442973 C36.1762871,9.51696442 35.9800898,9.57738129 35.9196014,9.74370128 C35.859113,9.91002128 35.9346802,10.1822444 35.8215028,10.3409255 C35.7083254,10.4996066 35.4064033,10.5450928 35.1724225,10.477037 C34.9384416,10.4089813 34.7724018,10.2275571 34.4855586,10.1518624 C34.1987153,10.0761677 33.7912419,10.1065497 33.5797925,10.2577655 C33.3683431,10.4089813 33.3532644,10.6810308 33.1795985,10.8626286 C33.006106,11.0440528 32.6740265,11.1348517 32.3795572,11.0893655 C32.0850879,11.0440528 31.8285756,10.8626286 31.5644371,10.7567255 C31.3001254,10.6508223 31.0285342,10.6206139 30.7869273,10.7114128 C30.5453204,10.8020381 30.3340443,11.0138444 30.047201,11.1574212 C29.7603578,11.3011717 29.3981207,11.3766928 29.137622,11.5619365 C28.8772966,11.7471801 28.7187095,12.0421464 28.6280636,12.0004796 C28.5374177,11.9588128 28.5148862,11.5808601 28.4129745,11.3464844 C28.3110628,11.1121086 28.1299443,11.0213097 27.9600915,10.9721776 C27.7902387,10.9230455 27.6316517,10.9154066 27.4732379,11.0931849 C27.3148242,11.2709633 27.1562372,11.6338117 27.0579652,11.6829438 C26.9598665,11.7320759 26.9220829,11.4674917 26.8806597,11.2707897 C26.8390631,11.0742612 26.7938268,10.945615 26.6692103,10.8964829 C26.5445938,10.8473508 26.3407704,10.8775592 26.2315793,10.9721776 C26.1220416,11.0666223 26.1069628,11.225477 26.0617265,11.1952686 C26.0164902,11.1650602 25.9409231,10.9457886 25.8351984,10.7756491 C25.729647,10.6055097 25.5935914,10.4845023 25.3973941,10.4088077 C25.2011968,10.333113 24.9445111,10.3029045 24.7633926,10.3558561 C24.582274,10.4088077 24.4765493,10.5449192 24.423687,10.7112392 C24.3708246,10.8775592 24.3708246,11.0740876 24.2878048,11.2253034 C24.2047849,11.3765192 24.0385718,11.4822487 23.9595382,11.6185339 C23.8801581,11.7546454 23.8877841,11.9209654 23.9519122,12.1062091 C24.0160403,12.2914528 24.1368438,12.4954465 24.1519225,12.7034333 C24.1670013,12.9112465 24.0763554,13.1230527 23.9631779,13.2251364 C23.8500005,13.3272201 23.7141183,13.3195812 23.6385511,13.4973595 C23.5631573,13.6749643 23.5479052,14.0379863 23.57061,14.3102095 C23.5933148,14.582259 23.6536299,14.7638568 23.9028629,14.9150726 C24.1519225,15.0662883 24.5897268,15.1872957 24.6954515,15.251532 C24.8010028,15.3157683 24.574648,15.3234073 24.2047849,15.334692 C23.8349217,15.3459768 23.3215503,15.361081 22.8913721,15.3687199 C22.4611939,15.3763588 22.1138623,15.3763588 22.0044979,15.474623 C21.8951335,15.5728872 22.0233897,15.7694157 22.2159473,15.9584788 C22.4083316,16.1475419 22.6650173,16.3289661 22.7554899,16.5748003 C22.8461358,16.8204608 22.7705687,17.1303577 22.6346864,17.2968513 C22.4988042,17.4631713 22.3026069,17.4859144 22.1176753,17.4971992 C21.9327438,17.5084839 21.759078,17.5084839 21.5930382,17.5123034 C21.4269984,17.5159492 21.2684114,17.5235881 21.2344408,17.6029287 C21.2004702,17.6822692 21.2909429,17.833485 21.4457169,18.0300134 C21.6004909,18.2265419 21.8192197,18.4683829 22.1325808,18.7029323 C22.4459419,18.9373081 22.8534152,19.1642186 23.1213667,19.4213375 C23.3893181,19.6782828 23.5175743,19.9656101 23.3591606,20.0034575 C23.2005736,20.0411312 22.7553166,19.8294986 22.4759261,19.7803664 C22.1967089,19.7312343 22.0833581,19.8446028 21.9966985,19.9579712 C21.9098656,20.0713396 21.8493772,20.1847081 21.7401862,20.2793264 C21.6306484,20.3737712 21.4722347,20.4494659 21.3136477,20.3550211 C21.1552339,20.2605764 20.9966469,19.9959922 20.7966366,19.8788043 C20.5966262,19.7616164 20.3551926,19.7918248 20.2343891,19.8711654 C20.1135857,19.9505059 20.1135857,20.0791522 20.0946939,20.19634 C20.0758021,20.3135279 20.0380185,20.4192575 19.8832445,20.4381811 C19.7284705,20.4571048 19.4568793,20.389049 19.2605087,20.4420006 C19.0643114,20.4949521 18.9435079,20.6689111 18.9057243,20.8692589 C18.8679407,21.0696068 18.913177,21.2963437 18.9961969,21.5685668 C19.0792168,21.8406163 19.199847,22.1583257 19.3206504,22.3397499 C19.4414539,22.5211741 19.5622574,22.5664868 19.505582,22.6232578 C19.4489066,22.6800288 19.2149257,22.7480846 19.0979353,22.9031198 C18.9809448,23.0581551 18.9809448,23.2999962 19.0941223,23.500344 C19.2072997,23.7006919 19.4336545,23.8595466 19.7244841,23.9767345 C20.0151404,24.0939224 20.3697514,24.1694435 20.4149877,24.2564229 C20.4603974,24.3434024 20.1960856,24.441493 19.8941636,24.4454861 C19.5922416,24.4491319 19.252536,24.3585066 19.0223681,24.3623261 C18.7920269,24.3659719 18.6713968,24.4642361 18.6259872,24.6911466 C18.5805775,24.9180571 18.6109084,25.2732666 18.6863022,25.6779554 C18.7618694,26.0824706 18.8824996,26.536118 19.0410866,26.7326464 C19.1996736,26.9291748 19.395871,26.868758 19.6563697,26.7779591 C19.9166951,26.6873338 20.2413219,26.5663264 20.5394309,26.5663264 C20.8375399,26.5663264 21.1093044,26.6873338 21.1846982,26.8158064 C21.2602654,26.9444527 21.1394619,27.0803906 20.9356385,27.2203216 C20.7318152,27.3602526 20.4449719,27.5038295 20.4148144,27.66633 C20.3846569,27.8288306 20.6110117,28.0104284 20.8300872,28.1994915 C21.0489893,28.388381 21.2602654,28.5850831 21.1659797,28.6909862 C21.0716941,28.7968893 20.6715001,28.8119936 20.452598,28.9481051 C20.2336959,29.0840431 20.1960856,29.341162 20.4149877,29.5868225 C20.6338898,29.8326567 21.1093044,30.0668588 21.1848715,30.1878662 C21.2604387,30.3088735 20.9358119,30.3163388 20.6451556,30.2974151 C20.3544993,30.2784915 20.0979869,30.2331788 19.8300355,30.2784915 C19.5620841,30.3238041 19.2826935,30.4599157 19.1620634,30.6187704 C19.0412599,30.7776251 19.0790435,30.9588757 19.2450833,31.1140845 C19.411123,31.2691198 19.705419,31.3975924 19.8489273,31.5451623 C19.9924356,31.6925587 19.9848095,31.8588786 19.8376615,31.8852676 C19.6905136,31.9116566 19.4036703,31.7982882 19.1735025,31.7680797 C18.9431613,31.7378713 18.7694954,31.7908229 18.6185344,32.0477682 C18.4675734,32.3048871 18.3393172,32.7659997 18.354396,33.0192992 C18.3694748,33.2725986 18.5280618,33.3179113 18.7015543,33.3746823 C18.8750468,33.4312797 19.0637914,33.4993355 19.109201,33.5863149 C19.1544373,33.6731208 19.0563387,33.7790239 18.901738,33.8660033 C18.746964,33.9528092 18.5355146,34.0210386 18.50917,34.1191292 C18.4826522,34.2173934 18.6412393,34.3460397 18.7280722,34.493436 C18.8147318,34.6408323 18.8298105,34.8071523 18.7166331,34.882847 C18.6034557,34.9585417 18.3618487,34.9432639 18.1354939,34.8488191 C17.9089657,34.7543743 17.6976897,34.580589 17.5806992,34.5389222 C17.4637088,34.4972554 17.441004,34.5880543 17.3768759,34.690138 C17.3125744,34.7922217 17.2070231,34.9055901 16.9316189,34.9472569 C16.6560414,34.9887501 16.2107844,34.9585417 16.0220398,35.1173964 C15.8332953,35.2762511 15.9012364,35.6239953 16.089981,35.8281626 C16.2787255,36.03233 16.5881003,36.0927468 16.9052744,36.2439626 C17.2222751,36.3951784 17.546902,36.6371931 17.8940603,36.8526452 C18.2412186,37.0680973 18.6110817,37.2571604 18.9318955,37.4422305 C19.2527093,37.6274741 19.5244738,37.8088983 19.7471889,37.8769541 C19.9699041,37.9450099 20.1433966,37.8996973 20.4415056,37.6312936 C20.7396145,37.3628899 21.16234,36.8713952 21.6604593,36.357331 C22.1585787,35.8430932 22.7322651,35.3062859 23.117207,34.966007 C23.5021489,34.6257281 23.6983462,34.4821512 23.7248641,34.5842349 C23.7512086,34.6863186 23.6078736,35.0340628 23.6229524,35.2533343 C23.6380312,35.4726059 23.811697,35.5632312 24.0229731,35.6125369 C24.2344225,35.661669 24.4833088,35.6691343 24.4380725,35.7561138 C24.3928362,35.8429196 24.0531306,36.0092396 23.7361298,36.1266011 C23.419129,36.243789 23.1248331,36.3118448 22.9210097,36.3686158 C22.7171864,36.4253868 22.6040089,36.4706995 22.4039986,36.7088947 C22.2039883,36.9470899 21.917145,37.3779941 21.7171347,37.7371967 C21.5171244,38.0962257 21.4037736,38.383553 21.4793408,38.5347688 C21.554908,38.6859846 21.8188731,38.7010888 22.2001753,38.6972693 C22.5813041,38.6936235 23.0794234,38.6708804 23.4229421,38.576262 C23.7664607,38.4818172 23.9550319,38.3154972 24.0042546,38.3759141 C24.0533039,38.436331 23.9628313,38.7236583 23.7439292,38.9467493 C23.5250271,39.1698403 23.1776954,39.3285214 22.766409,39.381473 C22.3549493,39.4344246 21.8795348,39.381473 21.5360162,39.5137651 C21.1926709,39.6460572 20.9812215,39.963593 20.8189947,40.2773093 C20.6565947,40.5910256 20.5434172,40.9010961 20.5168994,41.267764 C20.4903816,41.6344318 20.55087,42.0578707 20.6037323,42.4321775 C20.6565947,42.8064843 20.701831,43.1314854 20.6716734,43.4302711 C20.6415159,43.7288832 20.5357912,44.0011063 20.3810172,44.3073573 C20.2262431,44.6136084 20.0224198,44.9538873 19.8941636,45.1997214 C19.7657341,45.4455556 19.7130451,45.5967713 19.7281238,45.8726403 C19.7432026,46.1485093 19.8262225,46.5493787 19.8790848,46.919866 C19.9319472,47.2903533 19.954652,47.6304586 20.0376719,47.8686539 C20.1206918,48.1068491 20.2642,48.2429607 20.2830918,48.4660517 C20.3019836,48.6891427 20.1962589,48.9990395 20.0151404,49.4414021 C19.8340218,49.8837647 19.5773361,50.4584194 19.4603457,50.7381078 C19.3433552,51.0177962 19.3660601,51.002692 19.3660601,51.225783 C19.3660601,51.4487004 19.3433552,51.9099867 19.207473,52.2502656 C19.0715908,52.5903709 18.8225311,52.8096424 18.7356982,53.1007892 C18.6488653,53.391936 18.7244325,53.7547845 18.7885606,54.0157228 C18.8526887,54.2764876 18.905551,54.4353423 19.1244531,54.4957591 C19.3433552,54.556176 19.7282971,54.5185023 20.0641897,54.4240575 C20.4000823,54.3294391 20.6869255,54.1782234 20.8453392,54.0270076 C21.0039263,53.8757918 21.0340838,53.724576 20.9661427,53.5242281 C20.8982016,53.3238802 20.7321618,53.0744003 20.7058173,52.7151977 C20.6794728,52.3561687 20.7924769,51.8872435 20.9209064,51.4033878 C21.0491626,50.9193584 21.1926709,50.4203984 21.3020353,50.0309874 C21.4113997,49.6415764 21.4869668,49.361888 21.6342881,49.1313316 C21.7814361,48.9006017 22.0003382,48.7191775 22.166378,48.5377533 C22.3324178,48.3563291 22.4455952,48.1749049 22.4381425,47.9292443 C22.4306898,47.6834102 22.3022603,47.3735133 22.1362205,47.0483386 C21.9701807,46.723164 21.7663574,46.3828851 21.656993,46.0502451 C21.5474552,45.7176051 21.5323765,45.3924304 21.6077703,45.2261104 C21.6831642,45.0597904 21.8493772,45.0523251 22.0908109,44.8556231 C22.3322445,44.658921 22.6494186,44.2733295 23.0229214,43.8236752 C23.3965975,43.3738473 23.8267757,42.8596095 23.8796381,42.9238458 C23.9325004,42.9880821 23.6078736,43.6307926 23.3399222,44.0995442 C23.0719707,44.5682957 22.8605213,44.8630884 22.7662357,45.2752425 C22.6719501,45.687223 22.6944816,46.2165651 22.7736884,46.5908719 C22.8528953,46.9651786 22.9887775,47.1844502 23.2756208,47.2865339 C23.562464,47.3884439 24.0002682,47.3733397 24.3663183,47.2335823 C24.7323684,47.0936513 25.0268377,46.8290671 25.215409,46.5153508 C25.4039803,46.2016345 25.4871735,45.8386124 25.5098783,45.3774998 C25.5324098,44.9162135 25.4947995,44.3566631 25.5778194,43.9597868 C25.6608393,43.5627368 25.8646626,43.3285347 26.0572202,43.309611 C26.2497779,43.2906873 26.4307231,43.4872157 26.4270834,43.7707236 C26.4232703,44.0542315 26.2346991,44.4247188 26.3251717,44.6741988 C26.4158176,44.9236788 26.7855074,45.0521515 27.1780754,45.2601383 C27.57047,45.4681251 27.9857427,45.7554524 28.121625,45.9405225 C28.2575072,46.1257661 28.1141723,46.2089261 27.7555749,46.1938219 C27.3971508,46.1787177 26.8234643,46.0651757 26.4761327,46.2354887 C26.1289744,46.4056282 26.0081709,46.8592755 25.9478558,47.2750755 C25.8873675,47.6908755 25.8873675,48.0688281 25.77419,48.333586 C25.6610126,48.5981702 25.4346578,48.7493859 25.468455,49.047998 C25.5024256,49.3466101 25.7968948,49.7927922 26.1703977,50.0044248 C26.5439005,50.2160575 26.9969568,50.1933143 27.2271247,50.3787316 C27.4574659,50.5639753 27.4649186,50.9572057 27.4988892,51.2634568 C27.5328597,51.5697078 27.5931748,51.7888057 27.5969878,51.9400215 C27.6006275,52.0912373 27.5479385,52.1743973 27.3893514,52.2424531 C27.2307644,52.3105088 26.9667993,52.3634604 26.7591629,52.5940167 C26.5515265,52.824573 26.4007389,53.2329077 26.2421518,53.6902009 C26.0835648,54.1476677 25.917525,54.6542666 25.7100619,55.1268376 C25.5024256,55.5994086 25.2533659,56.0379517 25.0571686,56.3631264 C24.860798,56.6883011 24.717463,56.8999337 24.6418958,57.1190317 C24.5663287,57.3383033 24.558876,57.5652137 24.5060136,57.7504574 C24.4531513,57.9357011 24.3548793,58.0794515 24.1888395,58.1020211 C24.0227997,58.1247642 23.7886455,58.0263264 23.6340448,58.1285836 C23.4792708,58.2304937 23.4038769,58.5330989 23.460379,58.9903921 C23.5170544,59.4478588 23.705799,60.0603609 23.8943702,60.4761609 C24.0831148,60.8919609 24.2716861,61.1112324 24.456791,61.3758166 C24.6417225,61.6404008 24.8228411,61.9504713 24.969989,62.294396 C25.1173103,62.6383208 25.2304878,63.016447 25.4381241,63.2055102 C25.6457605,63.3945733 25.9475092,63.3945733 26.1099093,63.2661007 C26.272136,63.137628 26.2948408,62.8805091 26.1589586,62.6119318 C26.0230764,62.3435282 25.7287804,62.0638397 25.5816324,61.738665 C25.4343111,61.4134904 25.4343111,61.0431766 25.5324098,60.7709535 C25.6305084,60.4987304 25.8267057,60.3247715 26.0268894,60.3362298 C26.2268997,60.3475146 26.4307231,60.5442166 26.6496252,60.7294603 C26.8685273,60.914704 27.1025082,61.0884893 27.3515679,61.2247745 C27.6006275,61.360886 27.864766,61.4591502 28.1439831,61.6709565 C28.4233737,61.8825891 28.7176696,62.2075902 28.9478375,62.4496049 C29.1781787,62.6916196 29.3442185,62.8503007 29.4875534,62.8048144 C29.6308884,62.7595018 29.7516918,62.5100218 29.8497905,62.1961318 C29.9478892,61.8824155 30.023283,61.5044629 29.9517022,61.2133161 C29.879948,60.9221693 29.6610459,60.7180019 29.5705733,60.4495983 C29.4799274,60.1811946 29.517711,59.8485546 29.6308884,59.738832 C29.7442391,59.6292831 29.9328104,59.7424779 30.1440865,59.8976867 C30.3555359,60.052722 30.5893434,60.2490768 30.778088,60.4910915 C30.9668326,60.7331062 31.1103409,61.0204335 31.4424204,61.182934 C31.7745,61.3454346 32.2953241,61.3832819 32.7783646,61.2963025 C33.2615785,61.209323 33.7068355,60.9975168 33.8690622,60.7216478 C34.0314623,60.4456052 33.9106588,60.1054999 34.0690726,59.9277215 C34.2274863,59.7499432 34.6652905,59.7350126 35.0126222,59.7046305 C35.3599538,59.6742485 35.6164662,59.6289358 35.7636142,59.4777201 C35.9109355,59.3265043 35.9485457,59.0693854 35.9939554,58.8539333 C36.0391917,58.6383076 36.092054,58.4645223 36.2241232,58.3775428 C36.3563658,58.2905634 36.5674685,58.2905634 37.1260762,58.2716397 C37.6846839,58.252716 38.5902766,58.2148687 39.092209,58.252716 C39.5941413,58.2905634 39.69224,58.4039318 39.5487317,58.5098349 C39.4053967,58.615738 39.0204548,58.7140023 38.7109068,58.8199054 C38.4015321,58.9258085 38.1675512,59.0391769 37.9788066,59.1601843 C37.790062,59.2811916 37.646727,59.4096643 37.4692482,59.5495953 C37.2919427,59.6895263 37.0804933,59.8407421 36.9673159,60.067479 C36.8541384,60.2942158 36.8390597,60.5966474 36.7823843,60.8803289 C36.7257089,61.1638368 36.6276103,61.428421 36.4842753,61.6930052 C36.340767,61.9575894 36.1521958,62.2223472 36.0466444,62.4794661 C35.9409197,62.7364114 35.9182149,62.9858914 35.8239292,63.3110661 C35.7296436,63.6360672 35.5636038,64.0369365 35.5105682,64.316625 C35.4575325,64.5963134 35.5180209,64.7551681 35.6727949,64.9516965 C35.8275689,65.1483985 36.0764553,65.3826007 36.2917177,65.5754833 C36.5068068,65.7683659 36.6879253,65.9195817 36.8728569,66.2258327 C37.0577885,66.5320837 37.2465331,66.9931963 37.3786023,67.3675031 C37.5106715,67.7416363 37.5860653,68.0289636 37.7484654,68.2218462 C37.9108655,68.4145552 38.1599251,68.512993 38.3185122,68.34268 C38.4770992,68.1727141 38.544867,67.7339974 38.6429657,67.6055247 C38.7410643,67.4770521 38.8694938,67.6586499 38.9259959,67.9079563 C38.9826713,68.1576099 38.9675925,68.4751457 38.8240842,68.7284451 C38.6807493,68.9817446 38.4089848,69.1708077 38.3070731,69.3256693 C38.2051614,69.4805309 38.2731025,69.6015383 38.390093,69.786782 C38.5070834,69.9720256 38.6731232,70.2215056 38.842976,70.3386935 C39.0128288,70.456055 39.1863213,70.4409508 39.3826919,70.3008462 C39.5788892,70.1609151 39.7979647,69.8965045 39.9525654,69.5864341 C40.1073394,69.2765372 40.197812,68.9211541 40.292271,68.872022 C40.3865566,68.8228899 40.4846553,69.0798352 40.598006,69.2197662 C40.7113567,69.3596972 40.8396129,69.3824403 40.9867609,69.2274051 C41.1339089,69.0723699 41.2999487,68.7397299 41.4585357,68.6565699 C41.6169494,68.5734099 41.7679105,68.7397299 41.8661824,68.9211541 C41.9642811,69.1025783 42.0095174,69.2992803 41.903966,69.4807046 C41.7984146,69.6621288 41.5417289,69.8284488 41.3869549,70.0060535 C41.2321809,70.1836583 41.1794918,70.3727214 41.2359939,70.5428608 C41.2926693,70.7130003 41.458709,70.8643897 41.5644337,71.0683834 C41.6701584,71.2725508 41.7153947,71.5294961 41.5419022,71.620295 C41.3682364,71.7109203 40.9756685,71.6355728 40.7455006,71.6015449 C40.5151594,71.567517 40.4472183,71.5751559 40.3905429,71.6772396 C40.3340409,71.7793233 40.2888046,71.9758517 40.2622868,72.2555401 C40.2359422,72.5354022 40.2284895,72.8982506 40.2208635,73.2308906 C40.2132374,73.5635306 40.2056114,73.8659621 40.3227751,74.0890531 C40.4397656,74.3119705 40.6810259,74.455721 40.8056424,74.6069368 C40.9302589,74.7581526 40.9378849,74.9168337 40.851052,74.9961742 C40.7642191,75.0755147 40.5831006,75.0755147 40.4924546,75.1890568 C40.401982,75.3022516 40.401982,75.5291621 40.3527594,75.7560725 C40.3035367,75.982983 40.2056114,76.2097199 40.092434,76.398783 C39.9792565,76.5878461 39.850827,76.7390619 39.8735318,76.9355903 C39.8962367,77.1321188 40.0699025,77.3741335 40.3075231,77.6236135 C40.545317,77.8732671 40.8470657,78.1302123 41.0999383,78.4024355 C41.352811,78.674485 41.5566344,78.9618123 41.7679105,79.1621602 C41.9791865,79.3623345 42.1980887,79.4758765 42.4131778,79.5439323 C42.6282669,79.6119881 42.8397163,79.6345576 42.9794115,79.7668497 C43.1191068,79.8993154 43.1868746,80.1411565 43.0511656,80.2810875 C42.9152834,80.4210185 42.5755778,80.4586923 42.2849216,80.4323033 C41.9942653,80.4059143 41.753005,80.3149418 41.4848802,80.0428923 C41.2169288,79.7708428 40.9226328,79.3170218 40.6546814,79.0447987 C40.3865566,78.7727492 40.1452963,78.6819503 39.9149551,78.7461866 C39.6846139,78.8104229 39.4658851,79.0296945 39.4544461,79.3357719 C39.4431803,79.6421965 39.6393776,80.0350798 39.8016044,80.3302196 C39.9640044,80.6250123 40.0922606,80.8215407 40.0695558,80.9161591 C40.0470243,81.0106038 39.8733585,81.0031385 39.6128598,80.8519227 C39.3523611,80.700707 39.0052028,80.4059143 38.7675822,80.2092123 C38.5297883,80.0126839 38.4015321,79.9144196 38.0730922,79.9482739 C37.7446524,79.9823018 37.2163755,80.1486218 36.8539651,80.2734486 C36.491728,80.3982754 36.2955307,80.4814354 36.0424847,80.5003591 C35.789612,80.5192828 35.4802373,80.4739701 35.1481578,80.5267481 C34.8159049,80.5796996 34.4612939,80.7309154 34.0045978,81.025708 C33.5479018,81.3205007 32.9892941,81.7592174 32.4232337,82.1369964 C31.8571732,82.5151227 31.2834867,82.8326585 30.9287024,83.13509 C30.573918,83.4375216 30.4380358,83.7246753 30.1664446,84.0800584 C29.8948535,84.4354416 29.4872068,84.8588805 28.9663826,85.2974236 C28.4455585,85.7359667 27.8113836,86.189614 27.3812054,86.5828445 C26.9510272,86.9759013 26.7244991,87.3085413 26.7773614,87.4977781 C26.8302238,87.6868412 27.1623033,87.7321539 27.5926548,87.7017718 C28.022833,87.6715634 28.5512832,87.5658339 28.8833628,87.3238192 C29.2154423,87.0818045 29.3513245,86.7038518 29.6910301,86.4088856 C30.0305624,86.1139193 30.5740913,85.9022867 31.0420531,85.8342309 C31.5100149,85.7660015 31.9025828,85.8416962 32.0535438,86.023294 C32.2045049,86.2047182 32.1140322,86.491872 31.9930555,86.7491645 C31.872252,87.0061098 31.7214643,87.2330203 31.8495472,87.4219098 C31.9779767,87.6109729 32.3854501,87.7621887 32.6119782,87.9739949 C32.8383331,88.1858012 32.8835694,88.4578507 32.7175296,88.745178 C32.5514898,89.0323318 32.174174,89.3347633 32.0306657,89.5616738 C31.8871574,89.7885843 31.9778034,89.9398 32.2043315,90.1212243 C32.4308597,90.3028221 32.7930968,90.5144547 32.9139002,90.7941432 C33.0345304,91.0738316 32.9139002,91.4215758 32.6495885,91.9887652 C32.3854501,92.5559545 31.9779767,93.3422419 31.4268217,93.9017923 C30.8756667,94.4613428 30.1813501,94.7939828 29.720841,95.1266228 C29.2605053,95.4592628 29.0341504,95.7919027 28.7095236,95.9356532 C28.3848968,96.0792301 27.9621713,96.0339174 27.5848555,96.2077027 C27.2073663,96.3816616 26.8752868,96.7748921 26.6262271,97.0469416 C26.3771674,97.3191647 26.2109544,97.4703805 25.8865009,97.4778458 C25.561874,97.4854847 25.0788335,97.3493732 24.807069,97.4401721 C24.5353045,97.5307974 24.4748162,97.8485068 24.2711661,98.0903479 C24.0675161,98.3321889 23.7201844,98.4986825 23.4558727,98.7177805 C23.1917343,98.937052 23.0106157,99.2092752 22.9652061,99.4058036 C22.9199698,99.6025056 23.0104424,99.7233394 23.2596754,99.7839299 C23.5087351,99.8445203 23.9163818,99.8445203 24.1200318,100.003201 C24.3238551,100.162056 24.3238551,100.479592 24.1728941,100.713968 C24.0217598,100.948517 23.7200111,101.099733 23.5312665,101.296261 C23.342522,101.492963 23.2671281,101.734804 23.6596961,101.765013 C24.0520907,101.795221 24.9126204,101.613797 25.403287,101.598693 C25.8939536,101.583589 26.0145837,101.734804 25.8109337,101.901124 C25.6071103,102.067444 25.0786602,102.248869 24.8750101,102.475779 C24.6711868,102.70269 24.7919902,102.974739 25.0561287,103.148698 C25.3202671,103.322657 25.7279138,103.398352 25.9769735,103.315018 C26.2260331,103.231858 26.3165057,102.990017 26.5581127,102.831162 C26.7997196,102.672307 27.1921142,102.596786 27.4865835,102.430293 C27.7808795,102.263973 27.9772501,102.007027 28.1809001,101.817964 C28.3845502,101.628901 28.5959996,101.508068 28.9431579,101.440012 C29.2903162,101.371782 29.7735301,101.356852 30.0754521,101.190358 C30.3773741,101.024038 30.4981775,100.706502 30.5510399,100.789489 C30.6039022,100.872649 30.5888235,101.356678 30.7926468,101.636367 C30.9964702,101.916055 31.4191957,101.99175 31.7285704,102.165709 C32.0381184,102.339494 32.2343157,102.611717 32.0909808,102.762759 C31.9474725,102.913975 31.464432,102.944357 31.2682347,103.148524 C31.0720373,103.352692 31.16251,103.730818 31.4493532,103.927173 C31.7361964,104.123875 32.219237,104.138979 32.7778447,103.919707 C33.3364524,103.700262 33.970454,103.246789 34.4685733,103.231684 C34.9668659,103.216406 35.3289297,103.640019 35.5667236,103.942277 C35.8045175,104.244709 35.9175216,104.426306 36.1100792,104.607731 C36.3026368,104.789155 36.574228,104.970579 36.8950418,105.208774 C37.2158556,105.446969 37.5857187,105.741762 38.0044578,105.892978 C38.4233703,106.044194 38.8915054,106.051833 39.2611952,105.983603 C39.6310583,105.915547 39.9028228,105.771797 40.1179119,105.518497 C40.333001,105.265198 40.491588,104.90235 40.6915984,104.584814 C40.8916087,104.267278 41.1332156,103.995055 41.3973541,103.828735 C41.6614925,103.662415 41.9483357,103.601998 42.3181988,103.552866 C42.688062,103.503734 43.140945,103.465886 43.8278089,102.913801 C44.5146728,102.36189 45.4355176,101.295914 45.9525287,100.808239 C46.4695398,100.32039 46.5828905,100.411189 46.5338412,100.641745 C46.4847919,100.872475 46.2735158,101.242962 45.8889205,101.766575 C45.5044986,102.291403 44.9469308,102.968142 44.3737643,103.552171 Z M58.613668,113.999255 C58.5873234,113.783803 58.3382638,113.602378 57.9307904,113.436058 C57.523317,113.269738 56.9570833,113.118523 56.5532496,113.107064 C56.1494159,113.095606 55.907809,113.224252 55.5266801,113.375468 C55.1455512,113.526684 54.6247271,113.700643 54.3754941,113.90481 C54.1264344,114.108977 54.1489659,114.343179 54.3644017,114.479465 C54.5793175,114.615576 54.9871375,114.653424 55.3228567,114.755507 C55.6587493,114.857591 55.9228877,115.023911 56.1419632,115.212974 C56.3608653,115.402037 56.5345311,115.61367 56.8362798,115.670441 C57.1382018,115.727038 57.5685533,115.628948 57.8250657,115.44353 C58.0817514,115.258287 58.1647713,114.986063 58.3044665,114.725125 C58.4439885,114.46436 58.6403591,114.214707 58.613668,113.999255 Z M32.4712431,80.8225824 C32.554263,80.5994914 32.6071253,80.3272682 32.4296465,80.2177193 C32.2523409,80.1081703 31.8446942,80.1611218 31.5465853,80.0401145 C31.2484763,79.9192808 31.0597317,79.6243145 30.7427309,79.3484455 C30.4257301,79.072403 29.9804732,78.8154577 29.6369545,78.7512213 C29.2934359,78.686985 29.0520023,78.8154577 28.8369132,79.0498334 C28.6216508,79.2843828 28.4330795,79.6246617 28.1273445,79.8133776 C27.8216095,80.0024408 27.398884,80.0402881 27.2593621,80.2217123 C27.1196668,80.4033102 27.2630018,80.7283112 27.4858902,80.9173744 C27.7086054,81.1064375 28.0103541,81.159389 28.2634001,81.3482786 C28.5160994,81.5373417 28.7199228,81.8625164 28.8218345,82.1043574 C28.9237461,82.3461985 28.9237461,82.5050532 29.1161304,82.6033174 C29.308688,82.7015816 29.6936299,82.739429 30.0333355,82.6448106 C30.3730411,82.5503659 30.6673371,82.3234554 31.0144954,82.0928991 C31.3616537,81.8623428 31.7618477,81.627967 32.0183601,81.4237996 C32.2750458,81.2194587 32.3882232,81.0456734 32.4712431,80.8225824 Z M23.0024697,48.8287265 C22.8326169,48.9044212 22.6740299,49.0328938 22.4665668,49.2106722 C22.2589305,49.3882769 22.0022448,49.6151874 21.9306639,49.8342854 C21.8589098,50.0535569 21.9722605,50.2651896 22.0514674,50.5186626 C22.1308476,50.7717885 22.1760839,51.0667547 22.2251332,51.4221378 C22.2741825,51.777521 22.3270449,52.1933209 22.5761046,52.4276967 C22.8251642,52.6620725 23.2704212,52.7150241 23.6253789,52.7037393 C23.9801632,52.6924545 24.2443016,52.6167599 24.353666,52.2651962 C24.4630304,51.9136325 24.4179675,51.2860263 24.3424003,50.7492189 C24.2668331,50.2124116 24.1612818,49.7664032 24.0215865,49.4412285 C23.8818912,49.1160538 23.7082254,48.9120601 23.5309199,48.8212612 C23.3534411,48.7304623 23.1723225,48.7530318 23.0024697,48.8287265 Z M16.6085519,46.9033729 C16.4950279,46.7316709 16.2787255,46.4493783 15.959125,46.308232 C15.6395244,46.1670857 15.2167989,46.1670857 14.7564632,46.3410446 C14.2959541,46.5148299 13.7978348,46.8625741 13.5260704,47.2823672 C13.2543059,47.7019866 13.2088963,48.1934813 13.1485812,48.6243855 C13.0882661,49.0552897 13.0128723,49.4257771 13.0844531,49.599736 C13.1562072,49.7736949 13.3751094,49.7509518 13.6354348,49.5129301 C13.8957602,49.2749085 14.1976822,48.8210876 14.4581809,48.6662259 C14.7185063,48.5111907 14.9374084,48.6549412 15.0620249,48.8476502 C15.1864681,49.0405327 15.2167989,49.2823738 15.1375921,49.5735206 C15.0582119,49.8646674 14.8696406,50.2047727 14.8016995,50.4769958 C14.7337584,50.7492189 14.7866207,50.9533863 15.0017098,50.9608516 C15.2167989,50.9684905 15.5942881,50.7794274 16.0395451,50.5827253 C16.484802,50.3861969 16.9981735,50.1820296 17.2586722,49.9249107 C17.5189976,49.6677918 17.5266236,49.3578949 17.3985408,48.8943517 C17.3137877,48.5874062 17.1694128,48.2132731 17.0418499,47.8969526 C17.1252164,48.0130988 17.2186354,48.101988 17.3151742,48.1478214 C17.6020175,48.283933 17.9190182,48.0419183 18.2587238,47.4976457 C18.5984294,46.9531994 18.9606665,46.1063216 19.1946474,45.3427774 C19.4288016,44.5792332 19.534353,43.8986754 19.5494318,43.422285 C19.5645105,42.9458945 19.4891167,42.673845 19.2702146,42.8174219 C19.0513124,42.9609987 18.6890754,43.5205492 18.2738026,44.0575301 C17.8587032,44.5943375 17.3907414,45.1084017 17.0888194,45.592431 C16.7868974,46.0762868 16.6510151,46.5299341 16.7115035,47.0137899 C16.7158365,47.0493803 16.721556,47.0853179 16.7279689,47.1210819 C16.6948649,47.0446928 16.6638408,46.9872273 16.6085519,46.9033729 Z M16.122565,42.9460681 C15.7754066,43.1577008 15.3526812,43.7323554 15.1866414,44.2163848 C15.0206016,44.7002406 15.1110742,45.0932974 15.4282483,45.0781932 C15.7454224,45.063089 16.2887781,44.6398237 16.5907001,44.231489 C16.8926221,43.8231544 16.9529371,43.4299239 16.8472124,43.1578744 C16.7414877,42.8856513 16.4697233,42.7344355 16.122565,42.9460681 Z M19.5645105,40.1788715 C19.4286283,40.3602957 19.3532344,40.6778314 19.1267063,40.7458872 C18.9003514,40.813943 18.5228623,40.6325188 18.0926841,40.7535261 C17.6625059,40.8745335 17.179292,41.2977988 16.6435624,41.5549177 C16.1076595,41.811863 15.5187209,41.9026619 15.1866414,41.7061335 C14.8545619,41.509605 14.779168,41.0255757 14.922503,40.7837346 C15.0658379,40.5417199 15.4282483,40.5417199 15.7452491,40.3451915 C16.0622499,40.148663 16.333841,39.7554326 16.5679953,39.4681052 C16.8019761,39.1807779 16.9981735,38.9993537 16.7945234,38.9161937 C16.5907001,38.8330337 15.986856,38.8479643 15.5942881,38.6514359 C15.2017202,38.4549074 15.0206016,38.0467463 15.1414051,37.6082032 C15.2620352,37.1696601 15.6847607,36.700735 16.0395451,36.5722623 C16.3943294,36.4437897 16.6811727,36.6554223 16.8699173,36.9276454 C17.0586618,37.1998685 17.1491345,37.5325085 17.48884,37.7517801 C17.8283723,37.9710517 18.4171376,38.0769548 18.8625678,38.3113306 C19.3078248,38.5457063 19.6099201,38.9085548 19.7910387,39.1958821 C19.9721572,39.4832094 20.0326456,39.6948421 19.9645312,39.8234883 C19.8965901,39.951961 19.7003928,39.9972736 19.5645105,40.1788715 Z M17.828719,27.370843 C17.4210722,27.038203 17.0134255,26.5541736 16.8624645,25.9644147 C16.7115035,25.3748294 16.8172282,24.6791674 16.6059522,24.0743043 C16.3946761,23.4694412 15.8662259,22.9552033 15.4133429,22.6906191 C14.9604599,22.4260349 14.5829707,22.4109307 14.424557,22.6527718 C14.2659699,22.8946129 14.3264583,23.3937465 14.3716946,23.7565949 C14.4171043,24.1194433 14.4472618,24.3463538 14.2056549,24.3161453 C13.9640479,24.2859369 13.4508498,23.9986096 13.1640066,23.9909707 C12.8771634,23.9833317 12.8168483,24.2555549 12.6582612,24.6260422 C12.4996742,24.9965295 12.2431618,25.4652811 12.2053782,25.9869842 C12.1675946,26.5086873 12.3487132,27.083342 12.6506352,27.2875094 C12.9525572,27.4916767 13.3752827,27.3253567 13.7073622,27.4161556 C14.0396151,27.5067809 14.2810487,27.8545251 14.5451871,28.2024429 C14.8093256,28.5501871 15.0961688,28.8979313 15.3904648,29.1701545 C15.684934,29.4423776 15.9866827,29.6390796 16.3189356,29.6616492 C16.6510151,29.6843923 17.0132522,29.5331765 17.1567605,29.7448092 C17.3002688,29.9564418 17.2247016,30.5310965 17.3756626,30.750368 C17.5266236,30.9696396 17.9039395,30.833528 18.3115862,30.4026238 C18.7190596,29.9717196 19.1568638,29.2458492 19.2852933,28.807306 C19.4135495,28.3687629 19.232431,28.2177208 18.938135,28.0514008 C18.6440124,27.8850808 18.2363657,27.7034829 17.828719,27.370843 Z M11.4961561,37.6837243 C11.1413718,37.6307728 10.5902168,37.7139327 10.2279797,37.8236553 C9.86574264,37.9332043 9.69207682,38.0693159 9.63921447,38.2924069 C9.58635212,38.5154979 9.65429324,38.8253948 9.76747066,39.0937984 C9.88082141,39.3622021 10.0392351,39.5891126 10.273216,39.6306058 C10.5071969,39.672099 10.816745,39.5285221 11.0696176,39.3205353 C11.3224903,39.1125485 11.5186876,38.840499 11.6923535,38.6286927 C11.8660193,38.4170601 12.0169803,38.2658443 12.0131673,38.0957048 C12.0091809,37.9255654 11.8507672,37.7366759 11.4961561,37.6837243 Z M13.7491321,35.6611482 C13.4433971,35.6575023 13.1340224,35.8087181 12.8849627,35.9976076 C12.6357297,36.1864971 12.4471585,36.4134076 12.3339811,36.6628876 C12.2208036,36.9123676 12.18302,37.1845907 12.2169906,37.4076817 C12.2509612,37.6307728 12.3565125,37.804558 12.5416174,37.8347665 C12.726549,37.8649749 12.9906874,37.7516065 13.3153142,37.5059459 C13.6399411,37.2601118 14.024883,36.8821592 14.2588638,36.6061166 C14.4928447,36.330074 14.5758646,36.1561151 14.4663269,35.9897951 C14.3567892,35.8238223 14.0548672,35.6649676 13.7491321,35.6611482 Z M15.9946554,32.3154774 C15.7152649,32.4666932 15.5492251,32.69343 15.5303333,32.9392642 C15.5114415,33.1850983 15.6396977,33.4495089 15.8360684,33.5932594 C16.032439,33.7370099 16.2965774,33.7595794 16.5908734,33.5857941 C16.8851693,33.4118352 17.2097962,33.0413478 17.2928161,32.7465552 C17.3758359,32.4515889 17.2172489,32.232491 16.9418447,32.1606158 C16.6664405,32.0885669 16.2738726,32.1642616 15.9946554,32.3154774 Z M14.8020461,30.7125207 C14.5152029,30.8258891 14.1680446,31.0679038 14.0699459,31.3741548 C13.9718473,31.6804058 14.1228083,32.0507196 14.3943994,32.3382205 C14.6661639,32.6255479 15.0587318,32.8297152 15.3001655,32.6897842 C15.5417724,32.5498532 15.6324183,32.0659974 15.6473238,31.6653016 C15.6624025,31.2646058 15.6020875,30.9470701 15.4587525,30.7807501 C15.3152442,30.6140829 15.0888894,30.5989786 14.8020461,30.7125207 Z M7.02365476,31.0600913 C6.78586085,31.0449871 6.54425391,31.1885639 6.35932235,31.5250234 C6.17439079,31.8614828 6.04596127,32.3906512 6.00089829,32.7196454 C5.95548866,33.0486395 5.99327224,33.1771122 6.20836134,33.1128759 C6.42345044,33.0484659 6.81601838,32.7915206 7.10286162,32.5571448 C7.38953154,32.3227691 7.5708234,32.1111364 7.65765631,31.9258928 C7.7443159,31.7406491 7.73703649,31.581968 7.61605971,31.415648 C7.49542956,31.2491544 7.26144867,31.0751955 7.02365476,31.0600913 Z M7.54950514,26.4316037 C7.23614407,26.4505274 7.02989425,26.7364659 6.9382084,27.291676 C6.84634924,27.8467126 6.86905405,28.6708473 6.9255561,29.2682451 C6.98205815,29.8654693 7.07270408,30.2361302 7.27652744,30.4741518 C7.48035079,30.7121735 7.79735157,30.8180766 8.0389585,30.7236318 C8.28039212,30.6291871 8.44643189,30.3342208 8.57104838,29.8238025 C8.69566487,29.3135577 8.77868475,28.5876873 8.79376352,28.0659841 C8.80884229,27.544281 8.75597994,27.2267453 8.51957258,26.9439318 C8.2829919,26.6609448 7.86286622,26.4126801 7.54950514,26.4316037 Z M7.73322347,25.1210091 C7.34446856,25.1397592 7.00476297,25.2760444 6.95207394,25.4840312 C6.89921159,25.6918443 7.13319248,25.9717064 7.44274053,26.1644154 C7.75211526,26.3571243 8.13705716,26.4630275 8.45787096,26.4138953 C8.77868475,26.3647632 9.03537046,26.1605959 9.11457732,25.9487896 C9.1939575,25.7369834 9.09568553,25.5178854 8.82773408,25.3590307 C8.55978263,25.2003497 8.12197839,25.1020855 7.73322347,25.1210091 Z M6.35568265,23.7336781 C6.48411216,23.4916635 6.73317181,23.2272529 6.93699517,23.1137108 C7.14081852,23.0001688 7.29923225,23.0380161 7.56735702,22.9737798 C7.83530847,22.9095435 8.21262432,22.7430499 8.56376897,22.7091956 C8.91474031,22.6751677 9.23919381,22.7734319 9.49587951,22.9171824 C9.75256521,23.0609329 9.94113648,23.2498224 9.96020159,23.6203097 C9.97892006,23.9907971 9.82813238,24.5427086 9.62430902,24.8451402 C9.42048567,25.1475717 9.16397329,25.2005233 8.87695673,25.0758701 C8.59011349,24.9510433 8.27311271,24.6486117 7.9711907,24.4973959 C7.6692687,24.3461802 7.38259877,24.3461802 7.09194251,24.3576385 C6.80128625,24.3689233 6.50699029,24.3914928 6.36348201,24.2932286 C6.21997373,24.1947908 6.22742645,23.9756928 6.35568265,23.7336781 Z M15.5984478,11.9386738 C15.9118088,11.7042981 16.1456164,11.6513465 16.4061151,11.7647149 C16.6664405,11.878257 16.9532838,12.1579454 16.930579,12.4678422 C16.9078742,12.7777391 16.5757946,13.118018 16.4248336,13.3864217 C16.2738726,13.6548253 16.3040301,13.8515274 16.2171972,14.06316 C16.1303643,14.2749663 15.926541,14.5017031 15.7528752,14.7286136 C15.5793827,14.9555241 15.4358744,15.182261 15.4246086,15.3220184 C15.4133429,15.4617758 15.533973,15.5149009 15.7000128,15.4581299 C15.8660526,15.4013589 16.077502,15.2350389 16.284965,15.1595178 C16.4924281,15.0838231 16.6962514,15.0989273 16.7605529,15.2918099 C16.824681,15.4845189 16.7491138,15.8551798 16.4887884,16.0477152 C16.228463,16.2405978 15.7830327,16.255702 15.5490518,16.3161189 C15.3150709,16.3765357 15.2923661,16.4824389 15.1112476,16.6223699 C14.930129,16.7623009 14.5904234,16.9360862 14.4054919,17.0911214 C14.2205603,17.2461567 14.1904028,17.3822682 14.3375507,17.4426851 C14.4848721,17.5032756 14.8093256,17.4881714 15.0131489,17.4843519 C15.2169723,17.4805324 15.2999921,17.4879977 15.3150709,17.6619567 C15.3301497,17.8359156 15.2772873,18.1760209 15.0999818,18.3727229 C14.922503,18.5692513 14.620581,18.6223765 14.5528132,18.7659534 C14.4848721,18.9097038 14.6507385,19.143906 14.5262953,19.3369622 C14.4018522,19.5296712 13.9865794,19.680887 13.6657656,19.6015464 C13.3449518,19.5220323 13.118597,19.2121354 12.9865278,18.8909538 C12.8544585,18.5694249 12.816675,18.236785 12.7223893,18.1083123 C12.6281037,17.9798397 12.4769694,18.0551871 12.3864968,18.2633475 C12.2960242,18.4713343 12.2656933,18.8114396 12.3639653,19.1631769 C12.4620639,19.5147406 12.6884188,19.877589 12.7601729,20.1498121 C12.831927,20.4220352 12.7489072,20.6034595 12.4658769,20.8718631 C12.1828467,21.1402668 11.6998062,21.4956499 11.3488348,21.7791578 C10.9978635,22.0626657 10.7787881,22.2744719 10.567512,22.323604 C10.3562359,22.3727361 10.1522392,22.2593677 9.88446111,22.0211725 C9.61650966,21.7829772 9.28443011,21.4201288 9.216489,21.1706488 C9.14854788,20.9211688 9.34474519,20.7850573 9.56364731,20.7170015 C9.78254943,20.6489457 10.023983,20.6489457 10.2543242,20.4939105 C10.4844921,20.3388752 10.7033942,20.0289784 10.8354634,19.8322763 C10.9675327,19.6357479 11.012769,19.5525879 10.8129319,19.4543237 C10.6129216,19.3560595 10.1674913,19.2425174 9.85430357,19.0951211 C9.5409425,18.9475512 9.35982396,18.766127 9.45046989,18.6225501 C9.5409425,18.4787996 9.9033529,18.3728965 10.0241564,18.2180349 C10.1449598,18.0629997 10.0241564,17.8590059 9.80144122,17.6208107 C9.57872608,17.3826155 9.25427258,17.1105659 9.2617253,16.7551828 C9.26917803,16.3997997 9.60888362,15.9612566 9.80889395,15.6437208 C10.0089043,15.326185 10.0692194,15.1296566 10.2165407,15.1372955 C10.3636886,15.1447608 10.5976695,15.3565671 10.7787881,15.6287902 C10.9599066,15.9010133 11.0883361,16.2336533 11.3601006,16.3432023 C11.6318651,16.4529249 12.0469645,16.3393828 12.2584139,16.1730628 C12.4698633,16.0067428 12.477316,15.7874713 12.3377941,15.473755 C12.1980988,15.1600387 11.9112556,14.751704 11.8433145,14.4492724 C11.7753733,14.1468409 11.9263343,13.9501388 12.2547742,13.8520482 C12.583214,13.753784 13.0889594,13.753784 13.4927931,13.6289572 C13.8966268,13.5041304 14.1985488,13.2546504 14.5457071,12.9220104 C14.8926921,12.5888496 15.2850867,12.1730496 15.5984478,11.9386738 Z M37.8503771,0.136204209 C37.6503667,0.325267334 37.4767009,0.733428407 37.5371893,1.12665888 C37.5975044,1.51988934 37.8918004,1.89784198 38.271716,1.96884916 C38.6514583,2.03985634 39.116647,1.80374445 39.3355491,1.52405602 C39.5544512,1.24419399 39.5270668,0.920755416 39.3473348,0.660858723 C39.1676028,0.400788418 38.8355233,0.204259989 38.5563061,0.0908915586 C38.2767423,-0.0226504838 38.0503874,-0.0528589171 37.8503771,0.136204209 Z M41.6016974,2.86190767 C41.2732575,2.85808822 41.0092924,2.94124821 40.7825909,3.10756821 C40.5562361,3.2738882 40.3674915,3.5233682 40.3749442,3.79177186 C40.3825703,4.06017553 40.5863936,4.34750287 40.9751485,4.49489919 C41.3637301,4.64229551 41.9375899,4.64993443 42.2582304,4.3851766 C42.5788709,4.12041878 42.646812,3.58378506 42.4847586,3.26989514 C42.3225318,2.95635243 41.9301372,2.86555352 41.6016974,2.86190767 Z M43.3454616,0.419712091 C42.8660608,0.325267334 42.0433146,0.574747327 41.5323697,0.844539886 C41.0214248,1.11450606 40.8221077,1.4047848 40.8373598,1.72631364 C40.8524386,2.04766887 41.0817398,2.39992698 41.5360094,2.45513549 C41.9904523,2.51034401 42.6696901,2.26832932 43.1340122,2.04159246 C43.5983343,1.81468199 43.8472206,1.60304934 43.903896,1.27787465 C43.9605714,0.952699967 43.8246891,0.514156848 43.3454616,0.419712091 Z M39.6844406,1.41780567 C39.4241152,1.7391609 39.2580754,2.35912823 39.2806069,2.759824 C39.3033117,3.16051977 39.5145878,3.3421176 39.7787262,3.19836712 C40.0428647,3.05461665 40.3600388,2.58603871 40.5146395,2.17388456 C40.6692402,1.76173042 40.6619608,1.40652091 40.4806689,1.24020092 C40.2997237,1.07370731 39.9449393,1.09627683 39.6844406,1.41780567 Z M38.7410643,7.23570687 C38.4202505,7.36417952 38.2013484,7.66661108 38.144673,7.99925107 C38.0879977,8.33206467 38.1937224,8.69491309 38.5221622,8.86487893 C38.8504287,9.03501838 39.4015837,9.01244886 39.6695352,8.70237839 C39.9374866,8.39230792 39.9224078,7.79508372 39.7035057,7.47372849 C39.4846036,7.15254688 39.0618781,7.10723423 38.7410643,7.23570687 Z M35.1897544,6.26799534 C35.0311673,6.46452376 35.0011831,6.84265002 35.1103742,7.17529001 C35.2199119,7.50793 35.4689716,7.79525734 35.8651792,7.94647311 C36.2615602,8.09768889 36.8049158,8.11279311 37.0503357,7.86695896 C37.2955824,7.62129843 37.24272,7.11469953 37.0050994,6.76695532 C36.7673055,6.41921111 36.3445801,6.23014799 35.9897957,6.14316853 C35.6350113,6.05618908 35.3481681,6.0712933 35.1897544,6.26799534 Z M40.6092717,5.40983277 C40.6546814,5.67823644 40.4960943,6.06382799 40.2054381,6.29073847 C39.9147818,6.51747533 39.4922296,6.58553111 39.1941207,6.49108635 C38.8960117,6.3966416 38.7223459,6.13952269 38.544867,6.09039058 C38.3675615,6.04125848 38.186443,6.19993956 37.9635545,6.29455792 C37.7408394,6.38900268 37.4767009,6.41938473 37.3446317,6.15844636 C37.2125625,5.89768161 37.2125625,5.34559645 37.1068378,5.17563061 C37.0011131,5.00549116 36.789837,5.2171238 36.5634822,5.37979795 C36.3371273,5.5424721 36.0955204,5.65566692 35.9067758,5.46295795 C35.7182045,5.27024898 35.582149,4.77128899 35.6916867,4.23812751 C35.8012244,3.70513963 36.1558355,3.13795025 36.5711082,2.84315761 C36.9862077,2.54836497 37.4617955,2.52562184 37.6845106,2.78274075 C37.9072258,3.03968604 37.8768949,3.57666698 37.9749936,3.93951541 C38.0730922,4.30236383 38.2996204,4.49142696 38.6694835,4.6124343 C39.0393466,4.73344165 39.552718,4.7862196 39.9338469,4.88847688 C40.3148025,4.99021333 40.5640354,5.1412555 40.6092717,5.40983277 Z M29.827259,65.5485735 C29.4839137,65.7036087 29.1140506,65.9832971 28.8083156,66.3121177 C28.5025805,66.6411118 28.2611469,67.0190645 28.1441565,67.2987529 C28.027166,67.5786149 28.0346187,67.7600391 27.9365201,67.9301786 C27.8384214,68.1001444 27.6345981,68.2591727 27.423322,68.5199375 C27.2118726,68.7807022 26.9931438,69.1437243 26.7931335,69.5595243 C26.5931231,69.9753242 26.4120046,70.4440758 26.5328081,70.6595279 C26.6534382,70.87498 27.0761637,70.8371327 27.668742,70.6180347 C28.2611469,70.3985895 29.023578,69.9980674 29.6991761,69.5254964 C30.3747743,69.0527517 30.9635395,68.5084791 31.1484711,68.1341723 C31.3334027,67.7598655 31.1145005,67.5558718 30.9370217,67.3289613 C30.7595429,67.1020508 30.6238339,66.8525709 30.6087552,66.5161114 C30.5936764,66.179652 30.6992278,65.7562131 30.5936764,65.5596846 C30.4877784,65.3631562 30.1707776,65.3935382 29.827259,65.5485735 Z" opacity=".3" transform="translate(35 12)"/>
  </g>
</svg>
