<svg xmlns="http://www.w3.org/2000/svg" width="125" height="137" viewBox="0 0 125 137">
  <g fill="none" fill-rule="evenodd" transform="translate(-13 -7)">
    <rect width="150" height="150" opacity=".2"/>
    <path fill="#182F57" d="M39.9320702,135.450029 C39.4200555,135.973771 38.3860906,136.572135 37.4336876,136.735241 C36.4812847,136.898578 35.6104436,136.626427 34.7125693,135.755911 C33.814464,134.885164 32.8890943,133.415821 32.3179298,131.837664 C31.7463031,130.259508 31.5286506,128.572536 31.1478743,126.912826 C30.7668669,125.253116 30.2227357,123.620668 29.6783734,122.368954 C29.1340111,121.117241 28.5898799,120.246494 28.0727819,119.321455 C27.5556839,118.396417 27.0658503,117.416855 26.4944547,115.729884 C25.9228281,114.042912 25.2698706,111.648531 24.8618299,109.798223 C24.4535582,107.947914 24.2904344,106.641909 23.827634,105.308411 C23.3650647,103.975145 22.6030499,102.614848 21.8410351,101.335874 C21.0792514,100.05713 20.3172366,98.8599393 19.9362292,97.6900101 C19.5552218,96.5200809 19.5552218,95.3771821 19.5279575,94.0168853 C19.5006932,92.6565885 19.4461645,91.0779696 19.310305,89.8740793 C19.1742144,88.6699578 18.9565619,87.8401029 18.8070702,87.0305784 C18.6575786,86.221054 18.5757856,85.43186 18.5348891,84.5477133 C18.4939926,83.6633356 18.4939926,82.6840051 18.4669593,81.8268887 C18.439695,80.9697723 18.3851664,80.2351012 18.5487523,79.6499056 C18.7121072,79.064941 19.0928835,78.629683 19.4195933,78.017457 C19.7463031,77.4054621 20.0182532,76.6162681 20.0452865,76.0449342 C20.0725508,75.4733693 19.8548983,75.1196644 19.6779113,74.7659595 C19.5009242,74.4122546 19.3650647,74.0585497 19.3650647,73.6366914 C19.3650647,73.2150641 19.5009242,72.7252833 19.4738909,72.344317 C19.4466266,71.9633508 19.2562384,71.691199 19.215342,71.2420793 C19.1744455,70.7931906 19.2832717,70.1675649 19.2696396,69.6914148 C19.2560074,69.2150337 19.1201479,68.8883592 18.9158965,68.8883592 C18.7116451,68.8883592 18.439464,69.2150337 18.2627079,69.5685076 C18.0857209,69.9222125 18.004159,70.3031788 18.004159,70.7929595 C18.004159,71.2827403 18.0859519,71.8815666 17.8682994,72.4254081 C17.6504159,72.9697116 17.133549,73.4594924 16.4260628,73.8404587 C15.7183457,74.2211939 14.8204713,74.4933457 14.0584566,74.7384671 C13.2964418,74.9833575 12.6705176,75.2009865 12.0036969,75.2552782 C11.3371072,75.309801 10.62939,75.2009865 10.0445933,74.9015734 C9.45956562,74.6023912 8.9969963,74.1126105 8.31654344,73.4186003 C7.63632163,72.7248212 6.73821627,71.8268128 5.9900647,71.0648803 C5.24168207,70.3029477 4.64302218,69.6773221 4.09865989,69.024204 C3.5542976,68.371317 3.06446396,67.6909376 2.9965342,67.1741265 C2.92860444,66.6573153 3.2823475,66.3033794 3.60882625,66.3849325 C3.93530499,66.4664857 4.23475046,66.9835278 4.80614603,67.1602648 C5.37754159,67.3370017 6.22134935,67.1738954 7.01062847,66.9698971 C7.79967652,66.7656678 8.53442699,66.5210084 9.11945471,66.1670725 C9.70448244,65.8133676 10.1400185,65.3508482 10.357671,64.9155902 C10.5753235,64.4803322 10.5753235,64.0721046 10.3167745,63.9496594 C10.0582255,63.8272142 9.5413586,63.9903204 8.87453789,64.2761029 C8.20771719,64.5618853 7.39140481,64.969882 6.67028651,65.0652968 C5.94916821,65.1604806 5.32324399,64.9428516 4.71095194,64.5618853 C4.09865989,64.1809191 3.5,63.6368465 2.95586876,62.9700978 C2.41173752,62.3033491 1.92167283,61.5143862 1.45009242,61.0927589 C0.978280961,60.6709005 0.524722736,60.6163777 0.297828096,60.4532715 C0.0709334566,60.2901653 0.0709334566,60.0180135 0.216266174,59.6779393 C0.361367837,59.3376341 0.651802218,58.9296374 1.13701479,58.8208229 C1.62222736,58.7120084 2.30268022,58.9026071 2.67005545,58.7120084 C3.03743068,58.5216408 3.09172828,57.9500759 3.37754159,57.6372631 C3.6633549,57.3244503 4.18022181,57.2699275 4.67005545,57.3651113 C5.15988909,57.4602951 5.62245841,57.7051855 6.11229205,57.7324469 C6.60212569,57.7597083 7.11899261,57.5691096 7.43207024,57.6781551 C7.74491682,57.7869696 7.85397412,58.1949663 8.18045287,58.4673491 C8.50693161,58.7395008 9.05106285,58.8753457 9.47296673,58.6849781 C9.89463956,58.4943794 10.194085,57.9775683 10.5887246,57.7190472 C10.9833641,57.4605261 11.4731978,57.4605261 11.6908503,57.6917858 C11.9085028,57.9230455 11.8542052,58.3855649 12.0718577,58.6031939 C12.2895102,58.8208229 12.7793438,58.7937926 13.146719,58.6849781 C13.5138632,58.5761636 13.75878,58.3855649 13.8202403,58.1748668 C13.8814695,57.9639376 13.7590111,57.7326779 13.7044824,57.5014182 C13.6501848,57.2701585 13.663817,57.0388988 13.7862754,56.8958921 C13.9087338,56.7531164 14.1400185,56.6985936 14.1127542,56.4945953 C14.0854898,56.290597 13.7996765,55.936661 13.5071627,55.501403 C13.2144177,55.066145 12.9152033,54.5491029 12.7178835,54.1750675 C12.5205638,53.801032 12.4253697,53.5695413 12.3981054,53.2227673 C12.370841,52.8757622 12.4117375,52.4132428 12.2349815,52.1480219 C12.0579945,51.882801 11.6633549,51.8146476 11.323244,51.6718718 C10.9831331,51.5288651 10.6973198,51.3112361 10.5203327,51.141199 C10.3433457,50.9711619 10.2754159,50.8487167 10.1802218,50.5765649 C10.0847967,50.3044132 9.96256932,49.8827858 10.0168669,49.5563423 C10.0711645,49.2296678 10.3024492,48.9984081 10.418207,48.6925261 C10.5337338,48.3864132 10.5337338,48.0054469 10.4591035,47.740226 C10.3842421,47.4750051 10.2345194,47.3252985 9.96256932,47.2638449 C9.69038817,47.2026223 9.29574861,47.2298836 8.98960259,47.1483305 C8.68345656,47.0665464 8.46580407,46.8761788 8.26178373,46.6721804 C8.0577634,46.4681821 7.86714418,46.2503221 7.81954713,46.0532546 C7.77171904,45.8559562 7.86714418,45.6789882 7.97597043,45.5429123 C8.08479667,45.4070675 8.20725508,45.3118836 8.26848429,45.0803929 C8.32971349,44.8491332 8.32971349,44.4817976 8.48613678,44.2641686 C8.64256007,44.0465396 8.95563771,43.9783862 9.30268022,43.7880185 C9.64949168,43.5974199 10.0304991,43.2846071 10.4591035,42.7881265 C10.8877079,42.2916459 11.3639094,41.6112664 11.7992144,41.2303002 C12.2345194,40.8493339 12.629159,40.7677808 12.9286044,40.890226 C13.2278189,41.0126712 13.4318392,41.3391147 13.5542976,41.6588583 C13.676756,41.978602 13.7176525,42.2914148 13.8671442,42.4274907 C14.0166359,42.5635666 14.2754159,42.5226745 14.5134011,42.41386 C14.7516174,42.3050455 14.9692699,42.1280776 15.2481516,42.0465245 C15.5270333,41.9647403 15.8671442,41.978602 16.2957486,42.0328938 C16.724353,42.0874165 17.24122,42.1826003 17.6088262,42.1689696 C17.9762015,42.1551079 18.193854,42.0328938 18.3435767,41.8219646 C18.4930684,41.6110354 18.5748614,41.3118533 18.7245841,41.0736627 C18.8740758,40.8354722 19.0919593,40.6587352 19.3301756,40.5362901 C19.5681608,40.4138449 19.8267098,40.3456914 19.9560998,40.0804705 C20.0852588,39.8152496 20.0854898,39.3527302 20.2077172,38.9990253 C20.3299445,38.6453204 20.5750924,38.40043 20.8812384,38.2643541 C21.1873845,38.1282782 21.5547597,38.1010169 21.9833641,37.965172 C22.4119686,37.8293272 22.9018022,37.5842057 23.2895102,37.2101703 C23.6774492,36.8359039 23.9630314,36.3324924 24.2488447,35.8769039 C24.534427,35.4210843 24.8204713,35.0130877 24.969963,34.5505683 C25.1194547,34.0880489 25.1333179,33.5710067 25.1945471,33.2718246 C25.2557763,32.9726425 25.3646026,32.8908583 25.6504159,32.863597 C25.9359982,32.8363356 26.3987985,32.863597 26.7185767,32.863597 C27.0383549,32.863597 27.2151109,32.8363356 27.3308688,32.6801602 C27.4463956,32.5235228 27.5006932,32.2377403 27.6573475,32.122226 C27.8137708,32.0067116 28.0723198,32.0610034 28.1402495,31.8570051 C28.2084104,31.6527757 28.0859519,31.1902563 28.0995841,30.856882 C28.1132163,30.5235076 28.262939,30.3195093 28.7051756,29.9658044 C29.1474122,29.6120995 29.8821627,29.108688 30.3652957,28.7413524 C30.8484288,28.3740169 31.0794824,28.1427572 31.038817,27.9727201 C30.9979205,27.802683 30.6850739,27.6936374 30.5898799,27.5169005 C30.4946858,27.3401636 30.6171442,27.0952732 30.7735675,26.8367521 C30.9299908,26.578231 31.12061,26.3063103 31.1342421,26.0477892 C31.1478743,25.7892681 30.9845194,25.5443777 30.8689926,25.3198179 C30.7532348,25.095258 30.685305,24.8914907 30.7599353,24.7688145 C30.8345656,24.6461383 31.0524492,24.6054772 31.379159,24.3605868 C31.7056377,24.1156965 32.1409427,23.6668078 32.5288817,23.4967707 C32.9165896,23.3267336 33.2567006,23.4355481 33.5628466,23.4355481 C33.8689926,23.4355481 34.1411738,23.3267336 34.2772643,23.0682125 C34.4133549,22.8096914 34.4133549,22.4016948 34.2296673,22.1092125 C34.0459797,21.8167302 33.6786044,21.6397622 33.2908965,21.5242479 C32.9029575,21.4087336 32.4949168,21.3542108 32.1751386,21.3542108 C31.8553604,21.3542108 31.6240758,21.4085025 31.5288817,21.299688 C31.4336876,21.1908735 31.4745841,20.9189528 31.508549,20.6126088 C31.5425139,20.3064958 31.5697782,19.9664216 31.3997227,19.8509073 C31.2296673,19.7353929 30.8622921,19.8439764 30.5358133,19.7487926 C30.2091035,19.6533777 29.9235213,19.3541956 29.5970425,19.1296358 C29.2703327,18.9050759 28.9031885,18.7553693 28.5628466,18.6262243 C28.2225046,18.4968482 27.909658,18.3880337 27.7601664,18.1297437 C27.6104436,17.8712226 27.6240758,17.4629949 27.6513401,17.1434823 C27.6786044,16.8237386 27.7192699,16.5924789 27.732902,16.2660354 C27.7465342,15.9393609 27.732902,15.5177336 27.7123383,15.1028061 C27.6920055,14.6878786 27.6647412,14.2796509 27.5695471,13.8307622 C27.474353,13.3818735 27.3109982,12.8920927 27.2497689,12.4295734 C27.1885397,11.967054 27.2294362,11.5315649 27.3315619,11.3684587 C27.4334566,11.2051214 27.5968115,11.3141669 27.8350277,11.3481282 C28.0730129,11.3820894 28.3860906,11.3411973 28.556146,11.1032378 C28.7262015,10.8652782 28.7534658,10.4297892 28.8826248,10.2597521 C29.0120148,10.089715 29.2432994,10.1848988 29.5288817,10.1918297 C29.814695,10.1985295 30.1545749,10.1169764 30.3451941,9.85175548 C30.5355823,9.58653457 30.5764787,9.13741484 30.4812847,8.95374705 C30.3858595,8.77007926 30.1545749,8.85163238 29.9507856,8.77677909 C29.7467652,8.7019258 29.5697782,8.4706661 29.3657579,8.3142597 C29.1617375,8.15762226 28.9304529,8.07606914 28.8759242,7.96725464 C28.8213956,7.85844013 28.943854,7.72236425 29.0529113,7.55255818 C29.1617375,7.38252108 29.2569316,7.17829174 29.1684381,7.03551602 C29.0799445,6.8927403 28.8077634,6.81095616 28.556146,6.79062563 C28.3042976,6.77029511 28.0730129,6.81095616 27.7941312,6.69544182 C27.5152495,6.57969646 27.1885397,6.30754469 27.0117837,6.04925464 C26.8347967,5.79073356 26.8077634,5.54561214 26.6310074,5.45065936 C26.4540203,5.35547555 26.1275416,5.40976728 25.7941312,5.43032884 C25.4607209,5.45065936 25.12061,5.43702867 24.9165896,5.20576897 C24.7125693,4.97450927 24.6444085,4.52562057 24.6444085,4.16498482 C24.6444085,3.80434907 24.7123383,3.53242833 24.9029575,3.39635245 C25.0933457,3.26027656 25.4061922,3.26027656 25.7056377,3.08353963 C26.0048521,2.90657167 26.2906654,2.55286678 26.5152495,2.25368465 C26.7398336,1.9542715 26.9029575,1.70961214 27.1615065,1.57330523 C27.4200555,1.43746037 27.7737985,1.41019899 28.2160351,1.45109106 C28.6580407,1.49175211 29.1887708,1.60056661 29.4951479,1.53934401 C29.8012939,1.47812142 29.8828558,1.24686172 29.8079945,0.995271501 C29.7331331,0.743450253 29.5018484,0.471298482 29.5291128,0.335453626 C29.5563771,0.19937774 29.8419593,0.19937774 30.1686691,0.328522766 C30.4951479,0.45789882 30.8625231,0.71618887 31.2028651,0.71618887 C31.543207,0.71618887 31.8560536,0.457667791 32.2640943,0.328522766 C32.672366,0.19937774 33.1756007,0.19937774 33.6178373,0.260600337 C34.0600739,0.321822934 34.4410813,0.444268128 34.8424214,0.512190556 C35.2437616,0.579881956 35.6656654,0.593743676 35.8902495,0.743219224 C36.1148336,0.892694772 36.1418669,1.17847723 36.2167283,1.43029848 C36.2915896,1.6818887 36.4140481,1.89974874 36.5977357,1.92031029 C36.7814233,1.94064081 37.0263401,1.76367285 37.2372921,1.82489545 C37.448244,1.88611804 37.6252311,2.1855312 37.7816543,2.5731973 C37.9380776,2.96086341 38.0741682,3.43724452 38.2985213,3.70916526 C38.5231054,3.981086 38.8359519,4.04923946 39.1626617,4.08320067 C39.4891405,4.11716189 39.8292514,4.11716189 39.9720425,4.24653794 C40.1148336,4.375914 40.060536,4.63420405 40.189695,4.7635801 C40.318854,4.89295616 40.6319316,4.89295616 40.7613216,5.05629342 C40.8904806,5.21939966 40.836183,5.5460742 40.9246765,5.83855649 C41.0131701,6.13103879 41.2444547,6.38955987 41.6321627,6.49167454 C42.0198706,6.59378921 42.5642329,6.53926644 42.965573,6.63445025 C43.3669131,6.72963406 43.6254621,6.97452445 43.707024,7.15819224 C43.788586,7.34186003 43.6933919,7.46430523 43.7003235,7.6140118 C43.7072551,7.76371838 43.8158503,7.94068634 44.1695933,8.00190894 C44.5233364,8.06313153 45.1222274,8.00860877 45.5235675,7.89309444 C45.9249076,7.77734907 46.1289279,7.60061214 46.4011091,7.52575885 C46.6732902,7.45090556 47.0134011,7.47816695 47.3738447,7.35572175 C47.7345194,7.23327656 48.1152957,6.96112479 48.5371996,6.85231029 C48.9591035,6.74349578 49.4216728,6.79801855 49.7687153,6.79801855 C50.1157579,6.79801855 50.3468115,6.74372681 50.5034658,6.63468128 C50.6598891,6.52586678 50.7416821,6.36252951 50.9184381,6.33549916 C51.0954251,6.30823777 51.3673752,6.41705228 51.6462569,6.58038954 C51.9251386,6.74372681 52.2107209,6.96135582 52.5850277,7.06347049 C52.9591035,7.16558516 53.4219039,7.15195447 53.6871534,7.26076897 C53.952403,7.36958347 54.0203327,7.60084317 54.1973198,7.79814165 C54.3743068,7.99544013 54.6598891,8.15854637 54.8435767,8.30155312 C55.0272643,8.44432884 55.1088262,8.56677403 55.0815619,8.69615008 C55.0542976,8.82529511 54.918207,8.96137099 54.8639094,9.19956155 C54.8093808,9.43775211 54.8366451,9.77759528 54.7754159,10.0361164 C54.7141867,10.2946374 54.564464,10.4713744 54.4963031,10.6756037 C54.4283734,10.879602 54.4420055,11.1108617 54.3604436,11.3150911 C54.2786506,11.5190894 54.1018946,11.6958263 53.9727357,11.8457639 C53.8433457,11.9952395 53.7617837,12.1176847 53.612061,12.1925379 C53.4625693,12.2673912 53.2446858,12.2944216 53.0882625,12.4237976 C52.9318392,12.5531737 52.8366451,12.7844334 52.6529575,12.9339089 C52.4692699,13.0833845 52.1970887,13.1515379 52.0679298,13.4440202 C51.9387708,13.7365025 51.952403,14.2535447 51.8639094,14.6003187 C51.7754159,14.9473238 51.5847967,15.1242917 51.2858133,15.2194755 C50.9863678,15.3146594 50.5780961,15.3282901 50.2516174,15.2603676 C49.9249076,15.1924452 49.6799908,15.0427386 49.5778651,15.1175919 C49.4757394,15.1924452 49.5166359,15.4916273 49.6460259,15.7841096 C49.7751848,16.0765919 49.9928373,16.3623744 50.0406654,16.6003339 C50.0884935,16.8382934 49.9658041,17.0288921 49.7617837,17.1444064 C49.5577634,17.2599207 49.2719501,17.3008128 49.224353,17.4844806 C49.176525,17.6681484 49.3671442,17.9945919 49.6799908,18.2055211 C49.9928373,18.4164503 50.4283734,18.5116341 50.7278189,18.5864874 C51.0270333,18.6613406 51.1903882,18.7158634 51.1970887,18.8722698 C51.2037893,19.0286762 51.0540665,19.2871973 50.9861368,19.5117572 C50.918207,19.736086 50.9316081,19.9266847 51.1016636,20.1988364 C51.271719,20.4707572 51.5984288,20.8246931 51.6527264,21.0864486 C51.707024,21.3484351 51.4893715,21.5184722 51.2989834,21.5965599 C51.1083641,21.6746476 50.9452403,21.6610169 50.7955176,21.7631315 C50.6457948,21.8650152 50.5099353,22.0828752 50.3770795,22.1983895 C50.2444547,22.3139039 50.1152957,22.3277656 49.9824399,22.4534452 C49.8498152,22.5791248 49.7137246,22.8173153 49.5436691,22.9600911 C49.3736137,23.1028668 49.1695933,23.1504587 48.9551756,23.0656712 C48.7409889,22.9806526 48.5164048,22.7627926 48.4041128,22.5419292 C48.2920518,22.3208347 48.2920518,22.0962749 48.2682532,21.9059073 C48.2444547,21.7155396 48.1966266,21.5591332 48.0268022,21.5217066 C47.8567468,21.4840489 47.5640018,21.5658331 47.3599815,21.6746476 C47.1559612,21.7834621 47.0402033,21.9195379 47.0573013,22.0828752 C47.0741682,22.2462125 47.2238909,22.4365801 47.3123845,22.5862867 C47.400878,22.7359933 47.4279113,22.8448078 47.3872458,22.9741838 C47.3463494,23.1033288 47.2375231,23.2530354 47.2647874,23.4265379 C47.2920518,23.5998094 47.4551756,23.7971079 47.5607671,24.0115025 C47.6661275,24.2256661 47.7137246,24.4569258 47.771719,24.6167976 C47.8294824,24.7766695 47.8974122,24.8651535 47.9757394,25.0079292 C48.0538355,25.1507049 48.142329,25.3480034 48.2104898,25.5249713 C48.2784196,25.7019393 48.3260166,25.8581147 48.3193161,26.0350826 C48.3123845,26.2120506 48.2511553,26.4093491 48.1661275,26.5486594 C48.0810998,26.6882007 47.9722736,26.7697538 48.0198706,26.956887 C48.0674677,27.1437892 48.271488,27.4365025 48.3974122,27.6303356 C48.5231054,27.8241686 48.5709335,27.9191214 48.6457948,27.8613642 C48.7206562,27.8036071 48.8227819,27.5926779 48.9348429,27.4226408 C49.0471349,27.2526037 49.1695933,27.1234587 49.2920518,27.1472546 C49.4145102,27.1710506 49.5369686,27.3477875 49.6457948,27.5078904 C49.7546211,27.6675312 49.8498152,27.8105379 49.9145102,27.9976712 C49.9792052,28.1848044 50.0131701,28.4160641 50.1663586,28.6473238 C50.3193161,28.8785835 50.5914972,29.1098432 50.8160813,29.3138415 C51.0404344,29.5178398 51.2174214,29.6948078 51.3740758,29.7015076 C51.5304991,29.7082074 51.6665896,29.5451012 51.8366451,29.4600826 C52.0067006,29.3750641 52.2109519,29.3681332 52.3230129,29.4804132 C52.4350739,29.5924621 52.4556377,29.8237218 52.5577634,30.0006897 C52.659658,30.1776577 52.8435767,30.2998718 53.0577634,30.3543946 C53.2719501,30.4089174 53.5168669,30.3952867 53.6259242,30.4803052 C53.7347505,30.5653238 53.7074861,30.7489916 53.7245841,30.9973474 C53.7416821,31.2457032 53.8026802,31.558516 53.9082717,31.7012917 C54.0136322,31.8440675 54.1633549,31.8168061 54.3981054,31.8135717 C54.6328558,31.8101062 54.952634,31.8304368 55.2315157,31.9360169 C55.5103974,32.041597 55.7486137,32.2319646 55.8641405,32.388371 C55.9796673,32.5447774 55.9729667,32.6672226 56.0478281,32.7557066 C56.1226895,32.8441906 56.2791128,32.8984823 56.387939,32.9428398 C56.4967652,32.9871973 56.5579945,33.0209275 56.6719039,33.0839983 C56.7858133,33.1470691 56.9528651,33.2387875 57.051525,33.3478331 C57.1501848,33.4566476 57.180915,33.5825582 57.1127542,33.6523288 C57.0448244,33.7220995 56.8780037,33.7354992 56.7268946,33.7967218 C56.5753235,33.8579444 56.4392329,33.9667589 56.3560536,34.1028347 C56.2726433,34.2389106 56.2419131,34.4020169 56.1109057,34.4787184 C55.9798983,34.5551889 55.7488447,34.5450236 55.6125231,34.6268078 C55.4764325,34.7083609 55.4357671,34.8818634 55.3914048,35.0163221 C55.3472736,35.1507808 55.2994455,35.2459646 55.1839187,35.305339 C55.0681608,35.3649444 54.8844732,35.3887403 54.7908965,35.5095683 C54.6973198,35.6301653 54.694085,35.8480253 54.7058688,36.0164452 C54.7178835,36.1848651 54.7449168,36.3038449 54.7128004,36.385398 C54.6804529,36.4669511 54.5887246,36.5113086 54.4662662,36.570914 C54.3438078,36.6302884 54.1906192,36.7051417 54.1344732,36.8021737 C54.0783272,36.8989747 54.1192237,37.0181855 54.1769871,37.1609612 C54.2347505,37.3037369 54.3096118,37.4703086 54.3574399,37.5996847 C54.405037,37.7290607 54.4253697,37.8207791 54.3574399,37.9124975 C54.2895102,38.0042159 54.1328558,38.0961653 54.0360444,38.2236931 C53.9390018,38.3512209 53.9015712,38.5143272 53.7996765,38.650403 C53.6977819,38.7864789 53.5309612,38.8955245 53.4068854,39.0399174 C53.2825786,39.1843103 53.2010166,39.3647437 53.1534196,39.4855717 C53.1058226,39.6063997 53.0921904,39.6676223 53.099122,39.7628061 C53.1058226,39.8582209 53.1330869,39.987597 53.228512,40.1234418 C53.3239372,40.2595177 53.487061,40.4025245 53.7148799,40.575796 C53.9426987,40.7490675 54.2352126,40.9532968 54.3782348,40.9805582 C54.5210259,41.0078196 54.5143253,40.858113 54.5755545,40.7356678 C54.6370148,40.6132226 54.7661738,40.5180388 54.8648336,40.552 C54.9634935,40.5859612 55.0314233,40.7492985 55.1266174,40.8920742 C55.2218115,41.0348499 55.3442699,41.1572951 55.5348891,41.2661096 C55.7252773,41.3749241 55.9838262,41.4701079 56.2287431,41.5484266 C56.4736599,41.6267454 56.7049445,41.687968 56.8341035,41.7764519 C56.9634935,41.8647049 56.9907579,41.9804503 57.1266174,42.0384384 C57.2627079,42.0961956 57.5076248,42.0961956 57.5961183,42.2084755 C57.6843808,42.3207555 57.616451,42.5453153 57.6028189,42.7322175 C57.5891867,42.9193508 57.6298521,43.0690573 57.7354436,43.1201147 C57.8410351,43.171172 58.0108595,43.1235801 58.1437153,43.1337454 C58.2763401,43.1439106 58.3715342,43.2118331 58.5281885,43.3446745 C58.6846118,43.477285 58.9022643,43.6745835 59.1538817,43.8820472 C59.4054991,44.089511 59.6913124,44.30714 59.892098,44.436516 C60.0926525,44.565661 60.2084104,44.6065531 60.3581331,44.5386307 C60.5076248,44.4704772 60.6915434,44.2935093 60.8821627,44.2731788 C61.0725508,44.2528482 61.2698706,44.3889241 61.4671904,44.5282344 C61.6645102,44.6677757 61.8618299,44.8105514 62.0487523,44.960258 C62.2359057,45.1097336 62.4126617,45.266371 62.538586,45.3513895 C62.6642791,45.4364081 62.7393715,45.4500388 62.8209335,45.395516 C62.9024954,45.3409933 62.9907579,45.2185481 63.1236137,45.1607909 C63.2562384,45.1030337 63.4332255,45.1097336 63.5351201,45.1674907 C63.6372458,45.2252479 63.6645102,45.3340624 63.6746765,45.4939342 C63.6850739,45.6538061 63.6783734,45.8645042 63.7086414,46.0211417 C63.7393715,46.1775481 63.8075323,46.2796627 64.0046211,46.3066931 C64.2019409,46.3339545 64.5286506,46.2863626 64.7019409,46.3066931 C64.8754621,46.3272546 64.8960259,46.4155076 65.038817,46.4393035 C65.1816081,46.4633305 65.4470887,46.4222074 65.6134473,46.4935953 C65.780268,46.5649831 65.8484288,46.7486509 65.9230591,46.8814924 C65.9979205,47.0141029 66.0797135,47.095656 66.1816081,47.0787909 C66.2835028,47.0616948 66.4061922,46.9459494 66.5013863,46.8304351 C66.5965804,46.7149207 66.6647412,46.5991754 66.7428373,46.5243221 C66.8211645,46.4494688 66.909658,46.4155076 67.0695471,46.4291383 C67.2292052,46.442769 67.4604898,46.5039916 67.6069778,46.5924755 C67.7532348,46.6809595 67.8142329,46.7964739 67.9163586,46.8646273 C68.0184843,46.9325497 68.1615065,46.9531113 68.3042976,46.9223845 C68.4470887,46.8916577 68.5901109,46.8101046 68.7532348,46.7625126 C68.9163586,46.7149207 69.1002773,46.7012901 69.2192699,46.6670978 C69.3384935,46.6331366 69.3927911,46.5788449 69.4574861,46.48343 C69.5219501,46.3880152 69.5970425,46.2521703 69.7192699,46.2385396 C69.8417283,46.2249089 70.0120148,46.3339545 70.137939,46.4561686 C70.2636322,46.5786138 70.3451941,46.7146897 70.4475508,46.8304351 C70.5494455,46.9459494 70.6721349,47.0411332 70.8962569,47.0921906 C71.1210721,47.1432479 71.4475508,47.1499477 71.6446396,47.1638094 C71.8419593,47.1774401 71.9098891,47.1975396 71.9133549,47.289489 C71.9168207,47.3812074 71.8555915,47.5445447 71.8417283,47.7656391 C71.8280961,47.9867336 71.8622921,48.2655852 71.8521257,48.4425531 C71.8419593,48.6195211 71.7874307,48.6941433 71.8657579,48.7553659 C71.944085,48.8165885 72.155037,48.8641804 72.3724584,48.884742 C72.5901109,48.9050725 72.814695,48.8983727 72.9949168,48.9323339 C73.1751386,48.9662951 73.3112292,49.0411484 73.413586,49.167059 C73.5154806,49.2927386 73.5834104,49.4697066 73.7363678,49.5343946 C73.8895564,49.5990826 74.1275416,49.5512597 74.267098,49.6092479 C74.4066543,49.6672361 74.4475508,49.8303423 74.5459797,49.9017302 C74.6448706,49.973118 74.8010628,49.9527875 74.9780499,49.867769 C75.155037,49.7827504 75.3521257,49.6330438 75.5154806,49.5071332 C75.6788355,49.3812226 75.8079945,49.279339 75.9269871,49.2587774 C76.0459797,49.2382159 76.1548059,49.2994384 76.2058688,49.3779882 C76.2571627,49.4560759 76.25,49.5512597 76.2467652,49.7485582 C76.2432994,49.9458567 76.2432994,50.2450388 76.3590573,50.4118415 C76.4745841,50.5786442 76.7058688,50.6126054 76.8692237,50.6193052 C77.0325786,50.6260051 77.1277726,50.6056745 77.2264325,50.5174216 C77.3250924,50.4291686 77.4269871,50.2725312 77.5392791,50.2217049 C77.6515712,50.1708786 77.7740296,50.2251703 77.8826248,50.2896273 C77.9916821,50.3543153 78.0868762,50.4291686 78.2705638,50.45643 C78.4542514,50.4836914 78.7264325,50.4631298 78.9678835,50.4938567 C79.2095656,50.5243524 79.4205176,50.6061366 79.5975046,50.7216509 C79.7744917,50.8373963 79.9172828,50.9871029 80.0533734,51.0857521 C80.189464,51.1844013 80.3183919,51.2319933 80.4886784,51.2456239 C80.6587338,51.2592546 80.8696858,51.2389241 81.0127079,51.1435093 C81.1554991,51.0483255 81.2303604,50.8782884 81.3867837,50.7151821 C81.5434381,50.5518449 81.7814233,50.3954384 81.9004159,50.3885076 C82.0196396,50.3815767 82.0196396,50.5243524 82.0637708,50.7114857 C82.107902,50.8986189 82.1963956,51.1298786 82.318854,51.2999157 C82.4413124,51.4699528 82.5977357,51.5787673 82.7303604,51.5584368 C82.8629852,51.5381062 82.9718115,51.3883997 83.0977357,51.3135464 C83.2236599,51.2386931 83.366451,51.2386931 83.5127079,51.2897504 C83.6589649,51.3408078 83.8086876,51.4429224 83.9343808,51.4292917 C84.060305,51.41543 84.1621996,51.286285 84.2915896,51.2047319 C84.4209797,51.1229477 84.577403,51.0892175 84.706793,51.0956863 C84.836183,51.1026172 84.9380776,51.1502091 85.0399723,51.1365784 C85.1418669,51.1229477 85.2442237,51.0480944 85.366451,51.1127825 C85.4889094,51.1774705 85.6317006,51.3814688 85.7236599,51.3643727 C85.8153882,51.3472766 85.8562847,51.109317 85.8461183,50.9323491 C85.8359519,50.7553811 85.7747227,50.6396358 85.8290203,50.585575 C85.883549,50.5310523 86.0536044,50.5379831 86.172597,50.4257032 C86.2915896,50.3134233 86.3597505,50.0821636 86.4244455,49.9426223 C86.4889094,49.8030809 86.5501386,49.755489 86.5263401,49.6466745 C86.5023105,49.53786 86.3937153,49.3675919 86.3528189,49.2044857 C86.3119224,49.0413794 86.3391867,48.884742 86.2335952,48.6909089 C86.1282348,48.4970759 85.8902495,48.2658162 85.7982902,48.0447218 C85.7063309,47.8236273 85.7608595,47.6126981 85.8151571,47.2693895 C85.8694547,46.9258499 85.9239834,46.4496998 85.9410813,46.0925295 C85.9579482,45.7353592 85.9376155,45.4971686 86.0228743,45.2659089 C86.107902,45.0346492 86.2982902,44.8100894 86.36622,44.5721298 C86.4343808,44.3341703 86.3800832,44.0823491 86.4886784,43.9259427 C86.5977357,43.7695363 86.8696858,43.7083137 87.2097967,43.5553727 C87.5501386,43.4022007 87.9581793,43.1573103 88.284658,43.0621265 C88.6111368,42.9667116 88.8562847,43.0212344 89.0365065,43.1436796 C89.2167283,43.2661248 89.3324861,43.4564924 89.4105823,43.7115481 C89.4889094,43.9666037 89.5298059,44.2863474 89.5263401,44.5483339 C89.5228743,44.8100894 89.4750462,45.0140877 89.3562847,45.2113862 C89.2372921,45.4086847 89.0466728,45.5990523 89.0092421,45.8099815 C88.9718115,46.0209106 89.0875693,46.2521703 89.2439926,46.4323727 C89.400647,46.612575 89.5977357,46.7419511 89.607902,46.9290843 C89.6182994,47.1162175 89.4413124,47.3611079 89.3699168,47.619629 C89.2982902,47.8781501 89.3324861,48.1500708 89.5637708,48.4663491 C89.7950555,48.7826273 90.2236599,49.1432631 90.5196396,49.2114165 C90.8156192,49.279339 90.9789741,49.0547791 91.2035582,48.9461956 C91.4281423,48.8373811 91.7137246,48.8440809 91.965573,48.949661 C92.2171904,49.0550101 92.4348429,49.2592395 92.6968577,49.4156459 C92.9588725,49.5720523 93.2647874,49.6808668 93.5575323,49.6875666 C93.8500462,49.6944975 94.129159,49.5993137 94.4420055,49.4496071 C94.7548521,49.2999005 95.1016636,49.0956712 95.3128466,48.8510118 C95.5235675,48.6061214 95.5981978,48.320339 95.7580869,48.2184553 C95.9177449,48.1163406 96.1626617,48.1981248 96.3803142,48.3409005 C96.5979667,48.4836762 96.788817,48.6876745 97.1150647,48.8715734 C97.4417745,49.0552411 97.9043438,49.2183474 98.4283734,49.3001315 C98.9521719,49.3816847 99.5371996,49.3816847 99.8297135,49.2592395 C100.122227,49.1367943 100.122458,48.8919039 100.292283,48.7967201 C100.462338,48.7013052 100.802449,48.756059 101.040665,48.844543 C101.278651,48.932796 101.414741,49.0552411 101.577865,48.9940185 C101.74122,48.932796 101.931839,48.6879056 102.156192,48.6403137 C102.380776,48.5927218 102.639325,48.7424283 102.850277,48.7627589 C103.060998,48.7830894 103.224353,48.6742749 103.26525,48.4836762 C103.306146,48.2933086 103.224353,48.0211568 103.101895,47.8169275 C102.979667,47.6129292 102.816312,47.4768533 102.816312,47.2864857 C102.816312,47.095887 102.979667,46.8509966 103.013632,46.6333676 C103.047597,46.4157386 102.952403,46.22514 102.836645,46.0959949 C102.721118,45.9668499 102.585028,45.8986965 102.421673,45.9465194 C102.258549,45.9941113 102.06793,46.1574486 101.884242,46.1438179 C101.700555,46.1301872 101.523567,45.9395885 101.292283,45.7968128 C101.060998,45.6540371 100.775416,45.5588533 100.646026,45.307032 C100.516636,45.0552108 100.544131,44.6472142 100.591728,44.3750624 C100.639325,44.1029106 100.707255,43.9668347 100.931839,44.0280573 C101.156423,44.0892799 101.537431,44.347801 101.843577,44.4226543 C102.149492,44.4975076 102.380776,44.3886931 102.60536,44.2253558 C102.829945,44.0620185 103.047597,43.8443895 103.306146,43.8104283 C103.564464,43.7764671 103.863909,43.9259427 104.183688,43.9534351 C104.503466,43.9806965 104.843577,43.8855126 105.102126,43.7358061 C105.360675,43.5860995 105.537662,43.3821012 105.449168,43.2323946 C105.360675,43.082688 105.006932,42.9875042 104.945702,42.8514283 C104.884473,42.7153524 105.115758,42.5386155 105.428604,42.3343862 C105.741451,42.1303879 106.136322,41.8991282 106.408272,41.688199 C106.680453,41.4772698 106.830176,41.2869022 106.904806,41.0214503 C106.979667,40.7562293 106.979667,40.4159241 107.006932,40.1846644 C107.033965,39.9534047 107.088725,39.8309595 107.238216,39.7969983 C107.387708,39.7630371 107.632856,39.8173288 107.979667,39.8173288 C108.32671,39.8173288 108.775647,39.7630371 109.224815,39.5114469 C109.673752,39.2596256 110.122689,38.8107369 110.503697,38.3754789 C110.884704,37.9399899 111.197551,37.5183626 111.394871,37.239511 C111.59219,36.9606594 111.673752,36.8245835 111.809843,36.844914 C111.945933,36.8652445 112.136553,37.0422125 112.306377,36.9807589 C112.476433,36.9195363 112.626386,36.6203541 112.810074,36.4979089 C112.99353,36.3754637 113.211414,36.4297555 113.347274,36.5794621 C113.483364,36.7289376 113.537893,36.974059 113.748614,37.0419815 C113.959566,37.1099039 114.326941,37.0013204 114.660351,37.0149511 C114.99353,37.0285818 115.292745,37.1644266 115.544593,37.280172 C115.796442,37.3956863 116.000462,37.4911012 116.163817,37.3344637 C116.326941,37.1780573 116.449399,36.7698297 116.640018,36.4773474 C116.830638,36.1848651 117.088956,36.0078971 117.402033,35.7493761 C117.71488,35.490855 118.082255,35.1507808 118.306839,35.0895582 C118.531423,35.0283356 118.612985,35.2459646 118.762708,35.4296324 C118.912431,35.6133002 119.130083,35.7630067 119.354667,35.83786 C119.579482,35.9127133 119.810536,35.9127133 119.695009,36.0011973 C119.579482,36.0894503 119.116682,36.2664182 118.90573,36.4909781 C118.694778,36.7155379 118.735906,36.9874587 118.8311,37.2323491 C118.926294,37.4772395 119.076248,37.6948685 119.219039,37.6472766 C119.36183,37.5996847 119.497689,37.2866408 119.735906,37.0962732 C119.973891,36.9059056 120.314233,36.8377521 120.504621,36.9601973 C120.695009,37.0826425 120.735906,37.3954553 120.824399,37.6200152 C120.912893,37.844575 121.048983,37.9806509 121.137246,38.1030961 C121.225739,38.2255413 121.266636,38.3343558 121.116682,38.4771315 C120.96719,38.6199073 120.627079,38.7968752 120.395564,39.0824266 C120.16451,39.3682091 120.042052,39.7628061 120.062384,40.028027 C120.082948,40.2932479 120.246072,40.4293238 120.416128,40.3408398 C120.586183,40.2523558 120.76317,39.939312 120.953558,39.721683 C121.143946,39.504054 121.347967,39.3816088 121.457024,39.41557 C121.56585,39.4495312 121.579251,39.6401298 121.722274,39.7489444 C121.865065,39.8577589 122.137246,39.8847892 122.402495,39.8984199 C122.667745,39.9120506 122.926525,39.9120506 123.191543,39.9051197 C123.456793,39.8984199 123.728974,39.8847892 123.953558,39.9663423 C124.178142,40.0478954 124.354898,40.2248634 124.511553,40.4967841 C124.667976,40.7689359 124.804067,41.1362715 124.858364,41.4354536 C124.912662,41.7346358 124.885628,41.9658954 124.749538,42.0885717 C124.613447,42.2110169 124.36853,42.2246476 124.116913,42.3401619 C123.865065,42.4556762 123.606516,42.6735363 123.436691,42.904796 C123.266636,43.1360556 123.184843,43.380946 123.16451,43.6528668 C123.143946,43.9250185 123.184843,44.2244317 123.409427,44.5099831 C123.634011,44.7955346 124.042052,45.0676863 124.266636,45.3192766 C124.49122,45.5710978 124.531885,45.8021265 124.409427,45.9654637 C124.2872,46.128801 124.001155,46.2239848 123.75647,46.128801 C123.511322,46.0336172 123.307532,45.7478347 123.137246,45.5574671 C122.967421,45.3668685 122.8311,45.2716847 122.593115,45.2173929 C122.355129,45.1628702 122.014787,45.1492395 121.702172,45.2104621 C121.389325,45.2716847 121.103281,45.4077605 120.756238,45.516575 C120.409196,45.6253895 120.001155,45.7071737 119.661044,45.911172 C119.320933,46.1151703 119.048983,46.4416138 118.858133,46.6798044 C118.667745,46.9179949 118.558919,47.0677015 118.320702,47.2513693 C118.082717,47.4350371 117.715342,47.6526661 117.456793,47.9111872 C117.198475,48.1697083 117.048521,48.4688904 116.871765,48.6252968 C116.695009,48.7817032 116.490989,48.7953339 116.307301,48.9790017 C116.123614,49.1626695 115.96049,49.5163744 115.933226,49.8906408 C115.905961,50.2646762 116.015018,50.6592732 116.116913,50.9653862 C116.218808,51.2714992 116.314233,51.4891282 116.246303,51.6524654 C116.178142,51.8158027 115.946858,51.9246172 115.878928,52.108054 C115.810998,52.2917218 115.905961,52.5504739 115.838031,52.7817336 C115.770102,53.0129933 115.538817,53.2169916 115.354898,53.4142901 C115.171211,53.6115885 115.03512,53.8019562 114.878697,54.0061855 C114.722043,54.2101838 114.545287,54.4280438 114.382163,54.6729342 C114.218808,54.9178246 114.069316,55.1897454 114.184843,55.3667133 C114.300601,55.5436813 114.681377,55.6252344 114.878928,55.774941 C115.076248,55.9246476 115.08988,56.1422766 114.987754,56.3804671 C114.88586,56.6184266 114.667976,56.8769477 114.463956,57.2713137 C114.259704,57.6659106 114.069316,58.1965835 113.865065,58.6454722 C113.661044,59.0943609 113.443392,59.4616965 113.252773,59.7678094 C113.062384,60.0739224 112.899261,60.3188128 112.810767,60.6316256 C112.722274,60.9444384 112.708872,61.3254047 112.606516,61.5093035 C112.504621,61.6927403 112.314002,61.6793406 112.109982,61.5705261 C111.905961,61.4617116 111.688309,61.2577133 111.504621,61.2168212 C111.320933,61.1761602 111.171442,61.2986054 110.885397,61.3392664 C110.599815,61.3801585 110.177911,61.3392664 109.912662,61.2440826 C109.647412,61.1486678 109.538586,60.9989612 109.395795,60.9786307 C109.252773,60.9583002 109.076017,61.0671147 109.109982,61.359597 C109.143946,61.6520793 109.388863,62.1282293 109.552218,62.4888651 C109.715342,62.8492698 109.797366,63.0943912 109.838031,63.2847589 C109.878697,63.4753575 109.878697,63.6112024 109.899261,64.0124992 C109.919593,64.413796 109.96049,65.0805447 109.919593,65.4206189 C109.878697,65.7606931 109.756238,65.7743238 109.647412,65.8831383 C109.538586,65.9919528 109.443392,66.1959511 109.211876,66.2710354 C108.980591,66.3458887 108.613216,66.2913659 108.443392,66.3528196 C108.273336,66.4140422 108.300601,66.5907791 108.402495,66.7065245 C108.50439,66.8220388 108.681377,66.8765616 108.776571,67.0671602 C108.871765,67.2575278 108.885397,67.5842024 108.892329,67.8833845 C108.89903,68.1825666 108.89903,68.4547184 108.960259,68.6587167 C109.021488,68.862946 109.143946,68.9990219 109.177911,69.2166509 C109.211645,69.4342799 109.157348,69.7334621 109.048521,69.8358078 C108.939464,69.9376914 108.77634,69.8425076 108.599584,70.0261754 C108.422828,70.2098432 108.232209,70.6723626 108.075555,70.8560304 C107.919131,71.0396981 107.796673,70.9445143 107.626617,70.7608465 C107.456793,70.5771788 107.238909,70.305027 107.000693,70.3731804 C106.762708,70.4411029 106.50439,70.8493305 106.368068,70.829 C106.232209,70.8084384 106.218577,70.3595497 106.238678,69.9037302 C106.259242,69.4479106 106.31354,68.9853912 106.191312,68.4886796 C106.068854,67.992199 105.769409,67.4615261 105.551525,67.1078212 C105.334104,66.7541164 105.198013,66.5771484 105.129852,66.1758516 C105.061922,65.7743238 105.061922,65.1486981 105.000462,64.7541012 C104.939233,64.3595042 104.816774,64.1961669 104.762477,63.9242462 C104.708179,63.6520944 104.72158,63.2711282 104.592421,63.1690135 C104.463262,63.0671298 104.191081,63.2438668 103.891867,63.2845278 C103.592421,63.3251889 103.265943,63.2302361 103.156885,63.4342344 C103.048059,63.6382327 103.157116,64.1416442 103.048059,64.4819494 C102.939233,64.8220236 102.612754,64.9987605 102.503928,65.3593963 C102.395102,65.720032 102.503928,66.2641046 102.386553,66.5628246 C102.268946,66.8615447 101.925601,66.9149123 101.69293,66.7453373 C101.46049,66.5755312 101.339418,66.1827825 101.252542,65.9385852 C101.165896,65.6941568 101.113678,65.5982799 100.978743,65.5365953 C100.844039,65.4749106 100.626155,65.4478803 100.510628,65.2235514 C100.395102,64.9989916 100.381238,64.5771332 100.292976,64.2643204 C100.204482,63.9515076 100.041359,63.7475093 99.9801294,63.4889882 C99.9189002,63.2304671 99.9597967,62.9174233 100.041359,62.6930944 C100.123152,62.4685346 100.24561,62.3324587 100.313771,62.1760523 C100.381701,62.0196459 100.395564,61.8426779 100.558688,61.7477251 C100.722043,61.6523103 101.03512,61.6386796 101.273105,61.5300961 C101.511091,61.4212816 101.674445,61.2172833 101.90573,61.1627605 C102.137015,61.1082378 102.43646,61.2034216 102.633549,61.0472462 C102.830869,60.8906088 102.926063,60.4826121 103.143715,60.312575 C103.361368,60.1425379 103.701479,60.2106914 103.844501,60.1016459 C103.987292,59.9928314 103.932994,59.7070489 103.966728,59.4145666 C104.000693,59.1220843 104.123383,58.8226712 104.191312,58.5507504 C104.259473,58.2785987 104.273105,58.0337083 104.422828,57.9521551 C104.57232,57.870371 104.858133,57.9521551 105.082486,57.9727167 C105.30707,57.9930472 105.470194,57.9521551 105.531423,57.8160793 C105.592652,57.6800034 105.551756,57.4487437 105.436229,57.305968 C105.320471,57.1629612 105.130083,57.1086695 104.823937,56.9792934 C104.518022,56.8499174 104.096118,56.6461501 103.619917,56.5507352 C103.143484,56.4555514 102.613216,56.4691821 102.204713,56.5237049 C101.796673,56.5779966 101.51086,56.6731804 101.109519,56.6801113 C100.708179,56.6870422 100.191081,56.605258 99.6127542,56.5916273 C99.034427,56.5779966 98.3948706,56.6325194 97.8304067,56.605258 C97.2657116,56.5779966 96.775878,56.4691821 96.3539741,56.4215902 C95.9323013,56.3739983 95.5785582,56.387629 95.2654806,56.3127757 C94.952634,56.2379224 94.6804529,56.0748162 94.4149723,55.9861012 C94.1497227,55.8976172 93.8909427,55.8842175 93.7550832,55.5984351 C93.6192237,55.3126526 93.6055915,54.7549494 93.6021257,54.2820337 C93.5986599,53.809118 93.6055915,53.4214519 93.5441312,53.115339 C93.482902,52.809226 93.3537431,52.5846661 93.3197782,52.3534064 C93.2858133,52.1221467 93.3468115,51.8839562 93.2379852,51.8874216 C93.1289279,51.890887 92.8500462,52.1357774 92.6968577,52.3534064 C92.5439002,52.5710354 92.5168669,52.7616341 92.3294824,52.8704486 C92.142329,52.9792631 91.7955176,53.0065245 91.4757394,52.8907791 C91.1561922,52.7752648 90.8636784,52.5167437 90.7548521,52.3058145 C90.6457948,52.0948853 90.7208872,51.9317791 90.6832255,51.7277808 C90.6457948,51.5237825 90.4960721,51.2788921 90.3294824,51.1529815 C90.1628928,51.0270708 89.9792052,51.020371 89.9281423,51.149516 C89.8770795,51.278661 89.9588725,51.544113 89.9145102,51.7548111 C89.8703789,51.9657403 89.7000924,52.1221467 89.5265712,52.2787841 C89.3530499,52.4351906 89.1762939,52.591597 89.0843346,52.503344 C88.9926063,52.41486 88.9856747,52.0814857 88.9415434,51.7957032 C88.8974122,51.5101518 88.8158503,51.2719612 88.6115989,51.0984587 C88.4073475,50.9251872 88.0808688,50.8161417 87.9517098,50.9046256 C87.8225508,50.9928786 87.8904806,51.278661 87.8089187,51.520317 C87.7273567,51.761973 87.4960721,51.9590405 87.3156192,52.1189123 C87.1353974,52.2787841 87.0062384,52.4012293 86.8634473,52.6290236 C86.7204251,52.8568179 86.5640018,53.1901922 86.5025416,53.4930708 C86.4413124,53.7957184 86.4755083,54.0678702 86.6520333,54.1665194 C86.8290203,54.2651686 87.1487985,54.1903153 87.3495841,54.2617032 C87.5503697,54.3330911 87.6319316,54.5507201 87.7476895,54.7889106 C87.8632163,55.0268702 88.012939,55.2853912 88.2137246,55.4011366 C88.4145102,55.5166509 88.6663586,55.4896206 88.8939464,55.4521939 C89.1217652,55.4147673 89.3260166,55.3671754 89.5337338,55.5064857 C89.7409889,55.646027 89.9521719,55.9724705 90.0676987,56.2649528 C90.1834566,56.5574351 90.2037893,56.8159562 90.1152957,56.9453322 C90.0268022,57.0744772 89.8297135,57.0744772 89.5404344,57.0779427 C89.2513863,57.0814081 88.87061,57.0881079 88.6152957,57.105204 C88.3602126,57.1220691 88.2310536,57.1493305 88.176525,57.2854064 C88.1222274,57.4214823 88.1427911,57.6663727 88.112061,57.8909325 C88.0815619,58.1152614 88,58.3192597 87.8738447,58.3975784 C87.7481516,58.4756661 87.5780961,58.4280742 87.4385397,58.3398212 C87.2989834,58.2513373 87.1903882,58.1221922 87.0101664,58.1085616 C86.8299445,58.0949309 86.5780961,58.1968145 86.4588725,58.3670826 C86.3396488,58.5373508 86.353512,58.7753103 86.3703789,59.0202007 C86.3874769,59.2650911 86.4078096,59.5169123 86.6083641,59.8262597 C86.8091497,60.1358381 87.1899261,60.5031737 87.577634,60.7141029 C87.965573,60.925032 88.3602126,60.9793238 88.6730591,61.0269157 C88.9859057,61.0745076 89.2169593,61.1153997 89.353281,61.2787369 C89.4891405,61.4418432 89.530037,61.7276256 89.4960721,62.0404384 C89.4621072,62.3532513 89.353281,62.6935565 89.2033272,62.8772243 C89.0538355,63.0608921 88.8632163,63.0881535 88.7474584,63.2785211 C88.6319316,63.4688887 88.5910351,63.8225936 88.6522643,64.0607841 C88.7134935,64.2989747 88.8768484,64.4214199 89.0330407,64.5438651 C89.189695,64.6663103 89.3391867,64.7887555 89.3800832,64.9657234 C89.4209797,65.1426914 89.3530499,65.3737201 89.3257856,65.5643187 C89.2985213,65.7546863 89.3121534,65.9043929 89.4889094,65.9656155 C89.6658965,66.0268381 90.0060074,65.9995767 90.1624307,66.0607993 C90.319085,66.1220219 90.2918207,66.2717285 90.2643253,66.4281349 C90.2372921,66.5845413 90.2102588,66.7476476 90.2236599,67.1491754 C90.2372921,67.5504722 90.2915896,68.1899595 90.3731516,68.6185177 C90.4549445,69.0468449 90.5635397,69.2649359 90.6691312,69.5913794 C90.7744917,69.9178229 90.8763863,70.3530809 90.930915,70.6455632 C90.9854436,70.9380455 90.9923752,71.0877521 90.9071165,71.0604907 C90.8220887,71.0334604 90.6453327,70.829231 90.4512477,70.7476779 C90.2573937,70.6658938 90.0464418,70.7070169 89.8560536,70.8192968 C89.6654344,70.9315767 89.4953789,71.1150135 89.3287893,71.2545548 C89.1619686,71.3940961 88.9988447,71.489511 88.9581793,71.6764132 C88.9175139,71.8633153 88.9990758,72.142398 88.9378466,72.2884081 C88.8763863,72.4348803 88.672597,72.4482799 88.478512,72.4348803 C88.284658,72.4212496 88.1009704,72.3803575 87.9512477,72.4450455 C87.801756,72.5095025 87.6862292,72.6797707 87.590573,72.6931703 C87.4953789,72.707032 87.4207486,72.5640253 87.3932532,72.3463963 C87.36622,72.1287673 87.3865527,71.836285 87.3456562,71.7374047 C87.3047597,71.6387555 87.2028651,71.7339393 86.9373845,71.9416341 C86.6721349,72.1488668 86.2435305,72.4688415 85.9646488,72.7444587 C85.685536,73.0198449 85.5563771,73.2511046 85.3930222,73.3767841 C85.2296673,73.5029258 85.0323475,73.5232563 84.8454251,73.6080438 C84.6582717,73.6930624 84.4815157,73.843 84.37939,73.9689106 C84.2772643,74.0945902 84.25,74.1964739 84.0425139,74.2272007 C83.8350277,74.2579275 83.4473198,74.2170354 83.1954713,74.2442968 C82.943854,74.2715582 82.8280961,74.366511 82.6310074,74.5298482 C82.4336876,74.6931855 82.1545749,74.9244452 81.9505545,75.1931315 C81.7465342,75.4618179 81.6173752,75.7676998 81.668207,76.1622968 C81.7190388,76.5568938 81.9505545,77.0399747 82.1342421,77.3527875 C82.3179298,77.6656003 82.4540203,77.8086071 82.491451,77.9479174 C82.5288817,78.0872277 82.4674214,78.2233035 82.2874307,78.4002715 C82.1072089,78.5770084 81.8077634,78.7946374 81.5524492,78.9478094 C81.297366,79.1007504 81.086414,79.1892344 81.086414,79.2707875 C81.086414,79.3523406 81.297366,79.4271939 81.4027264,79.5665042 C81.5080869,79.7060455 81.5080869,79.9100438 81.3618299,80.056285 C81.215573,80.2027572 80.9230591,80.2912411 80.650878,80.3760287 C80.3786969,80.4610472 80.1270795,80.5428314 79.8719963,80.7465987 C79.6169131,80.950828 79.3583641,81.2772715 79.0760166,81.5665194 C78.7936691,81.8555363 78.4872921,82.1073575 78.0552218,82.239968 C77.6233826,82.3725784 77.0653882,82.3862091 76.5076248,82.5698769 C75.9498614,82.7535447 75.3918669,83.1072496 74.9768946,83.3727015 C74.5619224,83.6381535 74.2897412,83.8148904 74.0244917,84.005258 C73.7592421,84.1956256 73.5006932,84.399855 73.2897412,84.6447454 C73.0787893,84.8898668 72.9156654,85.1754182 72.711414,85.5224233 C72.5073937,85.8691973 72.2624769,86.277425 71.9018022,86.6921214 C71.5411275,87.1068179 71.0651571,87.5289073 70.6568854,87.9098735 C70.2486137,88.2908398 69.9085028,88.630914 69.711183,88.9099966 C69.5138632,89.1888482 69.4593346,89.4062462 69.3029113,89.549253 C69.1462569,89.6922597 68.887939,89.7601821 68.5679298,89.896258 C68.2481516,90.0323339 67.8673752,90.2365632 67.4658041,90.5221147 C67.064464,90.8078971 66.6425601,91.1752327 66.3093808,91.5086071 C65.9759704,91.8417504 65.7310536,92.1411636 65.5201017,92.3724233 C65.3091497,92.603683 65.1321627,92.7670202 64.8056839,92.9164958 C64.4792052,93.0659713 64.0030037,93.2022782 63.5335028,93.4335379 C63.0642329,93.6647976 62.6014325,93.9912411 62.2204251,94.2633929 C61.8394177,94.5355447 61.5402033,94.7531737 61.383549,94.9710337 C61.2268946,95.1888938 61.2134935,95.4065228 61.2680222,95.5220371 C61.3223198,95.6377825 61.4447782,95.6514132 61.5198706,95.7532968 C61.5945009,95.8551804 61.6217652,96.0460101 61.5536044,96.3382614 C61.4856747,96.6307437 61.3223198,97.0253406 60.9551756,97.3178229 C60.5878004,97.6105363 60.0161738,97.8006728 59.5945009,98.011602 C59.172597,98.2225312 58.900647,98.4537909 58.689695,98.4674216 C58.4787431,98.4810523 58.3290203,98.277054 58.0298059,98.1749393 C57.7305915,98.0730556 57.2814233,98.0730556 57.0161738,98.1409781 C56.7509242,98.2091315 56.6691312,98.3452074 56.5330407,98.7192428 C56.3969501,99.0932782 56.2063309,99.7055042 55.9477819,100.174954 C55.6890018,100.644174 55.3625231,100.970617 55.0224122,101.02514 C54.6823013,101.079663 54.3285582,100.862034 53.8659889,100.685066 C53.4034196,100.508098 52.831793,100.372253 52.4373845,100.57602 C52.0427449,100.78025 51.8250924,101.324322 51.6617375,101.97744 C51.4983826,102.630327 51.3895564,103.39226 51.3216266,104.072408 C51.2536969,104.752556 51.2262015,105.351152 51.3079945,105.963609 C51.3895564,106.575604 51.5799445,107.20146 51.5665434,107.718734 C51.5529113,108.235545 51.3352588,108.643772 51.267098,109.160815 C51.1991682,109.677626 51.2809612,110.303482 51.3216266,110.929339 C51.3625231,111.555196 51.3625231,112.180821 51.4034196,112.60268 C51.444085,113.024307 51.525878,113.242167 51.5531423,113.650164 C51.5801756,114.058391 51.5531423,114.656755 51.3897874,115.255351 C51.2264325,115.854177 50.9272181,116.452772 50.5598429,116.915292 C50.1924677,117.377811 49.7569316,117.704486 49.4577172,118.098852 C49.1585028,118.493449 48.9951479,118.955968 48.913586,119.636347 C48.831793,120.316496 48.831793,121.214273 48.8726895,122.370803 C48.9133549,123.527101 48.9949168,124.942152 48.8997227,125.717484 C48.8042976,126.492816 48.5323475,126.628892 48.2737985,126.628892 C48.0152495,126.628892 47.7703327,126.492816 47.443854,126.479185 C47.1171442,126.465555 46.7091035,126.574369 46.5593808,126.887413 C46.409658,127.200226 46.5184843,127.717499 46.4503235,127.97602 C46.3823937,128.23431 46.1374769,128.23431 45.7837338,128.492831 C45.4299908,128.751352 44.9671904,129.268164 44.8856285,129.785437 C44.8038355,130.302248 45.103281,130.81929 45.4161275,131.132103 C45.7289741,131.444916 46.0556839,131.553961 45.974122,131.635745 C45.892329,131.717298 45.4024954,131.771821 44.9126617,131.771821 C44.4228281,131.771821 43.9329945,131.717298 43.538586,131.771821 C43.1439464,131.826113 42.844732,131.989219 42.4364603,132.193449 C42.0281885,132.397678 41.5113216,132.642337 41.1573475,132.955381 C40.8033734,133.268425 40.6132163,133.64916 40.5231054,134.063857 C40.4334566,134.477629 40.443854,134.926287 39.9320702,135.450029 Z" opacity=".3" transform="translate(13 7)"/>
  </g>
</svg>
