<svg xmlns="http://www.w3.org/2000/svg" width="150" height="94" viewBox="0 0 150 94">
  <g fill="none" transform="translate(0 -33)">
    <rect width="150" height="150" opacity=".2"/>
    <path fill="#182F57" d="M129.849464,42.6628794 L129.882607,42.5548598 L130.590118,42.5447347 L131.0942,42.7038571 L131.4391,42.7568974 L131.598284,42.412134 L131.359508,42.0673721 L131.359508,41.775649 L130.961547,41.4308855 L130.616649,40.5291991 L130.828894,39.6540312 L130.802363,39.3092694 L130.590118,39.0971067 C130.590118,39.0971067 130.828894,38.8319053 130.828894,38.7258247 C130.828894,38.6197425 130.908486,38.3810613 130.908486,38.3810613 L131.226855,38.1689001 L131.545223,37.9036971 L131.624815,38.0628196 L131.386039,38.328021 L131.173794,38.9379858 L131.226855,39.1236268 L131.518692,39.1766671 L131.598284,40.0783551 L131.253386,40.237476 L131.306447,40.8209207 L131.386039,40.7944005 L131.571753,40.4761588 L131.837061,40.7678804 L131.571753,40.9800431 L131.518692,41.5369677 L131.943184,42.0938923 L132.579921,42.1734527 L132.845229,42.040852 L133.376391,42.7270569 L133.599315,42.8150363 L133.713793,42.8657504 L133.73741,43.1851585 L133.611556,43.6933179 L133.351108,44.3795458 L133.277931,45.2734661 L133.519234,46.0347857 L133.874421,45.7204451 L134.174416,44.9037836 L134.098636,44.3475858 L134.167251,43.5952872 L134.646455,42.9753285 L134.772889,42.4474455 L134.691274,42.3561999 L135.020746,41.6960886 L135.057991,40.8981893 L135.020908,40.7810535 L134.649317,39.5744708 L134.490131,39.6540312 L133.906456,39.2562291 L133.614619,38.4871418 L133.296249,37.9036971 L132.924821,37.7445763 L132.579921,37.1611316 L132.661804,36.8163681 L132.745564,36.8990553 L132.924821,37.2672121 L133.455435,37.7445763 L134.251356,38.1158599 L134.914623,38.2219404 L134.941154,38.4606217 L134.808501,38.6197425 L134.861562,39.0705865 L134.994215,39.0705865 L135.339115,38.6727844 L135.471768,37.877177 L135.92279,37.2141718 L136.426874,36.153363 L136.612589,35.2516766 L136.506466,35.066034 L136.479935,33.5278609 L136.214627,32.970938 L136.028913,33.1035387 L135.577891,33.156579 L135.498299,33.0770186 L135.684015,32.9178961 L136.028913,32.5996544 L136.039262,32.4202128 L136.127961,32.4061473 L136.320752,32.4935739 L136.984019,32.3079312 L137.939125,31.9896896 L138.363615,31.8305671 L139.530967,30.9554008 L140.167704,30.4780367 L140.724848,29.894592 L140.03505,29.6293906 L139.822805,29.8680718 L139.345252,30.3189158 L138.045248,30.9554008 L137.673817,30.9288807 L137.408511,30.8228001 L137.222795,30.9288807 L136.851366,31.3532046 L136.612589,31.5653657 L136.400344,31.618406 L136.347282,31.4062449 L136.66565,31.1145217 L136.534925,30.8391788 L136.701392,30.8768788 L137.514633,30.3189158 L138.098309,29.7885114 L138.416677,29.443748 L138.549332,29.5498285 L139.000352,29.3111473 L139.849336,29.1255063 L141.005467,28.5527674 L141.149345,28.5155382 L141.626893,28.356419 L142.024854,28.0381773 L142.210569,27.7464541 L142.422814,27.7729742 L142.900541,27.5209296 L142.985746,27.4597295 L143.324859,27.2956101 L143.245267,26.9243281 L143.37792,26.6856452 L143.855473,26.446964 L143.988126,26.9508483 L143.908534,27.2425698 L143.510573,27.4812527 L143.510573,27.6403735 L143.828943,27.4016923 L144.465679,26.6591251 L145.102416,26.3408834 L145.792214,26.1022005 L145.739153,25.7043984 L145.579969,25.2270343 L145.2616,24.8292305 L144.969763,24.6966298 L144.624863,24.72315 L144.545271,24.8027104 L144.704455,25.0148715 L144.943232,24.8822708 L145.288131,25.1474739 L145.420786,25.5983162 L145.128947,25.8900394 L144.757518,26.0491602 L144.173842,25.9695998 L143.537104,24.9883514 L143.165675,24.5640291 L142.873836,24.5640291 L142.688122,24.6966298 L142.369753,24.272306 L142.422814,24.0336247 L142.820775,23.184977 L142.346611,22.4610556 L142.253668,22.3803271 L142.396283,22.2037285 L142.575204,21.6638404 L142.636429,21.4802353 L142.820775,20.4533944 L142.847306,19.737349 L143.086083,19.5251879 L142.926898,18.9947834 L143.430981,18.4113387 L143.696289,18.65002 L143.908534,18.5704595 L144.784049,18.0665753 L144.83711,17.5892111 L145.314663,17.5096507 L145.579969,17.0853268 L145.553439,16.8201254 L145.500377,16.3162411 L145.633031,16.10408 L145.579969,15.9184374 L145.367724,15.6797561 L145.712623,15.467595 L146.004461,15.9979994 L146.243237,15.9449575 L146.296298,16.1571203 L146.296298,16.4223217 L146.614667,16.4488418 L146.694259,15.9979994 L146.773851,15.8919172 L146.508545,15.653236 L146.667729,15.4145539 L147.06569,15.175872 L147.224874,14.9371899 L147.516711,14.9106698 C147.516711,14.9106698 147.569774,15.2554326 147.675896,15.2554326 C147.782019,15.2554326 147.888141,15.2554326 147.888141,15.2554326 L148.684062,14.3537452 L149.241207,13.8498611 L149.559576,13.7437802 L149.904476,12.974694 L149.904476,12.6564514 L149.533045,12.0464863 L149.214676,11.7017235 L148.763655,11.7282438 L148.843247,11.9138853 L148.816717,11.9934459 L148.684062,11.9934459 L148.20651,11.622163 L148.17998,10.8265565 L148.047325,10.5083138 L147.06569,10.5083138 L145.579969,5.60207371 L145.2616,5.44295254 L144.279965,5.0451493 L144.041188,5.01862899 L143.749351,5.31035135 L143.086083,5.78771534 L143.086083,5.94683651 L142.953428,6.0794377 L142.502408,5.97335681 L142.290161,5.60207371 L142.290161,5.41643224 L142.077916,5.3899121 L141.865669,5.3899121 L141.520771,6.0794377 L141.043218,7.53804964 L140.751379,8.33365613 L140.777911,9.12926261 L140.804442,9.36794452 L140.671787,9.81878821 L140.539134,9.97790954 L140.539134,10.9591575 L140.857503,11.3569607 L140.618726,12.0199662 L140.194234,12.7890524 L140.061581,13.6907397 L140.061581,14.1150633 L139.813147,14.0478198 L139.580017,14.0672047 L139.439414,14.1424135 L139.292191,14.1415834 L139.186068,14.4067857 L139.079946,14.3272251 L138.92076,14.1681037 L138.681985,14.4863462 L138.67403,15.311849 L138.522967,15.361398 L134.215393,16.4683079 L134.113311,16.5333926 L132.871759,16.8731657 L132.128898,17.1118469 L131.598284,17.0853268 L130.696241,17.2974896 L130.190547,17.5018846 L129.794196,17.8013739 L129.449298,18.199176 L128.998275,18.8091408 L128.520722,19.551708 L128.281945,20.0290721 L128.175822,20.1616728 L127.220718,21.0633592 L127.247248,21.4876831 L127.379902,21.6733257 L127.671739,21.8059264 L127.963577,21.8059264 L127.963577,22.0446077 L127.777863,22.3893711 L127.830924,22.6280524 L128.0697,22.9728158 L128.043169,23.3440978 L127.7248,23.5297404 L127.379902,23.5297404 L127.114594,23.8479821 L126.822757,24.3783865 L126.477857,24.6701097 L125.628875,24.7496701 L125.204383,24.9353111 L124.859483,25.1474739 L124.594177,25.1209537 L124.275807,24.908791 L123.241111,24.9353111 L122.710497,25.0148715 L122.047228,25.2270343 L121.330899,25.4657155 L120.853346,25.7574387 L121.171715,26.7652073 L121.463552,26.7917274 L121.675799,27.2956101 L121.702329,27.4547326 L121.516613,27.6138534 L121.171715,28.0646974 L121.092123,28.3298988 L120.773754,28.621622 L120.481917,28.807263 L120.322731,29.072466 L120.110486,29.258107 L119.876115,29.4427243 L119.711061,29.5278968 L118.810482,30.4515165 L118.598235,30.531077 L117.908582,31.024682 L117.74112,31.0064988 L116.741086,31.6714462 L116.104349,32.0427298 L115.547204,32.6526947 L114.883937,33.2891797 L114.353322,33.4217804 L113.875769,33.5013408 L112.973724,33.9256647 L112.628826,33.9521848 L112.071681,33.4483005 L111.222697,33.5543827 L110.798207,33.3156998 L110.407441,33.0940977 L110.218406,33.0408031 L110.241062,32.9444162 L110.267593,32.705735 L110.612491,32.0957701 L110.940811,31.8106778 L110.90433,30.981921 L111.166418,30.7199366 L111.345404,30.6636777 L111.381883,30.0802329 L111.633924,29.5829812 L111.806373,29.6824309 L111.832904,29.7885114 L111.965559,29.8150316 L112.283926,29.6559107 L112.230865,28.0912176 L111.700251,26.7386855 L111.32882,25.2535544 L110.930861,24.72315 L110.506369,24.4314268 L110.241062,24.6170694 L109.604324,24.908791 L109.285956,25.7309186 L108.834934,26.3408834 L108.649219,26.446964 L108.410442,26.3408834 C108.410442,26.3408834 107.985952,26.1022005 108.012482,25.99612 C108.039013,25.8900394 108.092074,25.173994 108.092074,25.173994 L108.649219,24.9618312 L108.781873,24.4049067 L108.887995,23.9805844 L109.285956,23.7153814 L109.232895,22.0711278 L108.967587,21.6998459 L108.755342,21.5672435 L108.622689,21.2224817 L108.755342,21.089881 L109.020648,21.1429213 L109.047179,20.8777183 L108.649219,20.5064347 L108.436973,20.0821124 L108.012482,20.0821124 L107.269621,19.8434295 L106.367578,19.286505 L105.916556,19.286505 L105.810433,19.3925872 L105.651248,19.3130251 L105.147166,18.9417431 L104.669613,19.2334647 L104.19206,19.6047483 L104.245121,20.188193 L104.404305,20.2412333 L104.749205,20.3207937 L104.828796,20.4533944 L104.404305,20.5859967 L103.979815,20.639037 L103.741037,20.9307585 L103.687976,21.275522 L103.741037,21.5407234 L103.794098,22.4424114 L103.210423,22.7871749 L103.1043,22.7606531 L103.1043,22.0711278 L103.316545,21.6733257 L103.42267,21.275522 L103.290015,21.1429213 L102.971647,21.275522 L102.812462,21.9650473 L102.361441,22.1506882 L102.069602,22.4689316 L102.043072,22.6280524 L102.149194,22.7606531 L102.043072,23.184977 L101.671641,23.2645374 L101.671641,23.45018 L101.804296,23.8479821 L101.61858,24.8557507 L101.353274,25.5187558 L101.459396,26.2878431 L101.538988,26.4734841 L101.406335,26.8712879 L101.353274,27.0038886 L101.300212,27.4547326 L101.883888,28.4359794 L102.361441,29.4967882 L102.600217,30.2923957 L102.467563,31.0614814 L102.30838,32.0427298 L101.910418,32.891376 L101.857357,33.34222 L101.322532,33.8483353 L101.154377,33.9786426 L100.690006,34.243908 L100.345106,34.5621497 L100.159392,34.6151899 L99.9206143,34.4560691 L99.4166111,34.310146 L99.2755388,34.3420207 L99.2308162,34.1908677 L99.098163,33.7665438 L98.8859179,33.156579 L98.62061,32.8648558 L98.3818342,32.4405336 L98.3435022,31.5400759 L98.2944568,31.3630524 L98.3553036,30.8758404 L98.0899956,30.1332732 L97.9838731,29.1255063 L97.7981586,28.7277025 L97.9573425,28.2238183 L98.0899956,27.7464541 L98.328773,27.3221319 L98.2226488,26.7652073 L98.1165263,26.1817626 L98.1961182,25.8900394 L98.5144874,25.4922357 L98.5410181,25.0413917 L98.4083649,24.8292305 L98.5144874,24.4049067 L98.5940793,23.8745022 L99.0451018,22.9462957 L99.5226548,21.8324466 L99.5491854,21.461163 L99.4961242,21.3020421 L99.3634694,21.3816025 L98.6736712,22.4158913 L98.2226488,23.0788964 L97.9042812,23.3706196 L97.771628,23.7419015 L97.5328507,23.8745022 L97.3471362,24.1927455 L97.1083589,24.1397053 L97.0818282,23.8479821 L97.2940749,23.45018 L97.6389732,22.6810927 L97.9308118,22.4158913 L98.1115536,22.0399635 L98.2046668,21.8935909 L98.7267325,20.7451176 L98.8859179,20.0821124 L99.2042856,19.3660654 L99.3369387,19.3395452 L99.5226548,19.6047483 L99.6287774,19.6047483 L100.371637,19.2069445 L100.610414,19.4721476 L100.690006,19.4986677 L100.902251,19.3130251 L101.087966,18.8091408 L101.485927,18.6765401 L102.626747,18.5704595 L102.945117,18.1461357 L103.794098,18.1196155 L104.749205,18.3317783 L105.041042,18.3317783 L105.571656,18.0930954 L105.943086,18.1196155 L106.287986,18.013535 L106.898193,18.0930954 L107.030846,18.1461357 L107.243091,18.0930954 L107.030846,17.9339746 L106.818601,17.827894 L106.287986,17.3240097 L106.287986,16.1836404 L106.049209,16.10408 L105.863495,16.289721 L104.855327,16.5549224 L104.536958,16.6344844 L104.059406,16.5018821 L103.979815,16.4488418 L103.979815,15.5206353 L103.741037,15.4941151 L103.316545,15.7062763 L102.573686,16.0245196 L101.485927,16.0775599 L100.928782,16.2632008 L100.265514,16.8466455 L100.000206,17.0057664 L99.8144918,17.0057664 L99.6022467,17.1383687 L99.3369387,17.0588067 L99.0716324,16.8466455 L98.832855,17.0057664 L98.1961182,17.0322865 L97.7450957,16.5814442 L97.50632,16.0775599 L97.2675443,15.8919172 L96.73693,15.7327964 L96.3654995,15.7327964 L96.1532544,15.5206353 L95.5695788,15.9979994 L95.4103933,16.1836404 L95.2777402,16.10408 L95.3308014,15.6797561 L95.7287626,15.1493517 L95.8083545,14.7515485 L96.179785,14.6189474 L96.4185607,14.1150633 L97.028767,13.955942 L97.0818282,13.7968206 L96.8961138,13.6111792 L96.1267237,13.6907397 L95.4103933,14.088543 L95.0389644,14.4598261 L94.8267177,14.7515485 L94.5348807,14.8841495 L94.2165115,15.3615135 L94.1899809,15.5736756 L93.4736521,15.9184374 L93.0756909,16.2366807 L92.0940558,16.3958015 L91.9879316,16.5018821 L91.9879316,16.6610046 L91.404256,17.0322865 L90.9532336,17.1648889 L90.8356822,17.2601028 L90.6686915,17.3292872 L90.5818047,17.5361708 L90.3960903,17.5096507 L90.2899661,17.3240097 L89.8389453,17.191409 L89.6532292,17.2179291 L89.3613922,17.37705 L89.2022068,17.2709694 L89.308331,16.9527261 L89.6266986,16.4488418 L89.812413,16.2632008 L89.4940454,16.0245196 L89.1491455,16.1571203 L88.6715925,16.475362 L87.45118,17.0057664 L86.9736269,17.1118469 L86.4960755,17.0322865 L86.3349601,16.8882106 L86.2635689,16.7975441 L86.894035,16.3162411 L87.1062817,16.289721 L87.8491411,15.467595 L88.1409798,15.3349932 L88.5124086,14.698508 L88.9103698,14.1150633 L89.4144535,13.6907397 L90.1980542,13.3615106 L91.7154141,12.6952871 L92.3618124,12.3939089 L92.4622664,12.0199662 L91.733616,12.0807734 L91.6165027,12.2586481 L91.5103786,12.2586481 L91.2185416,11.754764 L89.7593518,11.8078044 L89.6001679,11.9404054 L89.4409841,11.9404054 L89.3613922,11.7282438 L89.2287374,11.4365215 L88.8042473,11.5160821 L88.2736329,12.0464863 L88.0083249,12.1790875 L87.5042412,12.1790875 L87.0797511,12.0199662 L87.0797511,11.6752034 L86.8675044,11.6486831 L86.7879125,11.7282438 L86.3634207,11.5160821 L86.2838288,11.0387181 L86.0450531,11.1182788 L85.9654612,11.2774002 L85.5675,11.1978394 L84.6919858,10.8000362 L84.0552489,10.3757128 L83.5776958,10.3757128 L83.3654508,10.2165915 L82.9940202,10.3226723 L82.8083058,10.5083138 L82.7552445,10.7204756 L81.9593239,10.7204756 L81.9593239,10.3757128 L80.9246258,10.3226723 L80.8715646,10.0839904 L80.0756422,10.0839904 L79.8103359,9.81878821 L79.5715585,8.81101995 L79.4389054,7.90933258 L79.1205377,7.77673155 L78.7491072,7.69717081 L78.6429847,7.72369111 L78.5899234,9.07622217 L73.6447779,9.070436 L73.4647779,9.06266927 L68.8000897,8.97014128 L65.7490585,8.86406039 L61.3980213,8.65189862 L57.303983,8.34285205 L57.0932905,8.26387351 L52.0592117,7.80325169 L47.2571521,7.21980698 L42.4550941,6.55680152 L37.1489508,5.68163445 L34.1244502,5.12470988 L28.7540481,3.9874024 L28.5696942,3.96107568 L26.4368485,3.54634194 L26.3186012,3.48042415 L23.8305345,2.9235319 L20.0631729,1.99532438 L16.7733643,1.06711671 L15.3672374,0.748874213 L13.7753946,0.298030478 L13.0590655,0.0593485159 L12.8733504,0.191949608 L12.8202889,0.324550683 L13.2182496,1.12015715 L13.4039647,1.5444807 L13.1121269,2.12792541 L13.1121269,2.49920851 L13.2182496,2.73789043 L13.0855961,3.02961278 L13.1651883,3.56001705 L13.3243725,3.77217882 L13.2978418,3.9843406 L13.0590655,4.01086074 L12.9529426,3.69261824 L12.7672277,3.294815 L12.4753897,3.05613292 L12.5284511,2.71137012 L12.8998812,2.63180954 L12.8468197,2.34008718 L12.7937583,2.15444555 L12.4488591,2.36660732 L12.2366133,2.55224879 L12.2366133,2.9500522 L11.8651835,2.97657234 L11.308038,2.81745101 L10.8304851,2.5787691 L10.3264013,2.47268821 L9.58354136,2.12792541 L9.05292719,1.80968275 L8.60190509,1.38535937 L8.20394442,0.907995379 L7.85904519,0.828434796 L7.48761515,2.36660732 L7.77945295,2.89701176 L7.77945295,4.19650237 L7.67333009,4.6738662 L7.91210662,5.84075578 L8.36312872,6.29159947 L7.64679945,6.39768019 L7.62026865,7.00764521 L8.04476012,7.19328684 L7.77945295,7.85629214 L7.32843085,7.90933258 L7.27536942,8.38669657 L7.64679945,8.86406039 L7.30190022,9.28838394 L6.93047019,10.3491925 L6.39985602,11.9934459 L5.86924168,13.0542546 L5.04678972,15.3615135 L3.98556121,17.5892111 L2.65902571,19.6577886 L2.34065711,20.1351527 L2.20800361,21.5407234 L1.99575788,22.5219718 L2.44020952,23.1006427 L2.36120005,23.2585988 L2.10188074,24.0336247 L2.07534995,25.2535544 L1.22636718,27.1895295 L0.722283807,27.6138534 L0.669222374,27.7994944 L0.377384409,27.9320967 L0.138608042,28.621622 L0.00595454048,29.1520264 L0.456976641,29.8415517 L0.722283807,30.531077 L0.907998742,31.1145217 L0.854937309,32.1753305 L0.563099508,32.6792148 L0.456976641,33.6339431 L0.297792341,34.243908 L0.589630142,34.880393 L1.04065224,35.6229585 L1.41208228,36.418566 L1.62432784,37.0815711 L1.57126658,37.6119756 L1.51820514,37.691536 L1.51820514,38.0362978 L2.44677998,39.0705865 L2.36718791,39.4683903 L2.26106504,39.8396739 L2.15494218,40.1579155 L2.18147281,41.5104476 L2.52637205,42.1204124 L2.84474065,42.5447347 L3.29576275,42.6242967 L3.45494705,43.0751391 L3.26923211,43.6585838 L2.92433271,43.9237868 L2.73861778,43.9237868 L2.60596428,44.5602718 L2.68555635,45.037636 L3.21617068,45.7536814 L3.48147768,46.6288493 L3.72025405,47.397935 L3.93249978,47.9018193 L4.48964475,48.8565476 L4.72842112,49.2808698 L4.80801335,49.758234 L5.07332035,49.9173548 L5.07332035,50.3151585 L4.94066685,50.6334018 L4.64882905,51.8002913 L4.56923682,52.1185329 L4.96719765,52.569377 L5.65699612,52.6489374 L6.39985602,52.9406606 L7.03659305,53.2854224 L7.51414595,53.2854224 L7.99169869,53.7893067 L8.41618999,54.5849141 L8.60190509,54.9561961 L9.23864212,55.3009595 L10.0345635,55.4335602 L10.2733398,55.7783237 L10.3794627,56.3087281 L10.1406863,56.4148087 L10.1937478,56.5739295 L10.7243623,56.7065302 L11.1753844,56.733052 L11.6529373,57.5021377 L12.2896748,58.191663 L12.4223283,58.5629466 L12.8468197,59.2524718 L12.8998812,59.7828763 L12.8998812,61.3210493 L12.9794732,61.6127708 L14.624378,61.8514537 L17.8611236,62.3022961 L20.1435427,62.4621945 L20.308587,62.5847095 L19.8774584,62.9387811 L19.8243972,63.177464 L19.9039891,63.3365848 L23.0080815,65.086919 L24.9978857,66.3333688 L27.41218,67.7389411 L30.1713742,69.3831947 L32.187709,69.7809984 L36.3115503,70.2247358 L36.5749152,70.356367 L39.1122243,70.6826848 L39.3244694,69.0384312 L42.0571329,69.4627551 L44.1013539,69.7281501 L44.2591789,69.7279565 L44.5775449,69.8075136 L45.0020399,70.2848745 L45.2408173,71.0009265 L46.010209,71.3722101 L46.222454,71.9026145 L47.3898069,73.2021063 L47.602052,73.4673077 L48.4245033,73.8120711 L48.6102194,74.1568329 L48.8755257,74.3159554 L48.9551176,74.7667978 L49.4857319,75.8276067 L49.4857319,77.1536186 L49.8571625,77.9227043 L51.0775749,79.1956742 L51.9265585,79.5404377 L52.2183955,79.8586794 L52.2183955,79.9647616 L52.8551324,80.3360435 L53.1735016,80.4421241 L53.4653386,80.6277667 L53.8898304,80.7868875 L54.2877916,80.3890838 L55.0041204,79.3813169 L55.1633042,78.7713504 L55.5347347,78.2409476 L56.1184103,78.0022647 L56.8612697,77.7105431 L57.3653534,78.0818251 L58.5857659,78.1879057 L59.7000558,78.3735483 L60.1245476,78.7183101 L60.1245476,78.9039527 L60.5490394,79.407837 L61.5306761,80.2830032 L61.5572068,80.5216861 L61.8490438,80.8399278 L61.9816969,81.5294531 L62.8572112,83.5449903 L62.8306805,83.8632319 L63.5204787,84.2875558 L64.1041543,85.3748848 L64.6612992,86.0909302 L65.1919136,86.303093 L65.4572199,86.6743749 L65.2449748,87.390422 L65.3510974,87.5495428 L65.5633441,87.6556234 L65.5102828,88.212548 L65.4041586,88.3186285 L65.5102828,88.6899121 L66.0408955,89.0081554 L66.2531422,90.0689627 L66.5980405,90.7054493 L67.8449852,91.2623739 L68.6939672,91.4480148 L69.3837653,91.9518991 L69.9143796,92.0579797 L70.1266264,91.9784193 L71.0286696,92.1640602 L71.9572451,92.8005452 L72.4613288,92.4823036 L72.6205126,92.2436207 L72.3286756,91.7927766 L72.1694902,90.7850097 L71.8776532,89.6446404 L71.745,89.2468367 L71.8776532,88.5042711 L72.0633676,87.8677861 L72.2756127,87.125219 L72.51439,86.2235326 L72.1429595,85.9052892 L72.302145,85.5870476 L72.9654125,85.5340057 L73.6021493,84.6323193 L74.1592943,84.5262387 L75.1144004,83.942794 L75.4062374,83.7041111 L76.4409354,83.1471865 L77.3695093,82.7493828 L78.2450235,82.21898 L78.696046,81.8742165 L79.6246198,80.9990487 L79.8368665,80.866448 L80.1817648,80.6277667 L80.6062566,80.3095234 L80.7654404,79.9912817 L82.383814,79.2487145 L83.3134989,78.9886675 L83.4187877,78.967689 L84.1879037,78.7183101 L85.5144387,78.6652698 L87.2124043,79.2487145 L88.2736329,79.4343571 L88.8838392,79.1956742 L89.4144535,79.3813169 L89.9450678,79.5404377 L90.077721,79.1956742 L89.5471067,79.0100333 L89.1226149,79.0895937 L88.6715925,78.8243923 C88.6715925,78.8243923 88.6981247,78.6122295 88.8042473,78.5857094 C88.9103698,78.5591892 89.308331,78.4265886 89.308331,78.4265886 L89.6001679,78.6652698 L89.8920066,78.506149 L90.4226209,78.6122295 L90.6613966,79.0100333 L90.7144579,79.3813169 L91.4573173,79.4343571 L91.7491559,79.7260787 L91.6165027,79.9912817 L91.404256,80.1238824 L91.669564,80.3890838 L93.0491603,80.9725285 L93.6328359,80.7603674 L93.7920213,80.3625637 L94.2165115,80.2564831 L94.5083501,80.0178018 L94.7205952,80.1769227 L94.8532484,80.6542868 L94.4818195,80.7868875 L94.587942,80.8929681 L95.145087,80.680807 L95.5165175,80.1238824 L95.6491707,80.044322 L95.3042708,79.9912817 L95.436924,79.7260787 L95.4103933,79.4873974 L95.7552932,79.407837 L95.9410077,79.1956742 L96.0471302,79.3282749 C96.0471302,79.3282749 96.0205996,79.8321592 96.1532544,79.8321592 C96.2859075,79.8321592 96.8430525,79.9382414 96.8430525,79.9382414 L97.50632,80.2564831 L97.6655038,80.495166 L98.1430569,80.495166 L98.328773,80.6542868 L98.7002019,80.1504025 L98.7002019,79.9117197 L98.4879568,79.9117197 L97.9308118,79.4608773 L96.9757057,79.3282749 L96.4450914,78.956993 L96.6308074,78.506149 L97.0022363,78.5591892 L97.028767,78.4531087 L96.73693,78.2939879 L96.73693,78.2144258 L97.2675443,78.2144258 L97.5593813,77.7105431 L97.3471362,77.3922998 L97.2940749,76.9414558 L97.0552976,76.967976 L96.73693,77.3127394 L96.6308074,77.7370633 L96.1267237,77.6309811 L95.9675383,77.3392595 L96.2593769,77.0210162 L96.5910098,76.7292963 L96.7151718,76.6447652 L96.8961138,76.5171319 L97.3206056,75.8276067 L97.6124426,75.9602074 L98.7267325,75.6419657 L99.0716324,75.695006 L99.3104081,75.8276067 L100.159392,75.8276067 L100.201119,75.6215367 L100.371637,75.5889254 L100.822659,75.5889254 L100.928782,75.6154455 L101.141027,75.1646015 L101.379804,74.4485561 L101.751235,74.5546367 L102.255317,75.5358851 L102.255317,75.695006 L101.804296,76.0132493 L102.255317,76.0662896 L103.164845,75.6442082 L103.276168,75.6629607 L103.84716,75.5624053 L104.828796,75.2176418 L105.810433,75.1380814 L106.526762,75.0320008 L107.773705,75.3237224 L109.100242,75.9602074 L109.365548,76.1988903 L109.843101,76.3845312 L110.108408,76.7027746 L110.161469,77.1536186 L110.692083,76.9414558 L111.32882,76.9414558 L111.912497,76.6232141 L112.522704,76.0397694 L113.026786,76.0662896 L113.106379,75.8806469 L112.973724,75.7215261 L113.000255,75.4032844 L113.663524,75.2706821 L114.088014,75.2706821 L114.565567,75.509365 L115.255365,75.7480462 L115.653327,76.3580111 L116.104349,76.5171319 L116.290063,77.0740565 L116.847208,77.3392595 L117.112516,77.7635834 L117.430884,77.869664 L118.279868,78.0818251 L118.492113,78.5857094 L118.996196,79.1956742 L118.996196,80.7603674 L118.757421,81.5294531 L118.810482,81.9802971 L119.022727,82.7759046 L119.314566,83.4389097 L119.447219,83.3593493 L119.685995,82.6167821 L119.261504,82.4576613 L119.208441,82.3515807 L119.473749,82.2455001 L120.216609,82.404621 L120.243139,82.6698224 L119.712525,83.5715104 L119.367627,83.9693141 L119.951303,84.579279 L120.375793,85.0831633 L120.853346,85.9583295 L121.330899,86.5948145 L121.675799,87.4169421 L121.967636,87.4699824 L122.232944,87.125219 L122.524781,87.3108616 L122.949272,87.9738667 L123.055395,88.5573114 L123.559479,89.2733568 L123.692132,89.0611957 L124.328869,89.114236 L124.912544,89.4855179 L125.469689,90.3341657 L125.602344,90.8910903 L125.655405,91.3684544 L125.84112,91.5275753 L126.053367,91.6071357 L126.451326,91.4480148 L126.690103,91.1828118 L127.32684,91.1562917 L127.830924,90.9176104 L128.281945,90.387206 L128.202353,90.0689627 L128.149292,89.6711606 L128.255414,89.3529172 L128.202353,89.0346756 L128.600314,88.8225128 L128.653375,88.2655882 L128.547253,87.9738667 L128.467661,86.0113698 L128.255414,84.76492 L127.512555,83.4123896 L126.928879,82.4576613 L126.504387,81.5824934 L126.026834,81.1051309 L125.549283,79.8851995 L125.681936,79.6730384 L125.86765,79.4608773 L125.602344,78.9835131 L124.939077,78.3735483 L124.143154,77.4718602 L123.532948,76.4375715 L122.657435,74.8994001 L122.04534,73.3011934 L121.673514,72.1005854 L121.670403,71.9546771 L121.543146,70.9213677 L121.914574,69.2771141 L122.153352,68.5875872 L122.073758,68.163265 L122.620981,67.1388947 L122.537234,66.9171531 L122.630903,66.7576927 L122.975803,66.5455316 L123.798256,65.6438435 L123.639071,65.1134391 L124.116624,65.086919 L124.700299,64.5299944 L124.965607,64.3973937 L125.337036,63.8404691 L125.788059,63.3896251 L126.132958,62.8061804 L126.530918,62.7000998 L126.716634,62.2492558 L126.98194,62.1166551 L127.061532,61.0823664 L127.486024,60.0745978 L128.375713,59.1791633 L128.421709,59.0474255 L129.316643,58.828148 L130.086034,58.7485875 L130.165626,58.3507838 L130.483994,57.2899749 L131.041139,56.5208892 L132.102368,55.645723 L132.951351,55.2479193 L133.402372,55.1418387 L133.588088,55.2213991 L133.800333,55.2213991 L134.304417,54.4257917 L134.622786,53.8423469 L134.410539,53.921909 L134.039111,54.293191 L133.932986,54.0279896 L133.243188,54.0279896 L133.561557,52.9937008 L133.428904,52.7815397 L133.110535,52.7815397 L133.110535,52.6224172 L133.057474,52.4102561 L133.32278,52.6224172 L133.561557,52.6489374 L133.959517,52.7019777 L134.569725,52.4367763 L134.78197,51.9594121 L134.888092,51.6146487 L135.312584,51.4024875 L135.365646,50.7129623 L135.232992,50.6068817 L135.630952,50.5803616 L135.524829,50.209078 L135.12687,49.8112742 L134.543194,48.7504654 L134.26256,47.9796654 L134.111513,47.8279645 L133.519452,46.8417142 L132.567425,47.1182727 L132.309402,46.8731345 L132.728391,46.6465321 L132.647682,46.2324514 L132.35669,45.9395619 L132.336743,45.7079413 L131.962402,45.4548352 L131.947802,45.189811 L132.389923,45.2053858 L132.426323,44.9782437 L132.22456,44.8486829 L132.303162,44.5320046 L132.07755,44.3511325 L132.149677,43.5817302 L132.007214,43.3848683 L131.483619,43.3188337 L131.130396,42.9762242 L130.333382,42.8216721 L129.849464,42.6628794 Z M123.732389,93.8214886 L124.130352,93.715408 L124.342597,93.6756278 L124.581376,93.2910825 L124.966072,93.0258795 L125.178318,93.1054415 L125.456892,93.1584818 L125.523218,93.3308627 L124.952808,93.5297654 L124.263005,93.7684483 L123.878309,93.967351 L123.732389,93.8214886 Z M125.947712,92.9993593 L126.146693,93.1717419 L126.597717,92.8269784 L127.473233,92.1374499 L128.083441,91.5009616 L128.494669,90.4136293 L128.653854,90.1351662 L128.680385,89.57824 L128.560996,89.6578004 L128.401812,90.1219061 L128.163033,90.8777334 L127.632417,91.7396461 L126.916086,92.4291731 L126.35894,92.7474164 L125.947712,92.9993593 Z M134.901858,53.3912798 L135.326352,52.9802144 L135.843701,52.5558889 L136.095743,52.4498083 L136.122274,52.1183049 L136.016152,51.1105331 L135.777374,50.7259894 L135.67125,50.4210061 L135.790639,50.3812243 L136.241664,51.2829156 L136.30799,52.0122227 L136.28146,52.5691506 L135.724313,52.8210919 L135.260024,53.2188973 L135.074309,53.4178 L134.901858,53.3912798 Z M145.401046,27.5358006 L145.757488,27.4232828 L145.832531,27.1419931 L146.001371,27.1607455 L146.170211,27.5358006 L145.963851,27.6108103 L145.326007,27.6295644 L145.401046,27.5358006 Z M143.862719,27.6670692 L144.237919,27.2357569 L144.500562,27.2357569 L144.800724,27.4795417 L144.406763,27.6483151 L144.050321,27.8170886 L143.862719,27.6670692 Z M145.779487,16.6473918 L146.03153,16.3954488 L146.257042,16.5678314 L146.349899,16.9656368 L146.071326,17.1114975 L145.779487,16.6473918 Z M146.880515,15.6794018 L147.172354,15.984385 C147.172354,15.984385 147.384601,15.9976435 147.384601,15.9446032 C147.384601,15.8915629 147.424397,15.6130998 147.424397,15.6130998 L147.570317,15.4804991 L147.437662,15.1887748 L147.106027,15.3081165 L146.880515,15.6794018 Z M132.32837,42.3720913 L132.514085,42.7831567 L132.540615,43.0748799 L132.726332,43.3798631 C132.726332,43.3798631 132.872252,43.2340007 132.872252,43.1809605 C132.872252,43.1279202 132.752864,42.6770745 132.752864,42.6770745 L132.633474,42.2925292 L132.32837,42.3720913 Z M93.1541537,12.4773937 L93.4543162,12.1398461 L93.8107582,12.0085773 L94.6924825,11.3709854 L95.0676827,11.2772218 L95.1427254,11.3522338 L94.2985208,12.1961045 L93.754477,12.5148988 L93.4167949,12.6649209 L93.1541537,12.4773937 Z M107.296557,17.7479858 L107.40268,18.1590496 L107.933296,18.1855697 L108.145543,17.9866671 C108.145543,17.9866671 108.132277,17.7479858 108.079216,17.721464 C108.026153,17.6949439 107.813908,17.4164808 107.813908,17.4164808 L107.455743,17.456261 L107.190433,17.4827811 L107.137372,17.6684237 L107.296557,17.7479858 Z M11.5070921,1.04019088 L11.8387274,1.01367074 L11.9183196,1.2390934 L12.1703621,0.973889543 L12.5550583,0.973889543 L12.6877119,1.22583235 L12.4356693,1.50429545 L12.5417938,1.63689828 L12.4224048,1.96840183 L12.1968929,2.03470153 C12.1968929,2.03470153 12.0509731,2.04796258 12.0509731,1.99492214 C12.0509731,1.94188169 12.2897513,1.57059695 12.2897513,1.57059695 L12.011178,1.47777531 L11.9581165,1.71645887 L11.8387274,1.82253975 L11.5866844,1.45125501 L11.5070921,1.04019088 Z M72.740186,92.084408 L72.6473288,90.9175153 L72.1963047,89.7373608 L72.1034458,88.5837282 L72.3554885,87.2311929 L72.8993714,86.1040804 L73.4697817,85.2156491 L73.987134,84.6322012 L74.0932566,84.671983 L73.3105979,85.7593153 L72.5942675,86.8333891 L72.2626313,87.9207198 L72.20957,88.7693708 L72.3554885,89.7771427 L72.7799819,90.9572971 L72.8595739,91.8059449 L72.8861045,92.0446294 L72.740186,92.084408 Z M5.71011056,54.3062296 L5.92235695,54.5581725 L5.89582631,54.7703353 L5.36521018,54.7570752 L5.2723523,54.5581725 L5.1662291,54.3194896 L5.71011056,54.3062296 Z M6.02848014,54.3062296 L6.22746121,54.200149 L6.81113895,54.5449125 L7.31522429,54.7438135 L7.16930481,54.8498973 L6.42644229,54.8101155 L6.1611343,54.5449125 L6.02848014,54.3062296 Z M9.42442336,57.554968 L9.71626116,57.9395117 L9.84891647,58.0986341 L10.100959,58.1914546 L10.1938157,57.9527717 L10.0346314,57.6610486 L9.5968738,57.3295452 L9.42442336,57.3560653 L9.42442336,57.554968 Z M9.18564519,58.9738037 L9.47748479,59.4909497 L9.67646586,59.8091946 L9.43768786,59.8489732 L9.22544212,59.6500721 C9.22544212,59.6500721 9.10605312,59.4113892 9.10605312,59.3450873 C9.10605312,59.2787886 9.10605312,58.9870637 9.10605312,58.9870637 L9.18564519,58.9738037 Z" opacity=".3" transform="translate(0 33)"/>
  </g>
</svg>
