<svg xmlns="http://www.w3.org/2000/svg" xmlns:xlink="http://www.w3.org/1999/xlink" width="625" height="164" viewBox="0 0 625 164">
  <defs>
    <path id="survey-2018-logo-a" d="M0.45,36.27 C0.45,31.2299748 1.3799907,26.5350218 3.24,22.185 C5.1000093,17.8349783 7.6799835,14.0400162 10.98,10.8 C14.2800165,7.5599838 18.2249771,5.02500915 22.815,3.195 C27.4050229,1.36499085 32.4599724,0.45 37.98,0.45 C43.4400273,0.45 48.4799769,1.36499085 53.1,3.195 C57.7200231,5.02500915 61.6949833,7.5599838 65.025,10.8 C68.3550166,14.0400162 70.9499907,17.8349783 72.81,22.185 C74.6700093,26.5350218 75.6,31.2299748 75.6,36.27 C75.6,41.3100252 74.6700093,46.0049783 72.81,50.355 C70.9499907,54.7050218 68.3550166,58.4999838 65.025,61.74 C61.6949833,64.9800162 57.7200231,67.5149909 53.1,69.345 C48.4799769,71.1750092 43.4400273,72.09 37.98,72.09 C32.4599724,72.09 27.4050229,71.1750092 22.815,69.345 C18.2249771,67.5149909 14.2800165,64.9800162 10.98,61.74 C7.6799835,58.4999838 5.1000093,54.7050218 3.24,50.355 C1.3799907,46.0049783 0.45,41.3100252 0.45,36.27 Z"/>
    <path id="survey-2018-logo-c" d="M23.85,33.3 C29.0690909,33.3 33.3,29.0690909 33.3,23.85 C33.3,18.6309091 29.0690909,14.4 23.85,14.4 C18.6309091,14.4 14.4,18.6309091 14.4,23.85 C14.4,29.0690909 18.6309091,33.3 23.85,33.3 Z M23.85,47.7 C10.6780087,47.7 0,37.0219913 0,23.85 C0,10.6780087 10.6780087,0 23.85,0 C37.0219913,0 47.7,10.6780087 47.7,23.85 C47.7,37.0219913 37.0219913,47.7 23.85,47.7 Z"/>
    <polygon id="survey-2018-logo-e" points="10.35 15.48 .45 15.48 .45 .54 27.99 .54 27.99 68.4 10.35 68.4"/>
    <path id="survey-2018-logo-g" d="M55.35,70.2 L0.72,70.2 L17.55,52.74 C21.9900222,48.1199769 25.4699874,44.205016 27.99,40.995 C30.5100126,37.7849839 32.3849939,35.0700111 33.615,32.85 C34.8450062,30.6299889 35.6099985,28.8300069 35.91,27.45 C36.2100015,26.0699931 36.36,24.9000048 36.36,23.94 C36.36,22.9199949 36.1950017,21.9300048 35.865,20.97 C35.5349984,20.0099952 35.0400033,19.1550037 34.38,18.405 C33.7199967,17.6549962 32.9250047,17.0550022 31.995,16.605 C31.0649954,16.1549977 29.9700063,15.93 28.71,15.93 C26.309988,15.93 24.4350068,16.7099922 23.085,18.27 C21.7349933,19.8300078 21.06,21.7799883 21.06,24.12 C21.06,24.7800033 21.1499991,25.7399937 21.33,27 L2.07,27 C2.07,23.0399802 2.71499355,19.4400162 4.005,16.2 C5.29500645,12.9599838 7.1099883,10.1700117 9.45,7.83 C11.7900117,5.4899883 14.564984,3.6900063 17.775,2.43 C20.9850161,1.1699937 24.5099808,0.54 28.35,0.54 C32.1300189,0.54 35.624984,1.139994 38.835,2.34 C42.0450161,3.540006 44.8199883,5.2199892 47.16,7.38 C49.5000117,9.5400108 51.3299934,12.1049851 52.65,15.075 C53.9700066,18.0450148 54.63,21.2699826 54.63,24.75 C54.63,28.4700186 53.835008,31.9049842 52.245,35.055 C50.6549921,38.2050157 48.1200174,41.4299835 44.64,44.73 L33.39,55.26 L55.35,55.26 L55.35,70.2 Z"/>
    <path id="survey-2018-logo-i" d="M17.1,19.8 C18.5911688,19.8 19.8,18.5911688 19.8,17.1 C19.8,15.6088312 18.5911688,14.4 17.1,14.4 C15.6088312,14.4 14.4,15.6088312 14.4,17.1 C14.4,18.5911688 15.6088312,19.8 17.1,19.8 Z M17.1,34.2 C7.65593078,34.2 0,26.5440692 0,17.1 C0,7.65593078 7.65593078,0 17.1,0 C26.5440692,0 34.2,7.65593078 34.2,17.1 C34.2,26.5440692 26.5440692,34.2 17.1,34.2 Z"/>
  </defs>
  <g fill="none" fill-rule="evenodd">
    <g transform="translate(0 3.6)">
      <g transform="translate(72.9 .9)">
        <mask id="survey-2018-logo-b" fill="#fff">
          <use xlink:href="#survey-2018-logo-a"/>
        </mask>
        <use fill="#4285F4" xlink:href="#survey-2018-logo-a"/>
        <polygon fill="#78ACFF" fill-rule="nonzero" points="-9 -7.2 37.8 -7.2 37.8 36 -9 52.2" mask="url(#survey-2018-logo-b)"/>
        <polygon fill="#3267D6" fill-rule="nonzero" points="37.8 0 75.6 0 77.339 78.3 37.8 36" mask="url(#survey-2018-logo-b)"/>
        <polygon fill="#FFF" fill-rule="nonzero" points="-4.5 0 37.8 0 37.8 36 5.942 3.6" mask="url(#survey-2018-logo-b)"/>
      </g>
      <g transform="translate(88.2 112.5)">
        <mask id="survey-2018-logo-d" fill="#fff">
          <use xlink:href="#survey-2018-logo-c"/>
        </mask>
        <use fill="#4285F4" fill-rule="nonzero" xlink:href="#survey-2018-logo-c"/>
        <polygon fill="#78ACFF" fill-rule="nonzero" points="-21.6 -19.8 25.2 -19.8 25.2 23.4 -21.6 39.6" mask="url(#survey-2018-logo-d)"/>
        <polygon fill="#3267D6" fill-rule="nonzero" points="25.2 -12.6 63 -12.6 64.739 65.7 25.2 23.4" mask="url(#survey-2018-logo-d)"/>
        <polygon fill="#FFF" fill-rule="nonzero" points="-17.1 -12.6 25.2 -12.6 25.2 23.4 -6.658 -9" mask="url(#survey-2018-logo-d)"/>
      </g>
      <g transform="translate(17.1 88.2)">
        <mask id="survey-2018-logo-f" fill="#fff">
          <use xlink:href="#survey-2018-logo-e"/>
        </mask>
        <use fill="#FFF" xlink:href="#survey-2018-logo-e"/>
        <rect width="34.2" height="37.8" x="-.9" y="-1.8" fill="#3267D6" fill-rule="nonzero" mask="url(#survey-2018-logo-f)"/>
        <rect width="22.5" height="17.1" x="9.9" y="36" fill="#4285F4" fill-rule="nonzero" mask="url(#survey-2018-logo-f)"/>
        <rect width="18" height="8.1" x="9.9" y="53.1" fill="#78ACFF" fill-rule="nonzero" mask="url(#survey-2018-logo-f)"/>
      </g>
      <mask id="survey-2018-logo-h" fill="#fff">
        <use xlink:href="#survey-2018-logo-g"/>
      </mask>
      <use fill="#4285F4" xlink:href="#survey-2018-logo-g"/>
      <polygon fill="#3267D6" fill-rule="nonzero" points="33.292 23.4 59.681 18 42.3 -8.1 7.97 -5.4 -4.658 12.6 -4.658 29.7 13.5 35.1 23.4 35.1" mask="url(#survey-2018-logo-h)"/>
      <polygon fill="#78ACFF" fill-rule="nonzero" points="21.6 45.9 41.4 54 37.792 79.2 -3.323 72.99 -3.323 58.5" mask="url(#survey-2018-logo-h)"/>
      <rect width="22.5" height="18" x="39.6" y="54.9" fill="#FFF" fill-rule="nonzero" mask="url(#survey-2018-logo-h)"/>
      <g transform="translate(94.5 86.4)">
        <mask id="survey-2018-logo-j" fill="#fff">
          <use xlink:href="#survey-2018-logo-i"/>
        </mask>
        <use fill="#4285F4" fill-rule="nonzero" xlink:href="#survey-2018-logo-i"/>
        <polygon fill="#78ACFF" fill-rule="nonzero" points="-29.7 -26.1 17.1 -26.1 17.1 17.1 -18.9 36.9" mask="url(#survey-2018-logo-j)"/>
        <polygon fill="#3267D6" fill-rule="nonzero" points="17.1 -18.9 54.9 -18.9 53.1 46.8 17.1 17.1" mask="url(#survey-2018-logo-j)"/>
        <polygon fill="#FFF" fill-rule="nonzero" points="-25.2 -18.9 17.1 -18.9 17.1 17.1 0 -15.574" mask="url(#survey-2018-logo-j)"/>
      </g>
    </g>
    <rect width="18.9" height="1.8" x="63" y="143.1" fill="#FFF" fill-rule="nonzero"/>
    <rect width="9.9" height="1.8" x="72" y="149.4" fill="#FFF" fill-rule="nonzero"/>
    <rect width="23.4" height="1.8" x="58.5" y="136.8" fill="#FFF" fill-rule="nonzero"/>
    <rect width="9.9" height="1.8" x="75.6" y="63" fill="#FFF" fill-rule="nonzero"/>
    <rect width="14.4" height="1.8" x="89.1" y="63" fill="#FFF" fill-rule="nonzero"/>
    <rect width="18.9" height="1.8" x="75.6" y="68.4" fill="#FFF" fill-rule="nonzero"/>
    <rect width="9.9" height="1.8" x="70.2" fill="#FFF" fill-rule="nonzero"/>
    <rect width="18.9" height="1.8" x="70.2" y="5.4" fill="#FFF" fill-rule="nonzero"/>
    <path fill="#FFF" fill-rule="nonzero" d="M1.8,92.7 L11.7,92.7 L11.7,94.5 L1.8,94.5 L1.8,92.7 Z M1.8,125.1 L11.7,125.1 L11.7,126.9 L1.8,126.9 L1.8,125.1 Z M1.8,157.5 L11.7,157.5 L11.7,159.3 L1.8,159.3 L1.8,157.5 Z"/>
    <polyline stroke="#FFF" stroke-width="1.8" points="66.319 6.3 54.619 6.3 39.6 21.319"/>
    <path fill="#FFF" d="M191.184,17.024 L208.032,17.024 C212.11202,17.024 215.987982,17.4799954 219.66,18.392 C223.332018,19.3040046 226.535986,20.7799898 229.272,22.82 C232.008014,24.8600102 234.179992,27.5119837 235.788,30.776 C237.396008,34.0400163 238.2,37.9999767 238.2,42.656 C238.2,46.7840206 237.420008,50.4199843 235.86,53.564 C234.299992,56.7080157 232.200013,59.3479893 229.56,61.484 C226.919987,63.6200107 223.872017,65.2399945 220.416,66.344 C216.959983,67.4480055 213.336019,68 209.544,68 L191.184,68 L191.184,17.024 Z M202.416,57.632 L208.248,57.632 C210.840013,57.632 213.251989,57.3680026 215.484,56.84 C217.716011,56.3119974 219.647992,55.4360061 221.28,54.212 C222.912008,52.9879939 224.195995,51.38001 225.132,49.388 C226.068005,47.39599 226.536,44.9600144 226.536,42.08 C226.536,39.5839875 226.068005,37.4120092 225.132,35.564 C224.195995,33.7159908 222.936008,32.192006 221.352,30.992 C219.767992,29.791994 217.908011,28.892003 215.772,28.292 C213.635989,27.691997 211.392012,27.392 209.04,27.392 L202.416,27.392 L202.416,57.632 Z M278.584,61.952 C276.855991,64.160011 274.672013,65.863994 272.032,67.064 C269.391987,68.264006 266.656014,68.864 263.824,68.864 C261.135987,68.864 258.604012,68.4320043 256.228,67.568 C253.851988,66.7039957 251.788009,65.468008 250.036,63.86 C248.283991,62.251992 246.904005,60.3200113 245.896,58.064 C244.887995,55.8079887 244.384,53.2880139 244.384,50.504 C244.384,47.7199861 244.887995,45.2000113 245.896,42.944 C246.904005,40.6879887 248.283991,38.756008 250.036,37.148 C251.788009,35.539992 253.851988,34.3040043 256.228,33.44 C258.604012,32.5759957 261.135987,32.144 263.824,32.144 C266.320012,32.144 268.58799,32.5759957 270.628,33.44 C272.66801,34.3040043 274.395993,35.539992 275.812,37.148 C277.228007,38.756008 278.319996,40.6879887 279.088,42.944 C279.856004,45.2000113 280.24,47.7199861 280.24,50.504 L280.24,53.888 L255.184,53.888 C255.616002,55.9520103 256.551993,57.5959939 257.992,58.82 C259.432007,60.0440061 261.207989,60.656 263.32,60.656 C265.096009,60.656 266.595994,60.260004 267.82,59.468 C269.044006,58.675996 270.111995,57.6560062 271.024,56.408 L278.584,61.952 Z M269.44,46.544 C269.488,44.7199909 268.888006,43.1600065 267.64,41.864 C266.391994,40.5679935 264.78401,39.92 262.816,39.92 C261.615994,39.92 260.560005,40.1119981 259.648,40.496 C258.735995,40.8800019 257.956003,41.371997 257.308,41.972 C256.659997,42.572003 256.156002,43.267996 255.796,44.06 C255.435998,44.852004 255.232,45.6799957 255.184,46.544 L269.44,46.544 Z M307.592,43.304 C306.007992,41.3359902 303.920013,40.352 301.328,40.352 C300.415995,40.352 299.528004,40.5679978 298.664,41 C297.799996,41.4320022 297.368,42.1759947 297.368,43.232 C297.368,44.0960043 297.811996,44.731998 298.7,45.14 C299.588004,45.548002 300.715993,45.9079984 302.084,46.22 C303.452007,46.5320016 304.915992,46.8679982 306.476,47.228 C308.036008,47.5880018 309.499993,48.1519962 310.868,48.92 C312.236007,49.6880038 313.363996,50.7319934 314.252,52.052 C315.140004,53.3720066 315.584,55.135989 315.584,57.344 C315.584,59.6000113 315.092005,61.4599927 314.108,62.924 C313.123995,64.3880073 311.864008,65.5639956 310.328,66.452 C308.791992,67.3400044 307.06401,67.9639982 305.144,68.324 C303.22399,68.6840018 301.328009,68.864 299.456,68.864 C297.007988,68.864 294.536012,68.5160035 292.04,67.82 C289.543988,67.1239965 287.432009,65.8880089 285.704,64.112 L292.256,56.84 C293.264005,58.0880062 294.379994,59.0359968 295.604,59.684 C296.828006,60.3320032 298.255992,60.656 299.888,60.656 C301.136006,60.656 302.263995,60.4760018 303.272,60.116 C304.280005,59.7559982 304.784,59.0960048 304.784,58.136 C304.784,57.2239954 304.340004,56.5400023 303.452,56.084 C302.563996,55.6279977 301.436007,55.2440016 300.068,54.932 C298.699993,54.6199984 297.236008,54.2840018 295.676,53.924 C294.115992,53.5639982 292.652007,53.0240036 291.284,52.304 C289.915993,51.5839964 288.788004,50.5640066 287.9,49.244 C287.011996,47.9239934 286.568,46.160011 286.568,43.952 C286.568,41.8879897 286.987996,40.1120074 287.828,38.624 C288.668004,37.1359926 289.771993,35.9120048 291.14,34.952 C292.508007,33.9919952 294.079991,33.2840023 295.856,32.828 C297.632009,32.3719977 299.431991,32.144 301.256,32.144 C303.560012,32.144 305.887988,32.4799966 308.24,33.152 C310.592012,33.8240034 312.583992,35.0239914 314.216,36.752 L307.592,43.304 Z M322.272,33.008 L333.072,33.008 L333.072,68 L322.272,68 L322.272,33.008 Z M321.408,21.992 C321.408,20.2639914 322.019994,18.7880061 323.244,17.564 C324.468006,16.3399939 325.943991,15.728 327.672,15.728 C329.400009,15.728 330.875994,16.3399939 332.1,17.564 C333.324006,18.7880061 333.936,20.2639914 333.936,21.992 C333.936,23.7200086 333.324006,25.1959939 332.1,26.42 C330.875994,27.6440061 329.400009,28.256 327.672,28.256 C325.943991,28.256 324.468006,27.6440061 323.244,26.42 C322.019994,25.1959939 321.408,23.7200086 321.408,21.992 Z M378.568,65.048 C378.568,71.6720331 376.900017,76.6999828 373.564,80.132 C370.227983,83.5640172 365.152034,85.28 358.336,85.28 C355.215984,85.28 352.144015,84.9320035 349.12,84.236 C346.095985,83.5399965 343.312013,82.1840101 340.768,80.168 L346.744,71.24 C348.424008,72.632007 350.187991,73.7359959 352.036,74.552 C353.884009,75.3680041 355.911989,75.776 358.12,75.776 C361.432017,75.776 363.867992,74.972008 365.428,73.364 C366.988008,71.755992 367.768,69.7040125 367.768,67.208 L367.768,63.824 L367.624,63.824 C366.375994,65.5040084 364.828009,66.6919965 362.98,67.388 C361.131991,68.0840035 359.392008,68.432 357.76,68.432 C355.167987,68.432 352.816011,67.9880044 350.704,67.1 C348.591989,66.2119956 346.780008,64.964008 345.268,63.356 C343.755992,61.747992 342.592004,59.840011 341.776,57.632 C340.959996,55.423989 340.552,53.0000132 340.552,50.36 C340.552,48.0559885 340.923996,45.800011 341.668,43.592 C342.412004,41.383989 343.467993,39.4400084 344.836,37.76 C346.204007,36.0799916 347.87199,34.7240052 349.84,33.692 C351.80801,32.6599948 354.039988,32.144 356.536,32.144 C358.072008,32.144 359.475994,32.3119983 360.748,32.648 C362.020006,32.9840017 363.159995,33.4159974 364.168,33.944 C365.176005,34.4720026 366.039996,35.0599968 366.76,35.708 C367.480004,36.3560032 368.055998,36.9919969 368.488,37.616 L368.632,37.616 L368.632,33.008 L378.568,33.008 L378.568,65.048 Z M351.352,50.288 C351.352,51.4400058 351.567998,52.5319948 352,53.564 C352.432002,54.5960052 353.043996,55.507996 353.836,56.3 C354.628004,57.092004 355.539995,57.7279976 356.572,58.208 C357.604005,58.6880024 358.743994,58.928 359.992,58.928 C361.192006,58.928 362.319995,58.6880024 363.376,58.208 C364.432005,57.7279976 365.355996,57.092004 366.148,56.3 C366.940004,55.507996 367.551998,54.5960052 367.984,53.564 C368.416002,52.5319948 368.632,51.4400058 368.632,50.288 C368.632,49.1359942 368.416002,48.0440052 367.984,47.012 C367.551998,45.9799948 366.940004,45.068004 366.148,44.276 C365.355996,43.483996 364.432005,42.8480024 363.376,42.368 C362.319995,41.8879976 361.192006,41.648 359.992,41.648 C358.743994,41.648 357.604005,41.8879976 356.572,42.368 C355.539995,42.8480024 354.628004,43.483996 353.836,44.276 C353.043996,45.068004 352.432002,45.9799948 352,47.012 C351.567998,48.0440052 351.352,49.1359942 351.352,50.288 Z M388.208,33.008 L398.576,33.008 L398.576,37.76 L398.72,37.76 C399.056002,37.0879966 399.535997,36.4160034 400.16,35.744 C400.784003,35.0719966 401.527996,34.4720026 402.392,33.944 C403.256004,33.4159974 404.239994,32.9840017 405.344,32.648 C406.448006,32.3119983 407.647994,32.144 408.944,32.144 C411.680014,32.144 413.887992,32.5639958 415.568,33.404 C417.248008,34.2440042 418.555995,35.4079926 419.492,36.896 C420.428005,38.3840074 421.063998,40.1359899 421.4,42.152 C421.736002,44.1680101 421.904,46.3519882 421.904,48.704 L421.904,68 L411.104,68 L411.104,50.864 C411.104,49.855995 411.068,48.8120054 410.996,47.732 C410.924,46.6519946 410.708002,45.6560046 410.348,44.744 C409.987998,43.8319954 409.436004,43.0880029 408.692,42.512 C407.947996,41.9359971 406.880007,41.648 405.488,41.648 C404.095993,41.648 402.968004,41.8999975 402.104,42.404 C401.239996,42.9080025 400.580002,43.5799958 400.124,44.42 C399.667998,45.2600042 399.368001,46.2079947 399.224,47.264 C399.079999,48.3200053 399.008,49.4239942 399.008,50.576 L399.008,68 L388.208,68 L388.208,33.008 Z M464.08,26.96 L449.536,26.96 L449.536,17.024 L489.856,17.024 L489.856,26.96 L475.312,26.96 L475.312,68 L464.08,68 L464.08,26.96 Z M485.888,50.504 C485.888,47.7199861 486.391995,45.2000113 487.4,42.944 C488.408005,40.6879887 489.787991,38.756008 491.54,37.148 C493.292009,35.539992 495.355988,34.3040043 497.732,33.44 C500.108012,32.5759957 502.639987,32.144 505.328,32.144 C508.016013,32.144 510.547988,32.5759957 512.924,33.44 C515.300012,34.3040043 517.363991,35.539992 519.116,37.148 C520.868009,38.756008 522.247995,40.6879887 523.256,42.944 C524.264005,45.2000113 524.768,47.7199861 524.768,50.504 C524.768,53.2880139 524.264005,55.8079887 523.256,58.064 C522.247995,60.3200113 520.868009,62.251992 519.116,63.86 C517.363991,65.468008 515.300012,66.7039957 512.924,67.568 C510.547988,68.4320043 508.016013,68.864 505.328,68.864 C502.639987,68.864 500.108012,68.4320043 497.732,67.568 C495.355988,66.7039957 493.292009,65.468008 491.54,63.86 C489.787991,62.251992 488.408005,60.3200113 487.4,58.064 C486.391995,55.8079887 485.888,53.2880139 485.888,50.504 Z M496.688,50.504 C496.688,53.1440132 497.443992,55.2799918 498.956,56.912 C500.468008,58.5440082 502.591986,59.36 505.328,59.36 C508.064014,59.36 510.187992,58.5440082 511.7,56.912 C513.212008,55.2799918 513.968,53.1440132 513.968,50.504 C513.968,47.8639868 513.212008,45.7280082 511.7,44.096 C510.187992,42.4639918 508.064014,41.648 505.328,41.648 C502.591986,41.648 500.468008,42.4639918 498.956,44.096 C497.443992,45.7280082 496.688,47.8639868 496.688,50.504 Z M530.808,50.504 C530.808,47.7199861 531.311995,45.2000113 532.32,42.944 C533.328005,40.6879887 534.707991,38.756008 536.46,37.148 C538.212009,35.539992 540.275988,34.3040043 542.652,33.44 C545.028012,32.5759957 547.559987,32.144 550.248,32.144 C552.936013,32.144 555.467988,32.5759957 557.844,33.44 C560.220012,34.3040043 562.283991,35.539992 564.036,37.148 C565.788009,38.756008 567.167995,40.6879887 568.176,42.944 C569.184005,45.2000113 569.688,47.7199861 569.688,50.504 C569.688,53.2880139 569.184005,55.8079887 568.176,58.064 C567.167995,60.3200113 565.788009,62.251992 564.036,63.86 C562.283991,65.468008 560.220012,66.7039957 557.844,67.568 C555.467988,68.4320043 552.936013,68.864 550.248,68.864 C547.559987,68.864 545.028012,68.4320043 542.652,67.568 C540.275988,66.7039957 538.212009,65.468008 536.46,63.86 C534.707991,62.251992 533.328005,60.3200113 532.32,58.064 C531.311995,55.8079887 530.808,53.2880139 530.808,50.504 Z M541.608,50.504 C541.608,53.1440132 542.363992,55.2799918 543.876,56.912 C545.388008,58.5440082 547.511986,59.36 550.248,59.36 C552.984014,59.36 555.107992,58.5440082 556.62,56.912 C558.132008,55.2799918 558.888,53.1440132 558.888,50.504 C558.888,47.8639868 558.132008,45.7280082 556.62,44.096 C555.107992,42.4639918 552.984014,41.648 550.248,41.648 C547.511986,41.648 545.388008,42.4639918 543.876,44.096 C542.363992,45.7280082 541.608,47.8639868 541.608,50.504 Z M577.168,13.568 L587.968,13.568 L587.968,68 L577.168,68 L577.168,13.568 Z M616.544,43.304 C614.959992,41.3359902 612.872013,40.352 610.28,40.352 C609.367995,40.352 608.480004,40.5679978 607.616,41 C606.751996,41.4320022 606.32,42.1759947 606.32,43.232 C606.32,44.0960043 606.763996,44.731998 607.652,45.14 C608.540004,45.548002 609.667993,45.9079984 611.036,46.22 C612.404007,46.5320016 613.867992,46.8679982 615.428,47.228 C616.988008,47.5880018 618.451993,48.1519962 619.82,48.92 C621.188007,49.6880038 622.315996,50.7319934 623.204,52.052 C624.092004,53.3720066 624.536,55.135989 624.536,57.344 C624.536,59.6000113 624.044005,61.4599927 623.06,62.924 C622.075995,64.3880073 620.816008,65.5639956 619.28,66.452 C617.743992,67.3400044 616.01601,67.9639982 614.096,68.324 C612.17599,68.6840018 610.280009,68.864 608.408,68.864 C605.959988,68.864 603.488012,68.5160035 600.992,67.82 C598.495988,67.1239965 596.384009,65.8880089 594.656,64.112 L601.208,56.84 C602.216005,58.0880062 603.331994,59.0359968 604.556,59.684 C605.780006,60.3320032 607.207992,60.656 608.84,60.656 C610.088006,60.656 611.215995,60.4760018 612.224,60.116 C613.232005,59.7559982 613.736,59.0960048 613.736,58.136 C613.736,57.2239954 613.292004,56.5400023 612.404,56.084 C611.515996,55.6279977 610.388007,55.2440016 609.02,54.932 C607.651993,54.6199984 606.188008,54.2840018 604.628,53.924 C603.067992,53.5639982 601.604007,53.0240036 600.236,52.304 C598.867993,51.5839964 597.740004,50.5640066 596.852,49.244 C595.963996,47.9239934 595.52,46.160011 595.52,43.952 C595.52,41.8879897 595.939996,40.1120074 596.78,38.624 C597.620004,37.1359926 598.723993,35.9120048 600.092,34.952 C601.460007,33.9919952 603.031991,33.2840023 604.808,32.828 C606.584009,32.3719977 608.383991,32.144 610.208,32.144 C612.512012,32.144 614.839988,32.4799966 617.192,33.152 C619.544012,33.8240034 621.535992,35.0239914 623.168,36.752 L616.544,43.304 Z M216.384,105.48 C215.471995,104.327994 214.236008,103.476003 212.676,102.924 C211.115992,102.371997 209.640007,102.096 208.248,102.096 C207.431996,102.096 206.592004,102.191999 205.728,102.384 C204.863996,102.576001 204.048004,102.875998 203.28,103.284 C202.511996,103.692002 201.888002,104.231997 201.408,104.904 C200.927998,105.576003 200.688,106.391995 200.688,107.352 C200.688,108.888008 201.263994,110.063996 202.416,110.88 C203.568006,111.696004 205.019991,112.391997 206.772,112.968 C208.524009,113.544003 210.40799,114.119997 212.424,114.696 C214.44001,115.272003 216.323991,116.087995 218.076,117.144 C219.828009,118.200005 221.279994,119.615991 222.432,121.392 C223.584006,123.168009 224.16,125.543985 224.16,128.52 C224.16,131.352014 223.632005,133.823989 222.576,135.936 C221.519995,138.048011 220.092009,139.799993 218.292,141.192 C216.491991,142.584007 214.404012,143.615997 212.028,144.288 C209.651988,144.960003 207.144013,145.296 204.504,145.296 C201.191983,145.296 198.120014,144.792005 195.288,143.784 C192.455986,142.775995 189.816012,141.144011 187.368,138.888 L195.36,130.104 C196.512006,131.640008 197.963991,132.827996 199.716,133.668 C201.468009,134.508004 203.279991,134.928 205.152,134.928 C206.064005,134.928 206.987995,134.820001 207.924,134.604 C208.860005,134.387999 209.699996,134.064002 210.444,133.632 C211.188004,133.199998 211.787998,132.648003 212.244,131.976 C212.700002,131.303997 212.928,130.512005 212.928,129.6 C212.928,128.063992 212.340006,126.852004 211.164,125.964 C209.987994,125.075996 208.512009,124.320003 206.736,123.696 C204.959991,123.071997 203.04001,122.448003 200.976,121.824 C198.91199,121.199997 196.992009,120.360005 195.216,119.304 C193.439991,118.247995 191.964006,116.856009 190.788,115.128 C189.611994,113.399991 189.024,111.120014 189.024,108.288 C189.024,105.551986 189.563995,103.15201 190.644,101.088 C191.724005,99.0239897 193.163991,97.296007 194.964,95.904 C196.764009,94.511993 198.839988,93.4680035 201.192,92.772 C203.544012,92.0759965 205.967988,91.728 208.464,91.728 C211.344014,91.728 214.127987,92.1359959 216.816,92.952 C219.504013,93.7680041 221.927989,95.1359904 224.088,97.056 L216.384,105.48 Z M265.84,144 L255.472,144 L255.472,139.248 L255.328,139.248 C254.943998,139.920003 254.452003,140.591997 253.852,141.264 C253.251997,141.936003 252.520004,142.535997 251.656,143.064 C250.791996,143.592003 249.808006,144.023998 248.704,144.36 C247.599994,144.696002 246.400006,144.864 245.104,144.864 C242.367986,144.864 240.148009,144.444004 238.444,143.604 C236.739991,142.763996 235.420005,141.600007 234.484,140.112 C233.547995,138.623993 232.924002,136.87201 232.612,134.856 C232.299998,132.83999 232.144,130.656012 232.144,128.304 L232.144,109.008 L242.944,109.008 L242.944,126.144 C242.944,127.152005 242.98,128.195995 243.052,129.276 C243.124,130.356005 243.339998,131.351995 243.7,132.264 C244.060002,133.176005 244.611996,133.919997 245.356,134.496 C246.100004,135.072003 247.167993,135.36 248.56,135.36 C249.952007,135.36 251.079996,135.108003 251.944,134.604 C252.808004,134.099997 253.467998,133.428004 253.924,132.588 C254.380002,131.747996 254.679999,130.800005 254.824,129.744 C254.968001,128.687995 255.04,127.584006 255.04,126.432 L255.04,109.008 L265.84,109.008 L265.84,144 Z M274.472,109.008 L285.272,109.008 L285.272,114.624 L285.416,114.624 C286.568006,112.463989 287.935992,110.844005 289.52,109.764 C291.104008,108.683995 293.095988,108.144 295.496,108.144 C296.120003,108.144 296.743997,108.168 297.368,108.216 C297.992003,108.264 298.567997,108.359999 299.096,108.504 L299.096,118.368 C298.327996,118.127999 297.572004,117.948001 296.828,117.828 C296.083996,117.707999 295.304004,117.648 294.488,117.648 C292.42399,117.648 290.792006,117.935997 289.592,118.512 C288.391994,119.088003 287.468003,119.891995 286.82,120.924 C286.171997,121.956005 285.752001,123.191993 285.56,124.632 C285.367999,126.072007 285.272,127.655991 285.272,129.384 L285.272,144 L274.472,144 L274.472,109.008 Z M301.104,109.008 L312.768,109.008 L321.624,132.768 L321.768,132.768 L329.976,109.008 L340.848,109.008 L327.024,144 L315.576,144 L301.104,109.008 Z M378.928,137.952 C377.199991,140.160011 375.016013,141.863994 372.376,143.064 C369.735987,144.264006 367.000014,144.864 364.168,144.864 C361.479987,144.864 358.948012,144.432004 356.572,143.568 C354.195988,142.703996 352.132009,141.468008 350.38,139.86 C348.627991,138.251992 347.248005,136.320011 346.24,134.064 C345.231995,131.807989 344.728,129.288014 344.728,126.504 C344.728,123.719986 345.231995,121.200011 346.24,118.944 C347.248005,116.687989 348.627991,114.756008 350.38,113.148 C352.132009,111.539992 354.195988,110.304004 356.572,109.44 C358.948012,108.575996 361.479987,108.144 364.168,108.144 C366.664012,108.144 368.93199,108.575996 370.972,109.44 C373.01201,110.304004 374.739993,111.539992 376.156,113.148 C377.572007,114.756008 378.663996,116.687989 379.432,118.944 C380.200004,121.200011 380.584,123.719986 380.584,126.504 L380.584,129.888 L355.528,129.888 C355.960002,131.95201 356.895993,133.595994 358.336,134.82 C359.776007,136.044006 361.551989,136.656 363.664,136.656 C365.440009,136.656 366.939994,136.260004 368.164,135.468 C369.388006,134.675996 370.455995,133.656006 371.368,132.408 L378.928,137.952 Z M369.784,122.544 C369.832,120.719991 369.232006,119.160006 367.984,117.864 C366.735994,116.567994 365.12801,115.92 363.16,115.92 C361.959994,115.92 360.904005,116.111998 359.992,116.496 C359.079995,116.880002 358.300003,117.371997 357.652,117.972 C357.003997,118.572003 356.500002,119.267996 356.14,120.06 C355.779998,120.852004 355.576,121.679996 355.528,122.544 L369.784,122.544 Z M408.296,149.688 C407.575996,151.560009 406.880003,153.215993 406.208,154.656 C405.535997,156.096007 404.684005,157.307995 403.652,158.292 C402.619995,159.276005 401.312008,160.019997 399.728,160.524 C398.143992,161.028003 396.056013,161.28 393.464,161.28 C390.679986,161.28 387.992013,160.848004 385.4,159.984 L386.84,151.128 C388.472008,151.848004 390.151991,152.208 391.88,152.208 C393.080006,152.208 394.063996,152.076001 394.832,151.812 C395.600004,151.547999 396.235997,151.164003 396.74,150.66 C397.244003,150.155997 397.663998,149.544004 398,148.824 C398.336002,148.103996 398.695998,147.264005 399.08,146.304 L399.872,144.288 L384.536,109.008 L396.2,109.008 L405.2,132.12 L405.344,132.12 L413.048,109.008 L424.136,109.008 L408.296,149.688 Z"/>
  </g>
</svg>
