<svg xmlns="http://www.w3.org/2000/svg" width="175" height="23"><path fill="#FFF" fill-rule="evenodd" d="M9.98 23c-1.68 0-3.15-.24-4.4-.7a8.8 8.8 0 0 1-3.11-1.94A7.73 7.73 0 0 1 .6 17.45 10.5 10.5 0 0 1 0 13.84V.6h7.24v12.43c0 1.04.25 1.86.75 2.44.5.59 1.2.88 2.11.88.92 0 1.62-.3 2.12-.88.5-.58.75-1.4.75-2.44V.6h7.2v13.23c0 1.29-.21 2.5-.65 3.61a8.04 8.04 0 0 1-1.93 2.9 9.08 9.08 0 0 1-3.18 1.94c-1.27.47-2.74.71-4.43.71zm23.46-6.98l-3.74 6.37h-8.58l7.7-11.35L21.52.6h8.73l3.4 5.72L36.92.61h8.53l-7.19 10.34 7.95 11.44h-8.86l-3.9-6.37zm26.01 6.37h-7.24V6.79h-5.3V.62h17.84V6.8h-5.3v15.59zM71.53.6h12.05l6.02 10.88-6.02 10.88H71.53L65.5 11.48 71.53.6zm1.92 10.78c0 .71.1 1.37.32 1.96.21.6.5 1.11.88 1.54a4.13 4.13 0 0 0 6.1 0c.39-.43.69-.94.9-1.54.22-.59.32-1.25.32-1.96 0-.7-.1-1.34-.32-1.92a4.13 4.13 0 0 0-3.94-2.76 4.29 4.29 0 0 0-3.06 1.28c-.37.4-.67.9-.88 1.48a5.57 5.57 0 0 0-.32 1.92zM96.89.6h12.05l6.02 10.88-6.02 10.88H96.89l-6.02-10.88L96.89.6zm1.91 10.78c0 .71.1 1.37.32 1.96.21.6.5 1.11.88 1.54a4.13 4.13 0 0 0 6.1 0c.39-.43.69-.94.9-1.54.21-.59.32-1.25.32-1.96 0-.7-.1-1.34-.32-1.92a4.13 4.13 0 0 0-3.94-2.76A4.29 4.29 0 0 0 100 7.98c-.37.4-.67.9-.88 1.48a5.57 5.57 0 0 0-.32 1.92zM116.9.6h7.31v15.5h7.15v6.28h-14.45V.6zM141.55 23a14.29 14.29 0 0 1-7.2-1.95c-.7-.4-1.32-.85-1.86-1.34l4.4-4.86c.52.56 1.19 1.05 2.03 1.48.84.43 1.71.64 2.6.64.41 0 .78-.07 1.12-.21.33-.15.5-.41.5-.8 0-.2-.06-.38-.17-.52a1.9 1.9 0 0 0-.6-.45 9.5 9.5 0 0 0-1.17-.5c-.5-.2-1.12-.4-1.87-.65-.73-.25-1.43-.54-2.1-.88a7.42 7.42 0 0 1-1.78-1.24 5.46 5.46 0 0 1-1.69-4.25 6.75 6.75 0 0 1 2.94-5.76A8.62 8.62 0 0 1 139.6.4 12.26 12.26 0 0 1 151 3.23l-4.5 4.64a4.72 4.72 0 0 0-1.79-1.4 4.77 4.77 0 0 0-1.92-.47 3 3 0 0 0-1.28.23.78.78 0 0 0-.48.75c0 .33.16.57.5.74.33.16.88.37 1.63.61.77.25 1.58.54 2.43.86.85.33 1.64.76 2.36 1.28a6.67 6.67 0 0 1 1.78 1.92c.47.76.7 1.7.7 2.83a7.2 7.2 0 0 1-2.81 5.86 8.8 8.8 0 0 1-2.85 1.44c-1.05.32-2.13.48-3.23.48zm11.9-15.95a1.86 1.86 0 0 1 .57-1.35c.18-.18.39-.32.62-.42a1.82 1.82 0 0 1 1.46 0 2.05 2.05 0 0 1 1 1.02 1.92 1.92 0 0 1-1 2.52 1.9 1.9 0 0 1-1.46 0c-.23-.1-.44-.23-.62-.4a1.92 1.92 0 0 1-.57-1.37zm9.72 1.92c-.68 0-1.3-.1-1.86-.32a4.12 4.12 0 0 1-2.44-2.31 4.72 4.72 0 0 1-.35-1.86c0-.67.12-1.29.36-1.84a4.09 4.09 0 0 1 2.48-2.32 5.29 5.29 0 0 1 4.74.58l-1.74 2.63a1.16 1.16 0 0 0-.47-.34 1.46 1.46 0 0 0-1.07-.03c-.16.06-.3.15-.43.27a1.44 1.44 0 0 0-.43 1.05c0 .24.04.44.12.61a1.27 1.27 0 0 0 .74.69 1.46 1.46 0 0 0 1.09-.04c.2-.08.35-.18.47-.32l1.75 2.57a4.9 4.9 0 0 1-2.96.98zM175 4.45a4.8 4.8 0 0 1-.36 1.92 4.21 4.21 0 0 1-4.1 2.6c-.58 0-1.13-.1-1.67-.3a4.1 4.1 0 0 1-2.38-2.3 4.8 4.8 0 0 1-.37-1.92c0-.7.12-1.34.37-1.9a4.07 4.07 0 0 1 2.38-2.27 4.88 4.88 0 0 1 4.8.88c.4.38.73.84.97 1.4.24.55.36 1.18.36 1.9zm-4.26-1.28c-.37 0-.67.12-.9.38-.23.25-.35.54-.35.88 0 .36.12.67.36.92.23.25.54.38.9.38.38 0 .69-.13.92-.38.24-.25.36-.56.36-.92 0-.34-.12-.63-.36-.88a1.22 1.22 0 0 0-.93-.38z"/></svg>