<svg xmlns="http://www.w3.org/2000/svg" width="177" height="23"><path fill="#FFF" fill-rule="evenodd" d="M9 18c1.5-.09 2.47-.45 3.14-1.17.68-.73 1.01-1.49.86-2.83V0h5v14c0 1.98.09 3.42-.83 4.86A8.29 8.29 0 0 1 13.7 22c-1.4.66-2.91.99-4.7.99-1.78 0-3.3-.33-4.7-1a8.29 8.29 0 0 1-3.47-3.14C-.09 17.42 0 15.98 0 14V0h5v14c-.15 1.34.19 2.1.86 2.83C6.53 17.55 7.5 17.9 9 18zM42 0l-7.25 11.5L42 23h-6l-4.5-6.5L27 23h-6l7.25-11.5L21 0h6l4.5 6.5L36 0h6zm2 4V0h17v4h-6v19h-4.98V4H44zm74-4h5v19h7v4h-12V0zm20.06 6.43c0 .68.2 1.23.6 1.65.4.41.92.73 1.56.96.64.22 1.35.43 2.14.64.79.2 1.57.44 2.35.73s1.49.65 2.13 1.07a4.68 4.68 0 0 1 1.56 1.81c.4.78.6 1.71.6 2.8a6.3 6.3 0 0 1-2.29 4.88c-1.52 1.35-3.53 2.03-6.02 2.03-2.5 0-4.5-.6-6.02-1.82-1.53-1.22-2.3-2.95-2.3-5.18h5.75c.15 1.79 1.05 2.68 2.71 2.68.78 0 1.39-.2 1.83-.62.44-.42.66-.95.66-1.59 0-.64-.2-1.16-.6-1.56-.4-.4-.92-.73-1.56-.96-.64-.24-1.35-.46-2.14-.66s-1.57-.45-2.35-.75-1.49-.66-2.13-1.07a4.55 4.55 0 0 1-1.56-1.8A4.6 4.6 0 0 1 132.5 7a5.81 5.81 0 0 1 2.18-5.11A8.97 8.97 0 0 1 140.56 0c2.39 0 4.32.55 5.8 1.65 1.46 1.1 2.23 2.83 2.3 5.35h-5.87c-.09-.96-.34-1.59-.78-2.03a2.23 2.23 0 0 0-1.65-.65c-.67 0-1.23.18-1.66.54-.43.36-.64.89-.64 1.57zM68.43 0h12.85l6.42 11.5L81.28 23H68.43L62 11.5 68.43 0zM81 11.5a6.7 6.7 0 0 0-1.63-4.73A5.66 5.66 0 0 0 75 5c-1.82 0-3.28.59-4.37 1.77A6.7 6.7 0 0 0 69 11.5a6.7 6.7 0 0 0 1.63 4.73A5.66 5.66 0 0 0 75 18c1.82 0 3.28-.59 4.37-1.77A6.7 6.7 0 0 0 81 11.5zM95.43 0h12.85l6.42 11.5-6.42 11.5H95.43L89 11.5 95.43 0zM108 11.5a6.7 6.7 0 0 0-1.63-4.73A5.66 5.66 0 0 0 102 5c-1.82 0-3.28.59-4.37 1.77A6.7 6.7 0 0 0 96 11.5a6.7 6.7 0 0 0 1.63 4.73A5.66 5.66 0 0 0 102 18c1.82 0 3.28-.59 4.37-1.77A6.7 6.7 0 0 0 108 11.5zm48.12-2.93c-.29.29-.64.43-1.06.43-.43 0-.78-.14-1.07-.43a1.45 1.45 0 0 1-.43-1.07c0-.42.14-.77.43-1.06.29-.29.64-.43 1.07-.43.42 0 .77.14 1.06.43.29.29.43.64.43 1.06 0 .43-.14.78-.43 1.07zm1.54-4.03c0-1.4.4-2.5 1.24-3.32a4.34 4.34 0 0 1 3.2-1.24c1.1 0 2.01.27 2.77.8.76.54 1.26 1.31 1.5 2.32h-2.95a1.3 1.3 0 0 0-1.26-.8c-.58 0-1.01.2-1.3.61-.28.41-.42.95-.42 1.63 0 .67.14 1.2.42 1.62.29.41.7.62 1.24.62.35 0 .61-.06.8-.18.2-.12.37-.33.52-.62h2.96a3.97 3.97 0 0 1-1.52 2.28c-.77.57-1.69.85-2.76.85a4.33 4.33 0 0 1-3.2-1.25 4.51 4.51 0 0 1-1.24-3.32zm9.61-.02c0-1.38.45-2.48 1.35-3.3.9-.83 2-1.24 3.32-1.24a4.7 4.7 0 0 1 3.32 1.24 4.3 4.3 0 0 1 1.34 3.3c0 1.38-.44 2.49-1.33 3.33a4.62 4.62 0 0 1-3.31 1.26 4.7 4.7 0 0 1-3.34-1.26 4.34 4.34 0 0 1-1.35-3.33zm6.55.02c0-.73-.2-1.28-.56-1.66a1.8 1.8 0 0 0-1.33-.57c-.51 0-.95.2-1.32.57-.37.38-.55.93-.55 1.66 0 .72.19 1.28.56 1.66a1.82 1.82 0 0 0 2.65 0c.36-.38.55-.94.55-1.66z"/></svg>