<svg width="24" height="24" xmlns="http://www.w3.org/2000/svg"><path d="M12 9h-2v2h2v4c0 .39.086.908.356 1.447C12.832 17.4 13.732 18 15 18c.552 0 1-.448 1-1s-.448-1-1-1c-.482 0-.707-.15-.856-.447C14.04 15.343 14 15.11 14 15v-4h2V9h-2V7c0-.552-.448-1-1-1s-1 .448-1 1v2zm5 5c0 .234.082.46.232.64l2.5 3c.4.48 1.136.48 1.536 0l2.5-3c.15-.18.232-.406.232-.64V9c0-.552-.448-1-1-1s-1 .448-1 1v4.75l-1.5 1.75-1.5-1.75V9c0-.552-.448-1-1-1s-1 .448-1 1v5zm-9.73 3.98c-.826.02-1.09-.473-2.27-.473-.7 0-.99.462-1.773.492-.808.03-1.418-.793-1.935-1.52C.238 15-.57 12.27.515 10.435c.536-.912 1.498-1.488 2.54-1.506.788-.012 1.458 1.164 1.945 1.164.48 0 1.475-1.284 2.43-1.188.4.018 1.522.156 2.243 1.188-.055.036-1.685 1.39-1.673 2.408.018 2.312 1.982 2.295 2 2.3-.018.043-.26.865-.85 1.7-.512.743-1.054 1.47-1.88 1.48zM7.442 6c.08.702-.21 1.41-.442 2-.624.424-1.326 1.054-2 1-.11-.69.236-1.644.5-2.1.58-.498 1.326-.876 1.942-.9z" fill="#555" fill-rule="evenodd"/></svg>