<svg xmlns="http://www.w3.org/2000/svg" width="82" height="82" xmlns:xlink="http://www.w3.org/1999/xlink"><defs><rect id="a" width="81" height="18" y="56" rx="9"/><rect id="b" width="66" height="82" x="8" rx="9"/><path id="c" d="M48 0h10v34H48z"/><path id="d" d="M24 0h10v34H24z"/></defs><g fill="none" fill-rule="evenodd"><use fill="#D0E0FC" xlink:href="#a"/><rect width="78" height="15" x="1.5" y="57.5" stroke="#4285F4" stroke-width="3" rx="7.5"/><use fill="#FFF" xlink:href="#b"/><rect width="63" height="79" x="9.5" y="1.5" stroke="#555" stroke-width="3" rx="9"/><rect width="47" height="23" x="17.5" y="49.5" stroke="#555" stroke-width="3" rx="9"/><path fill="#4285F4" d="M33 56h16v3H33z"/><path fill="#555" fill-rule="nonzero" d="M58 26v-3h7a6 6 0 0 0 6-6V9a6 6 0 0 0-6-6H17a6 6 0 0 0-6 6v8a6 6 0 0 0 6 6h7v3h-7a9 9 0 0 1-9-9V9a9 9 0 0 1 9-9h48a9 9 0 0 1 9 9v8a9 9 0 0 1-9 9h-7zm0 0v-3h7a6 6 0 0 0 6-6V9a6 6 0 0 0-6-6H17a6 6 0 0 0-6 6v8a6 6 0 0 0 6 6h7v3h-7a9 9 0 0 1-9-9V9a9 9 0 0 1 9-9h48a9 9 0 0 1 9 9v8a9 9 0 0 1-9 9h-7z"/><path fill="#555" d="M34 23h14v3H34z"/><path fill="#555" fill-rule="nonzero" d="M9 8v3H8a5 5 0 0 0-5 5v18a5 5 0 0 0 5 5h1v3H8a8 8 0 0 1-8-8V16a8 8 0 0 1 8-8h1zm65 3a5 5 0 0 1 5 5v18a5 5 0 0 1-5 5v3a8 8 0 0 0 8-8V16a8 8 0 0 0-8-8h-1l.09 3H74z"/><use fill="#4285F4" fill-opacity=".25" xlink:href="#c"/><path stroke="#4285F4" stroke-width="3" d="M49.5 1.5h7v31h-7z"/><path stroke="#555" stroke-width="3" d="M49.5 32.5V36a3.5 3.5 0 0 0 7 0v-3.5h-7z"/><g><use fill="#4285F4" fill-opacity=".25" xlink:href="#d"/><path stroke="#4285F4" stroke-width="3" d="M25.5 1.5h7v31h-7z"/></g><path stroke="#555" stroke-width="3" d="M25.5 32.5V36a3.5 3.5 0 0 0 7 0v-3.5h-7z"/></g></svg>