<svg xmlns="http://www.w3.org/2000/svg" width="225" height="242"><g fill="none" fill-rule="evenodd"><rect width="21" height="211" x="109" y="4" stroke="#555" stroke-width="4" transform="rotate(-6 119.5 109.5)" rx="3"/><path fill="#FFF" d="M111 212h37v10h-37z"/><path fill="#FFF" stroke="#555" stroke-width="4" d="M19.45 32.23l176.67-21.7a5 5 0 0 1 5.57 4.36L206.5 54l.75 6.03 5.67 46.16a5 5 0 0 1-4.36 5.57l-176.67 21.7a5 5 0 0 1-5.57-4.36L15.09 37.8a5 5 0 0 1 4.36-5.57z"/><path stroke="#555" stroke-width="4" d="M158 103l52-6" stroke-linecap="round" stroke-linejoin="round"/><path fill="#555" d="M51.26 82.56c-.03-.22-.02-.41.02-.6.04-.17.03-.4-.04-.67.47-1.34 1.03-2.6 1.68-3.78a13.5 13.5 0 0 1 2.45-3.2c.16-.14.29-.3.38-.46l.27-.45c.1-.15.2-.29.33-.4.12-.13.3-.22.5-.28.43-.61.96-1.19 1.59-1.73.63-.54 1.29-1.06 1.98-1.56.7-.5 1.4-1.02 2.1-1.55a14.1 14.1 0 0 0 1.87-1.67c.22.12.4.14.52.08a.6.6 0 0 1 .4-.06c.2.36.46.59.76.7.3.12.6.24.92.35.31.11.61.26.9.44.28.17.5.43.68.76-.13.02-.2.07-.17.17.02.1.05.2.1.31.05.11.09.22.1.32 0 .1-.08.15-.25.17.01.14.09.2.22.18.14-.01.22.05.23.18.01.12 0 .22-.04.29-.05.07-.04.18.02.34-.44.36-.93.7-1.47 1.05l-1.71 1.08c-.6.37-1.2.78-1.82 1.2-.61.43-1.21.91-1.8 1.45a29.44 29.44 0 0 0-3.47 3.73c-.54.7-1.03 1.4-1.49 2.13-.45.73-.83 1.43-1.13 2.11.05.1.11.18.19.25.07.07.14.15.18.24.75-.04 1.44-.11 2.07-.23a6.8 6.8 0 0 1 1.94-.07.37.37 0 0 0 .12-.25c0-.1.06-.17.15-.22 1.3-.28 2.52-.63 3.63-1.05l3.4-1.28c-.36-.1-.68-.18-.96-.22-.13-.1-.14-.21-.02-.31.12-.1.21-.2.28-.31a2.33 2.33 0 0 1-.85-.62 2.3 2.3 0 0 1-.48-1.1.53.53 0 0 0 .16-.43.45.45 0 0 0-.24-.35c-.1-.03-.16-.03-.18.01a.57.57 0 0 0-.03.13c0 .04-.02.08-.05.12-.02.04-.08.05-.16.02 0-.22.03-.4.1-.54.06-.15.1-.32.12-.52l2.25-1.86c.27.17.6.34 1 .52.38.17.8.35 1.23.52l1.32.52a31.86 31.86 0 0 1 2.22 1c.28.2.55.4.8.63l.78.64c.26.2.56.37.9.5 0 .3.05.56.14.74.1.19.15.42.14.7-.3.7-.7 1.3-1.17 1.81s-1.02.97-1.64 1.37c-.61.4-1.28.75-2 1.05-.7.3-1.44.6-2.2.88l-2.28.88c-.76.31-1.5.65-2.23 1.02a10.45 10.45 0 0 0-1.5.28l-.63.18a6.9 6.9 0 0 1-.7.16c-.1 0-.15.02-.18.08a.38.38 0 0 1-.11.16c-.38.1-.73.16-1.04.2l-.79.08c-.27.03-.55.1-.83.2-.28.11-.55.17-.8.18-1.76.1-3.2-.37-4.31-1.44-1.12-1.06-1.83-2.6-2.14-4.63.01-.1-.02-.16-.08-.19a.56.56 0 0 1-.15-.08zm24.82 1.84c-.1.03-.2-.04-.29-.2l-.31-.45.32-.03c-.18-.41-.26-.8-.23-1.17.03-.37.08-.72.14-1.07.06-.35.11-.7.14-1.02.04-.33-.03-.66-.2-1 .1.05.17.02.2-.1.04-.1.07-.24.08-.41.01-.17 0-.35-.02-.53a4.2 4.2 0 0 0-.1-.45c.2-.62.33-1.27.4-1.92.08-.66.15-1.31.2-1.95.05-.65.12-1.27.2-1.88.08-.6.21-1.19.39-1.74.27-.06.56-.06.87.02.31.07.53.18.64.33a7.87 7.87 0 0 0 1.42-1.86l1.21-2.09a9.5 9.5 0 0 1 1.44-1.84 4.24 4.24 0 0 1 2.16-1.11c.5.28 1.06.58 1.68.9.62.31 1.15.73 1.58 1.26l.48.26.49.26.04.43c.3.23.56.5.78.82.22.32.42.66.6 1.02.2.37.37.74.55 1.11.18.38.37.72.58 1.03a.73.73 0 0 0-.01.31c.02.09.05.17.09.26a2.14 2.14 0 0 1 .17.67 3.97 3.97 0 0 1-.74 2.6c-.53.7-1.2 1.28-2 1.77s-1.66.92-2.59 1.3c-.92.38-1.75.78-2.5 1.2.02.07.06.1.15.1.09-.01.12.04.1.16.61.29 1.1.52 1.44.7.34.18.66.33.96.45.3.11.62.2.97.26.35.07.83.13 1.45.2.61.08 1.1.14 1.44.2a12.74 12.74 0 0 0 1.83.14l1.27.01c.24.2.44.43.6.7.17.28.3.56.39.85.09.28.13.56.13.82 0 .27-.06.49-.18.66.02.07.08.1.17.08a.9.9 0 0 1 .28-.01 1.5 1.5 0 0 0-.32.38l-.25.44c-.08.15-.18.29-.3.42a.8.8 0 0 1-.45.25 4.6 4.6 0 0 1-2.68.31 34.17 34.17 0 0 1-4.3-.9c-.87-.22-1.58-.43-2.13-.63-.55-.2-1.04-.4-1.45-.6a9.1 9.1 0 0 1-1.16-.67 49 49 0 0 1-1.24-.89.14.14 0 0 0-.1.13c0 .06-.03.1-.08.13-.02.78-.1 1.43-.26 1.94-.15.5-.4 1.03-.73 1.58-.32-.03-.52.02-.62.15-.09.13-.21.25-.36.36-.19.06-.33.07-.43.03-.1-.04-.2-.08-.28-.13l-.28-.15c-.1-.05-.26-.05-.48 0l-.22-.5c-.08-.16-.24-.21-.5-.17a.99.99 0 0 0 .02-.46 1.85 1.85 0 0 0-.13-.34 3.4 3.4 0 0 1-.13-.32.7.7 0 0 1 0-.41zm8.33-14.34c-.21.4-.46.76-.74 1.1-.28.33-.55.67-.82 1.02-.27.35-.5.73-.7 1.14-.18.4-.3.87-.34 1.4.8-.18 1.63-.5 2.49-.95l2.42-1.3a3.08 3.08 0 0 0-.94-1.66c-.45-.4-.9-.64-1.37-.75zm9.35 12.21l.35-.33-.03-.61c.36-1.24.74-2.43 1.14-3.57a252 252 0 0 1 1.69-4.68 31 31 0 0 0 .42-1.2 1.02 1.02 0 0 1-.06-.24c0-.09 0-.2.03-.31a10.33 10.33 0 0 0 .92-2.13c.14-.41.28-.82.45-1.23.16-.4.38-.81.65-1.22l.17-.3.33-.01a1.08 1.08 0 0 1 .57-.2l.53.02a5.14 5.14 0 0 0 1.57-1.44c.44-.61.87-1.33 1.3-2.16l.29-.53.5.24c.1.05.26.1.48.13.22.03.45.08.7.13.4.06.82.13 1.22.21.4.09.72.22.96.42l.17.24a40.76 40.76 0 0 1 .32 1.09l.33 1.19c.1.39.19.83.26 1.31a42.18 42.18 0 0 1 .77 2.3c.16.56.32 1.09.5 1.59.16.5.37.97.61 1.42.2-.02.31-.02.35 0 .23-.13.5-.22.8-.27l.38-.07.15.34.17.16.22.15c.31-.01.55.03.7.12a3.18 3.18 0 0 1 .56.38l.15.1.55.14-.23.58c-.17.43-.46.87-.85 1.3-.4.44-.86.8-1.37 1.12a2 2 0 0 1 .1.37l.12.4c.12.38.23.78.32 1.19.1.41.13.84.12 1.3-.14.52-.32 1-.54 1.42-.22.43-.5.82-.82 1.18-.32.36-.7.66-1.12.91-.43.25-.88.41-1.37.49a2 2 0 0 1-.98-.34c-.16-.1-.3-.17-.4-.2l-.4-.13.07-.45c.05-.16.03-.3-.05-.4a2.3 2.3 0 0 0-.48-.43c-.08-.05-.15-.1-.22-.17a3.95 3.95 0 0 0-.23-.2l-.65-.6.93-.37c.57-.21.94-.45 1.1-.72.18-.26.2-.7.1-1.32-.5-.04-.9-.02-1.2.08l-.9.32c-.44.16-.87.31-1.28.44a7.02 7.02 0 0 1-2.45.3l-.32.01-.12-.31c0-.04-.03-.08-.09-.13l-.14-.11c-.11-.1-.24-.25-.4-.43-.16-.18-.21-.42-.17-.72-.15-.2-.25-.42-.3-.65a3.48 3.48 0 0 0-.23.91l-.07.4-.38.09a.5.5 0 0 0-.08.19c-.02.08-.02.14 0 .17l.15.31-.26.3a.52.52 0 0 1-.13.15.96.96 0 0 0-.13.14c-.02.21-.05.42-.1.62l-.16.61-.18.93c-.06.3-.07.6-.04.9l-.07.38a.97.97 0 0 1-.33.39c-.14.1-.27.18-.4.25-.19.1-.32.19-.39.27l-.04.4-.44.1-.52.17c-.1.03-.23.05-.36.07h-.38l-.63-.47c-.16-.11-.34-.2-.54-.28l-.2-.22c-.1-.15-.16-.28-.2-.4a3.23 3.23 0 0 0-.12-.39 1.17 1.17 0 0 0-.23-.5l-.49-.4zm8.5-8.55a19 19 0 0 0-.66 1.3l.4-.06.38-.07c.68-.11 1.3-.23 1.88-.35.58-.12 1.2-.28 1.87-.49a78.37 78.37 0 0 0-1.58-4.34l-.11.3a20.3 20.3 0 0 0-1.23 1.84c-.38.65-.69 1.26-.92 1.84l-.03.03zm13.95.69c.01-.08.05-.12.12-.12.07 0 .13 0 .19-.03-.17-.14-.3-.34-.36-.6a1.24 1.24 0 0 0-.36-.63l.07-.3c.02-.1.1-.15.24-.14a3.5 3.5 0 0 1-.1-1.2c.04-.37.12-.74.25-1.08.13-.35.3-.7.48-1.04.2-.35.38-.7.56-1.05.17-.05.28-.05.32.01.05.07.11.05.2-.06.29-.25.48-.5.57-.78.09-.28.11-.57.08-.88.12-.52.27-1.05.44-1.56a9.12 9.12 0 0 1 1.44-2.69c.3-.35.63-.64 1-.86.25-.26.57-.5.97-.75a6.63 6.63 0 0 1 2.75-.92c.5-.06.97-.06 1.41.02.1.02.16 0 .17-.1 0-.08.05-.13.13-.14.98.01 1.87.12 2.67.3.8.2 1.49.5 2.09.94.43.54.84 1.13 1.24 1.77.4.63.73 1.3 1 2.01.26.71.42 1.46.48 2.23.06.78-.02 1.58-.25 2.39a7.84 7.84 0 0 1-2.26 2.31c-.92.62-1.92 1.16-3 1.61-1.08.46-2.2.86-3.38 1.2-1.17.34-2.3.7-3.4 1.06.07.53.13 1.08.17 1.68a12.34 12.34 0 0 1-.29 3.58 6.46 6.46 0 0 1-.66 1.66c-.4.02-.8.1-1.2.24l-1.1.41-.47-.23c-.16-.07-.34-.1-.56-.1.04-.24-.04-.48-.23-.71l-.58-.7a2 2 0 0 1-.4-.69c-.07-.24.02-.47.27-.69-.17-.12-.27-.32-.3-.62.09.07.19.1.3.09a3.54 3.54 0 0 1 0-1.27c.08-.5.14-.99.17-1.47.04-.49 0-.93-.1-1.32s-.35-.65-.78-.78zm6.86-7.62c-.06.22-.1.42-.13.59a4.07 4.07 0 0 1-.26.9l-.17.48c.05.12.14.2.26.24.12.05.21.13.26.24a4 4 0 0 1 .78-.4l.8-.24c.27-.06.54-.14.8-.23a4 4 0 0 0 .82-.38c.28-.17.57-.3.88-.43l.92-.38c.3-.13.59-.27.87-.43.27-.15.5-.35.7-.59-.3-.22-.73-.4-1.3-.54a6.8 6.8 0 0 0-3.67.15 3.5 3.5 0 0 0-1.56 1.02zm12.1 12.93c-.05.02-.09 0-.11-.05a.36.36 0 0 1-.04-.17c0-.06.03-.11.08-.16.04-.04.1-.05.18-.02a2.4 2.4 0 0 1-.56-.8c-.1-.24-.26-.53-.5-.88a.46.46 0 0 0 .1-.26c0-.11.02-.22.04-.32.01-.1.05-.17.09-.23.04-.05.1-.04.2.03a1.19 1.19 0 0 1-.06-.53c.02-.14.05-.27.09-.39.04-.12.06-.24.06-.36a.68.68 0 0 0-.13-.4c.32-.54.5-1.12.56-1.72.05-.6.06-1.15.03-1.64.16-.2.29-.44.38-.75a4.24 4.24 0 0 0 .17-1.86 1.8 1.8 0 0 0-.19-.7c.01-.08.05-.13.12-.14a.75.75 0 0 1 .25-.01c.05-.8.05-1.67 0-2.63-.05-.95-.05-1.88 0-2.78.06-.9.21-1.7.47-2.4.26-.71.74-1.2 1.44-1.47.19.47.41.88.67 1.23.27.34.55.68.85 1l.9.96c.32.32.61.69.89 1.09a30.4 30.4 0 0 1-.04 3.36l-.14 1.78c-.05.58-.1 1.07-.16 1.46.03.1.1.16.23.17.11.02.15.13.09.33.55-.2 1.12-.39 1.72-.58l1.77-.57c.58-.18 1.14-.4 1.7-.63.55-.24 1.07-.5 1.55-.81.02-.95.06-1.89.14-2.82.08-.93 0-1.85-.23-2.77.1-.11.2-.24.26-.38a.54.54 0 0 1 .32-.3 4.85 4.85 0 0 1-.2-2.8c.1-.45.29-.85.54-1.2.26-.35.6-.6 1.02-.74.29.34.55.72.8 1.13l.71 1.23c.24.42.5.8.76 1.17.26.37.58.67.96.9a68.27 68.27 0 0 1 .68 4.26c-.08.9-.19 1.77-.33 2.61-.13.85-.2 1.75-.2 2.7-.14.18-.24.4-.31.66l-.2.76c-.06.25-.14.5-.23.74-.1.25-.22.46-.38.63.1.26.15.52.13.77-.03.25.07.53.28.84.1.6.08 1.1-.07 1.52-.14.42-.36.79-.65 1.1-.29.32-.63.58-1.03.79-.4.2-.8.4-1.2.58l-.57-.3c-.18-.12-.39-.19-.63-.22l.12-.28c-.43-.35-.8-.73-1.13-1.13a2.55 2.55 0 0 1-.54-1.86 43.74 43.74 0 0 1 .15-1.98c-.54.12-1.1.3-1.65.56a20.05 20.05 0 0 0-4.19 2.53 11.53 11.53 0 0 1-.35 1.4c-.1.32-.22.6-.37.86-.14.25-.3.37-.47.37.05.1.1.16.14.2.04.05.05.14.03.28-.32.14-.6.3-.85.48s-.5.34-.76.47c-.26.14-.55.22-.88.24-.32.03-.71-.05-1.18-.24a.49.49 0 0 0-.22-.35c-.13-.09-.26-.17-.4-.23l-.35-.17c-.1-.05-.16-.1-.16-.16zm19.42-14.33c.03-.3.04-.54.04-.72 0-.19-.09-.38-.27-.58l.12-.75c.03-.18 0-.42-.07-.73.13-.52.35-.98.67-1.36.32-.4.69-.73 1.09-1.02.4-.28.82-.53 1.27-.75.45-.21.87-.4 1.27-.56 0-.08-.05-.11-.13-.1-.08 0-.1-.04-.07-.14 1.03-.3 2.05-.7 3.07-1.18s2.07-.92 3.14-1.33c1.08-.41 2.2-.7 3.36-.9a11 11 0 0 1 3.72.07c.1.22.23.43.39.63s.32.4.49.58l.45.56c.14.18.23.38.27.6.25.18.47.39.64.62.17.22.23.55.17.96a20.13 20.13 0 0 1-1.3 1.05c-.9-.12-1.78-.1-2.65.05-.86.15-1.64.3-2.33.45a.95.95 0 0 0-.8-.26c-.29.04-.59.13-.9.25l-.92.36c-.3.12-.59.17-.87.16-.19.22-.46.38-.8.48-.34.11-.7.2-1.09.28 0 .1.02.17.08.2s.08.1.05.23c.16.16.36.26.6.3.24.05.48.09.73.12s.48.1.68.18c.2.08.35.24.43.47.36-.02.67.04.94.18a2.52 2.52 0 0 1 1.16 1.23c.1.26.16.5.16.7.1.2.19.26.27.22.08-.05.2-.02.32.1.11.3.32.58.64.87.31.3.57.61.76.97l.27 1.56c.08.46.04.93-.1 1.4a7.3 7.3 0 0 1-1.19 2.45 11.1 11.1 0 0 1-1.92 2c-.74.6-1.52 1.14-2.35 1.61-.84.47-1.67.88-2.5 1.22a.66.66 0 0 0-.27.03c-.1.03-.14-.03-.1-.17-.15.18-.34.3-.56.36-.22.06-.46.1-.73.12l-.79.04c-.26 0-.52.04-.77.1a6.15 6.15 0 0 1-.47-.42 1.9 1.9 0 0 1-.36-.52c-.1 0-.15-.06-.15-.17 0-.11-.05-.16-.15-.15l.01-.18.05-.12c.07-.07.1-.11.08-.14 0-.03-.04-.06-.1-.08l-.15-.09c-.05-.03-.07-.08-.06-.14.08-.18.1-.4.04-.63-.06-.24-.1-.49-.15-.74a2.17 2.17 0 0 1-.02-.72c.04-.23.18-.44.44-.62.8 0 1.55-.12 2.24-.35.7-.23 1.34-.52 1.94-.86.6-.33 1.18-.7 1.72-1.07a41.2 41.2 0 0 1 1.58-1.07c.04-.2.11-.37.22-.52.12-.15.23-.3.36-.44.12-.14.23-.29.33-.45.1-.15.17-.34.2-.56.02-.08.01-.14-.01-.18a.3.3 0 0 0-.1-.09 1.1 1.1 0 0 1-.13-.09c-.04-.03-.06-.1-.07-.17a2.93 2.93 0 0 1-.17-.04.36.36 0 0 0-.13-.02c-.53-.2-1.1-.35-1.67-.47a7.8 7.8 0 0 1-1.5-.43.77.77 0 0 1-.68.19l-.87-.15c-.82.05-1.6.06-2.34.02a8.97 8.97 0 0 1-2.18-.4c-.05-.1-.1-.2-.17-.29-.07-.08-.21-.09-.42-.03a6.14 6.14 0 0 0-.48-.49 3.11 3.11 0 0 1-.45-.53z"/><circle cx="113.5" cy="71.5" r="39.5" stroke="#ED6058" stroke-width="6"/><path stroke="#ED6058" stroke-width="6" d="M86 44l55 55"/><path stroke="#555" stroke-width="4" d="M146 35l21-3M176 31l11-1.5M24 107l21-3M26 117l11-1.5M79 211h83M96 223h53M173 211h16M133 235h36M17 49l52-6" stroke-linecap="round" stroke-linejoin="round"/><path fill="#555" d="M111 126l2 16 21-3-2-18z" opacity=".25"/></g></svg>