<svg xmlns="http://www.w3.org/2000/svg" width="225" height="242"><g fill="none" fill-rule="evenodd"><rect width="21" height="211" x="102" y="4" stroke="#555" stroke-width="4" rx="3"/><path fill="#FFF" d="M91 212h47v10H91z"/><path fill="#FFF" stroke="#555" stroke-width="4" d="M17.62 23h89.24a5 5 0 0 1 5 5v27a5 5 0 0 1-5 5H17.33a5 5 0 0 1-4.62-6.9l5.15-12.48-4.79-10.55A5 5 0 0 1 17.62 23zM208.24 67H119a5 5 0 0 0-5 5v27a5 5 0 0 0 5 5h89.53a5 5 0 0 0 4.62-6.9L208 84.61l4.8-10.55a5 5 0 0 0-4.56-7.07z"/><path fill="#555" d="M26.16 46.39c0-.2-.01-.38-.04-.53l-.1-.44a3.08 3.08 0 0 1-.06-.43c-.01-.14 0-.32.06-.52a19.58 19.58 0 0 0-.23-.64 4.2 4.2 0 0 1 .34-1.52c.2-.45.44-.86.72-1.24.29-.38.6-.72.93-1.04l.96-.92c.07.06.11.07.14.03.03-.04.1-.05.22-.03a1.38 1.38 0 0 1 .65-.82.52.52 0 0 1 .31-.07c.12-.23.31-.44.57-.62.25-.18.5-.36.77-.53.26-.17.5-.36.7-.57.21-.21.34-.47.4-.78h.36a1.13 1.13 0 0 1-.2-.7.92.92 0 0 1 .23-.6.96.96 0 0 1 .59-.28c.24-.04.53.02.85.19.13.02.23 0 .28-.08a.37.37 0 0 1 .24-.15 6.61 6.61 0 0 1 2.73 2.14.27.27 0 0 1-.09.08.98.98 0 0 0-.08.06.12.12 0 0 0-.05.06 12.66 12.66 0 0 1 1.2 1.8c.33.6.64 1.22.93 1.9a8.86 8.86 0 0 1-.15 3.1c-.1.2-.21.4-.34.58-.13.18-.27.35-.42.52l-.45.5c-.15.16-.28.34-.4.53l.31.74c-.01.1 0 .2.06.32l.14.35c.05.12.1.24.12.35.04.1.03.2 0 .28.03.07.11.1.24.07-.05.03-.09.07-.1.15-.02.07.03.1.17.07a2.3 2.3 0 0 1-.5.96c-.14.15-.3.28-.5.39-.18.1-.4.16-.63.16a2.82 2.82 0 0 1-.59-.38 224 224 0 0 1-.5-.44l-.7-1.61a16.78 16.78 0 0 1-6.15 1.46 7.13 7.13 0 0 1-1.7-.7c-.5-.3-.91-.68-1.24-1.15zm4.77-4.9a8.64 8.64 0 0 0-2.54 3.5c.11.07.25.1.4.12.17 0 .32.03.45.07.71-.2 1.44-.39 2.18-.57.75-.18 1.47-.4 2.17-.67l-.81-1a4.85 4.85 0 0 1-.6-.97l.1-.26a2 2 0 0 1 .12-.3c.05-.1.12-.18.2-.26.09-.07.2-.1.36-.1.22.08.48.13.78.14.3.01.58.04.83.1.25.17.46.38.65.63.18.26.37.5.56.75.27-.24.5-.52.7-.82.2-.3.35-.65.45-1.03a11.42 11.42 0 0 0-.66-1.4c-.14-.23-.3-.44-.48-.62-.18-.19-.38-.31-.59-.37-.1-.03-.16-.01-.2.04-.03.06-.1.07-.23.03-.66.48-1.33.96-2 1.42-.67.46-1.28.99-1.84 1.57zm20.04-4.05c.03.27.07.51.13.7l.2.58.18.51c.06.17.1.37.12.6-.1.33-.17.62-.21.9l-.14.85c-.2.43-.39.82-.57 1.15-.19.33-.34.63-.45.87a.9.9 0 0 0-.16.22 11.39 11.39 0 0 1-.32.56l-.37-.13-.08.47-.26.07-.18.22a4.87 4.87 0 0 1-1.62 1.77c-.33.22-.7.42-1.12.6-.41.2-.88.4-1.4.62a7.25 7.25 0 0 0-.98-.07c-.24 0-.53-.02-.88-.06a.35.35 0 0 0-.16-.2.46.46 0 0 0-.2-.06c-.22-.1-.38-.24-.48-.44l-.3-.62a7.33 7.33 0 0 0-.4-.74l.32-.1-.4-.44a.48.48 0 0 0-.1-.1.48.48 0 0 1-.1-.1l-.01-.3a45.3 45.3 0 0 1-.05-2.35c0-.7.1-1.34.29-1.9v-.2a10.33 10.33 0 0 1 .2-1.19c.04-.27.1-.52.17-.76.17-.04.3-.1.39-.21.09-.1.16-.2.22-.3.17 0 .3.02.35.08.07.07.13.16.19.3l.23.37c.1.14.23.24.42.32a36.84 36.84 0 0 1 .51 1.3c.08.23.13.45.14.66-.13.24-.22.51-.29.82a6 6 0 0 0-.11 1.85c.03.29.08.53.16.73l.1.24.32-.04c.38-.1.71-.2 1.02-.32a5.1 5.1 0 0 0 1.58-.98c.24-.22.48-.47.74-.76.26-.28.49-.6.68-.97a7.43 7.43 0 0 0 .78-2.32c.07-.39.11-.76.14-1.1a.43.43 0 0 0 .31-.45l-.03-.2c-.05-.08-.05-.16 0-.26a.89.89 0 0 1 .52-.54c.2.12.37.26.53.4l.43.45zm9.98 9a2.97 2.97 0 0 1-1.46 1.63c-.24.12-.48.18-.74.19a.91.91 0 0 1-.33-.12 1.77 1.77 0 0 0-.28-.19 1.26 1.26 0 0 0-.08-.04l-.22-.1.07-.24c.03-.1.02-.17-.02-.23a1.41 1.41 0 0 0-.22-.23l-.11-.11a.74.74 0 0 1-.1-.11l-.3-.36.5-.13c.3-.08.5-.2.61-.33.1-.14.15-.36.12-.69a1.53 1.53 0 0 0-.62-.01c-.16.03-.33.08-.5.13l-.69.15a4.05 4.05 0 0 1-1.3.03l-.19-.04c-.02-.13-.05-.21-.07-.23a1.54 1.54 0 0 1-.27-.32c-.07-.1-.09-.23-.05-.4a.89.89 0 0 1-.11-.33c-.07.15-.13.3-.17.47l-.07.18-.19.04c-.02.01-.04.04-.05.08a.4.4 0 0 0-.02.1l-.1.32a.7.7 0 0 1-.07.07.7.7 0 0 0-.07.06 3.36 3.36 0 0 1-.2.65 5.3 5.3 0 0 0-.16.47c-.05.16-.06.3-.05.46l-.07.2a.78.78 0 0 1-.2.18 3.93 3.93 0 0 1-.44.23l-.05.2-.22.04a8.73 8.73 0 0 0-.49.08l-.18-.02-.32-.27a1.78 1.78 0 0 0-.26-.2.93.93 0 0 1-.18-.33 6.47 6.47 0 0 0-.09-.4.19.19 0 0 0-.04-.1l-.24-.22.2-.17.02-.32c.25-.63.51-1.23.79-1.82a220.75 220.75 0 0 1 1.44-2.96.41.41 0 0 1 .01-.3 6.95 6.95 0 0 0 .6-1.08l.3-.6c.11-.2.24-.41.4-.62l.3-.13.13-.05c.05-.02.1-.03.17-.03l.28.04c.34-.16.64-.39.9-.68.26-.29.53-.64.8-1.04l.19-.26.24.14c.06.04.15.08.26.1l.35.1c.22.06.43.11.63.18.2.06.36.15.48.27.08.2.12.35.13.45l.06.3.1.63.07.7a8.33 8.33 0 0 1 .28 1.25l.18.86c.06.28.14.54.24.79.1 0 .16 0 .19.02a6.25 6.25 0 0 1 .43-.1l.2-.02.07.19c.02.06.08.12.19.18.16.02.28.05.35.1l.2.18c.05.05.1.09.15.11l.28.12-.15.27c-.12.23-.3.44-.53.64-.22.2-.48.38-.77.51l.03.22a10.25 10.25 0 0 1 .14.86c.03.22.03.45 0 .69l-.04.07zm-5.36-3.2c.37-.03.71-.06 1.01-.1.3-.02.64-.08 1.01-.15a98.5 98.5 0 0 0-.59-2.36l-.11.19a10.46 10.46 0 0 0-1.3 1.78l-.22.33-.2.34.2-.02a1 1 0 0 0 .2-.02zm11.49 4.56l-1.13.33c-.41.11-.82.17-1.23.17-.62 0-1.1-.16-1.46-.47a1 1 0 0 0-.17-.28c-.04-.04-.07-.1-.1-.15a.65.65 0 0 1-.07-.23 2.01 2.01 0 0 1-.35-.6 3.1 3.1 0 0 1-.2-1.45 3.65 3.65 0 0 1 .17-.85l.03-.17.16-.57c.05-.19.13-.35.23-.48a.48.48 0 0 1 0-.38c.05-.13.1-.25.17-.37a148.85 148.85 0 0 0 .8-2.17l.59-1.65c.18-.54.35-1.13.5-1.76l.22-.13.19-.06c.22.11.48.22.78.33.3.1.54.16.74.16a.85.85 0 0 1 .26.22c.13.16.25.32.35.49a1 1 0 0 1 .1.66c-.08.11-.14.17-.17.17a5.2 5.2 0 0 1-.41 1.15c-.09.18-.17.37-.24.55-.08.19-.14.42-.19.69a.64.64 0 0 0-.1.17 8.33 8.33 0 0 1-.15.36.48.48 0 0 1-.14.17c-.04.33-.1.59-.18.78l-.25.6c-.14.36-.28.71-.4 1.07-.11.36-.18.77-.2 1.23a.47.47 0 0 1 .17-.04h.16c.1 0 .24.02.39.06.37-.2.77-.32 1.21-.36.44-.03.88-.06 1.3-.07H69c.17 0 .33-.01.48-.04.11.06.18.1.21.1l.14.01.23.02c.14.14.29.24.42.3l.43.17.4.15c.13.06.26.14.38.24l.13.8c.09.1.12.18.11.22 0 .1-.02.17-.07.22l.03.2c-.18.04-.3.08-.38.13l-.2.17-.2.02h-.13c-.17 0-.38.03-.63.1a3.26 3.26 0 0 0-1.46-.16l-.45.04a5.37 5.37 0 0 1-.93.07l-.42.12zm9.16-1.1c.07.37.04.66-.06.87-.1.21-.25.37-.45.48-.19.1-.4.16-.66.17-.24.02-.48 0-.7-.03a2.88 2.88 0 0 1-.33-.65 13.7 13.7 0 0 1-.7-2.36c.07-.15.11-.32.13-.51a8.98 8.98 0 0 0 .06-1.19 5.74 5.74 0 0 1 .42-2.07c.17-.47.3-.96.4-1.46a.5.5 0 0 0-.03-.32.4.4 0 0 1-.02-.28c0-.05.04-.08.1-.1.07-.02.1-.06.12-.12a.73.73 0 0 0 .03-.33c-.02-.09 0-.2.06-.32.06-.1.14-.24.23-.43.1-.2.13-.4.1-.6.12-.08.22-.17.32-.27l.3-.27c.11-.08.23-.15.36-.21.13-.06.29-.1.47-.1.1.13.17.27.2.42l.09.44c.03.15.08.29.14.42.06.13.17.23.31.3v.38l.02.43c.02.14.04.27.09.4.04.1.11.19.21.22-.22.6-.43 1.18-.62 1.77-.2.58-.35 1.16-.48 1.75-.12.59-.2 1.18-.23 1.77-.03.6.01 1.2.12 1.8zm12.71-7.62c-.3 0-.64.02-1 .06a48.97 48.97 0 0 0-1.77.23l-.62.06a9.4 9.4 0 0 1-.54 1.33 8.24 8.24 0 0 0-.5 1.34c-.12.2-.23.38-.3.55-.09.16-.15.35-.2.56-.15.19-.26.38-.34.59-.07.2-.13.38-.16.53l-.08.22a.5.5 0 0 0-.13.18.24.24 0 0 1-.09.12c-.01.13-.06.27-.13.4a1.15 1.15 0 0 0-.07.3c0 .12-.03.2-.1.24.02.06.02.13 0 .2l-.03.2a.97.97 0 0 0-.04.34l.1.13c.03.04.05.1.07.15l.16.1.23.13.16.18c.06.36 0 .64-.16.85-.19.24-.5.36-.95.36h-.22a.45.45 0 0 1-.11-.15l-.25-.1a.37.37 0 0 1-.16-.14l-.4-.19-.16-.1v-.21a1.18 1.18 0 0 1-.2-.37 3.28 3.28 0 0 1-.1-.41 3.88 3.88 0 0 0-.08-.32 1 1 0 0 0-.12-.26c-.03-.72.04-1.32.2-1.82a31.9 31.9 0 0 1 .8-2.18c.1-.25.19-.51.26-.79l.17-.18a73.73 73.73 0 0 0 .57-1.36 2.06 2.06 0 0 0-.39.04 3.17 3.17 0 0 1-.39.04c-.08 0-.14 0-.18-.02-.14.06-.29.1-.45.1h-.18l-.1-.02h-.09a.67.67 0 0 0-.3.05h-.7c-.04.02-.07.02-.1.02l-.27-.03c-.1-.02-.2-.06-.32-.12-.14-.2-.24-.3-.3-.32l-.16-.22a1.2 1.2 0 0 0-.06-.21 1.76 1.76 0 0 1-.28-1.14c.02-.1.04-.18.08-.23l.1-.12.05-.28.24.02h.52c.4 0 .8-.02 1.2-.05a128.05 128.05 0 0 0 2.8-.25l.16-.32.18-.09c.22-.01.38.02.47.08.1.07.17.14.24.2a41.5 41.5 0 0 0 2.94-.37 10.72 10.72 0 0 1 1.73-.06c.16.01.31.03.45.06l.18.13a.7.7 0 0 0 .16.2l.21.19c.15.13.3.3.45.48.15.18.2.46.17.82a.85.85 0 0 1-.23.26l-.16.22-.19-.02a.7.7 0 0 0-.2.03 2.2 2.2 0 0 0-.34.13l-.16.04a3.1 3.1 0 0 1-.49-.01zm4.5 4.06c-.1.07-.17.16-.23.27a15.2 15.2 0 0 0-.39.71c-.07.13-.17.24-.28.34-.06.18-.12.33-.18.43-.06.1-.16.23-.3.36-.12.5-.41 1.04-.87 1.62a.9.9 0 0 1-.1.32 4.93 4.93 0 0 1-.3.53l-.05.19c-.06.1-.13.18-.2.26l-.2.2-.13.15-.28.11c-.9-.12-1.46-.6-1.65-1.45l.01-.18.07-.2.06-.21c.05-.17.11-.35.18-.52.07-.17.17-.33.3-.46l.17-.42a13.86 13.86 0 0 1 .86-1.57l.24-.4c-.13-.2-.27-.38-.45-.55a11.23 11.23 0 0 1-.68-1.65c-.02-.16-.03-.3-.06-.4a16.97 16.97 0 0 1-.2-1.2.6.6 0 0 1-.11-.25l.03-.19c.04-.08.05-.2.02-.34a52.42 52.42 0 0 0-.18-.84c-.03-.15-.04-.3-.02-.45a.91.91 0 0 1 .46-.76l.32-.02a18.3 18.3 0 0 0 1.02.54c.12.06.25.14.39.24l.13.26.24.2v.2l.02.21c0 .16.02.26.07.3l.07.22c0 .17.02.34.06.5a14.7 14.7 0 0 0 .22.86c.04.14.05.3.02.48a.7.7 0 0 0 .19-.13.3.3 0 0 1 .07-.06.3.3 0 0 0 .08-.05l1.09-1.49-.04-.18.4-.37.28-.28c.1-.09.17-.18.23-.28l.2-.15c.4-.62.96-1 1.7-1.15l.25-.04.08.24c.05.14.15.26.3.38l.5.31.16.11c.07.13.1.22.1.28l-.02.17.07.18c-.1.3-.22.52-.36.65a7.23 7.23 0 0 1-.72.64.78.78 0 0 0-.22.3l-.13.16c-.26.15-.42.34-.5.6l-.05.21h-.23l-.08.07c-.04.04-.1.15-.2.32-.08.13-.14.2-.18.24l-.1.1a7.15 7.15 0 0 0-.11.3 1.56 1.56 0 0 0-.42.63l-.14.28c-.04.1-.11.2-.21.29l-.1.28zM122.81 90.39c0-.2-.01-.38-.04-.53l-.1-.44a3.08 3.08 0 0 1-.06-.43c-.01-.14 0-.32.05-.52a19.57 19.57 0 0 0-.22-.64 4.2 4.2 0 0 1 .34-1.52c.2-.45.43-.86.72-1.24.28-.38.6-.72.93-1.04l.96-.92c.06.06.11.07.14.03.03-.04.1-.05.21-.03a1.38 1.38 0 0 1 .65-.82.52.52 0 0 1 .32-.07c.12-.23.31-.44.56-.62l.77-.53c.26-.17.5-.36.71-.57.21-.21.34-.47.39-.78h.37a1.13 1.13 0 0 1-.2-.7.92.92 0 0 1 .23-.6.96.96 0 0 1 .58-.28c.25-.04.53.02.86.19.13.02.23 0 .27-.08a.37.37 0 0 1 .25-.15 6.61 6.61 0 0 1 2.72 2.14.27.27 0 0 1-.08.08.98.98 0 0 0-.08.06.12.12 0 0 0-.05.06 12.66 12.66 0 0 1 1.2 1.8c.33.6.64 1.22.92 1.9a8.86 8.86 0 0 1-.14 3.1 6.67 6.67 0 0 1-.76 1.1l-.45.5c-.15.16-.28.34-.4.53l.3.74c0 .1.01.2.06.32l.15.35c.05.12.1.24.12.35.03.1.03.2 0 .28.03.07.11.1.23.07-.05.03-.08.07-.1.15-.02.07.04.1.18.07a2.3 2.3 0 0 1-.5.96c-.14.15-.3.28-.5.39-.19.1-.4.16-.63.16a2.82 2.82 0 0 1-.59-.38l-.5-.44-.7-1.61a16.78 16.78 0 0 1-6.16 1.46 7.13 7.13 0 0 1-1.68-.7c-.51-.3-.93-.68-1.25-1.15zm4.77-4.9a8.64 8.64 0 0 0-2.54 3.5c.11.07.25.1.4.12.17 0 .32.03.45.07.7-.2 1.43-.39 2.18-.57.75-.18 1.47-.4 2.16-.67a64.4 64.4 0 0 1-.8-1 4.85 4.85 0 0 1-.6-.97l.1-.26a2 2 0 0 1 .12-.3c.05-.1.11-.18.2-.26.09-.07.2-.1.35-.1.23.08.49.13.8.14.3.01.57.04.82.1.25.17.46.38.65.63l.55.75c.28-.24.51-.52.7-.82.2-.3.36-.65.45-1.03a11.42 11.42 0 0 0-.65-1.4c-.15-.23-.3-.44-.49-.62-.18-.19-.37-.31-.58-.37-.1-.03-.17-.01-.2.04-.03.06-.1.07-.23.03-.67.48-1.33.96-2 1.42-.67.46-1.28.99-1.84 1.57zm20.04-4.05c.02.27.07.51.13.7l.2.58.18.51c.06.17.1.37.12.6-.1.33-.17.62-.21.9l-.14.85c-.2.43-.4.82-.58 1.15-.18.33-.33.63-.44.87a.9.9 0 0 0-.16.22 11.39 11.39 0 0 1-.32.56l-.38-.13-.07.47-.26.07-.19.22a4.87 4.87 0 0 1-1.62 1.77c-.33.22-.7.42-1.11.6-.42.2-.88.4-1.4.62a7.25 7.25 0 0 0-.99-.07c-.23 0-.52-.02-.87-.06a.35.35 0 0 0-.17-.2.46.46 0 0 0-.2-.06c-.21-.1-.37-.24-.47-.44-.1-.19-.21-.4-.3-.62a7.33 7.33 0 0 0-.4-.74l.32-.1-.41-.44a.48.48 0 0 0-.1-.1.48.48 0 0 1-.09-.1l-.02-.3a45.3 45.3 0 0 1-.04-2.35c0-.7.1-1.34.29-1.9v-.2a10.33 10.33 0 0 1 .2-1.19c.04-.27.1-.52.17-.76.17-.04.3-.1.39-.21.08-.1.16-.2.22-.3.17 0 .29.02.35.08.06.07.13.16.19.3l.23.37c.1.14.23.24.42.32a36.84 36.84 0 0 1 .51 1.3c.08.23.12.45.14.66-.13.24-.22.51-.3.82a6 6 0 0 0-.1 1.85c.03.29.08.53.16.73l.1.24.32-.04c.37-.1.71-.2 1.01-.32a5.1 5.1 0 0 0 1.59-.98c.23-.22.48-.47.74-.76.26-.28.49-.6.68-.97a7.43 7.43 0 0 0 .78-2.32c.07-.39.11-.76.14-1.1a.43.43 0 0 0 .31-.45l-.03-.2c-.05-.08-.05-.16 0-.26a.89.89 0 0 1 .52-.54c.2.12.37.26.52.4l.44.45zm9.98 9a2.97 2.97 0 0 1-1.46 1.63c-.24.12-.49.18-.75.19a.91.91 0 0 1-.32-.12 1.77 1.77 0 0 0-.28-.19 1.26 1.26 0 0 0-.08-.04l-.22-.1.07-.24c.02-.1.02-.17-.02-.23a1.41 1.41 0 0 0-.22-.23l-.11-.11a.74.74 0 0 1-.1-.11l-.31-.36.5-.13c.3-.08.52-.2.62-.33.1-.14.15-.36.12-.69a1.53 1.53 0 0 0-.62-.01c-.17.03-.34.08-.51.13-.22.06-.45.11-.68.15a4.05 4.05 0 0 1-1.3.03l-.2-.04c-.02-.13-.04-.21-.06-.23a1.54 1.54 0 0 1-.27-.32c-.07-.1-.09-.23-.05-.4a.89.89 0 0 1-.11-.33c-.08.15-.13.3-.17.47L151 89l-.19.04c-.02.01-.04.04-.05.08a.4.4 0 0 0-.02.1l-.1.32a.7.7 0 0 1-.07.07.7.7 0 0 0-.07.06 3.36 3.36 0 0 1-.2.65 5.3 5.3 0 0 0-.17.47c-.04.16-.05.3-.04.46l-.08.2a.78.78 0 0 1-.2.18 3.93 3.93 0 0 1-.43.23l-.05.2-.23.04a8.73 8.73 0 0 0-.48.08l-.18-.02-.32-.27a1.78 1.78 0 0 0-.26-.2.93.93 0 0 1-.18-.33 6.47 6.47 0 0 0-.09-.4.19.19 0 0 0-.04-.1l-.25-.22.2-.17.03-.32c.24-.63.5-1.23.79-1.82a220.75 220.75 0 0 1 1.43-2.96.41.41 0 0 1 .02-.3 6.95 6.95 0 0 0 .6-1.08l.3-.6c.1-.2.24-.41.4-.62l.3-.13.13-.05c.05-.02.1-.03.17-.03l.27.04c.35-.16.65-.39.91-.68.26-.29.53-.64.8-1.04l.19-.26.24.14c.06.04.15.08.26.1.1.04.23.07.35.1.22.06.43.11.63.18.2.06.36.15.48.27.08.2.12.35.13.45l.06.3.1.63.07.7a8.33 8.33 0 0 1 .27 1.25l.19.86c.06.28.14.54.24.79.1 0 .16 0 .19.02a6.25 6.25 0 0 1 .43-.1l.2-.02.07.19c.01.06.08.12.19.18.16.02.27.05.35.1l.2.18c.05.05.1.09.15.11l.28.12-.15.27c-.12.23-.3.44-.53.64-.23.2-.48.38-.77.51l.03.22a10.25 10.25 0 0 1 .14.86c.02.22.02.45 0 .69l-.04.07zm-5.36-3.2l1.01-.1c.3-.02.64-.08 1.01-.15a98.5 98.5 0 0 0-.6-2.36l-.1.19a10.46 10.46 0 0 0-1.3 1.78l-.22.33c-.08.12-.15.23-.2.34l.2-.02a1 1 0 0 0 .2-.02zm10.4 1.38a.34.34 0 0 0-.25.2 5.12 5.12 0 0 0-.27.63c-.04.1-.1.14-.2.14a.54.54 0 0 1-.1.26l-.15.23a.97.97 0 0 0-.12.26c-.02.1 0 .2.04.32a.49.49 0 0 0-.18.32l-.09.39a.76.76 0 0 1-.15.31c-.08.1-.22.13-.41.12-.04.05-.05.08-.02.09.02.01.04.05.05.13-.13-.03-.23-.02-.3.03a.6.6 0 0 1-.25.08c-.24-.07-.43-.2-.59-.39-.15-.19-.29-.4-.4-.62a7.76 7.76 0 0 1-.32-.7c-.1-.23-.18-.44-.27-.6a.88.88 0 0 0-.11-.73c.6-1.29 1.27-2.66 1.98-4.12.72-1.46 1.4-2.9 2.05-4.33.28.12.56.24.84.38.28.15.53.31.76.5.23.18.42.4.58.64.17.24.27.5.32.8-.02.08-.05.1-.08.09-.03-.02-.06-.01-.09.03l.09.13v.07l-.01.1c0 .04.02.1.05.18-.05-.01-.08 0-.1.02-.02.02-.06.02-.12 0 .05.13.07.24.05.33a.86.86 0 0 1-.09.23 1.2 1.2 0 0 0-.09.22.53.53 0 0 0 .02.31c-.04 0-.07.01-.08.03a.37.37 0 0 0-.05.05.37.37 0 0 1-.05.06c-.02.02-.04.02-.08 0 .04.28.05.55.04.83a35.6 35.6 0 0 0-.02 1.7c.01.3.05.6.13.93.44-.26.8-.6 1.06-1 .27-.41.49-.87.65-1.37.17-.51.3-1.06.38-1.64l.28-1.78c.11-.11.2-.25.26-.4l.17-.52.15-.54c.05-.17.1-.34.18-.49.19.03.35.09.48.18l.36.3.35.3c.12.09.28.14.46.17.15.21.29.41.41.61.13.2.2.41.24.63-.06.1-.1.21-.13.34l-.1.37c-.04.12-.1.24-.16.34-.06.1-.14.2-.26.27-.03.32-.08.62-.13.88l-.17.79c-.06.26-.1.53-.14.8-.04.29-.05.6-.04.93l-.31.9c-.11.33-.2.62-.26.88-.2.16-.36.35-.47.57-.1.22-.23.45-.35.67-.05.05-.08.06-.1.04 0-.03-.05-.05-.12-.06v.11a.25.25 0 0 1-.05.07.15.15 0 0 0-.04.08c0 .04 0 .09.03.15-.17.07-.33.18-.46.32-.14.13-.28.25-.44.37-.15.1-.34.18-.55.22-.22.04-.5 0-.85-.13a6.08 6.08 0 0 1-2.3-3zm17.47-5.54c-.31 0-.64.02-1 .06a48.97 48.97 0 0 0-1.77.23l-.63.06a9.4 9.4 0 0 1-.53 1.33 8.24 8.24 0 0 0-.5 1.34c-.13.2-.23.38-.31.55-.08.16-.15.35-.2.56-.14.19-.26.38-.33.59l-.17.53-.07.22a.5.5 0 0 0-.13.18.24.24 0 0 1-.1.12c0 .13-.05.27-.12.4a1.15 1.15 0 0 0-.08.3c0 .12-.03.2-.1.24.02.06.02.13 0 .2l-.03.2a.97.97 0 0 0-.04.34l.1.13c.04.04.06.1.07.15l.17.1.22.13.17.18c.06.36 0 .64-.17.85-.18.24-.5.36-.94.36h-.23a.45.45 0 0 1-.1-.15l-.25-.1a.37.37 0 0 1-.17-.14l-.39-.19-.16-.1v-.21a1.18 1.18 0 0 1-.2-.37 3.28 3.28 0 0 1-.1-.41 3.88 3.88 0 0 0-.08-.32 1 1 0 0 0-.12-.26c-.03-.72.04-1.32.2-1.82a31.9 31.9 0 0 1 .8-2.18c.1-.25.18-.51.26-.79l.16-.18a73.77 73.77 0 0 0 .58-1.36 2.06 2.06 0 0 0-.39.04 3.17 3.17 0 0 1-.39.04c-.09 0-.15 0-.19-.02-.13.06-.28.1-.44.1h-.19l-.1-.02h-.08a.67.67 0 0 0-.3.05h-.71c-.03.02-.06.02-.09.02l-.27-.03c-.1-.02-.2-.06-.32-.12-.15-.2-.25-.3-.3-.32l-.16-.22a1.2 1.2 0 0 0-.06-.21 1.76 1.76 0 0 1-.28-1.14c.01-.1.04-.18.08-.23l.09-.12.05-.28.25.02h.52c.4 0 .8-.02 1.2-.05a128.05 128.05 0 0 0 2.8-.25l.15-.32.19-.09c.22-.01.38.02.47.08.1.07.17.14.23.2a41.5 41.5 0 0 0 2.94-.37 10.72 10.72 0 0 1 1.74-.06c.16.01.3.03.44.06l.19.13a.7.7 0 0 0 .16.2l.21.19c.15.13.3.3.45.48.14.18.2.46.16.82a.85.85 0 0 1-.22.26l-.17.22-.18-.02a.7.7 0 0 0-.2.03 2.2 2.2 0 0 0-.34.13l-.17.04a3.1 3.1 0 0 1-.48-.01zm2.49 7.62c.06.37.04.66-.07.87-.1.21-.25.37-.44.48-.2.1-.42.16-.66.17-.25.02-.49 0-.7-.03a2.88 2.88 0 0 1-.34-.65 13.7 13.7 0 0 1-.69-2.36c.06-.15.1-.32.12-.51a8.98 8.98 0 0 0 .06-1.19 5.74 5.74 0 0 1 .42-2.07c.17-.47.3-.96.4-1.46a.5.5 0 0 0-.02-.32.4.4 0 0 1-.03-.28c.01-.05.05-.08.1-.1.07-.02.1-.06.12-.12a.73.73 0 0 0 .03-.33c-.02-.09 0-.2.06-.32.06-.1.14-.24.23-.43.1-.2.13-.4.1-.6.12-.08.22-.17.32-.27l.3-.27c.11-.08.23-.15.36-.21.13-.06.29-.1.47-.1.1.13.17.27.2.42l.1.44c.02.15.07.29.13.42s.17.23.32.3v.38l.01.43c.02.14.05.27.09.4.04.1.11.19.21.22-.22.6-.43 1.18-.62 1.77-.2.58-.35 1.16-.47 1.75-.13.59-.2 1.18-.23 1.77-.04.6 0 1.2.12 1.8zm12.7-7.62c-.3 0-.64.02-1 .06a48.97 48.97 0 0 0-1.77.23l-.62.06a9.4 9.4 0 0 1-.54 1.33 8.24 8.24 0 0 0-.5 1.34c-.12.2-.22.38-.3.55-.09.16-.15.35-.2.56-.15.19-.26.38-.33.59-.08.2-.13.38-.17.53l-.08.22a.5.5 0 0 0-.12.18.24.24 0 0 1-.1.12c-.01.13-.05.27-.13.4a1.15 1.15 0 0 0-.07.3c0 .12-.03.2-.1.24.02.06.02.13 0 .2l-.03.2a.97.97 0 0 0-.04.34l.1.13c.03.04.06.1.07.15l.17.1.22.13.16.18c.07.36.01.64-.16.85-.19.24-.5.36-.95.36h-.22a.45.45 0 0 1-.11-.15l-.24-.1a.37.37 0 0 1-.17-.14l-.39-.19-.17-.1v-.21a1.18 1.18 0 0 1-.2-.37 3.28 3.28 0 0 1-.1-.41 3.88 3.88 0 0 0-.08-.32 1 1 0 0 0-.12-.26c-.02-.72.05-1.32.2-1.82a31.9 31.9 0 0 1 .8-2.18c.1-.25.19-.51.26-.79l.17-.18a73.77 73.77 0 0 0 .58-1.36 2.06 2.06 0 0 0-.4.04 3.17 3.17 0 0 1-.38.04c-.09 0-.15 0-.19-.02-.14.06-.28.1-.44.1h-.19l-.1-.02h-.09a.67.67 0 0 0-.3.05h-.7c-.03.02-.07.02-.09.02l-.28-.03c-.1-.02-.2-.06-.31-.12-.15-.2-.25-.3-.3-.32l-.17-.22a1.2 1.2 0 0 0-.05-.21 1.76 1.76 0 0 1-.28-1.14c.01-.1.04-.18.07-.23l.1-.12.05-.28.24.02h.52c.4 0 .8-.02 1.2-.05a128.05 128.05 0 0 0 2.8-.25l.16-.32.18-.09c.23-.01.38.02.48.08l.23.2a41.5 41.5 0 0 0 2.94-.37 10.72 10.72 0 0 1 1.73-.06c.16.01.31.03.45.06l.18.13a.7.7 0 0 0 .16.2l.22.19c.14.13.3.3.44.48.15.18.2.46.17.82a.85.85 0 0 1-.22.26l-.17.22-.19-.02a.7.7 0 0 0-.2.03 2.2 2.2 0 0 0-.33.13l-.17.04a3.1 3.1 0 0 1-.48-.01zm4.5 4.06c-.1.07-.16.16-.23.27a15.2 15.2 0 0 0-.39.71c-.07.13-.16.24-.27.34-.07.18-.13.33-.19.43-.06.1-.16.23-.3.36-.12.5-.41 1.04-.87 1.62a.9.9 0 0 1-.1.32 4.93 4.93 0 0 1-.3.53l-.04.19-.2.26-.21.2-.13.15-.28.11c-.9-.12-1.45-.6-1.65-1.45l.02-.18.06-.2.07-.21c.05-.17.1-.35.17-.52.07-.17.17-.33.3-.46l.18-.42a13.86 13.86 0 0 1 .85-1.57l.24-.4c-.12-.2-.27-.38-.45-.55a11.23 11.23 0 0 1-.68-1.65c-.01-.16-.03-.3-.06-.4a16.97 16.97 0 0 1-.2-1.2.6.6 0 0 1-.11-.25l.03-.19c.04-.08.05-.2.02-.34a52.36 52.36 0 0 0-.18-.84c-.02-.15-.03-.3-.02-.45a.91.91 0 0 1 .46-.76l.32-.02a18.3 18.3 0 0 0 1.02.54c.12.06.25.14.39.24l.13.26.24.2v.2l.02.21c0 .16.02.26.07.3l.08.22c0 .17.01.34.05.5a14.7 14.7 0 0 0 .22.86c.04.14.05.3.02.48a.7.7 0 0 0 .19-.13.3.3 0 0 1 .07-.06.3.3 0 0 0 .08-.05l1.1-1.49-.05-.18.4-.37.28-.28c.1-.09.17-.18.23-.28l.2-.15c.4-.62.97-1 1.7-1.15l.26-.04.07.24c.05.14.15.26.3.38l.5.31.17.11c.06.13.09.22.09.28 0 .06 0 .12-.02.17l.07.18c-.1.3-.22.52-.36.65a7.23 7.23 0 0 1-.72.64.78.78 0 0 0-.21.3l-.13.16c-.26.15-.43.34-.5.6l-.06.21h-.22c-.02 0-.04.03-.09.07-.04.04-.1.15-.2.32-.08.13-.14.2-.18.24l-.1.1a7.15 7.15 0 0 0-.11.3 1.56 1.56 0 0 0-.42.63l-.14.28c-.04.1-.11.2-.21.29l-.1.28z"/><path stroke="#555" stroke-width="4" d="M79 211h83M123 224h16M73 224h36" stroke-linecap="round" stroke-linejoin="round"/><path fill="#555" fill-opacity=".25" d="M112.51 59L101 98.51V61zM113 103l10.51 31.51 1-29.52z"/><path stroke="#555" stroke-width="2" d="M118 5v51.1M118 185v26.1" stroke-linecap="round" stroke-linejoin="round"/></g></svg>