<svg xmlns="http://www.w3.org/2000/svg" width="225" height="242"><g fill="none" fill-rule="evenodd"><rect width="21" height="211" x="109" y="4" stroke="#555" stroke-width="4" transform="rotate(-6 119.5 109.5)" rx="3"/><path fill="#FFF" d="M111 212h37v10h-37z"/><path fill="#FFF" stroke="#555" stroke-width="4" d="M19.45 32.23l176.67-21.7a5 5 0 0 1 5.57 4.36L206.5 54l.75 6.03 5.67 46.16a5 5 0 0 1-4.36 5.57l-176.67 21.7a5 5 0 0 1-5.57-4.36L15.09 37.8a5 5 0 0 1 4.36-5.57z"/><path stroke="#555" stroke-width="4" d="M158 103l52-6" stroke-linecap="round" stroke-linejoin="round"/><text fill="#555" transform="rotate(-6 111 71.5)" font-family="PermanentMarker-Regular, Permanent Marker" font-size="30"><tspan x="50.535" y="83">GRAPHS</tspan></text><circle cx="113.5" cy="71.5" r="39.5" stroke="#ED6058" stroke-width="6"/><path stroke="#ED6058" stroke-width="6" d="M86 44l55 55"/><path stroke="#555" stroke-width="4" d="M146 35l21-3M176 31l11-1.5M24 107l21-3M26 117l11-1.5M79 211h83M96 223h53M173 211h16M133 235h36M17 49l52-6" stroke-linecap="round" stroke-linejoin="round"/><path fill="#555" d="M111 126l2 16 21-3-2-18z" opacity=".25"/></g></svg>