<svg xmlns="http://www.w3.org/2000/svg" width="149" height="142"><g fill="#555" fill-rule="nonzero"><path d="M29.34 47.28l7.78-7.78a2 2 0 1 1 2.83 2.83l-7.78 7.77 6.36 6.37 5.66-5.66a2 2 0 1 1 2.83 2.83l-5.66 5.66 6.37 6.36 7.77-7.78a2 2 0 0 1 2.83 2.83l-7.78 7.78 6.37 6.36 5.66-5.65a2 2 0 0 1 2.82 2.83l-5.65 5.65 6.36 6.37 7.78-7.78a2 2 0 1 1 2.83 2.83l-7.78 7.77 6.36 6.37 5.66-5.66a2 2 0 1 1 2.83 2.83l-5.66 5.66 6.37 6.36 7.77-7.78a2 2 0 1 1 2.83 2.83l-7.78 7.78 6.37 6.36 4.95-4.95a2 2 0 1 1 2.83 2.83l-4.95 4.95 12.72 12.73L134 102.43 42.07 10.51 17.32 35.26l12.02 12.02zm77.78 83.43L13.8 37.38a3 3 0 0 1 0-4.25L39.95 6.97a3 3 0 0 1 4.24 0l93.34 93.34a3 3 0 0 1 0 4.24l-26.16 26.16a3 3 0 0 1-4.25 0z"/><path d="M46.31 116.57l23.34-23.33-20.51-20.5-23.33 23.33 20.5 20.5zm0 5.66L20.15 96.07 47.02 69.2a3 3 0 0 1 4.24 0l21.92 21.92a3 3 0 0 1 0 4.24l-26.87 26.87zM119.14 43.74l-20.5-20.5-6.37 6.36 20.51 20.5 6.36-6.36zm2.83-2.83l9.2-9.19-20.51-20.5-9.2 9.19 20.51 20.5zm-12.02 12.02l-20.5-20.5-9.9 9.9 20.5 20.5 9.9-9.9zM97.93 66.37L76.01 44.45a3 3 0 0 1 0-4.24l32.53-32.53a3 3 0 0 1 4.24 0L134.7 29.6a3 3 0 0 1 0 4.24l-32.53 32.53a3 3 0 0 1-4.24 0z"/><path d="M31.83 121.9l11.65-2.5-20.5-20.5-2.74 11.4 11.6 11.6zm-4.66 1l-8.02-8.03-2.46 10.26 10.48-2.24zm17.15.41l-26.8 5.74a4 4 0 0 1-4.72-4.85l6.29-26.24a4 4 0 0 1 6.72-1.9l20.5 20.51a4 4 0 0 1-1.99 6.74z"/></g></svg>