<svg xmlns="http://www.w3.org/2000/svg" width="225" height="242"><g fill="none" fill-rule="evenodd"><rect width="21" height="211" x="102" y="4" stroke="#555" stroke-width="4" rx="3"/><path fill="#FFF" d="M91 212h47v10H91z"/><path fill="#FFF" stroke="#555" stroke-width="4" d="M17.62 23h89.24a5 5 0 0 1 5 5v27a5 5 0 0 1-5 5H17.33a5 5 0 0 1-4.62-6.9l5.15-12.48-4.79-10.55A5 5 0 0 1 17.62 23zM208.24 67H119a5 5 0 0 0-5 5v27a5 5 0 0 0 5 5h89.53a5 5 0 0 0 4.62-6.9L208 84.61l4.8-10.55a5 5 0 0 0-4.56-7.07z"/><text fill="#555" font-family="PermanentMarker-Regular, Permanent Marker" font-size="19"><tspan x="25.886" y="48">Quality</tspan></text><text fill="#555" font-family="PermanentMarker-Regular, Permanent Marker" font-size="19"><tspan x="122.534" y="92">Quantity</tspan></text><path stroke="#555" stroke-width="4" d="M79 211h83M123 224h16M73 224h36" stroke-linecap="round" stroke-linejoin="round"/><path fill="#555" fill-opacity=".25" d="M112.51 59L101 98.51V61zM113 103l10.51 31.51 1-29.52z"/><path stroke="#555" stroke-width="2" d="M118 5v51.1M118 185v26.1" stroke-linecap="round" stroke-linejoin="round"/></g></svg>